<?xml version="1.0" encoding="UTF-8"?><svg id="Layer_1" xmlns="http://www.w3.org/2000/svg" viewBox="0 0 286.3 286.59"><defs><style>.cls-1{fill:#fb5163;}.cls-2{fill:#202642;}.cls-3{fill:#ffdee4;}.cls-4{fill:#fed8de;}</style></defs><path class="cls-1" d="M286.3,200.68c-1.04,2.04-1.86,4.22-3.15,6.09-3.5,5.1-8.5,7.8-14.67,7.84-15.18,.11-30.37,.02-45.56,.08-1.73,0-2.28-.52-2.19-2.22,.12-2.42,.16-4.85,0-7.26-.14-2.05,.69-2.46,2.57-2.45,14.16,.07,28.32,.04,42.48,.04,6.64,0,8.65-2.01,8.65-8.66,0-47.79,0-95.58,0-143.37,0-1.02-.06-2.05-.09-3.07,0-3.98,0-7.96,.01-11.95,.03-5.68,.16-11.36,.05-17.03-.09-4.4-2.39-6.59-6.77-6.85-.65-.04-1.3-.01-1.95-.01-57.81,0-115.62,0-173.43,0-.65,0-1.31-.03-1.95,.01-4.38,.27-6.68,2.45-6.77,6.85-.11,5.67,.02,11.35,.05,17.03-.2,3.98-.23,7.96,.01,11.95-.03,.93-.1,1.86-.1,2.79,0,47.96,0,95.92-.02,143.88,0,1.5,.08,3,.52,4.41,.83,2.64,3.33,4,7.25,4,14.25,.02,28.5,.07,42.75-.06,2.59-.02,3.44,.69,3.2,3.25-.21,2.21-.1,4.47-.03,6.7,.04,1.35-.27,2.01-1.83,2-15.55-.06-31.11,.15-46.66-.15-9.4-.18-16.48-7.68-17.02-17.09-.06-1.11-.04-2.23-.04-3.35,0-57.65,.06-115.29-.06-172.94-.02-10.07,3.49-17.32,13.49-20.59,.22-.07,.37-.37,.55-.56,62.05,0,124.1,0,186.16,0,2.39,1.34,5.11,1.92,7.38,3.61,3.75,2.8,5.51,6.8,7.16,10.93V200.68Z"/><path class="cls-4" d="M59.75,274.2c1.21,.05,2.41,.15,3.62,.15,25.52,0,51.05,.06,76.57-.06,2.78-.01,3.61,.78,3.28,3.42-.34,2.74,1.15,6.32-.6,8.05-1.61,1.59-5.14,.44-7.82,.44-26.27,.03-52.54-.02-78.8,.06-3.32,0-5.83-1.07-8.16-3.42-14.76-14.88-29.58-29.7-44.46-44.46-2.36-2.34-3.34-4.89-3.34-8.19C.09,160.23,.14,90.28,0,20.33-.02,11.14,4.37,3.24,13.24,.66,13.55,.57,13.78,.22,14.05,0c15.28,0,30.56,0,45.84,0-.04,3.07-.21,6.15-.07,9.21,.09,2.08-.53,2.7-2.65,2.69-12.2-.1-24.41-.05-36.62-.05-6.59,0-8.63,2.05-8.63,8.71,0,67.55,0,135.09,0,202.64,0,1.11,.1,2.23,.15,3.34-.1,1.53-.63,3.1,.75,4.41,2.67,2.54,5.3,5.13,7.94,7.7,8.76,9.14,17.72,18.09,26.86,26.86,2.18,2.25,4.46,4.41,6.5,6.79,1.57,1.83,3.34,2.47,5.61,1.9Z"/><path class="cls-2" d="M160.63,196.68c-.27-3.74-1.1-7.35-2.78-10.72-1.79-3.57-4.38-6.16-8.46-7.03-5.95-1.26-7.56-4.72-4.81-10.23,8.6-17.21,17.21-34.41,25.81-51.61,1-1.99,1.96-4.01,2.99-5.98,1.18-2.25,3.08-3.49,5.63-3.47,2.54,.02,4.44,1.27,5.58,3.55,9.73,19.44,19.48,38.88,29.14,58.36,2.04,4.11,.97,7.01-3.31,9.13-7.54,3.74-11.52,9.95-13.01,18.01-4.09,0-8.18,0-12.27,0,1.23-10.16,5.81-18.45,13.82-24.84,.85-.68,2.15-1.06,1.26-2.78-5.09-9.88-10.08-19.81-15.1-29.73-1.95-4.03-3.9-8.06-6.18-12.76-2.29,4.76-4.22,8.76-6.14,12.75-4.86,9.6-9.71,19.21-14.6,28.8-.51,1-.27,1.46,.63,1.96,1.8,1,3.38,2.29,4.82,3.77,6.16,6.37,8.17,14.38,9.08,22.83-4.03,0-8.07,0-12.1,0Z"/><path class="cls-2" d="M83.59,47.7c-.25-3.98-.22-7.96-.02-11.95,63.59,0,127.18,0,190.78,0,0,3.98,0,7.96-.01,11.95-23.65-.02-47.29-.04-70.94-.04-39.94,0-79.87,.03-119.81,.04Z"/><path class="cls-4" d="M160.63,196.68c4.03,0,8.07,0,12.1,0,4.14,0,8.27,0,12.41,0,4.09,0,8.18,0,12.27,0,1.76,.04,3.53,0,5.29,.12,3.62,.26,5.91,2.49,5.96,6.08,.1,7.81,.09,15.62,0,23.42-.04,3.64-1.54,5.13-5.81,6.32-4,0-8,0-12.01,0-7.92,0-15.84,0-23.76,0-4,0-8,0-12.01,0-4.7-1.31-5.84-2.78-5.85-7.68-.02-6.86-.02-13.71,0-20.57,.01-5.51,2.08-7.58,7.52-7.62,1.3,0,2.59-.06,3.89-.09Zm18.08,24.01c5.31,0,10.62-.06,15.93,.03,1.68,.03,2.33-.43,2.24-2.19-.13-2.6-.11-5.22,0-7.82,.06-1.53-.37-2.13-2.02-2.12-10.62,.06-21.24,.05-31.86,0-1.43,0-2.01,.4-1.95,1.9,.09,2.51,.15,5.04-.02,7.54-.14,2.04,.41,2.78,2.59,2.71,5.03-.17,10.06-.05,15.09-.05Z"/><path class="cls-2" d="M190.85,232.64c4,0,8,0,12.01,0,0,15.25,.02,30.51,.01,45.76,0,5.6-2.21,7.82-7.72,7.82-10.79,.01-21.58,.01-32.37,0-5.51,0-7.71-2.23-7.72-7.82-.01-15.25,0-30.51,.01-45.76,4,0,8,0,12.01,0,0,12.92,.06,25.84-.04,38.76-.02,2.22,.43,3.07,2.86,3,6.04-.18,12.08-.18,18.12,0,2.43,.07,2.88-.78,2.86-3-.1-12.92-.04-25.84-.04-38.76Z"/><path class="cls-2" d="M160.98,71.94c.03-1.95,.02-3.91,.1-5.86,.17-3.98,2.34-6.31,6.28-6.36,7.73-.1,15.47-.1,23.2,0,3.94,.05,6.11,2.38,6.28,6.36,.08,1.95,.07,3.91,.1,5.86,0,3.99,0,7.97,0,11.96-.03,1.58-.05,3.15-.1,4.73-.12,4.25-2.21,6.67-6.47,6.76-7.61,.17-15.23,.17-22.83,0-4.26-.09-6.35-2.51-6.47-6.76-.04-1.58-.06-3.15-.1-4.73,0-3.99,0-7.97,0-11.96Zm17.93,11.48q6.06,0,6.06-5.84,0-6.04-6.1-6.04-5.92,0-5.92,5.93t5.96,5.94Z"/><path class="cls-2" d="M119.76,125.12c1.58,.03,3.16,.05,4.74,.1,4.25,.12,6.66,2.22,6.76,6.49,.16,7.62,.17,15.25,0,22.87-.1,4.24-2.55,6.37-6.83,6.4-7.34,.05-14.69,.05-22.03,0-4.56-.03-6.81-2.3-6.84-6.92-.06-7.34-.06-14.69,0-22.03,.04-4.56,2.33-6.72,6.96-6.81,1.76-.03,3.53-.06,5.29-.09,3.99,0,7.97,0,11.96,0Zm-12.35,17.9q0,6.1,6.04,6.1,5.84,0,5.84-6.06t-5.94-5.96-5.93,5.92Z"/><path class="cls-2" d="M250.13,125.12c1.95,.03,3.9,.02,5.85,.1,3.97,.17,6.32,2.34,6.37,6.25,.1,7.81,.1,15.62,0,23.42-.05,3.65-2.31,5.98-5.97,6.04-7.9,.14-15.8,.14-23.7,0-3.66-.07-5.91-2.43-5.99-6.36-.16-7.62-.17-15.25,0-22.87,.09-4.27,2.5-6.37,6.76-6.49,1.58-.05,3.16-.06,4.74-.1,3.99,0,7.97,0,11.96,0Zm.39,18.19q0-6.22-5.92-6.22t-5.96,5.94,6.1,6.08q5.77,0,5.77-5.8Z"/><path class="cls-2" d="M59.75,274.2c-2.28,.57-4.04-.07-5.61-1.9-2.04-2.37-4.32-4.54-6.5-6.79,.03-6.88,.13-13.76,.06-20.64-.04-4-2.28-6.23-6.27-6.27-6.88-.08-13.76,.03-20.64,.06-2.64-2.57-5.27-5.16-7.94-7.7-1.38-1.31-.85-2.88-.75-4.41,9.39,0,18.77-.04,28.15,0,11.97,.05,19.46,7.54,19.51,19.51,.04,9.38,0,18.77,0,28.15Z"/><path class="cls-1" d="M119.76,125.12c-3.99,0-7.97,0-11.96,0,2.89-28.15,25.04-50.3,53.18-53.18,0,3.99,0,7.97,0,11.96-15.61,2.33-27.46,10.28-35.44,23.89-3.14,5.35-4.96,11.19-5.78,17.33Z"/><path class="cls-1" d="M250.13,125.12c-3.99,0-7.97,0-11.96,0-2.33-15.61-10.28-27.46-23.89-35.44-5.35-3.14-11.19-4.96-17.33-5.78,0-3.99,0-7.97,0-11.96,28.16,2.89,50.29,25.02,53.18,53.18Z"/><path class="cls-3" d="M185.12,139.33c-.04,10.14-.15,20.28-.07,30.41,.02,2.36-.44,3.44-3.03,3.15-2.02-.23-4.11-.23-6.13,0-2.6,.29-3.04-.8-3.02-3.15,.09-10.14-.03-20.27-.07-30.41,1.92-4,3.85-7.99,6.14-12.75,2.27,4.69,4.23,8.73,6.18,12.76Z"/></svg>