<?xml version="1.0" encoding="UTF-8"?><svg id="Layer_1" xmlns="http://www.w3.org/2000/svg" viewBox="0 0 1045.29 503.36"><defs><style>.cls-1{fill:#fff;}</style></defs><path class="cls-1" d="M129.55,251.66c0,3.18-3.24,5.76-7.23,5.76s-7.21-2.57-7.21-5.76,3.22-5.75,7.21-5.75,7.23,2.57,7.23,5.75Z"/><path class="cls-1" d="M148.62,251.85c0,3.17-3.23,5.76-7.22,5.76s-7.21-2.58-7.21-5.76,3.23-5.75,7.21-5.75,7.22,2.57,7.22,5.75Z"/><path class="cls-1" d="M167.7,251.86c0,3.18-3.24,5.76-7.22,5.76s-7.22-2.58-7.22-5.76,3.23-5.75,7.22-5.75,7.22,2.57,7.22,5.75Z"/><path class="cls-1" d="M186.78,251.69c0,3.18-3.24,5.76-7.23,5.76s-7.21-2.58-7.21-5.76,3.22-5.75,7.21-5.75,7.23,2.57,7.23,5.75Z"/><path class="cls-1" d="M205.85,251.7c0,3.18-3.23,5.76-7.22,5.76s-7.21-2.58-7.21-5.76,3.23-5.75,7.21-5.75,7.22,2.58,7.22,5.75Z"/><path class="cls-1" d="M396.64,251.79c0,3.18-3.23,5.75-7.22,5.75s-7.22-2.57-7.22-5.75,3.23-5.76,7.22-5.76,7.22,2.58,7.22,5.76Z"/><path class="cls-1" d="M415.72,251.65c0,3.18-3.24,5.76-7.22,5.76s-7.23-2.58-7.23-5.76,3.23-5.75,7.23-5.75,7.22,2.58,7.22,5.75Z"/><path class="cls-1" d="M434.79,251.66c0,3.18-3.23,5.75-7.22,5.75s-7.22-2.57-7.22-5.75,3.24-5.76,7.22-5.76,7.22,2.58,7.22,5.76Z"/><path class="cls-1" d="M453.88,251.83c0,3.18-3.23,5.75-7.23,5.75s-7.22-2.58-7.22-5.75,3.23-5.76,7.22-5.76,7.23,2.58,7.23,5.76Z"/><path class="cls-1" d="M472.95,251.83c0,3.18-3.23,5.76-7.22,5.76s-7.22-2.58-7.22-5.76,3.24-5.75,7.22-5.75,7.22,2.58,7.22,5.75Z"/><path class="cls-1" d="M492.03,251.68c0,3.18-3.23,5.76-7.23,5.76s-7.22-2.58-7.22-5.76,3.23-5.76,7.22-5.76,7.23,2.58,7.23,5.76Z"/><path class="cls-1" d="M511.11,251.68c0,3.18-3.23,5.76-7.22,5.76s-7.21-2.58-7.21-5.76,3.23-5.76,7.21-5.76,7.22,2.58,7.22,5.76Z"/><path class="cls-1" d="M530.19,251.73c0,3.19-3.24,5.76-7.22,5.76s-7.22-2.58-7.22-5.76,3.23-5.75,7.22-5.75,7.22,2.58,7.22,5.75Z"/><path class="cls-1" d="M549.26,251.74c0,3.18-3.23,5.76-7.22,5.76s-7.22-2.58-7.22-5.76,3.23-5.75,7.22-5.75,7.22,2.57,7.22,5.75Z"/><path class="cls-1" d="M568.34,251.63c0,3.18-3.23,5.76-7.22,5.76s-7.22-2.58-7.22-5.76,3.24-5.75,7.22-5.75,7.22,2.58,7.22,5.75Z"/><path class="cls-1" d="M587.42,251.62c0,3.18-3.24,5.76-7.23,5.76s-7.21-2.57-7.21-5.76,3.24-5.75,7.21-5.75,7.23,2.58,7.23,5.75Z"/><path class="cls-1" d="M606.5,251.99c0,3.18-3.23,5.76-7.21,5.76s-7.24-2.58-7.24-5.76,3.24-5.76,7.24-5.76,7.21,2.58,7.21,5.76Z"/><path class="cls-1" d="M625.57,251.99c0,3.18-3.23,5.77-7.21,5.77s-7.22-2.59-7.22-5.77,3.23-5.75,7.22-5.75,7.21,2.58,7.21,5.75Z"/><path class="cls-1" d="M644.65,251.89c0,3.18-3.23,5.75-7.22,5.75s-7.22-2.58-7.22-5.75,3.23-5.75,7.22-5.75,7.22,2.58,7.22,5.75Z"/><path class="cls-1" d="M854.51,251.92c0,3.18-3.23,5.76-7.22,5.76s-7.22-2.58-7.22-5.76,3.23-5.75,7.22-5.75,7.22,2.58,7.22,5.75Z"/><path class="cls-1" d="M129.55,268.06c0,3.18-3.24,5.76-7.23,5.76s-7.21-2.58-7.21-5.76,3.22-5.75,7.21-5.75,7.23,2.58,7.23,5.75Z"/><path class="cls-1" d="M148.62,268.24c0,3.18-3.23,5.76-7.22,5.76s-7.21-2.58-7.21-5.76,3.23-5.75,7.21-5.75,7.22,2.58,7.22,5.75Z"/><path class="cls-1" d="M167.7,268.25c0,3.18-3.24,5.75-7.22,5.75s-7.22-2.57-7.22-5.75,3.23-5.76,7.22-5.76,7.22,2.58,7.22,5.76Z"/><path class="cls-1" d="M186.78,268.08c0,3.18-3.24,5.76-7.23,5.76s-7.21-2.58-7.21-5.76,3.22-5.75,7.21-5.75,7.23,2.58,7.23,5.75Z"/><path class="cls-1" d="M205.85,268.08c0,3.19-3.23,5.76-7.22,5.76s-7.21-2.57-7.21-5.76,3.23-5.75,7.21-5.75,7.22,2.58,7.22,5.75Z"/><path class="cls-1" d="M224.93,268.15c0,3.18-3.23,5.75-7.22,5.75s-7.21-2.58-7.21-5.75,3.23-5.76,7.21-5.76,7.22,2.58,7.22,5.76Z"/><path class="cls-1" d="M434.79,268.05c0,3.19-3.23,5.76-7.22,5.76s-7.22-2.57-7.22-5.76,3.24-5.76,7.22-5.76,7.22,2.58,7.22,5.76Z"/><path class="cls-1" d="M492.03,268.07c0,3.18-3.23,5.76-7.23,5.76s-7.22-2.58-7.22-5.76,3.23-5.75,7.22-5.75,7.23,2.58,7.23,5.75Z"/><path class="cls-1" d="M511.11,268.08c0,3.18-3.23,5.76-7.22,5.76s-7.21-2.58-7.21-5.76,3.23-5.75,7.21-5.75,7.22,2.58,7.22,5.75Z"/><path class="cls-1" d="M530.19,268.12c0,3.18-3.24,5.76-7.22,5.76s-7.22-2.57-7.22-5.76,3.23-5.76,7.22-5.76,7.22,2.59,7.22,5.76Z"/><path class="cls-1" d="M549.26,268.13c0,3.18-3.23,5.75-7.22,5.75s-7.22-2.57-7.22-5.75,3.23-5.75,7.22-5.75,7.22,2.57,7.22,5.75Z"/><path class="cls-1" d="M568.34,268.03c0,3.18-3.23,5.76-7.22,5.76s-7.22-2.57-7.22-5.76,3.24-5.76,7.22-5.76,7.22,2.58,7.22,5.76Z"/><path class="cls-1" d="M587.42,268.03c0,3.18-3.24,5.75-7.23,5.75s-7.21-2.58-7.21-5.75,3.24-5.76,7.21-5.76,7.23,2.58,7.23,5.76Z"/><path class="cls-1" d="M606.5,268.38c0,3.18-3.23,5.76-7.21,5.76s-7.24-2.58-7.24-5.76,3.24-5.76,7.24-5.76,7.21,2.58,7.21,5.76Z"/><path class="cls-1" d="M625.57,268.39c0,3.18-3.23,5.76-7.21,5.76s-7.22-2.58-7.22-5.76,3.23-5.76,7.22-5.76,7.21,2.59,7.21,5.76Z"/><path class="cls-1" d="M644.65,268.28c0,3.18-3.23,5.76-7.22,5.76s-7.22-2.58-7.22-5.76,3.23-5.75,7.22-5.75,7.22,2.58,7.22,5.75Z"/><path class="cls-1" d="M854.51,268.31c0,3.18-3.23,5.76-7.22,5.76s-7.22-2.58-7.22-5.76,3.23-5.75,7.22-5.75,7.22,2.58,7.22,5.75Z"/><path class="cls-1" d="M873.58,268.14c0,3.18-3.23,5.76-7.22,5.76s-7.22-2.58-7.22-5.76,3.24-5.75,7.22-5.75,7.22,2.57,7.22,5.75Z"/><path class="cls-1" d="M911.74,268.37c0,3.17-3.24,5.76-7.21,5.76s-7.22-2.59-7.22-5.76,3.23-5.76,7.22-5.76,7.21,2.58,7.21,5.76Z"/><path class="cls-1" d="M129.55,284.45c0,3.17-3.24,5.75-7.23,5.75s-7.21-2.58-7.21-5.75,3.22-5.76,7.21-5.76,7.23,2.58,7.23,5.76Z"/><path class="cls-1" d="M148.62,284.63c0,3.18-3.23,5.76-7.22,5.76s-7.21-2.58-7.21-5.76,3.23-5.75,7.21-5.75,7.22,2.57,7.22,5.75Z"/><path class="cls-1" d="M167.7,284.63c0,3.19-3.24,5.76-7.22,5.76s-7.22-2.57-7.22-5.76,3.23-5.75,7.22-5.75,7.22,2.57,7.22,5.75Z"/><path class="cls-1" d="M186.78,284.47c0,3.18-3.24,5.76-7.23,5.76s-7.21-2.58-7.21-5.76,3.22-5.75,7.21-5.75,7.23,2.58,7.23,5.75Z"/><path class="cls-1" d="M205.85,284.47c0,3.18-3.23,5.76-7.22,5.76s-7.21-2.58-7.21-5.76,3.23-5.76,7.21-5.76,7.22,2.58,7.22,5.76Z"/><path class="cls-1" d="M224.93,284.54c0,3.17-3.23,5.76-7.22,5.76s-7.21-2.58-7.21-5.76,3.23-5.75,7.21-5.75,7.22,2.58,7.22,5.75Z"/><path class="cls-1" d="M492.03,284.46c0,3.19-3.23,5.75-7.23,5.75s-7.22-2.57-7.22-5.75,3.23-5.75,7.22-5.75,7.23,2.58,7.23,5.75Z"/><path class="cls-1" d="M511.11,284.46c0,3.19-3.23,5.76-7.22,5.76s-7.21-2.58-7.21-5.76,3.23-5.75,7.21-5.75,7.22,2.58,7.22,5.75Z"/><path class="cls-1" d="M530.19,284.51c0,3.18-3.24,5.76-7.22,5.76s-7.22-2.58-7.22-5.76,3.23-5.75,7.22-5.75,7.22,2.57,7.22,5.75Z"/><path class="cls-1" d="M549.26,284.52c0,3.18-3.23,5.76-7.22,5.76s-7.22-2.57-7.22-5.76,3.23-5.75,7.22-5.75,7.22,2.58,7.22,5.75Z"/><path class="cls-1" d="M568.34,284.41c0,3.17-3.23,5.76-7.22,5.76s-7.22-2.58-7.22-5.76,3.24-5.75,7.22-5.75,7.22,2.58,7.22,5.75Z"/><path class="cls-1" d="M587.42,284.41c0,3.18-3.24,5.76-7.23,5.76s-7.21-2.58-7.21-5.76,3.24-5.75,7.21-5.75,7.23,2.58,7.23,5.75Z"/><path class="cls-1" d="M606.5,284.77c0,3.18-3.23,5.76-7.21,5.76s-7.24-2.58-7.24-5.76,3.24-5.75,7.24-5.75,7.21,2.58,7.21,5.75Z"/><path class="cls-1" d="M625.57,284.77c0,3.18-3.23,5.76-7.21,5.76s-7.22-2.58-7.22-5.76,3.23-5.75,7.22-5.75,7.21,2.58,7.21,5.75Z"/><path class="cls-1" d="M873.58,284.53c0,3.18-3.23,5.75-7.22,5.75s-7.22-2.58-7.22-5.75,3.24-5.76,7.22-5.76,7.22,2.59,7.22,5.76Z"/><path class="cls-1" d="M911.74,284.76c0,3.18-3.24,5.76-7.21,5.76s-7.22-2.58-7.22-5.76,3.23-5.75,7.22-5.75,7.21,2.57,7.21,5.75Z"/><path class="cls-1" d="M988.06,284.71c0,3.18-3.23,5.76-7.23,5.76s-7.22-2.58-7.22-5.76,3.24-5.75,7.22-5.75,7.23,2.58,7.23,5.75Z"/><path class="cls-1" d="M129.55,300.84c0,3.18-3.24,5.76-7.22,5.76s-7.22-2.58-7.22-5.76,3.23-5.75,7.22-5.75,7.22,2.57,7.22,5.75Z"/><path class="cls-1" d="M148.62,301.02c0,3.18-3.24,5.75-7.23,5.75s-7.21-2.58-7.21-5.75,3.23-5.76,7.21-5.76,7.23,2.57,7.23,5.76Z"/><path class="cls-1" d="M167.7,301.03c0,3.17-3.23,5.75-7.21,5.75s-7.23-2.58-7.23-5.75,3.24-5.75,7.23-5.75,7.21,2.58,7.21,5.75Z"/><path class="cls-1" d="M186.78,300.85c0,3.18-3.24,5.76-7.22,5.76s-7.22-2.58-7.22-5.76,3.23-5.75,7.22-5.75,7.22,2.58,7.22,5.75Z"/><path class="cls-1" d="M205.85,300.86c0,3.18-3.22,5.77-7.21,5.77s-7.22-2.59-7.22-5.77,3.23-5.75,7.22-5.75,7.21,2.58,7.21,5.75Z"/><path class="cls-1" d="M224.93,300.93c0,3.18-3.23,5.76-7.22,5.76s-7.22-2.58-7.22-5.76,3.23-5.75,7.22-5.75,7.22,2.58,7.22,5.75Z"/><path class="cls-1" d="M244.01,300.93c0,3.17-3.22,5.76-7.21,5.76s-7.22-2.59-7.22-5.76,3.23-5.75,7.22-5.75,7.21,2.58,7.21,5.75Z"/><path class="cls-1" d="M263.09,300.81c0,3.19-3.23,5.76-7.21,5.76s-7.23-2.57-7.23-5.76,3.24-5.75,7.23-5.75,7.21,2.58,7.21,5.75Z"/><path class="cls-1" d="M282.17,300.81c0,3.19-3.22,5.76-7.21,5.76s-7.23-2.57-7.23-5.76,3.25-5.75,7.23-5.75,7.21,2.58,7.21,5.75Z"/><path class="cls-1" d="M511.11,300.85c0,3.18-3.23,5.76-7.22,5.76s-7.22-2.58-7.22-5.76,3.23-5.75,7.22-5.75,7.22,2.58,7.22,5.75Z"/><path class="cls-1" d="M530.19,300.91c0,3.18-3.24,5.75-7.22,5.75s-7.22-2.57-7.22-5.75,3.23-5.76,7.22-5.76,7.22,2.58,7.22,5.76Z"/><path class="cls-1" d="M549.26,300.91c0,3.18-3.24,5.76-7.22,5.76s-7.22-2.58-7.22-5.76,3.23-5.75,7.22-5.75,7.22,2.58,7.22,5.75Z"/><path class="cls-1" d="M568.34,300.8c0,3.18-3.23,5.76-7.22,5.76s-7.22-2.58-7.22-5.76,3.24-5.75,7.22-5.75,7.22,2.58,7.22,5.75Z"/><path class="cls-1" d="M587.42,300.79c0,3.19-3.23,5.76-7.23,5.76s-7.21-2.58-7.21-5.76,3.23-5.75,7.21-5.75,7.23,2.57,7.23,5.75Z"/><path class="cls-1" d="M606.5,301.16c0,3.18-3.24,5.76-7.22,5.76s-7.24-2.58-7.24-5.76,3.24-5.75,7.24-5.75,7.22,2.58,7.22,5.75Z"/><path class="cls-1" d="M873.58,300.91c0,3.18-3.23,5.76-7.22,5.76s-7.22-2.58-7.22-5.76,3.24-5.75,7.22-5.75,7.22,2.58,7.22,5.75Z"/><path class="cls-1" d="M911.75,301.15c0,3.18-3.24,5.75-7.22,5.75s-7.22-2.58-7.22-5.75,3.23-5.76,7.22-5.76,7.22,2.58,7.22,5.76Z"/><path class="cls-1" d="M1007.13,301.11c0,3.18-3.24,5.76-7.21,5.76s-7.22-2.58-7.22-5.76,3.22-5.75,7.22-5.75,7.21,2.58,7.21,5.75Z"/><path class="cls-1" d="M1026.22,300.94c0,3.18-3.24,5.76-7.22,5.76s-7.22-2.58-7.22-5.76,3.23-5.75,7.22-5.75,7.22,2.58,7.22,5.75Z"/><path class="cls-1" d="M129.55,317.23c0,3.17-3.24,5.75-7.23,5.75s-7.21-2.58-7.21-5.75,3.22-5.75,7.21-5.75,7.23,2.58,7.23,5.75Z"/><path class="cls-1" d="M148.62,317.41c0,3.18-3.23,5.75-7.22,5.75s-7.21-2.57-7.21-5.75,3.23-5.76,7.21-5.76,7.22,2.58,7.22,5.76Z"/><path class="cls-1" d="M167.7,317.41c0,3.18-3.24,5.76-7.22,5.76s-7.22-2.58-7.22-5.76,3.23-5.75,7.22-5.75,7.22,2.58,7.22,5.75Z"/><path class="cls-1" d="M186.78,317.25c0,3.18-3.24,5.75-7.23,5.75s-7.21-2.57-7.21-5.75,3.22-5.76,7.21-5.76,7.23,2.59,7.23,5.76Z"/><path class="cls-1" d="M205.85,317.26c0,3.17-3.23,5.75-7.22,5.75s-7.21-2.58-7.21-5.75,3.23-5.75,7.21-5.75,7.22,2.57,7.22,5.75Z"/><path class="cls-1" d="M224.93,317.32c0,3.17-3.23,5.76-7.22,5.76s-7.21-2.59-7.21-5.76,3.23-5.75,7.21-5.75,7.22,2.57,7.22,5.75Z"/><path class="cls-1" d="M244.01,317.32c0,3.18-3.22,5.76-7.22,5.76s-7.21-2.58-7.21-5.76,3.23-5.75,7.21-5.75,7.22,2.57,7.22,5.75Z"/><path class="cls-1" d="M263.09,317.2c0,3.18-3.23,5.76-7.22,5.76s-7.22-2.58-7.22-5.76,3.23-5.75,7.22-5.75,7.22,2.57,7.22,5.75Z"/><path class="cls-1" d="M282.17,317.2c0,3.18-3.23,5.76-7.22,5.76s-7.22-2.57-7.22-5.76,3.24-5.75,7.22-5.75,7.22,2.58,7.22,5.75Z"/><path class="cls-1" d="M301.25,317.43c0,3.18-3.23,5.76-7.22,5.76s-7.22-2.58-7.22-5.76,3.23-5.76,7.22-5.76,7.22,2.58,7.22,5.76Z"/><path class="cls-1" d="M511.11,317.24c0,3.18-3.23,5.76-7.22,5.76s-7.21-2.58-7.21-5.76,3.23-5.75,7.21-5.75,7.22,2.58,7.22,5.75Z"/><path class="cls-1" d="M530.19,317.29c0,3.18-3.24,5.76-7.22,5.76s-7.22-2.58-7.22-5.76,3.23-5.75,7.22-5.75,7.22,2.58,7.22,5.75Z"/><path class="cls-1" d="M549.26,317.29c0,3.19-3.23,5.76-7.22,5.76s-7.22-2.57-7.22-5.76,3.23-5.75,7.22-5.75,7.22,2.58,7.22,5.75Z"/><path class="cls-1" d="M568.34,317.19c0,3.18-3.23,5.76-7.22,5.76s-7.22-2.58-7.22-5.76,3.24-5.75,7.22-5.75,7.22,2.57,7.22,5.75Z"/><path class="cls-1" d="M587.42,317.19c0,3.18-3.24,5.76-7.23,5.76s-7.21-2.58-7.21-5.76,3.24-5.75,7.21-5.75,7.23,2.57,7.23,5.75Z"/><path class="cls-1" d="M606.5,317.55c0,3.18-3.23,5.76-7.21,5.76s-7.24-2.58-7.24-5.76,3.24-5.75,7.24-5.75,7.21,2.58,7.21,5.75Z"/><path class="cls-1" d="M1026.2,317.32c0,3.18-3.22,5.76-7.21,5.76s-7.22-2.58-7.22-5.76,3.23-5.75,7.22-5.75,7.21,2.57,7.21,5.75Z"/><path class="cls-1" d="M1045.29,317.33c0,3.18-3.23,5.76-7.22,5.76s-7.22-2.57-7.22-5.76,3.23-5.76,7.22-5.76,7.22,2.59,7.22,5.76Z"/><path class="cls-1" d="M129.55,333.62c0,3.17-3.24,5.75-7.22,5.75s-7.22-2.58-7.22-5.75,3.23-5.76,7.22-5.76,7.22,2.58,7.22,5.76Z"/><path class="cls-1" d="M148.62,333.81c0,3.17-3.24,5.75-7.23,5.75s-7.21-2.58-7.21-5.75,3.23-5.75,7.21-5.75,7.23,2.57,7.23,5.75Z"/><path class="cls-1" d="M167.7,333.81c0,3.17-3.23,5.75-7.21,5.75s-7.23-2.58-7.23-5.75,3.24-5.75,7.23-5.75,7.21,2.57,7.21,5.75Z"/><path class="cls-1" d="M186.78,333.64c0,3.18-3.24,5.76-7.22,5.76s-7.22-2.58-7.22-5.76,3.23-5.75,7.22-5.75,7.22,2.58,7.22,5.75Z"/><path class="cls-1" d="M205.85,333.64c0,3.18-3.22,5.76-7.21,5.76s-7.22-2.58-7.22-5.76,3.23-5.76,7.22-5.76,7.21,2.58,7.21,5.76Z"/><path class="cls-1" d="M224.93,333.7c0,3.19-3.23,5.76-7.22,5.76s-7.22-2.58-7.22-5.76,3.23-5.75,7.22-5.75,7.22,2.58,7.22,5.75Z"/><path class="cls-1" d="M244.01,333.72c0,3.17-3.22,5.76-7.21,5.76s-7.22-2.59-7.22-5.76,3.23-5.75,7.22-5.75,7.21,2.58,7.21,5.75Z"/><path class="cls-1" d="M263.09,333.59c0,3.18-3.23,5.75-7.21,5.75s-7.23-2.58-7.23-5.75,3.24-5.75,7.23-5.75,7.21,2.58,7.21,5.75Z"/><path class="cls-1" d="M282.17,333.6c0,3.18-3.22,5.75-7.21,5.75s-7.23-2.58-7.23-5.75,3.25-5.76,7.23-5.76,7.21,2.58,7.21,5.76Z"/><path class="cls-1" d="M511.11,333.63c0,3.18-3.23,5.76-7.22,5.76s-7.22-2.58-7.22-5.76,3.23-5.75,7.22-5.75,7.22,2.58,7.22,5.75Z"/><path class="cls-1" d="M530.19,333.69c0,3.17-3.24,5.75-7.22,5.75s-7.22-2.58-7.22-5.75,3.23-5.76,7.22-5.76,7.22,2.57,7.22,5.76Z"/><path class="cls-1" d="M549.26,333.69c0,3.17-3.24,5.76-7.22,5.76s-7.22-2.58-7.22-5.76,3.23-5.75,7.22-5.75,7.22,2.58,7.22,5.75Z"/><path class="cls-1" d="M568.34,333.58c0,3.18-3.23,5.76-7.22,5.76s-7.22-2.58-7.22-5.76,3.24-5.75,7.22-5.75,7.22,2.58,7.22,5.75Z"/><path class="cls-1" d="M587.42,333.57c0,3.19-3.23,5.76-7.23,5.76s-7.21-2.58-7.21-5.76,3.23-5.75,7.21-5.75,7.23,2.58,7.23,5.75Z"/><path class="cls-1" d="M606.5,333.94c0,3.18-3.24,5.76-7.22,5.76s-7.24-2.58-7.24-5.76,3.24-5.75,7.24-5.75,7.22,2.58,7.22,5.75Z"/><path class="cls-1" d="M644.65,333.83c0,3.19-3.23,5.77-7.22,5.77s-7.22-2.58-7.22-5.77,3.23-5.74,7.22-5.74,7.22,2.57,7.22,5.74Z"/><path class="cls-1" d="M988.06,333.88c0,3.18-3.23,5.76-7.23,5.76s-7.22-2.58-7.22-5.76,3.24-5.75,7.22-5.75,7.23,2.58,7.23,5.75Z"/><path class="cls-1" d="M148.62,350.18c0,3.18-3.24,5.75-7.23,5.75s-7.21-2.57-7.21-5.75,3.23-5.75,7.21-5.75,7.23,2.58,7.23,5.75Z"/><path class="cls-1" d="M167.7,350.19c0,3.18-3.23,5.76-7.21,5.76s-7.23-2.58-7.23-5.76,3.24-5.76,7.23-5.76,7.21,2.58,7.21,5.76Z"/><path class="cls-1" d="M186.78,350.02c0,3.18-3.24,5.76-7.22,5.76s-7.22-2.58-7.22-5.76,3.23-5.75,7.22-5.75,7.22,2.58,7.22,5.75Z"/><path class="cls-1" d="M205.85,350.03c0,3.18-3.22,5.75-7.21,5.75s-7.22-2.58-7.22-5.75,3.23-5.75,7.22-5.75,7.21,2.57,7.21,5.75Z"/><path class="cls-1" d="M224.93,350.1c0,3.18-3.23,5.75-7.22,5.75s-7.22-2.58-7.22-5.75,3.23-5.75,7.22-5.75,7.22,2.57,7.22,5.75Z"/><path class="cls-1" d="M244.01,350.1c0,3.18-3.22,5.76-7.21,5.76s-7.22-2.58-7.22-5.76,3.23-5.75,7.22-5.75,7.21,2.58,7.21,5.75Z"/><path class="cls-1" d="M263.09,349.98c0,3.19-3.23,5.76-7.21,5.76s-7.23-2.57-7.23-5.76,3.24-5.75,7.23-5.75,7.21,2.57,7.21,5.75Z"/><path class="cls-1" d="M282.17,349.98c0,3.18-3.22,5.76-7.21,5.76s-7.23-2.58-7.23-5.76,3.25-5.75,7.23-5.75,7.21,2.58,7.21,5.75Z"/><path class="cls-1" d="M511.11,350.01c0,3.18-3.23,5.77-7.22,5.77s-7.22-2.58-7.22-5.77,3.23-5.75,7.22-5.75,7.22,2.58,7.22,5.75Z"/><path class="cls-1" d="M530.19,350.07c0,3.18-3.24,5.76-7.22,5.76s-7.22-2.58-7.22-5.76,3.23-5.75,7.22-5.75,7.22,2.58,7.22,5.75Z"/><path class="cls-1" d="M549.26,350.08c0,3.18-3.24,5.76-7.22,5.76s-7.22-2.58-7.22-5.76,3.23-5.75,7.22-5.75,7.22,2.58,7.22,5.75Z"/><path class="cls-1" d="M568.34,349.97c0,3.18-3.23,5.76-7.22,5.76s-7.22-2.58-7.22-5.76,3.24-5.76,7.22-5.76,7.22,2.58,7.22,5.76Z"/><path class="cls-1" d="M587.42,349.97c0,3.18-3.23,5.76-7.23,5.76s-7.21-2.59-7.21-5.76,3.23-5.75,7.21-5.75,7.23,2.57,7.23,5.75Z"/><path class="cls-1" d="M606.5,350.33c0,3.17-3.24,5.76-7.22,5.76s-7.24-2.59-7.24-5.76,3.24-5.75,7.24-5.75,7.22,2.57,7.22,5.75Z"/><path class="cls-1" d="M644.65,350.22c0,3.18-3.23,5.76-7.22,5.76s-7.22-2.58-7.22-5.76,3.23-5.75,7.22-5.75,7.22,2.58,7.22,5.75Z"/><path class="cls-1" d="M949.9,350.2c0,3.18-3.23,5.76-7.22,5.76s-7.22-2.58-7.22-5.76,3.23-5.75,7.22-5.75,7.22,2.58,7.22,5.75Z"/><path class="cls-1" d="M968.98,350.21c0,3.17-3.23,5.75-7.22,5.75s-7.21-2.58-7.21-5.75,3.22-5.76,7.21-5.76,7.22,2.58,7.22,5.76Z"/><path class="cls-1" d="M988.06,350.27c0,3.17-3.23,5.75-7.23,5.75s-7.22-2.58-7.22-5.75,3.24-5.75,7.22-5.75,7.23,2.58,7.23,5.75Z"/><path class="cls-1" d="M1007.13,350.28c0,3.18-3.24,5.75-7.21,5.75s-7.22-2.58-7.22-5.75,3.22-5.75,7.22-5.75,7.21,2.58,7.21,5.75Z"/><path class="cls-1" d="M167.69,366.59c0,3.17-3.23,5.76-7.21,5.76s-7.22-2.58-7.22-5.76,3.23-5.75,7.22-5.75,7.21,2.58,7.21,5.75Z"/><path class="cls-1" d="M186.77,366.42c0,3.18-3.23,5.75-7.22,5.75s-7.22-2.58-7.22-5.75,3.23-5.76,7.22-5.76,7.22,2.59,7.22,5.76Z"/><path class="cls-1" d="M205.85,366.42c0,3.19-3.23,5.76-7.22,5.76s-7.21-2.58-7.21-5.76,3.22-5.75,7.21-5.75,7.22,2.58,7.22,5.75Z"/><path class="cls-1" d="M224.93,366.48c0,3.18-3.23,5.76-7.22,5.76s-7.21-2.59-7.21-5.76,3.23-5.76,7.21-5.76,7.22,2.58,7.22,5.76Z"/><path class="cls-1" d="M244.01,366.49c0,3.18-3.24,5.75-7.22,5.75s-7.21-2.58-7.21-5.75,3.23-5.76,7.21-5.76,7.22,2.58,7.22,5.76Z"/><path class="cls-1" d="M263.09,366.37c0,3.17-3.24,5.75-7.23,5.75s-7.21-2.58-7.21-5.75,3.23-5.76,7.21-5.76,7.23,2.58,7.23,5.76Z"/><path class="cls-1" d="M282.16,366.38c0,3.18-3.23,5.75-7.21,5.75s-7.22-2.57-7.22-5.75,3.23-5.75,7.22-5.75,7.21,2.58,7.21,5.75Z"/><path class="cls-1" d="M511.11,366.41c0,3.19-3.23,5.76-7.22,5.76s-7.22-2.58-7.22-5.76,3.23-5.75,7.22-5.75,7.22,2.59,7.22,5.75Z"/><path class="cls-1" d="M530.19,366.46c0,3.18-3.24,5.76-7.22,5.76s-7.22-2.59-7.22-5.76,3.23-5.76,7.22-5.76,7.22,2.58,7.22,5.76Z"/><path class="cls-1" d="M549.26,366.47c0,3.18-3.23,5.76-7.23,5.76s-7.21-2.58-7.21-5.76,3.23-5.75,7.21-5.75,7.23,2.58,7.23,5.75Z"/><path class="cls-1" d="M568.34,366.36c0,3.18-3.23,5.76-7.22,5.76s-7.22-2.58-7.22-5.76,3.23-5.75,7.22-5.75,7.22,2.58,7.22,5.75Z"/><path class="cls-1" d="M587.41,366.36c0,3.18-3.24,5.75-7.22,5.75s-7.21-2.57-7.21-5.75,3.23-5.76,7.21-5.76,7.22,2.58,7.22,5.76Z"/><path class="cls-1" d="M625.57,366.72c0,3.18-3.23,5.76-7.22,5.76s-7.22-2.58-7.22-5.76,3.24-5.75,7.22-5.75,7.22,2.58,7.22,5.75Z"/><path class="cls-1" d="M644.65,366.61c0,3.19-3.23,5.76-7.22,5.76s-7.22-2.57-7.22-5.76,3.23-5.75,7.22-5.75,7.22,2.58,7.22,5.75Z"/><path class="cls-1" d="M930.82,366.71c0,3.18-3.24,5.76-7.22,5.76s-7.22-2.58-7.22-5.76,3.23-5.75,7.22-5.75,7.22,2.58,7.22,5.75Z"/><path class="cls-1" d="M949.89,366.59c0,3.18-3.22,5.76-7.22,5.76s-7.22-2.58-7.22-5.76,3.23-5.75,7.22-5.75,7.22,2.58,7.22,5.75Z"/><path class="cls-1" d="M968.98,366.6c0,3.18-3.23,5.76-7.22,5.76s-7.22-2.58-7.22-5.76,3.23-5.75,7.22-5.75,7.22,2.58,7.22,5.75Z"/><path class="cls-1" d="M988.05,366.66c0,3.18-3.22,5.76-7.22,5.76s-7.22-2.59-7.22-5.76,3.22-5.76,7.22-5.76,7.22,2.58,7.22,5.76Z"/><path class="cls-1" d="M1007.13,366.67c0,3.18-3.24,5.76-7.22,5.76s-7.22-2.58-7.22-5.76,3.23-5.76,7.22-5.76,7.22,2.58,7.22,5.76Z"/><path class="cls-1" d="M186.78,382.8c0,3.19-3.24,5.76-7.22,5.76s-7.22-2.57-7.22-5.76,3.23-5.75,7.22-5.75,7.22,2.58,7.22,5.75Z"/><path class="cls-1" d="M205.85,382.8c0,3.19-3.22,5.76-7.21,5.76s-7.22-2.57-7.22-5.76,3.23-5.74,7.22-5.74,7.21,2.57,7.21,5.74Z"/><path class="cls-1" d="M224.93,382.87c0,3.18-3.23,5.76-7.22,5.76s-7.22-2.58-7.22-5.76,3.23-5.75,7.22-5.75,7.22,2.58,7.22,5.75Z"/><path class="cls-1" d="M244.01,382.88c0,3.18-3.22,5.76-7.21,5.76s-7.22-2.58-7.22-5.76,3.23-5.76,7.22-5.76,7.21,2.59,7.21,5.76Z"/><path class="cls-1" d="M263.09,382.76c0,3.17-3.23,5.75-7.21,5.75s-7.23-2.58-7.23-5.75,3.24-5.76,7.23-5.76,7.21,2.58,7.21,5.76Z"/><path class="cls-1" d="M511.11,382.79c0,3.18-3.23,5.76-7.22,5.76s-7.22-2.58-7.22-5.76,3.23-5.75,7.22-5.75,7.22,2.58,7.22,5.75Z"/><path class="cls-1" d="M530.19,382.85c0,3.18-3.24,5.76-7.22,5.76s-7.22-2.58-7.22-5.76,3.23-5.76,7.22-5.76,7.22,2.58,7.22,5.76Z"/><path class="cls-1" d="M549.26,382.85c0,3.17-3.24,5.76-7.22,5.76s-7.22-2.59-7.22-5.76,3.23-5.76,7.22-5.76,7.22,2.59,7.22,5.76Z"/><path class="cls-1" d="M568.34,382.75c0,3.18-3.23,5.76-7.22,5.76s-7.22-2.58-7.22-5.76,3.24-5.76,7.22-5.76,7.22,2.58,7.22,5.76Z"/><path class="cls-1" d="M587.42,382.74c0,3.19-3.23,5.76-7.23,5.76s-7.21-2.58-7.21-5.76,3.23-5.75,7.21-5.75,7.23,2.58,7.23,5.75Z"/><path class="cls-1" d="M625.58,383.11c0,3.18-3.24,5.75-7.22,5.75s-7.22-2.58-7.22-5.75,3.23-5.75,7.22-5.75,7.22,2.57,7.22,5.75Z"/><path class="cls-1" d="M892.67,382.86c0,3.19-3.23,5.76-7.21,5.76s-7.23-2.57-7.23-5.76,3.24-5.75,7.23-5.75,7.21,2.58,7.21,5.75Z"/><path class="cls-1" d="M911.75,383.09c0,3.18-3.24,5.75-7.22,5.75s-7.22-2.58-7.22-5.75,3.23-5.75,7.22-5.75,7.22,2.58,7.22,5.75Z"/><path class="cls-1" d="M930.83,383.11c0,3.17-3.24,5.76-7.22,5.76s-7.22-2.59-7.22-5.76,3.23-5.75,7.22-5.75,7.22,2.57,7.22,5.75Z"/><path class="cls-1" d="M949.9,382.98c0,3.18-3.23,5.76-7.22,5.76s-7.22-2.58-7.22-5.76,3.23-5.75,7.22-5.75,7.22,2.58,7.22,5.75Z"/><path class="cls-1" d="M968.98,382.98c0,3.18-3.24,5.77-7.22,5.77s-7.21-2.58-7.21-5.77,3.22-5.75,7.21-5.75,7.22,2.57,7.22,5.75Z"/><path class="cls-1" d="M988.06,383.05c0,3.18-3.23,5.76-7.23,5.76s-7.22-2.58-7.22-5.76,3.24-5.75,7.22-5.75,7.23,2.58,7.23,5.75Z"/><path class="cls-1" d="M1007.14,383.05c0,3.18-3.24,5.76-7.22,5.76s-7.22-2.58-7.22-5.76,3.23-5.75,7.22-5.75,7.22,2.58,7.22,5.75Z"/><path class="cls-1" d="M186.77,399.19c0,3.18-3.23,5.75-7.22,5.75s-7.22-2.57-7.22-5.75,3.23-5.75,7.22-5.75,7.22,2.57,7.22,5.75Z"/><path class="cls-1" d="M205.85,399.2c0,3.18-3.23,5.76-7.22,5.76s-7.21-2.58-7.21-5.76,3.22-5.75,7.21-5.75,7.22,2.58,7.22,5.75Z"/><path class="cls-1" d="M224.93,399.26c0,3.19-3.23,5.76-7.22,5.76s-7.21-2.58-7.21-5.76,3.23-5.76,7.21-5.76,7.22,2.58,7.22,5.76Z"/><path class="cls-1" d="M244.01,399.28c0,3.17-3.24,5.75-7.22,5.75s-7.21-2.58-7.21-5.75,3.23-5.75,7.21-5.75,7.22,2.58,7.22,5.75Z"/><path class="cls-1" d="M511.11,399.19c0,3.18-3.23,5.76-7.22,5.76s-7.22-2.59-7.22-5.76,3.23-5.76,7.22-5.76,7.22,2.58,7.22,5.76Z"/><path class="cls-1" d="M530.19,399.24c0,3.17-3.24,5.75-7.22,5.75s-7.22-2.58-7.22-5.75,3.23-5.76,7.22-5.76,7.22,2.58,7.22,5.76Z"/><path class="cls-1" d="M549.26,399.25c0,3.18-3.23,5.76-7.23,5.76s-7.21-2.58-7.21-5.76,3.23-5.75,7.21-5.75,7.23,2.58,7.23,5.75Z"/><path class="cls-1" d="M568.34,399.15c0,3.17-3.23,5.75-7.22,5.75s-7.22-2.58-7.22-5.75,3.23-5.76,7.22-5.76,7.22,2.58,7.22,5.76Z"/><path class="cls-1" d="M892.67,399.26c0,3.18-3.23,5.76-7.22,5.76s-7.22-2.58-7.22-5.76,3.23-5.75,7.22-5.75,7.22,2.58,7.22,5.75Z"/><path class="cls-1" d="M911.74,399.49c0,3.18-3.24,5.76-7.23,5.76s-7.21-2.58-7.21-5.76,3.23-5.75,7.21-5.75,7.23,2.58,7.23,5.75Z"/><path class="cls-1" d="M930.82,399.49c0,3.18-3.24,5.76-7.22,5.76s-7.22-2.58-7.22-5.76,3.23-5.75,7.22-5.75,7.22,2.58,7.22,5.75Z"/><path class="cls-1" d="M949.89,399.37c0,3.18-3.22,5.76-7.22,5.76s-7.22-2.58-7.22-5.76,3.23-5.75,7.22-5.75,7.22,2.58,7.22,5.75Z"/><path class="cls-1" d="M968.98,399.37c0,3.18-3.23,5.76-7.22,5.76s-7.22-2.58-7.22-5.76,3.23-5.75,7.22-5.75,7.22,2.58,7.22,5.75Z"/><path class="cls-1" d="M988.05,399.44c0,3.18-3.22,5.75-7.22,5.75s-7.22-2.57-7.22-5.75,3.22-5.76,7.22-5.76,7.22,2.58,7.22,5.76Z"/><path class="cls-1" d="M1007.13,399.44c0,3.18-3.24,5.76-7.22,5.76s-7.22-2.57-7.22-5.76,3.23-5.75,7.22-5.75,7.22,2.58,7.22,5.75Z"/><path class="cls-1" d="M186.77,415.58c0,3.18-3.23,5.76-7.22,5.76s-7.22-2.58-7.22-5.76,3.23-5.75,7.22-5.75,7.22,2.58,7.22,5.75Z"/><path class="cls-1" d="M205.85,415.59c0,3.18-3.23,5.75-7.22,5.75s-7.21-2.57-7.21-5.75,3.22-5.75,7.21-5.75,7.22,2.57,7.22,5.75Z"/><path class="cls-1" d="M224.93,415.65c0,3.18-3.23,5.76-7.22,5.76s-7.21-2.58-7.21-5.76,3.23-5.75,7.21-5.75,7.22,2.58,7.22,5.75Z"/><path class="cls-1" d="M244.01,415.66c0,3.18-3.24,5.75-7.22,5.75s-7.21-2.57-7.21-5.75,3.23-5.76,7.21-5.76,7.22,2.58,7.22,5.76Z"/><path class="cls-1" d="M530.19,415.62c0,3.19-3.24,5.76-7.22,5.76s-7.22-2.58-7.22-5.76,3.23-5.75,7.22-5.75,7.22,2.58,7.22,5.75Z"/><path class="cls-1" d="M549.26,415.64c0,3.17-3.23,5.75-7.23,5.75s-7.21-2.58-7.21-5.75,3.23-5.77,7.21-5.77,7.23,2.58,7.23,5.77Z"/><path class="cls-1" d="M892.67,415.65c0,3.18-3.23,5.76-7.22,5.76s-7.22-2.57-7.22-5.76,3.23-5.75,7.22-5.75,7.22,2.58,7.22,5.75Z"/><path class="cls-1" d="M911.74,415.88c0,3.18-3.24,5.76-7.23,5.76s-7.21-2.58-7.21-5.76,3.23-5.75,7.21-5.75,7.23,2.58,7.23,5.75Z"/><path class="cls-1" d="M930.82,415.88c0,3.18-3.24,5.76-7.22,5.76s-7.22-2.58-7.22-5.76,3.23-5.75,7.22-5.75,7.22,2.58,7.22,5.75Z"/><path class="cls-1" d="M949.89,415.76c0,3.18-3.22,5.76-7.22,5.76s-7.22-2.58-7.22-5.76,3.23-5.76,7.22-5.76,7.22,2.58,7.22,5.76Z"/><path class="cls-1" d="M968.98,415.77c0,3.17-3.23,5.76-7.22,5.76s-7.22-2.58-7.22-5.76,3.23-5.75,7.22-5.75,7.22,2.57,7.22,5.75Z"/><path class="cls-1" d="M988.05,415.82c0,3.18-3.22,5.77-7.22,5.77s-7.22-2.58-7.22-5.77,3.22-5.75,7.22-5.75,7.22,2.58,7.22,5.75Z"/><path class="cls-1" d="M1007.13,415.83c0,3.19-3.24,5.76-7.22,5.76s-7.22-2.57-7.22-5.76,3.23-5.75,7.22-5.75,7.22,2.58,7.22,5.75Z"/><path class="cls-1" d="M186.78,431.98c0,3.18-3.24,5.76-7.23,5.76s-7.21-2.57-7.21-5.76,3.22-5.75,7.21-5.75,7.23,2.58,7.23,5.75Z"/><path class="cls-1" d="M205.85,431.98c0,3.18-3.23,5.76-7.22,5.76s-7.21-2.58-7.21-5.76,3.23-5.76,7.21-5.76,7.22,2.58,7.22,5.76Z"/><path class="cls-1" d="M224.93,432.04c0,3.19-3.23,5.76-7.22,5.76s-7.21-2.58-7.21-5.76,3.23-5.75,7.21-5.75,7.22,2.58,7.22,5.75Z"/><path class="cls-1" d="M949.9,432.14c0,3.18-3.23,5.76-7.22,5.76s-7.22-2.58-7.22-5.76,3.23-5.75,7.22-5.75,7.22,2.58,7.22,5.75Z"/><path class="cls-1" d="M968.98,432.15c0,3.18-3.23,5.76-7.22,5.76s-7.21-2.59-7.21-5.76,3.22-5.76,7.21-5.76,7.22,2.59,7.22,5.76Z"/><path class="cls-1" d="M988.06,432.22c0,3.18-3.23,5.76-7.23,5.76s-7.22-2.58-7.22-5.76,3.24-5.75,7.22-5.75,7.23,2.57,7.23,5.75Z"/><path class="cls-1" d="M186.77,448.36c0,3.18-3.23,5.75-7.22,5.75s-7.22-2.58-7.22-5.75,3.23-5.76,7.22-5.76,7.22,2.58,7.22,5.76Z"/><path class="cls-1" d="M205.85,448.37c0,3.18-3.23,5.75-7.22,5.75s-7.21-2.57-7.21-5.75,3.22-5.76,7.21-5.76,7.22,2.58,7.22,5.76Z"/><path class="cls-1" d="M224.93,448.44c0,3.17-3.23,5.75-7.22,5.75s-7.21-2.58-7.21-5.75,3.23-5.76,7.21-5.76,7.22,2.58,7.22,5.76Z"/><path class="cls-1" d="M949.89,448.54c0,3.18-3.22,5.75-7.22,5.75s-7.22-2.58-7.22-5.75,3.23-5.76,7.22-5.76,7.22,2.58,7.22,5.76Z"/><path class="cls-1" d="M968.98,448.55c0,3.17-3.23,5.75-7.22,5.75s-7.22-2.58-7.22-5.75,3.23-5.76,7.22-5.76,7.22,2.57,7.22,5.76Z"/><path class="cls-1" d="M1045.29,448.45c0,3.18-3.23,5.75-7.22,5.75s-7.22-2.57-7.22-5.75,3.23-5.75,7.22-5.75,7.22,2.57,7.22,5.75Z"/><path class="cls-1" d="M205.85,464.76c0,3.18-3.23,5.76-7.22,5.76s-7.21-2.58-7.21-5.76,3.23-5.75,7.21-5.75,7.22,2.58,7.22,5.75Z"/><path class="cls-1" d="M224.93,464.82c0,3.19-3.23,5.76-7.22,5.76s-7.21-2.57-7.21-5.76,3.23-5.75,7.21-5.75,7.22,2.58,7.22,5.75Z"/><path class="cls-1" d="M949.9,464.92c0,3.18-3.23,5.76-7.22,5.76s-7.22-2.58-7.22-5.76,3.23-5.75,7.22-5.75,7.22,2.58,7.22,5.75Z"/><path class="cls-1" d="M1026.2,464.84c0,3.17-3.22,5.75-7.21,5.75s-7.22-2.59-7.22-5.75,3.23-5.77,7.22-5.77,7.21,2.58,7.21,5.77Z"/><path class="cls-1" d="M1045.29,464.84c0,3.17-3.23,5.75-7.22,5.75s-7.22-2.59-7.22-5.75,3.23-5.75,7.22-5.75,7.22,2.57,7.22,5.75Z"/><path class="cls-1" d="M205.85,481.15c0,3.18-3.23,5.76-7.22,5.76s-7.21-2.59-7.21-5.76,3.23-5.75,7.21-5.75,7.22,2.58,7.22,5.75Z"/><path class="cls-1" d="M224.93,481.21c0,3.18-3.23,5.76-7.22,5.76s-7.21-2.58-7.21-5.76,3.23-5.75,7.21-5.75,7.22,2.58,7.22,5.75Z"/><path class="cls-1" d="M988.06,481.39c0,3.18-3.23,5.76-7.23,5.76s-7.22-2.58-7.22-5.76,3.24-5.75,7.22-5.75,7.23,2.57,7.23,5.75Z"/><path class="cls-1" d="M1007.13,481.39c0,3.18-3.24,5.76-7.21,5.76s-7.22-2.58-7.22-5.76,3.23-5.75,7.22-5.75,7.21,2.58,7.21,5.75Z"/><path class="cls-1" d="M224.93,497.6c0,3.18-3.23,5.76-7.22,5.76s-7.21-2.58-7.21-5.76,3.23-5.76,7.21-5.76,7.22,2.58,7.22,5.76Z"/><path class="cls-1" d="M71.67,5.9c0,3.18-3.23,5.76-7.22,5.76s-7.22-2.58-7.22-5.76S60.46,.15,64.46,.15s7.22,2.58,7.22,5.75Z"/><path class="cls-1" d="M90.75,5.91c0,3.18-3.23,5.75-7.22,5.75s-7.22-2.58-7.22-5.75S79.54,.16,83.53,.16s7.22,2.58,7.22,5.75Z"/><path class="cls-1" d="M300.61,5.97c0,3.18-3.22,5.76-7.22,5.76s-7.22-2.58-7.22-5.76,3.23-5.75,7.22-5.75,7.22,2.58,7.22,5.75Z"/><path class="cls-1" d="M319.7,5.98c0,3.18-3.23,5.75-7.22,5.75s-7.22-2.58-7.22-5.75,3.23-5.76,7.22-5.76,7.22,2.58,7.22,5.76Z"/><path class="cls-1" d="M338.76,5.8c0,3.18-3.23,5.76-7.21,5.76s-7.22-2.58-7.22-5.76S327.56,.04,331.55,.04s7.21,2.58,7.21,5.76Z"/><path class="cls-1" d="M357.85,5.81c0,3.18-3.23,5.76-7.23,5.76s-7.21-2.58-7.21-5.76S346.64,.05,350.62,.05s7.23,2.58,7.23,5.76Z"/><path class="cls-1" d="M376.93,5.88c0,3.18-3.23,5.76-7.22,5.76s-7.22-2.58-7.22-5.76,3.23-5.75,7.22-5.75,7.22,2.58,7.22,5.75Z"/><path class="cls-1" d="M396,5.88c0,3.18-3.24,5.76-7.22,5.76s-7.22-2.58-7.22-5.76,3.23-5.75,7.22-5.75,7.22,2.58,7.22,5.75Z"/><path class="cls-1" d="M415.08,5.75c0,3.18-3.23,5.76-7.22,5.76s-7.22-2.58-7.22-5.76,3.22-5.75,7.22-5.75,7.22,2.58,7.22,5.75Z"/><path class="cls-1" d="M644.02,5.99c0,3.18-3.24,5.76-7.22,5.76s-7.22-2.58-7.22-5.76,3.23-5.75,7.22-5.75,7.22,2.58,7.22,5.75Z"/><path class="cls-1" d="M663.09,5.99c0,3.18-3.23,5.76-7.22,5.76s-7.21-2.58-7.21-5.76,3.22-5.75,7.21-5.75,7.22,2.58,7.22,5.75Z"/><path class="cls-1" d="M682.18,6.05c0,3.18-3.23,5.76-7.22,5.76s-7.22-2.58-7.22-5.76,3.24-5.76,7.22-5.76,7.22,2.58,7.22,5.76Z"/><path class="cls-1" d="M701.25,6.05c0,3.18-3.23,5.76-7.23,5.76s-7.21-2.58-7.21-5.76,3.23-5.75,7.21-5.75,7.23,2.58,7.23,5.75Z"/><path class="cls-1" d="M720.33,5.89c0,3.18-3.24,5.75-7.23,5.75s-7.22-2.58-7.22-5.75,3.24-5.76,7.22-5.76,7.23,2.58,7.23,5.76Z"/><path class="cls-1" d="M739.41,5.9c0,3.18-3.23,5.76-7.22,5.76s-7.22-2.58-7.22-5.76,3.23-5.76,7.22-5.76,7.22,2.58,7.22,5.76Z"/><path class="cls-1" d="M758.48,6.07c0,3.18-3.22,5.76-7.22,5.76s-7.22-2.58-7.22-5.76,3.24-5.76,7.22-5.76,7.22,2.58,7.22,5.76Z"/><path class="cls-1" d="M777.57,6.07c0,3.18-3.24,5.76-7.23,5.76s-7.21-2.58-7.21-5.76,3.23-5.75,7.21-5.75,7.23,2.58,7.23,5.75Z"/><path class="cls-1" d="M796.64,5.94c0,3.18-3.23,5.76-7.22,5.76s-7.22-2.58-7.22-5.76,3.23-5.75,7.22-5.75,7.22,2.58,7.22,5.75Z"/><path class="cls-1" d="M815.72,5.95c0,3.18-3.24,5.75-7.23,5.75s-7.22-2.58-7.22-5.75,3.24-5.76,7.22-5.76,7.23,2.58,7.23,5.76Z"/><path class="cls-1" d="M834.79,6.02c0,3.18-3.22,5.76-7.21,5.76s-7.22-2.58-7.22-5.76,3.23-5.75,7.22-5.75,7.21,2.57,7.21,5.75Z"/><path class="cls-1" d="M853.88,6.03c0,3.18-3.23,5.75-7.23,5.75s-7.22-2.58-7.22-5.75,3.23-5.75,7.22-5.75,7.23,2.58,7.23,5.75Z"/><path class="cls-1" d="M872.96,5.85c0,3.18-3.24,5.76-7.22,5.76s-7.21-2.58-7.21-5.76,3.23-5.76,7.21-5.76,7.22,2.58,7.22,5.76Z"/><path class="cls-1" d="M33.52,22.2c0,3.18-3.23,5.76-7.22,5.76s-7.22-2.58-7.22-5.76,3.23-5.75,7.22-5.75,7.22,2.58,7.22,5.75Z"/><path class="cls-1" d="M52.59,22.2c0,3.18-3.23,5.76-7.22,5.76s-7.22-2.58-7.22-5.76,3.23-5.75,7.22-5.75,7.22,2.58,7.22,5.75Z"/><path class="cls-1" d="M71.67,22.29c0,3.18-3.23,5.76-7.22,5.76s-7.22-2.58-7.22-5.76,3.23-5.75,7.22-5.75,7.22,2.58,7.22,5.75Z"/><path class="cls-1" d="M90.75,22.3c0,3.18-3.23,5.76-7.22,5.76s-7.22-2.58-7.22-5.76,3.23-5.75,7.22-5.75,7.22,2.58,7.22,5.75Z"/><path class="cls-1" d="M109.83,22.15c0,3.18-3.24,5.76-7.22,5.76s-7.22-2.58-7.22-5.76,3.23-5.75,7.22-5.75,7.22,2.58,7.22,5.75Z"/><path class="cls-1" d="M128.91,22.16c0,3.18-3.23,5.76-7.21,5.76s-7.22-2.58-7.22-5.76,3.23-5.76,7.22-5.76,7.21,2.58,7.21,5.76Z"/><path class="cls-1" d="M147.99,22.34c0,3.18-3.23,5.76-7.22,5.76s-7.22-2.58-7.22-5.76,3.23-5.75,7.22-5.75,7.22,2.58,7.22,5.75Z"/><path class="cls-1" d="M167.06,22.34c0,3.18-3.23,5.76-7.22,5.76s-7.22-2.58-7.22-5.76,3.24-5.76,7.22-5.76,7.22,2.58,7.22,5.76Z"/><path class="cls-1" d="M186.14,22.17c0,3.18-3.23,5.76-7.22,5.76s-7.22-2.58-7.22-5.76,3.22-5.75,7.22-5.75,7.22,2.58,7.22,5.75Z"/><path class="cls-1" d="M205.22,22.18c0,3.18-3.23,5.76-7.22,5.76s-7.22-2.58-7.22-5.76,3.24-5.76,7.22-5.76,7.22,2.58,7.22,5.76Z"/><path class="cls-1" d="M224.3,22.25c0,3.18-3.23,5.76-7.22,5.76s-7.21-2.58-7.21-5.76,3.22-5.75,7.21-5.75,7.22,2.58,7.22,5.75Z"/><path class="cls-1" d="M243.37,22.25c0,3.18-3.22,5.76-7.21,5.76s-7.22-2.58-7.22-5.76,3.23-5.75,7.22-5.75,7.21,2.58,7.21,5.75Z"/><path class="cls-1" d="M262.45,22.13c0,3.18-3.23,5.76-7.22,5.76s-7.22-2.58-7.22-5.76,3.23-5.75,7.22-5.75,7.22,2.58,7.22,5.75Z"/><path class="cls-1" d="M319.7,22.37c0,3.18-3.23,5.76-7.22,5.76s-7.22-2.58-7.22-5.76,3.23-5.76,7.22-5.76,7.22,2.58,7.22,5.76Z"/><path class="cls-1" d="M338.76,22.19c0,3.18-3.23,5.76-7.21,5.76s-7.22-2.58-7.22-5.76,3.23-5.76,7.22-5.76,7.21,2.58,7.21,5.76Z"/><path class="cls-1" d="M357.85,22.2c0,3.18-3.23,5.75-7.23,5.75s-7.21-2.58-7.21-5.75,3.23-5.76,7.21-5.76,7.23,2.58,7.23,5.76Z"/><path class="cls-1" d="M376.93,22.27c0,3.18-3.23,5.76-7.22,5.76s-7.22-2.58-7.22-5.76,3.23-5.75,7.22-5.75,7.22,2.58,7.22,5.75Z"/><path class="cls-1" d="M396,22.27c0,3.18-3.24,5.76-7.22,5.76s-7.22-2.58-7.22-5.76,3.23-5.75,7.22-5.75,7.22,2.58,7.22,5.75Z"/><path class="cls-1" d="M510.47,22.17c0,3.18-3.24,5.76-7.22,5.76s-7.22-2.58-7.22-5.76,3.22-5.76,7.22-5.76,7.22,2.58,7.22,5.76Z"/><path class="cls-1" d="M605.86,22.48c0,3.18-3.23,5.76-7.22,5.76s-7.21-2.58-7.21-5.76,3.23-5.75,7.21-5.75,7.22,2.58,7.22,5.75Z"/><path class="cls-1" d="M624.94,22.49c0,3.18-3.24,5.75-7.22,5.75s-7.22-2.58-7.22-5.75,3.24-5.75,7.22-5.75,7.22,2.58,7.22,5.75Z"/><path class="cls-1" d="M644.02,22.37c0,3.18-3.24,5.76-7.22,5.76s-7.22-2.58-7.22-5.76,3.23-5.75,7.22-5.75,7.22,2.58,7.22,5.75Z"/><path class="cls-1" d="M663.09,22.38c0,3.18-3.23,5.76-7.22,5.76s-7.21-2.58-7.21-5.76,3.22-5.75,7.21-5.75,7.22,2.58,7.22,5.75Z"/><path class="cls-1" d="M682.18,22.43c0,3.18-3.23,5.75-7.22,5.75s-7.22-2.58-7.22-5.75,3.24-5.76,7.22-5.76,7.22,2.58,7.22,5.76Z"/><path class="cls-1" d="M701.25,22.44c0,3.18-3.23,5.76-7.23,5.76s-7.21-2.58-7.21-5.76,3.23-5.75,7.21-5.75,7.23,2.58,7.23,5.75Z"/><path class="cls-1" d="M720.33,22.28c0,3.18-3.24,5.76-7.23,5.76s-7.22-2.58-7.22-5.76,3.24-5.76,7.22-5.76,7.23,2.58,7.23,5.76Z"/><path class="cls-1" d="M739.41,22.29c0,3.18-3.23,5.76-7.22,5.76s-7.22-2.58-7.22-5.76,3.23-5.75,7.22-5.75,7.22,2.58,7.22,5.75Z"/><path class="cls-1" d="M758.48,22.45c0,3.18-3.22,5.76-7.22,5.76s-7.22-2.58-7.22-5.76,3.24-5.75,7.22-5.75,7.22,2.58,7.22,5.75Z"/><path class="cls-1" d="M777.57,22.46c0,3.18-3.24,5.75-7.23,5.75s-7.21-2.58-7.21-5.75,3.23-5.75,7.21-5.75,7.23,2.58,7.23,5.75Z"/><path class="cls-1" d="M796.64,22.33c0,3.18-3.23,5.76-7.22,5.76s-7.22-2.58-7.22-5.76,3.23-5.75,7.22-5.75,7.22,2.58,7.22,5.75Z"/><path class="cls-1" d="M815.72,22.33c0,3.18-3.24,5.75-7.23,5.75s-7.22-2.58-7.22-5.75,3.24-5.76,7.22-5.76,7.23,2.58,7.23,5.76Z"/><path class="cls-1" d="M834.79,22.41c0,3.18-3.22,5.76-7.21,5.76s-7.22-2.58-7.22-5.76,3.23-5.75,7.22-5.75,7.21,2.58,7.21,5.75Z"/><path class="cls-1" d="M853.88,22.41c0,3.18-3.23,5.76-7.23,5.76s-7.22-2.58-7.22-5.76,3.23-5.75,7.22-5.75,7.23,2.58,7.23,5.75Z"/><path class="cls-1" d="M872.96,22.23c0,3.18-3.24,5.76-7.22,5.76s-7.21-2.58-7.21-5.76,3.23-5.75,7.21-5.75,7.22,2.58,7.22,5.75Z"/><path class="cls-1" d="M892.03,22.24c0,3.18-3.23,5.76-7.22,5.76s-7.21-2.58-7.21-5.76,3.22-5.75,7.21-5.75,7.22,2.58,7.22,5.75Z"/><path class="cls-1" d="M14.44,38.79c0,3.18-3.23,5.75-7.22,5.75s-7.22-2.58-7.22-5.75,3.23-5.76,7.22-5.76,7.22,2.58,7.22,5.76Z"/><path class="cls-1" d="M33.52,38.59c0,3.18-3.23,5.76-7.22,5.76s-7.22-2.58-7.22-5.76,3.23-5.75,7.22-5.75,7.22,2.58,7.22,5.75Z"/><path class="cls-1" d="M71.67,38.68c0,3.18-3.23,5.76-7.22,5.76s-7.22-2.58-7.22-5.76,3.23-5.75,7.22-5.75,7.22,2.58,7.22,5.75Z"/><path class="cls-1" d="M90.75,38.69c0,3.18-3.23,5.76-7.22,5.76s-7.22-2.58-7.22-5.76,3.24-5.75,7.22-5.75,7.22,2.58,7.22,5.75Z"/><path class="cls-1" d="M109.83,38.54c0,3.18-3.23,5.76-7.22,5.76s-7.22-2.58-7.22-5.76,3.23-5.75,7.22-5.75,7.22,2.58,7.22,5.75Z"/><path class="cls-1" d="M128.91,38.55c0,3.18-3.23,5.76-7.21,5.76s-7.22-2.58-7.22-5.76,3.23-5.75,7.22-5.75,7.21,2.58,7.21,5.75Z"/><path class="cls-1" d="M147.99,38.73c0,3.18-3.23,5.76-7.22,5.76s-7.22-2.58-7.22-5.76,3.23-5.75,7.22-5.75,7.22,2.58,7.22,5.75Z"/><path class="cls-1" d="M167.06,38.73c0,3.18-3.23,5.76-7.21,5.76s-7.23-2.58-7.23-5.76,3.24-5.76,7.23-5.76,7.21,2.58,7.21,5.76Z"/><path class="cls-1" d="M186.14,38.57c0,3.18-3.23,5.75-7.21,5.75s-7.22-2.58-7.22-5.75,3.23-5.76,7.22-5.76,7.21,2.58,7.21,5.76Z"/><path class="cls-1" d="M262.45,38.52c0,3.18-3.23,5.76-7.22,5.76s-7.22-2.58-7.22-5.76,3.23-5.76,7.22-5.76,7.22,2.58,7.22,5.76Z"/><path class="cls-1" d="M319.7,38.76c0,3.18-3.23,5.76-7.22,5.76s-7.22-2.58-7.22-5.76,3.23-5.75,7.22-5.75,7.22,2.58,7.22,5.75Z"/><path class="cls-1" d="M338.77,38.58c0,3.18-3.23,5.75-7.22,5.75s-7.22-2.58-7.22-5.75,3.23-5.75,7.22-5.75,7.22,2.58,7.22,5.75Z"/><path class="cls-1" d="M491.39,38.55c0,3.18-3.23,5.76-7.23,5.76s-7.21-2.58-7.21-5.76,3.23-5.75,7.21-5.75,7.23,2.58,7.23,5.75Z"/><path class="cls-1" d="M510.48,38.56c0,3.18-3.24,5.76-7.22,5.76s-7.22-2.58-7.22-5.76,3.23-5.75,7.22-5.75,7.22,2.58,7.22,5.75Z"/><path class="cls-1" d="M529.55,38.61c0,3.18-3.23,5.76-7.21,5.76s-7.22-2.58-7.22-5.76,3.23-5.75,7.22-5.75,7.21,2.58,7.21,5.75Z"/><path class="cls-1" d="M548.63,38.62c0,3.18-3.23,5.75-7.22,5.75s-7.22-2.58-7.22-5.75,3.23-5.75,7.22-5.75,7.22,2.58,7.22,5.75Z"/><path class="cls-1" d="M567.71,38.51c0,3.18-3.24,5.76-7.23,5.76s-7.22-2.58-7.22-5.76,3.23-5.75,7.22-5.75,7.23,2.58,7.23,5.75Z"/><path class="cls-1" d="M586.78,38.51c0,3.18-3.23,5.76-7.21,5.76s-7.22-2.58-7.22-5.76,3.22-5.76,7.22-5.76,7.21,2.58,7.21,5.76Z"/><path class="cls-1" d="M605.86,38.87c0,3.18-3.23,5.76-7.22,5.76s-7.21-2.58-7.21-5.76,3.23-5.76,7.21-5.76,7.22,2.58,7.22,5.76Z"/><path class="cls-1" d="M624.94,38.88c0,3.18-3.23,5.76-7.22,5.76s-7.22-2.58-7.22-5.76,3.25-5.76,7.22-5.76,7.22,2.58,7.22,5.76Z"/><path class="cls-1" d="M644.02,38.76c0,3.18-3.24,5.76-7.22,5.76s-7.22-2.58-7.22-5.76,3.23-5.75,7.22-5.75,7.22,2.58,7.22,5.75Z"/><path class="cls-1" d="M663.09,38.77c0,3.18-3.23,5.76-7.22,5.76s-7.22-2.58-7.22-5.76,3.22-5.75,7.22-5.75,7.22,2.58,7.22,5.75Z"/><path class="cls-1" d="M682.18,38.83c0,3.18-3.23,5.75-7.22,5.75s-7.22-2.58-7.22-5.75,3.24-5.76,7.22-5.76,7.22,2.58,7.22,5.76Z"/><path class="cls-1" d="M701.25,38.83c0,3.18-3.23,5.76-7.21,5.76s-7.22-2.58-7.22-5.76,3.23-5.75,7.22-5.75,7.21,2.58,7.21,5.75Z"/><path class="cls-1" d="M720.33,38.67c0,3.18-3.24,5.75-7.22,5.75s-7.22-2.58-7.22-5.75,3.24-5.76,7.22-5.76,7.22,2.58,7.22,5.76Z"/><path class="cls-1" d="M739.41,38.68c0,3.18-3.23,5.76-7.22,5.76s-7.22-2.58-7.22-5.76,3.24-5.75,7.22-5.75,7.22,2.58,7.22,5.75Z"/><path class="cls-1" d="M758.48,38.85c0,3.18-3.23,5.75-7.21,5.75s-7.23-2.58-7.23-5.75,3.24-5.75,7.23-5.75,7.21,2.58,7.21,5.75Z"/><path class="cls-1" d="M777.57,38.85c0,3.18-3.24,5.76-7.22,5.76s-7.22-2.58-7.22-5.76,3.23-5.76,7.22-5.76,7.22,2.58,7.22,5.76Z"/><path class="cls-1" d="M796.64,38.72c0,3.18-3.23,5.75-7.22,5.75s-7.22-2.58-7.22-5.75,3.24-5.76,7.22-5.76,7.22,2.58,7.22,5.76Z"/><path class="cls-1" d="M815.72,38.72c0,3.18-3.24,5.76-7.21,5.76s-7.23-2.58-7.23-5.76,3.24-5.75,7.23-5.75,7.21,2.58,7.21,5.75Z"/><path class="cls-1" d="M834.79,38.8c0,3.18-3.22,5.76-7.21,5.76s-7.22-2.58-7.22-5.76,3.23-5.75,7.22-5.75,7.21,2.58,7.21,5.75Z"/><path class="cls-1" d="M892.03,38.63c0,3.18-3.23,5.76-7.22,5.76s-7.21-2.58-7.21-5.76,3.22-5.75,7.21-5.75,7.22,2.58,7.22,5.75Z"/><path class="cls-1" d="M911.11,38.86c0,3.18-3.23,5.76-7.22,5.76s-7.22-2.58-7.22-5.76,3.23-5.76,7.22-5.76,7.22,2.58,7.22,5.76Z"/><path class="cls-1" d="M71.67,55.07c0,3.18-3.23,5.76-7.22,5.76s-7.22-2.58-7.22-5.76,3.23-5.75,7.22-5.75,7.22,2.58,7.22,5.75Z"/><path class="cls-1" d="M90.75,55.08c0,3.18-3.23,5.76-7.22,5.76s-7.22-2.58-7.22-5.76,3.23-5.75,7.22-5.75,7.22,2.58,7.22,5.75Z"/><path class="cls-1" d="M109.83,54.93c0,3.18-3.24,5.76-7.22,5.76s-7.22-2.58-7.22-5.76,3.23-5.75,7.22-5.75,7.22,2.58,7.22,5.75Z"/><path class="cls-1" d="M128.91,54.94c0,3.18-3.23,5.75-7.21,5.75s-7.22-2.58-7.22-5.75,3.23-5.76,7.22-5.76,7.21,2.58,7.21,5.76Z"/><path class="cls-1" d="M147.99,55.12c0,3.18-3.23,5.76-7.22,5.76s-7.22-2.58-7.22-5.76,3.23-5.76,7.22-5.76,7.22,2.58,7.22,5.76Z"/><path class="cls-1" d="M167.06,55.12c0,3.18-3.23,5.76-7.22,5.76s-7.22-2.58-7.22-5.76,3.24-5.75,7.22-5.75,7.22,2.58,7.22,5.75Z"/><path class="cls-1" d="M186.14,54.96c0,3.17-3.23,5.76-7.22,5.76s-7.22-2.58-7.22-5.76,3.22-5.76,7.22-5.76,7.22,2.58,7.22,5.76Z"/><path class="cls-1" d="M224.3,55.03c0,3.17-3.23,5.75-7.22,5.75s-7.21-2.58-7.21-5.75,3.22-5.76,7.21-5.76,7.22,2.58,7.22,5.76Z"/><path class="cls-1" d="M243.37,55.03c0,3.18-3.22,5.75-7.21,5.75s-7.22-2.57-7.22-5.75,3.23-5.75,7.22-5.75,7.21,2.58,7.21,5.75Z"/><path class="cls-1" d="M262.45,54.91c0,3.18-3.23,5.76-7.22,5.76s-7.22-2.58-7.22-5.76,3.23-5.75,7.22-5.75,7.22,2.58,7.22,5.75Z"/><path class="cls-1" d="M434.15,54.92c0,3.18-3.22,5.76-7.21,5.76s-7.22-2.58-7.22-5.76,3.23-5.75,7.22-5.75,7.21,2.58,7.21,5.75Z"/><path class="cls-1" d="M491.39,54.94c0,3.18-3.23,5.76-7.23,5.76s-7.21-2.58-7.21-5.76,3.23-5.75,7.21-5.75,7.23,2.58,7.23,5.75Z"/><path class="cls-1" d="M510.47,54.95c0,3.18-3.24,5.76-7.22,5.76s-7.22-2.58-7.22-5.76,3.22-5.75,7.22-5.75,7.22,2.58,7.22,5.75Z"/><path class="cls-1" d="M529.54,55c0,3.18-3.23,5.76-7.22,5.76s-7.22-2.58-7.22-5.76,3.23-5.75,7.22-5.75,7.22,2.58,7.22,5.75Z"/><path class="cls-1" d="M548.63,55.01c0,3.18-3.23,5.76-7.23,5.76s-7.21-2.58-7.21-5.76,3.23-5.76,7.21-5.76,7.23,2.58,7.23,5.76Z"/><path class="cls-1" d="M567.71,54.9c0,3.18-3.24,5.76-7.22,5.76s-7.22-2.58-7.22-5.76,3.23-5.76,7.22-5.76,7.22,2.58,7.22,5.76Z"/><path class="cls-1" d="M586.78,54.9c0,3.18-3.23,5.76-7.21,5.76s-7.22-2.58-7.22-5.76,3.22-5.76,7.22-5.76,7.21,2.58,7.21,5.76Z"/><path class="cls-1" d="M605.86,55.25c0,3.18-3.23,5.76-7.22,5.76s-7.21-2.58-7.21-5.76,3.23-5.75,7.21-5.75,7.22,2.58,7.22,5.75Z"/><path class="cls-1" d="M624.94,55.27c0,3.18-3.24,5.76-7.22,5.76s-7.22-2.58-7.22-5.76,3.24-5.76,7.22-5.76,7.22,2.58,7.22,5.76Z"/><path class="cls-1" d="M644.02,55.16c0,3.18-3.24,5.76-7.22,5.76s-7.22-2.58-7.22-5.76,3.23-5.76,7.22-5.76,7.22,2.58,7.22,5.76Z"/><path class="cls-1" d="M663.09,55.16c0,3.18-3.23,5.76-7.22,5.76s-7.21-2.58-7.21-5.76,3.22-5.76,7.21-5.76,7.22,2.58,7.22,5.76Z"/><path class="cls-1" d="M682.18,55.21c0,3.18-3.23,5.75-7.22,5.75s-7.22-2.58-7.22-5.75,3.24-5.76,7.22-5.76,7.22,2.58,7.22,5.76Z"/><path class="cls-1" d="M701.25,55.22c0,3.18-3.23,5.76-7.23,5.76s-7.21-2.58-7.21-5.76,3.23-5.75,7.21-5.75,7.23,2.58,7.23,5.75Z"/><path class="cls-1" d="M720.33,55.06c0,3.18-3.24,5.76-7.23,5.76s-7.22-2.58-7.22-5.76,3.24-5.75,7.22-5.75,7.23,2.58,7.23,5.75Z"/><path class="cls-1" d="M739.41,55.07c0,3.18-3.23,5.76-7.22,5.76s-7.22-2.58-7.22-5.76,3.23-5.76,7.22-5.76,7.22,2.58,7.22,5.76Z"/><path class="cls-1" d="M758.48,55.23c0,3.18-3.22,5.76-7.22,5.76s-7.22-2.58-7.22-5.76,3.24-5.75,7.22-5.75,7.22,2.58,7.22,5.75Z"/><path class="cls-1" d="M777.57,55.24c0,3.18-3.24,5.76-7.23,5.76s-7.21-2.58-7.21-5.76,3.23-5.75,7.21-5.75,7.23,2.58,7.23,5.75Z"/><path class="cls-1" d="M796.64,55.1c0,3.18-3.23,5.76-7.22,5.76s-7.22-2.58-7.22-5.76,3.23-5.75,7.22-5.75,7.22,2.58,7.22,5.75Z"/><path class="cls-1" d="M815.72,55.11c0,3.18-3.24,5.76-7.23,5.76s-7.22-2.58-7.22-5.76,3.24-5.75,7.22-5.75,7.23,2.58,7.23,5.75Z"/><path class="cls-1" d="M834.79,55.19c0,3.18-3.22,5.76-7.21,5.76s-7.22-2.58-7.22-5.76,3.23-5.75,7.22-5.75,7.21,2.58,7.21,5.75Z"/><path class="cls-1" d="M853.88,55.19c0,3.18-3.23,5.76-7.23,5.76s-7.22-2.58-7.22-5.76,3.23-5.75,7.22-5.75,7.23,2.58,7.23,5.75Z"/><path class="cls-1" d="M911.11,55.25c0,3.18-3.23,5.76-7.22,5.76s-7.23-2.58-7.23-5.76,3.24-5.76,7.23-5.76,7.22,2.58,7.22,5.76Z"/><path class="cls-1" d="M71.67,71.46c0,3.18-3.23,5.75-7.22,5.75s-7.22-2.58-7.22-5.75,3.23-5.75,7.22-5.75,7.22,2.57,7.22,5.75Z"/><path class="cls-1" d="M90.75,71.47c0,3.18-3.23,5.76-7.22,5.76s-7.22-2.58-7.22-5.76,3.24-5.75,7.22-5.75,7.22,2.58,7.22,5.75Z"/><path class="cls-1" d="M109.83,71.32c0,3.18-3.23,5.76-7.22,5.76s-7.22-2.58-7.22-5.76,3.23-5.75,7.22-5.75,7.22,2.58,7.22,5.75Z"/><path class="cls-1" d="M128.91,71.33c0,3.18-3.23,5.76-7.21,5.76s-7.22-2.58-7.22-5.76,3.23-5.76,7.22-5.76,7.21,2.58,7.21,5.76Z"/><path class="cls-1" d="M147.99,71.51c0,3.18-3.23,5.75-7.22,5.75s-7.22-2.58-7.22-5.75,3.23-5.75,7.22-5.75,7.22,2.58,7.22,5.75Z"/><path class="cls-1" d="M167.06,71.52c0,3.18-3.23,5.75-7.21,5.75s-7.23-2.58-7.23-5.75,3.24-5.76,7.23-5.76,7.21,2.58,7.21,5.76Z"/><path class="cls-1" d="M186.14,71.35c0,3.18-3.23,5.76-7.21,5.76s-7.22-2.58-7.22-5.76,3.23-5.75,7.22-5.75,7.21,2.58,7.21,5.75Z"/><path class="cls-1" d="M205.22,71.35c0,3.18-3.23,5.76-7.22,5.76s-7.22-2.58-7.22-5.76,3.24-5.76,7.22-5.76,7.22,2.58,7.22,5.76Z"/><path class="cls-1" d="M224.3,71.42c0,3.18-3.23,5.75-7.21,5.75s-7.22-2.57-7.22-5.75,3.23-5.76,7.22-5.76,7.21,2.58,7.21,5.76Z"/><path class="cls-1" d="M243.37,71.42c0,3.18-3.22,5.75-7.21,5.75s-7.22-2.58-7.22-5.75,3.23-5.75,7.22-5.75,7.21,2.58,7.21,5.75Z"/><path class="cls-1" d="M262.45,71.3c0,3.18-3.23,5.75-7.22,5.75s-7.22-2.58-7.22-5.75,3.23-5.75,7.22-5.75,7.22,2.57,7.22,5.75Z"/><path class="cls-1" d="M434.15,71.32c0,3.18-3.22,5.76-7.21,5.76s-7.22-2.58-7.22-5.76,3.22-5.76,7.22-5.76,7.21,2.58,7.21,5.76Z"/><path class="cls-1" d="M472.32,71.49c0,3.17-3.24,5.76-7.21,5.76s-7.23-2.58-7.23-5.76,3.23-5.76,7.23-5.76,7.21,2.58,7.21,5.76Z"/><path class="cls-1" d="M491.39,71.33c0,3.18-3.23,5.76-7.23,5.76s-7.21-2.58-7.21-5.76,3.23-5.75,7.21-5.75,7.23,2.58,7.23,5.75Z"/><path class="cls-1" d="M510.48,71.34c0,3.18-3.24,5.76-7.22,5.76s-7.22-2.58-7.22-5.76,3.23-5.75,7.22-5.75,7.22,2.58,7.22,5.75Z"/><path class="cls-1" d="M529.55,71.39c0,3.18-3.23,5.75-7.21,5.75s-7.22-2.58-7.22-5.75,3.23-5.76,7.22-5.76,7.21,2.58,7.21,5.76Z"/><path class="cls-1" d="M548.63,71.4c0,3.18-3.23,5.76-7.22,5.76s-7.22-2.58-7.22-5.76,3.23-5.75,7.22-5.75,7.22,2.58,7.22,5.75Z"/><path class="cls-1" d="M567.71,71.29c0,3.18-3.24,5.76-7.23,5.76s-7.22-2.58-7.22-5.76,3.23-5.75,7.22-5.75,7.23,2.58,7.23,5.75Z"/><path class="cls-1" d="M586.78,71.29c0,3.18-3.23,5.76-7.21,5.76s-7.22-2.58-7.22-5.76,3.22-5.75,7.22-5.75,7.21,2.58,7.21,5.75Z"/><path class="cls-1" d="M605.86,71.65c0,3.18-3.23,5.76-7.22,5.76s-7.21-2.58-7.21-5.76,3.23-5.75,7.21-5.75,7.22,2.58,7.22,5.75Z"/><path class="cls-1" d="M624.94,71.65c0,3.18-3.23,5.75-7.22,5.75s-7.22-2.58-7.22-5.75,3.25-5.75,7.22-5.75,7.22,2.58,7.22,5.75Z"/><path class="cls-1" d="M644.02,71.54c0,3.18-3.24,5.76-7.22,5.76s-7.22-2.58-7.22-5.76,3.23-5.75,7.22-5.75,7.22,2.57,7.22,5.75Z"/><path class="cls-1" d="M663.09,71.55c0,3.18-3.23,5.76-7.22,5.76s-7.22-2.58-7.22-5.76,3.22-5.75,7.22-5.75,7.22,2.58,7.22,5.75Z"/><path class="cls-1" d="M682.18,71.6c0,3.18-3.23,5.76-7.22,5.76s-7.22-2.58-7.22-5.76,3.24-5.75,7.22-5.75,7.22,2.58,7.22,5.75Z"/><path class="cls-1" d="M701.25,71.61c0,3.18-3.23,5.76-7.21,5.76s-7.22-2.57-7.22-5.76,3.23-5.75,7.22-5.75,7.21,2.58,7.21,5.75Z"/><path class="cls-1" d="M720.33,71.45c0,3.17-3.24,5.75-7.22,5.75s-7.22-2.58-7.22-5.75,3.24-5.76,7.22-5.76,7.22,2.58,7.22,5.76Z"/><path class="cls-1" d="M739.41,71.46c0,3.18-3.23,5.76-7.22,5.76s-7.22-2.58-7.22-5.76,3.24-5.76,7.22-5.76,7.22,2.58,7.22,5.76Z"/><path class="cls-1" d="M758.48,71.63c0,3.18-3.23,5.76-7.21,5.76s-7.23-2.58-7.23-5.76,3.24-5.76,7.23-5.76,7.21,2.58,7.21,5.76Z"/><path class="cls-1" d="M777.57,71.63c0,3.18-3.24,5.76-7.22,5.76s-7.22-2.58-7.22-5.76,3.23-5.76,7.22-5.76,7.22,2.58,7.22,5.76Z"/><path class="cls-1" d="M796.64,71.5c0,3.18-3.23,5.76-7.22,5.76s-7.22-2.58-7.22-5.76,3.24-5.75,7.22-5.75,7.22,2.58,7.22,5.75Z"/><path class="cls-1" d="M815.72,71.5c0,3.18-3.24,5.76-7.21,5.76s-7.23-2.58-7.23-5.76,3.24-5.75,7.23-5.75,7.21,2.58,7.21,5.75Z"/><path class="cls-1" d="M834.79,71.58c0,3.18-3.22,5.76-7.21,5.76s-7.22-2.58-7.22-5.76,3.23-5.75,7.22-5.75,7.21,2.58,7.21,5.75Z"/><path class="cls-1" d="M853.88,71.58c0,3.18-3.23,5.76-7.23,5.76s-7.22-2.58-7.22-5.76,3.23-5.75,7.22-5.75,7.23,2.58,7.23,5.75Z"/><path class="cls-1" d="M872.96,71.4c0,3.18-3.24,5.76-7.22,5.76s-7.22-2.58-7.22-5.76,3.23-5.76,7.22-5.76,7.22,2.58,7.22,5.76Z"/><path class="cls-1" d="M52.6,87.77c0,3.17-3.23,5.75-7.22,5.75s-7.22-2.58-7.22-5.75,3.23-5.76,7.22-5.76,7.22,2.58,7.22,5.76Z"/><path class="cls-1" d="M71.67,87.85c0,3.18-3.23,5.75-7.22,5.75s-7.22-2.58-7.22-5.75,3.23-5.76,7.22-5.76,7.22,2.57,7.22,5.76Z"/><path class="cls-1" d="M90.75,87.86c0,3.18-3.23,5.76-7.22,5.76s-7.22-2.58-7.22-5.76,3.24-5.76,7.22-5.76,7.22,2.58,7.22,5.76Z"/><path class="cls-1" d="M109.83,87.71c0,3.18-3.23,5.76-7.22,5.76s-7.22-2.58-7.22-5.76,3.23-5.75,7.22-5.75,7.22,2.58,7.22,5.75Z"/><path class="cls-1" d="M128.91,87.71c0,3.18-3.23,5.76-7.21,5.76s-7.22-2.58-7.22-5.76,3.23-5.76,7.22-5.76,7.21,2.58,7.21,5.76Z"/><path class="cls-1" d="M147.99,87.9c0,3.18-3.23,5.76-7.22,5.76s-7.22-2.58-7.22-5.76,3.23-5.75,7.22-5.75,7.22,2.58,7.22,5.75Z"/><path class="cls-1" d="M167.06,87.9c0,3.18-3.23,5.76-7.21,5.76s-7.23-2.58-7.23-5.76,3.24-5.75,7.23-5.75,7.21,2.58,7.21,5.75Z"/><path class="cls-1" d="M186.14,87.73c0,3.18-3.23,5.76-7.21,5.76s-7.22-2.58-7.22-5.76,3.23-5.75,7.22-5.75,7.21,2.58,7.21,5.75Z"/><path class="cls-1" d="M205.22,87.74c0,3.18-3.23,5.76-7.22,5.76s-7.22-2.58-7.22-5.76,3.24-5.76,7.22-5.76,7.22,2.58,7.22,5.76Z"/><path class="cls-1" d="M224.3,87.8c0,3.18-3.23,5.76-7.21,5.76s-7.22-2.58-7.22-5.76,3.23-5.75,7.22-5.75,7.21,2.58,7.21,5.75Z"/><path class="cls-1" d="M434.15,87.71c0,3.18-3.22,5.76-7.21,5.76s-7.22-2.58-7.22-5.76,3.22-5.75,7.22-5.75,7.21,2.58,7.21,5.75Z"/><path class="cls-1" d="M453.24,87.87c0,3.18-3.23,5.76-7.22,5.76s-7.22-2.58-7.22-5.76,3.24-5.75,7.22-5.75,7.22,2.58,7.22,5.75Z"/><path class="cls-1" d="M472.32,87.88c0,3.18-3.24,5.75-7.21,5.75s-7.23-2.58-7.23-5.75,3.23-5.75,7.23-5.75,7.21,2.58,7.21,5.75Z"/><path class="cls-1" d="M491.39,87.72c0,3.18-3.23,5.75-7.23,5.75s-7.21-2.58-7.21-5.75,3.23-5.75,7.21-5.75,7.23,2.57,7.23,5.75Z"/><path class="cls-1" d="M510.48,87.72c0,3.18-3.24,5.76-7.22,5.76s-7.22-2.58-7.22-5.76,3.23-5.75,7.22-5.75,7.22,2.57,7.22,5.75Z"/><path class="cls-1" d="M529.55,87.78c0,3.18-3.23,5.76-7.21,5.76s-7.22-2.58-7.22-5.76,3.23-5.76,7.22-5.76,7.21,2.58,7.21,5.76Z"/><path class="cls-1" d="M548.63,87.79c0,3.18-3.23,5.76-7.22,5.76s-7.22-2.57-7.22-5.76,3.23-5.75,7.22-5.75,7.22,2.58,7.22,5.75Z"/><path class="cls-1" d="M567.71,87.68c0,3.18-3.24,5.75-7.23,5.75s-7.22-2.57-7.22-5.75,3.23-5.76,7.22-5.76,7.23,2.58,7.23,5.76Z"/><path class="cls-1" d="M586.78,87.67c0,3.18-3.23,5.76-7.21,5.76s-7.22-2.58-7.22-5.76,3.22-5.76,7.22-5.76,7.21,2.58,7.21,5.76Z"/><path class="cls-1" d="M605.86,88.04c0,3.18-3.23,5.76-7.22,5.76s-7.21-2.58-7.21-5.76,3.23-5.76,7.21-5.76,7.22,2.58,7.22,5.76Z"/><path class="cls-1" d="M624.94,88.04c0,3.18-3.23,5.76-7.22,5.76s-7.22-2.58-7.22-5.76,3.25-5.76,7.22-5.76,7.22,2.58,7.22,5.76Z"/><path class="cls-1" d="M644.02,87.93c0,3.18-3.24,5.76-7.22,5.76s-7.22-2.58-7.22-5.76,3.23-5.75,7.22-5.75,7.22,2.58,7.22,5.75Z"/><path class="cls-1" d="M663.09,87.94c0,3.18-3.23,5.75-7.22,5.75s-7.22-2.58-7.22-5.75,3.22-5.75,7.22-5.75,7.22,2.58,7.22,5.75Z"/><path class="cls-1" d="M682.18,87.99c0,3.18-3.23,5.76-7.22,5.76s-7.22-2.58-7.22-5.76,3.24-5.75,7.22-5.75,7.22,2.58,7.22,5.75Z"/><path class="cls-1" d="M701.25,88c0,3.18-3.23,5.76-7.21,5.76s-7.22-2.58-7.22-5.76,3.23-5.76,7.22-5.76,7.21,2.58,7.21,5.76Z"/><path class="cls-1" d="M720.33,87.84c0,3.19-3.24,5.76-7.22,5.76s-7.22-2.57-7.22-5.76,3.24-5.75,7.22-5.75,7.22,2.58,7.22,5.75Z"/><path class="cls-1" d="M739.41,87.85c0,3.18-3.23,5.76-7.22,5.76s-7.22-2.58-7.22-5.76,3.24-5.75,7.22-5.75,7.22,2.58,7.22,5.75Z"/><path class="cls-1" d="M758.48,88.01c0,3.18-3.23,5.76-7.21,5.76s-7.23-2.58-7.23-5.76,3.24-5.75,7.23-5.75,7.21,2.58,7.21,5.75Z"/><path class="cls-1" d="M777.57,88.02c0,3.18-3.24,5.76-7.22,5.76s-7.22-2.57-7.22-5.76,3.23-5.75,7.22-5.75,7.22,2.57,7.22,5.75Z"/><path class="cls-1" d="M796.64,87.89c0,3.18-3.23,5.76-7.22,5.76s-7.22-2.58-7.22-5.76,3.24-5.75,7.22-5.75,7.22,2.58,7.22,5.75Z"/><path class="cls-1" d="M815.72,87.89c0,3.18-3.24,5.76-7.21,5.76s-7.23-2.58-7.23-5.76,3.24-5.76,7.23-5.76,7.21,2.58,7.21,5.76Z"/><path class="cls-1" d="M834.79,87.96c0,3.18-3.22,5.76-7.21,5.76s-7.22-2.57-7.22-5.76,3.23-5.75,7.22-5.75,7.21,2.58,7.21,5.75Z"/><path class="cls-1" d="M853.88,87.97c0,3.18-3.23,5.76-7.23,5.76s-7.22-2.58-7.22-5.76,3.23-5.76,7.22-5.76,7.23,2.58,7.23,5.76Z"/><path class="cls-1" d="M872.96,87.79c0,3.18-3.24,5.75-7.22,5.75s-7.22-2.57-7.22-5.75,3.23-5.76,7.22-5.76,7.22,2.57,7.22,5.76Z"/><path class="cls-1" d="M892.03,87.8c0,3.18-3.23,5.76-7.22,5.76s-7.21-2.58-7.21-5.76,3.22-5.76,7.21-5.76,7.22,2.58,7.22,5.76Z"/><path class="cls-1" d="M33.52,104.15c0,3.18-3.23,5.76-7.22,5.76s-7.22-2.58-7.22-5.76,3.23-5.75,7.22-5.75,7.22,2.58,7.22,5.75Z"/><path class="cls-1" d="M52.59,104.16c0,3.18-3.23,5.76-7.22,5.76s-7.22-2.58-7.22-5.76,3.23-5.75,7.22-5.75,7.22,2.58,7.22,5.75Z"/><path class="cls-1" d="M71.67,104.24c0,3.18-3.23,5.76-7.22,5.76s-7.22-2.58-7.22-5.76,3.23-5.76,7.22-5.76,7.22,2.58,7.22,5.76Z"/><path class="cls-1" d="M90.75,104.25c0,3.18-3.23,5.75-7.22,5.75s-7.22-2.58-7.22-5.75,3.23-5.76,7.22-5.76,7.22,2.58,7.22,5.76Z"/><path class="cls-1" d="M109.83,104.1c0,3.18-3.24,5.76-7.22,5.76s-7.22-2.58-7.22-5.76,3.23-5.76,7.22-5.76,7.22,2.58,7.22,5.76Z"/><path class="cls-1" d="M128.91,104.11c0,3.18-3.23,5.76-7.22,5.76s-7.21-2.58-7.21-5.76,3.22-5.75,7.21-5.75,7.22,2.58,7.22,5.75Z"/><path class="cls-1" d="M147.98,104.29c0,3.18-3.23,5.76-7.22,5.76s-7.22-2.58-7.22-5.76,3.23-5.75,7.22-5.75,7.22,2.58,7.22,5.75Z"/><path class="cls-1" d="M167.06,104.29c0,3.18-3.23,5.76-7.22,5.76s-7.22-2.58-7.22-5.76,3.23-5.76,7.22-5.76,7.22,2.58,7.22,5.76Z"/><path class="cls-1" d="M186.14,104.12c0,3.18-3.23,5.76-7.22,5.76s-7.21-2.57-7.21-5.76,3.22-5.75,7.21-5.75,7.22,2.58,7.22,5.75Z"/><path class="cls-1" d="M205.22,104.13c0,3.18-3.24,5.75-7.22,5.75s-7.22-2.58-7.22-5.75,3.23-5.76,7.22-5.76,7.22,2.58,7.22,5.76Z"/><path class="cls-1" d="M434.15,104.09c0,3.18-3.23,5.76-7.21,5.76s-7.23-2.58-7.23-5.76,3.24-5.75,7.23-5.75,7.21,2.58,7.21,5.75Z"/><path class="cls-1" d="M453.24,104.27c0,3.18-3.23,5.76-7.22,5.76s-7.22-2.58-7.22-5.76,3.23-5.76,7.22-5.76,7.22,2.58,7.22,5.76Z"/><path class="cls-1" d="M472.32,104.27c0,3.18-3.23,5.75-7.22,5.75s-7.22-2.57-7.22-5.75,3.23-5.75,7.22-5.75,7.22,2.58,7.22,5.75Z"/><path class="cls-1" d="M491.39,104.11c0,3.18-3.24,5.76-7.23,5.76s-7.22-2.58-7.22-5.76,3.23-5.75,7.22-5.75,7.23,2.58,7.23,5.75Z"/><path class="cls-1" d="M510.46,104.12c0,3.18-3.22,5.76-7.21,5.76s-7.21-2.57-7.21-5.76,3.22-5.75,7.21-5.75,7.21,2.58,7.21,5.75Z"/><path class="cls-1" d="M529.54,104.17c0,3.18-3.23,5.76-7.22,5.76s-7.22-2.58-7.22-5.76,3.23-5.75,7.22-5.75,7.22,2.57,7.22,5.75Z"/><path class="cls-1" d="M548.63,104.17c0,3.18-3.24,5.76-7.23,5.76s-7.22-2.57-7.22-5.76,3.23-5.75,7.22-5.75,7.23,2.58,7.23,5.75Z"/><path class="cls-1" d="M586.78,104.07c0,3.18-3.23,5.75-7.22,5.75s-7.21-2.58-7.21-5.75,3.23-5.76,7.21-5.76,7.22,2.58,7.22,5.76Z"/><path class="cls-1" d="M605.86,104.43c0,3.18-3.23,5.75-7.22,5.75s-7.23-2.57-7.23-5.75,3.24-5.75,7.23-5.75,7.22,2.58,7.22,5.75Z"/><path class="cls-1" d="M624.94,104.43c0,3.18-3.24,5.76-7.22,5.76s-7.22-2.58-7.22-5.76,3.24-5.76,7.22-5.76,7.22,2.58,7.22,5.76Z"/><path class="cls-1" d="M644.02,104.32c0,3.18-3.24,5.76-7.22,5.76s-7.22-2.58-7.22-5.76,3.23-5.75,7.22-5.75,7.22,2.58,7.22,5.75Z"/><path class="cls-1" d="M663.09,104.33c0,3.18-3.23,5.76-7.22,5.76s-7.22-2.58-7.22-5.76,3.23-5.75,7.22-5.75,7.22,2.58,7.22,5.75Z"/><path class="cls-1" d="M682.17,104.38c0,3.17-3.23,5.76-7.22,5.76s-7.22-2.58-7.22-5.76,3.23-5.75,7.22-5.75,7.22,2.58,7.22,5.75Z"/><path class="cls-1" d="M701.25,104.39c0,3.18-3.23,5.76-7.23,5.76s-7.21-2.58-7.21-5.76,3.23-5.75,7.21-5.75,7.23,2.58,7.23,5.75Z"/><path class="cls-1" d="M720.33,104.23c0,3.18-3.24,5.76-7.23,5.76s-7.22-2.58-7.22-5.76,3.24-5.75,7.22-5.75,7.23,2.58,7.23,5.75Z"/><path class="cls-1" d="M739.41,104.24c0,3.18-3.23,5.76-7.22,5.76s-7.22-2.58-7.22-5.76,3.23-5.75,7.22-5.75,7.22,2.58,7.22,5.75Z"/><path class="cls-1" d="M758.48,104.41c0,3.18-3.22,5.76-7.22,5.76s-7.22-2.58-7.22-5.76,3.24-5.76,7.22-5.76,7.22,2.58,7.22,5.76Z"/><path class="cls-1" d="M777.57,104.41c0,3.18-3.24,5.76-7.23,5.76s-7.22-2.58-7.22-5.76,3.24-5.75,7.22-5.75,7.23,2.58,7.23,5.75Z"/><path class="cls-1" d="M796.64,104.28c0,3.18-3.24,5.76-7.22,5.76s-7.22-2.58-7.22-5.76,3.23-5.75,7.22-5.75,7.22,2.58,7.22,5.75Z"/><path class="cls-1" d="M815.72,104.28c0,3.18-3.24,5.76-7.23,5.76s-7.22-2.58-7.22-5.76,3.24-5.75,7.22-5.75,7.23,2.58,7.23,5.75Z"/><path class="cls-1" d="M834.79,104.36c0,3.18-3.23,5.75-7.21,5.75s-7.22-2.58-7.22-5.75,3.23-5.76,7.22-5.76,7.21,2.58,7.21,5.76Z"/><path class="cls-1" d="M853.88,104.36c0,3.18-3.24,5.76-7.23,5.76s-7.22-2.58-7.22-5.76,3.23-5.76,7.22-5.76,7.23,2.58,7.23,5.76Z"/><path class="cls-1" d="M872.96,104.18c0,3.18-3.24,5.76-7.22,5.76s-7.22-2.58-7.22-5.76,3.24-5.75,7.22-5.75,7.22,2.58,7.22,5.75Z"/><path class="cls-1" d="M33.52,120.53c0,3.18-3.23,5.76-7.22,5.76s-7.22-2.58-7.22-5.76,3.23-5.75,7.22-5.75,7.22,2.58,7.22,5.75Z"/><path class="cls-1" d="M52.6,120.54c0,3.18-3.23,5.76-7.22,5.76s-7.22-2.57-7.22-5.76,3.23-5.75,7.22-5.75,7.22,2.58,7.22,5.75Z"/><path class="cls-1" d="M71.67,120.63c0,3.18-3.23,5.76-7.22,5.76s-7.22-2.58-7.22-5.76,3.23-5.75,7.22-5.75,7.22,2.58,7.22,5.75Z"/><path class="cls-1" d="M90.75,120.63c0,3.18-3.23,5.76-7.22,5.76s-7.22-2.58-7.22-5.76,3.24-5.75,7.22-5.75,7.22,2.58,7.22,5.75Z"/><path class="cls-1" d="M109.83,120.49c0,3.18-3.23,5.76-7.22,5.76s-7.22-2.58-7.22-5.76,3.23-5.75,7.22-5.75,7.22,2.58,7.22,5.75Z"/><path class="cls-1" d="M128.91,120.5c0,3.18-3.23,5.75-7.21,5.75s-7.22-2.58-7.22-5.75,3.23-5.76,7.22-5.76,7.21,2.58,7.21,5.76Z"/><path class="cls-1" d="M147.99,120.68c0,3.18-3.23,5.76-7.22,5.76s-7.22-2.58-7.22-5.76,3.23-5.76,7.22-5.76,7.22,2.58,7.22,5.76Z"/><path class="cls-1" d="M167.06,120.68c0,3.17-3.23,5.76-7.21,5.76s-7.23-2.58-7.23-5.76,3.24-5.75,7.23-5.75,7.21,2.58,7.21,5.75Z"/><path class="cls-1" d="M186.14,120.51c0,3.18-3.23,5.76-7.21,5.76s-7.22-2.58-7.22-5.76,3.23-5.75,7.22-5.75,7.21,2.58,7.21,5.75Z"/><path class="cls-1" d="M415.09,120.48c0,3.18-3.24,5.75-7.22,5.75s-7.22-2.58-7.22-5.75,3.22-5.75,7.22-5.75,7.22,2.58,7.22,5.75Z"/><path class="cls-1" d="M434.15,120.49c0,3.18-3.22,5.75-7.21,5.75s-7.22-2.57-7.22-5.75,3.22-5.76,7.22-5.76,7.21,2.58,7.21,5.76Z"/><path class="cls-1" d="M510.48,120.51c0,3.18-3.24,5.76-7.22,5.76s-7.22-2.58-7.22-5.76,3.23-5.75,7.22-5.75,7.22,2.58,7.22,5.75Z"/><path class="cls-1" d="M529.55,120.56c0,3.18-3.23,5.76-7.21,5.76s-7.22-2.58-7.22-5.76,3.23-5.76,7.22-5.76,7.21,2.58,7.21,5.76Z"/><path class="cls-1" d="M548.63,120.57c0,3.18-3.23,5.76-7.22,5.76s-7.22-2.58-7.22-5.76,3.23-5.75,7.22-5.75,7.22,2.58,7.22,5.75Z"/><path class="cls-1" d="M567.71,120.46c0,3.18-3.24,5.76-7.23,5.76s-7.22-2.58-7.22-5.76,3.23-5.75,7.22-5.75,7.23,2.58,7.23,5.75Z"/><path class="cls-1" d="M586.78,120.45c0,3.18-3.23,5.76-7.21,5.76s-7.22-2.58-7.22-5.76,3.22-5.76,7.22-5.76,7.21,2.58,7.21,5.76Z"/><path class="cls-1" d="M605.86,120.82c0,3.18-3.23,5.75-7.22,5.75s-7.21-2.58-7.21-5.75,3.23-5.76,7.21-5.76,7.22,2.58,7.22,5.76Z"/><path class="cls-1" d="M624.94,120.82c0,3.18-3.23,5.75-7.22,5.75s-7.22-2.57-7.22-5.75,3.25-5.76,7.22-5.76,7.22,2.58,7.22,5.76Z"/><path class="cls-1" d="M644.02,120.71c0,3.18-3.24,5.76-7.22,5.76s-7.22-2.58-7.22-5.76,3.23-5.76,7.22-5.76,7.22,2.58,7.22,5.76Z"/><path class="cls-1" d="M663.09,120.72c0,3.18-3.23,5.76-7.22,5.76s-7.22-2.58-7.22-5.76,3.22-5.75,7.22-5.75,7.22,2.58,7.22,5.75Z"/><path class="cls-1" d="M682.18,120.77c0,3.18-3.23,5.76-7.22,5.76s-7.22-2.58-7.22-5.76,3.24-5.75,7.22-5.75,7.22,2.58,7.22,5.75Z"/><path class="cls-1" d="M701.25,120.78c0,3.18-3.23,5.76-7.21,5.76s-7.22-2.58-7.22-5.76,3.23-5.76,7.22-5.76,7.21,2.58,7.21,5.76Z"/><path class="cls-1" d="M720.33,120.62c0,3.18-3.24,5.76-7.22,5.76s-7.22-2.58-7.22-5.76,3.24-5.76,7.22-5.76,7.22,2.58,7.22,5.76Z"/><path class="cls-1" d="M739.41,120.63c0,3.18-3.23,5.76-7.22,5.76s-7.22-2.58-7.22-5.76,3.24-5.75,7.22-5.75,7.22,2.57,7.22,5.75Z"/><path class="cls-1" d="M758.48,120.79c0,3.18-3.23,5.76-7.21,5.76s-7.23-2.58-7.23-5.76,3.24-5.75,7.23-5.75,7.21,2.58,7.21,5.75Z"/><path class="cls-1" d="M777.57,120.8c0,3.17-3.24,5.76-7.22,5.76s-7.22-2.58-7.22-5.76,3.23-5.76,7.22-5.76,7.22,2.58,7.22,5.76Z"/><path class="cls-1" d="M796.64,120.67c0,3.18-3.23,5.76-7.22,5.76s-7.22-2.57-7.22-5.76,3.24-5.75,7.22-5.75,7.22,2.58,7.22,5.75Z"/><path class="cls-1" d="M815.72,120.67c0,3.18-3.24,5.76-7.21,5.76s-7.23-2.58-7.23-5.76,3.24-5.75,7.23-5.75,7.21,2.58,7.21,5.75Z"/><path class="cls-1" d="M834.79,120.74c0,3.18-3.22,5.76-7.21,5.76s-7.22-2.58-7.22-5.76,3.23-5.75,7.22-5.75,7.21,2.58,7.21,5.75Z"/><path class="cls-1" d="M853.88,120.75c0,3.17-3.23,5.75-7.23,5.75s-7.22-2.58-7.22-5.75,3.23-5.76,7.22-5.76,7.23,2.58,7.23,5.76Z"/><path class="cls-1" d="M872.96,120.57c0,3.18-3.24,5.76-7.22,5.76s-7.22-2.58-7.22-5.76,3.23-5.75,7.22-5.75,7.22,2.58,7.22,5.75Z"/><path class="cls-1" d="M33.52,136.93c0,3.18-3.23,5.76-7.22,5.76s-7.22-2.58-7.22-5.76,3.23-5.75,7.22-5.75,7.22,2.58,7.22,5.75Z"/><path class="cls-1" d="M52.59,136.94c0,3.18-3.23,5.75-7.22,5.75s-7.22-2.58-7.22-5.75,3.23-5.76,7.22-5.76,7.22,2.57,7.22,5.76Z"/><path class="cls-1" d="M71.67,137.02c0,3.18-3.23,5.76-7.22,5.76s-7.22-2.58-7.22-5.76,3.23-5.75,7.22-5.75,7.22,2.58,7.22,5.75Z"/><path class="cls-1" d="M90.75,137.03c0,3.18-3.23,5.76-7.22,5.76s-7.22-2.57-7.22-5.76,3.23-5.75,7.22-5.75,7.22,2.58,7.22,5.75Z"/><path class="cls-1" d="M109.83,136.88c0,3.18-3.24,5.76-7.22,5.76s-7.22-2.57-7.22-5.76,3.23-5.75,7.22-5.75,7.22,2.58,7.22,5.75Z"/><path class="cls-1" d="M128.91,136.88c0,3.18-3.23,5.76-7.22,5.76s-7.21-2.58-7.21-5.76,3.22-5.75,7.21-5.75,7.22,2.58,7.22,5.75Z"/><path class="cls-1" d="M147.98,137.07c0,3.18-3.23,5.76-7.22,5.76s-7.22-2.58-7.22-5.76,3.23-5.75,7.22-5.75,7.22,2.58,7.22,5.75Z"/><path class="cls-1" d="M167.06,137.08c0,3.18-3.23,5.75-7.22,5.75s-7.22-2.58-7.22-5.75,3.23-5.75,7.22-5.75,7.22,2.57,7.22,5.75Z"/><path class="cls-1" d="M434.15,136.87c0,3.18-3.23,5.76-7.21,5.76s-7.23-2.58-7.23-5.76,3.24-5.75,7.23-5.75,7.21,2.57,7.21,5.75Z"/><path class="cls-1" d="M453.24,137.05c0,3.18-3.23,5.76-7.22,5.76s-7.22-2.58-7.22-5.76,3.23-5.76,7.22-5.76,7.22,2.58,7.22,5.76Z"/><path class="cls-1" d="M472.32,137.05c0,3.18-3.23,5.76-7.22,5.76s-7.22-2.58-7.22-5.76,3.23-5.76,7.22-5.76,7.22,2.58,7.22,5.76Z"/><path class="cls-1" d="M567.7,136.85c0,3.18-3.22,5.76-7.21,5.76s-7.22-2.58-7.22-5.76,3.23-5.75,7.22-5.75,7.21,2.58,7.21,5.75Z"/><path class="cls-1" d="M586.78,136.85c0,3.18-3.23,5.76-7.22,5.76s-7.21-2.58-7.21-5.76,3.23-5.75,7.21-5.75,7.22,2.58,7.22,5.75Z"/><path class="cls-1" d="M605.86,137.21c0,3.18-3.23,5.76-7.22,5.76s-7.23-2.58-7.23-5.76,3.24-5.76,7.23-5.76,7.22,2.58,7.22,5.76Z"/><path class="cls-1" d="M624.94,137.21c0,3.18-3.24,5.76-7.22,5.76s-7.22-2.58-7.22-5.76,3.24-5.75,7.22-5.75,7.22,2.58,7.22,5.75Z"/><path class="cls-1" d="M644.02,137.1c0,3.18-3.24,5.76-7.22,5.76s-7.22-2.58-7.22-5.76,3.23-5.75,7.22-5.75,7.22,2.58,7.22,5.75Z"/><path class="cls-1" d="M663.09,137.11c0,3.18-3.23,5.76-7.22,5.76s-7.22-2.58-7.22-5.76,3.23-5.75,7.22-5.75,7.22,2.58,7.22,5.75Z"/><path class="cls-1" d="M682.17,137.16c0,3.18-3.23,5.75-7.22,5.75s-7.22-2.57-7.22-5.75,3.23-5.75,7.22-5.75,7.22,2.58,7.22,5.75Z"/><path class="cls-1" d="M701.25,137.17c0,3.18-3.23,5.76-7.23,5.76s-7.21-2.58-7.21-5.76,3.23-5.75,7.21-5.75,7.23,2.57,7.23,5.75Z"/><path class="cls-1" d="M720.33,137.01c0,3.18-3.24,5.76-7.23,5.76s-7.22-2.58-7.22-5.76,3.24-5.76,7.22-5.76,7.23,2.58,7.23,5.76Z"/><path class="cls-1" d="M739.41,137.01c0,3.18-3.23,5.76-7.22,5.76s-7.22-2.58-7.22-5.76,3.23-5.75,7.22-5.75,7.22,2.58,7.22,5.75Z"/><path class="cls-1" d="M758.48,137.18c0,3.18-3.22,5.76-7.22,5.76s-7.22-2.58-7.22-5.76,3.24-5.75,7.22-5.75,7.22,2.58,7.22,5.75Z"/><path class="cls-1" d="M777.57,137.18c0,3.18-3.24,5.76-7.23,5.76s-7.22-2.58-7.22-5.76,3.24-5.75,7.22-5.75,7.23,2.58,7.23,5.75Z"/><path class="cls-1" d="M796.64,137.06c0,3.18-3.24,5.76-7.22,5.76s-7.22-2.58-7.22-5.76,3.23-5.75,7.22-5.75,7.22,2.58,7.22,5.75Z"/><path class="cls-1" d="M815.72,137.06c0,3.18-3.24,5.76-7.23,5.76s-7.22-2.57-7.22-5.76,3.24-5.76,7.22-5.76,7.23,2.58,7.23,5.76Z"/><path class="cls-1" d="M834.79,137.14c0,3.18-3.23,5.76-7.21,5.76s-7.22-2.58-7.22-5.76,3.23-5.75,7.22-5.75,7.21,2.58,7.21,5.75Z"/><path class="cls-1" d="M853.88,137.14c0,3.17-3.24,5.76-7.23,5.76s-7.22-2.58-7.22-5.76,3.23-5.76,7.22-5.76,7.23,2.58,7.23,5.76Z"/><path class="cls-1" d="M872.96,136.96c0,3.18-3.24,5.76-7.22,5.76s-7.22-2.58-7.22-5.76,3.24-5.76,7.22-5.76,7.22,2.58,7.22,5.76Z"/><path class="cls-1" d="M33.52,153.31c0,3.18-3.23,5.76-7.22,5.76s-7.22-2.58-7.22-5.76,3.23-5.75,7.22-5.75,7.22,2.58,7.22,5.75Z"/><path class="cls-1" d="M52.59,153.32c0,3.18-3.23,5.76-7.22,5.76s-7.22-2.58-7.22-5.76,3.23-5.75,7.22-5.75,7.22,2.58,7.22,5.75Z"/><path class="cls-1" d="M71.67,153.41c0,3.18-3.23,5.76-7.22,5.76s-7.22-2.58-7.22-5.76,3.23-5.76,7.22-5.76,7.22,2.58,7.22,5.76Z"/><path class="cls-1" d="M90.75,153.41c0,3.18-3.23,5.76-7.22,5.76s-7.22-2.58-7.22-5.76,3.23-5.75,7.22-5.75,7.22,2.58,7.22,5.75Z"/><path class="cls-1" d="M109.83,153.27c0,3.18-3.24,5.76-7.22,5.76s-7.22-2.58-7.22-5.76,3.23-5.75,7.22-5.75,7.22,2.58,7.22,5.75Z"/><path class="cls-1" d="M128.91,153.27c0,3.18-3.23,5.76-7.22,5.76s-7.21-2.58-7.21-5.76,3.22-5.75,7.21-5.75,7.22,2.58,7.22,5.75Z"/><path class="cls-1" d="M147.98,153.45c0,3.18-3.23,5.76-7.22,5.76s-7.22-2.58-7.22-5.76,3.23-5.76,7.22-5.76,7.22,2.58,7.22,5.76Z"/><path class="cls-1" d="M415.08,153.26c0,3.17-3.23,5.75-7.23,5.75s-7.21-2.58-7.21-5.75,3.23-5.76,7.21-5.76,7.23,2.58,7.23,5.76Z"/><path class="cls-1" d="M434.15,153.26c0,3.18-3.23,5.76-7.21,5.76s-7.23-2.58-7.23-5.76,3.24-5.75,7.23-5.75,7.21,2.58,7.21,5.75Z"/><path class="cls-1" d="M453.24,153.43c0,3.18-3.23,5.76-7.22,5.76s-7.22-2.58-7.22-5.76,3.23-5.75,7.22-5.75,7.22,2.58,7.22,5.75Z"/><path class="cls-1" d="M472.32,153.44c0,3.18-3.23,5.76-7.22,5.76s-7.22-2.58-7.22-5.76,3.23-5.75,7.22-5.75,7.22,2.58,7.22,5.75Z"/><path class="cls-1" d="M491.39,153.28c0,3.18-3.24,5.76-7.23,5.76s-7.22-2.58-7.22-5.76,3.23-5.75,7.22-5.75,7.23,2.58,7.23,5.75Z"/><path class="cls-1" d="M510.46,153.28c0,3.18-3.22,5.76-7.21,5.76s-7.21-2.58-7.21-5.76,3.22-5.75,7.21-5.75,7.21,2.57,7.21,5.75Z"/><path class="cls-1" d="M529.54,153.33c0,3.18-3.23,5.76-7.22,5.76s-7.22-2.58-7.22-5.76,3.23-5.75,7.22-5.75,7.22,2.58,7.22,5.75Z"/><path class="cls-1" d="M548.63,153.34c0,3.18-3.24,5.76-7.23,5.76s-7.22-2.58-7.22-5.76,3.23-5.75,7.22-5.75,7.23,2.57,7.23,5.75Z"/><path class="cls-1" d="M567.7,153.24c0,3.18-3.22,5.76-7.21,5.76s-7.22-2.58-7.22-5.76,3.23-5.75,7.22-5.75,7.21,2.58,7.21,5.75Z"/><path class="cls-1" d="M586.78,153.24c0,3.17-3.23,5.76-7.22,5.76s-7.21-2.58-7.21-5.76,3.23-5.76,7.21-5.76,7.22,2.58,7.22,5.76Z"/><path class="cls-1" d="M605.86,153.6c0,3.17-3.23,5.75-7.22,5.75s-7.23-2.58-7.23-5.75,3.24-5.76,7.23-5.76,7.22,2.57,7.22,5.76Z"/><path class="cls-1" d="M624.94,153.6c0,3.18-3.24,5.76-7.22,5.76s-7.22-2.58-7.22-5.76,3.24-5.75,7.22-5.75,7.22,2.58,7.22,5.75Z"/><path class="cls-1" d="M644.02,153.49c0,3.18-3.24,5.76-7.22,5.76s-7.22-2.58-7.22-5.76,3.23-5.75,7.22-5.75,7.22,2.58,7.22,5.75Z"/><path class="cls-1" d="M663.09,153.5c0,3.18-3.23,5.75-7.22,5.75s-7.22-2.58-7.22-5.75,3.23-5.75,7.22-5.75,7.22,2.57,7.22,5.75Z"/><path class="cls-1" d="M682.17,153.55c0,3.18-3.23,5.75-7.22,5.75s-7.22-2.57-7.22-5.75,3.23-5.75,7.22-5.75,7.22,2.58,7.22,5.75Z"/><path class="cls-1" d="M701.25,153.55c0,3.18-3.23,5.76-7.23,5.76s-7.21-2.58-7.21-5.76,3.23-5.75,7.21-5.75,7.23,2.57,7.23,5.75Z"/><path class="cls-1" d="M720.33,153.4c0,3.18-3.24,5.76-7.23,5.76s-7.22-2.58-7.22-5.76,3.24-5.75,7.22-5.75,7.23,2.58,7.23,5.75Z"/><path class="cls-1" d="M739.41,153.4c0,3.18-3.23,5.76-7.22,5.76s-7.22-2.58-7.22-5.76,3.23-5.75,7.22-5.75,7.22,2.58,7.22,5.75Z"/><path class="cls-1" d="M758.48,153.57c0,3.18-3.22,5.75-7.22,5.75s-7.22-2.58-7.22-5.75,3.24-5.76,7.22-5.76,7.22,2.58,7.22,5.76Z"/><path class="cls-1" d="M777.57,153.58c0,3.18-3.24,5.76-7.23,5.76s-7.22-2.58-7.22-5.76,3.24-5.75,7.22-5.75,7.23,2.58,7.23,5.75Z"/><path class="cls-1" d="M796.64,153.45c0,3.17-3.24,5.76-7.22,5.76s-7.22-2.58-7.22-5.76,3.23-5.76,7.22-5.76,7.22,2.58,7.22,5.76Z"/><path class="cls-1" d="M815.72,153.45c0,3.18-3.24,5.76-7.23,5.76s-7.22-2.58-7.22-5.76,3.24-5.75,7.22-5.75,7.23,2.58,7.23,5.75Z"/><path class="cls-1" d="M834.79,153.53c0,3.18-3.23,5.75-7.21,5.75s-7.22-2.57-7.22-5.75,3.23-5.75,7.22-5.75,7.21,2.57,7.21,5.75Z"/><path class="cls-1" d="M853.88,153.53c0,3.18-3.24,5.76-7.23,5.76s-7.22-2.58-7.22-5.76,3.23-5.75,7.22-5.75,7.23,2.58,7.23,5.75Z"/><path class="cls-1" d="M872.96,153.35c0,3.18-3.24,5.76-7.22,5.76s-7.22-2.58-7.22-5.76,3.24-5.75,7.22-5.75,7.22,2.58,7.22,5.75Z"/><path class="cls-1" d="M892.03,153.36c0,3.17-3.24,5.75-7.22,5.75s-7.22-2.58-7.22-5.75,3.23-5.76,7.22-5.76,7.22,2.57,7.22,5.76Z"/><path class="cls-1" d="M33.52,169.71c0,3.18-3.23,5.76-7.22,5.76s-7.22-2.58-7.22-5.76,3.23-5.75,7.22-5.75,7.22,2.58,7.22,5.75Z"/><path class="cls-1" d="M52.59,169.71c0,3.18-3.23,5.76-7.22,5.76s-7.22-2.58-7.22-5.76,3.23-5.75,7.22-5.75,7.22,2.58,7.22,5.75Z"/><path class="cls-1" d="M71.67,169.8c0,3.18-3.23,5.76-7.22,5.76s-7.22-2.58-7.22-5.76,3.23-5.75,7.22-5.75,7.22,2.58,7.22,5.75Z"/><path class="cls-1" d="M128.91,169.67c0,3.18-3.23,5.75-7.21,5.75s-7.22-2.58-7.22-5.75,3.23-5.75,7.22-5.75,7.21,2.58,7.21,5.75Z"/><path class="cls-1" d="M396,169.78c0,3.18-3.24,5.76-7.22,5.76s-7.22-2.58-7.22-5.76,3.23-5.75,7.22-5.75,7.22,2.58,7.22,5.75Z"/><path class="cls-1" d="M415.08,169.65c0,3.18-3.23,5.76-7.22,5.76s-7.22-2.58-7.22-5.76,3.22-5.75,7.22-5.75,7.22,2.58,7.22,5.75Z"/><path class="cls-1" d="M434.15,169.65c0,3.18-3.22,5.76-7.21,5.76s-7.22-2.58-7.22-5.76,3.23-5.75,7.22-5.75,7.21,2.58,7.21,5.75Z"/><path class="cls-1" d="M453.24,169.82c0,3.18-3.23,5.76-7.22,5.76s-7.22-2.58-7.22-5.76,3.23-5.75,7.22-5.75,7.22,2.58,7.22,5.75Z"/><path class="cls-1" d="M472.32,169.83c0,3.18-3.23,5.76-7.22,5.76s-7.22-2.58-7.22-5.76,3.23-5.76,7.22-5.76,7.22,2.58,7.22,5.76Z"/><path class="cls-1" d="M491.39,169.67c0,3.18-3.23,5.76-7.23,5.76s-7.21-2.58-7.21-5.76,3.23-5.76,7.21-5.76,7.23,2.58,7.23,5.76Z"/><path class="cls-1" d="M510.47,169.68c0,3.18-3.24,5.76-7.22,5.76s-7.22-2.58-7.22-5.76,3.22-5.75,7.22-5.75,7.22,2.58,7.22,5.75Z"/><path class="cls-1" d="M529.54,169.73c0,3.18-3.23,5.76-7.22,5.76s-7.22-2.58-7.22-5.76,3.23-5.76,7.22-5.76,7.22,2.58,7.22,5.76Z"/><path class="cls-1" d="M548.63,169.73c0,3.18-3.23,5.76-7.23,5.76s-7.21-2.57-7.21-5.76,3.23-5.76,7.21-5.76,7.23,2.58,7.23,5.76Z"/><path class="cls-1" d="M567.71,169.63c0,3.18-3.24,5.76-7.22,5.76s-7.22-2.58-7.22-5.76,3.23-5.75,7.22-5.75,7.22,2.58,7.22,5.75Z"/><path class="cls-1" d="M586.78,169.62c0,3.18-3.23,5.76-7.21,5.76s-7.22-2.58-7.22-5.76,3.22-5.75,7.22-5.75,7.21,2.58,7.21,5.75Z"/><path class="cls-1" d="M605.86,169.99c0,3.18-3.23,5.75-7.22,5.75s-7.21-2.58-7.21-5.75,3.23-5.75,7.21-5.75,7.22,2.58,7.22,5.75Z"/><path class="cls-1" d="M624.94,169.99c0,3.18-3.24,5.76-7.22,5.76s-7.22-2.58-7.22-5.76,3.24-5.75,7.22-5.75,7.22,2.58,7.22,5.75Z"/><path class="cls-1" d="M644.02,169.88c0,3.18-3.24,5.76-7.22,5.76s-7.22-2.57-7.22-5.76,3.23-5.75,7.22-5.75,7.22,2.58,7.22,5.75Z"/><path class="cls-1" d="M682.18,169.94c0,3.18-3.23,5.76-7.22,5.76s-7.22-2.58-7.22-5.76,3.24-5.75,7.22-5.75,7.22,2.58,7.22,5.75Z"/><path class="cls-1" d="M701.25,169.95c0,3.18-3.23,5.76-7.23,5.76s-7.21-2.58-7.21-5.76,3.23-5.75,7.21-5.75,7.23,2.58,7.23,5.75Z"/><path class="cls-1" d="M720.33,169.79c0,3.18-3.24,5.76-7.23,5.76s-7.22-2.58-7.22-5.76,3.24-5.75,7.22-5.75,7.23,2.58,7.23,5.75Z"/><path class="cls-1" d="M739.41,169.79c0,3.18-3.23,5.76-7.22,5.76s-7.22-2.58-7.22-5.76,3.23-5.75,7.22-5.75,7.22,2.58,7.22,5.75Z"/><path class="cls-1" d="M758.48,169.96c0,3.18-3.22,5.76-7.22,5.76s-7.22-2.58-7.22-5.76,3.24-5.75,7.22-5.75,7.22,2.58,7.22,5.75Z"/><path class="cls-1" d="M777.57,169.97c0,3.18-3.24,5.76-7.23,5.76s-7.21-2.58-7.21-5.76,3.23-5.75,7.21-5.75,7.23,2.57,7.23,5.75Z"/><path class="cls-1" d="M796.64,169.83c0,3.18-3.23,5.76-7.22,5.76s-7.22-2.58-7.22-5.76,3.23-5.75,7.22-5.75,7.22,2.58,7.22,5.75Z"/><path class="cls-1" d="M815.72,169.84c0,3.18-3.24,5.76-7.23,5.76s-7.22-2.58-7.22-5.76,3.24-5.75,7.22-5.75,7.23,2.58,7.23,5.75Z"/><path class="cls-1" d="M834.79,169.91c0,3.18-3.22,5.76-7.21,5.76s-7.22-2.58-7.22-5.76,3.23-5.75,7.22-5.75,7.21,2.58,7.21,5.75Z"/><path class="cls-1" d="M853.88,169.92c0,3.18-3.23,5.76-7.23,5.76s-7.22-2.58-7.22-5.76,3.23-5.75,7.22-5.75,7.23,2.57,7.23,5.75Z"/><path class="cls-1" d="M872.96,169.74c0,3.18-3.24,5.76-7.22,5.76s-7.21-2.58-7.21-5.76,3.23-5.75,7.21-5.75,7.22,2.57,7.22,5.75Z"/><path class="cls-1" d="M892.03,169.75c0,3.17-3.23,5.76-7.22,5.76s-7.21-2.58-7.21-5.76,3.22-5.76,7.21-5.76,7.22,2.58,7.22,5.76Z"/><path class="cls-1" d="M52.59,186.1c0,3.18-3.23,5.76-7.22,5.76s-7.22-2.57-7.22-5.76,3.23-5.75,7.22-5.75,7.22,2.58,7.22,5.75Z"/><path class="cls-1" d="M71.67,186.18c0,3.18-3.23,5.76-7.22,5.76s-7.22-2.58-7.22-5.76,3.23-5.75,7.22-5.75,7.22,2.58,7.22,5.75Z"/><path class="cls-1" d="M396,186.17c0,3.17-3.23,5.75-7.22,5.75s-7.22-2.58-7.22-5.75,3.23-5.76,7.22-5.76,7.22,2.58,7.22,5.76Z"/><path class="cls-1" d="M415.08,186.04c0,3.18-3.23,5.76-7.23,5.76s-7.21-2.58-7.21-5.76,3.23-5.75,7.21-5.75,7.23,2.58,7.23,5.75Z"/><path class="cls-1" d="M434.15,186.04c0,3.18-3.23,5.76-7.21,5.76s-7.23-2.58-7.23-5.76,3.24-5.75,7.23-5.75,7.21,2.58,7.21,5.75Z"/><path class="cls-1" d="M453.24,186.21c0,3.18-3.23,5.76-7.22,5.76s-7.22-2.58-7.22-5.76,3.23-5.75,7.22-5.75,7.22,2.58,7.22,5.75Z"/><path class="cls-1" d="M472.32,186.22c0,3.18-3.23,5.76-7.22,5.76s-7.22-2.58-7.22-5.76,3.23-5.75,7.22-5.75,7.22,2.58,7.22,5.75Z"/><path class="cls-1" d="M491.39,186.06c0,3.18-3.24,5.76-7.23,5.76s-7.22-2.58-7.22-5.76,3.23-5.75,7.22-5.75,7.23,2.58,7.23,5.75Z"/><path class="cls-1" d="M510.46,186.06c0,3.18-3.22,5.76-7.21,5.76s-7.21-2.57-7.21-5.76,3.22-5.76,7.21-5.76,7.21,2.58,7.21,5.76Z"/><path class="cls-1" d="M529.54,186.12c0,3.18-3.23,5.76-7.22,5.76s-7.22-2.58-7.22-5.76,3.23-5.75,7.22-5.75,7.22,2.58,7.22,5.75Z"/><path class="cls-1" d="M548.63,186.12c0,3.18-3.24,5.76-7.23,5.76s-7.22-2.58-7.22-5.76,3.23-5.75,7.22-5.75,7.23,2.58,7.23,5.75Z"/><path class="cls-1" d="M567.7,186.02c0,3.18-3.22,5.76-7.21,5.76s-7.22-2.58-7.22-5.76,3.23-5.75,7.22-5.75,7.21,2.57,7.21,5.75Z"/><path class="cls-1" d="M586.78,186.01c0,3.18-3.23,5.75-7.22,5.75s-7.21-2.57-7.21-5.75,3.23-5.76,7.21-5.76,7.22,2.58,7.22,5.76Z"/><path class="cls-1" d="M605.86,186.37c0,3.18-3.23,5.76-7.22,5.76s-7.23-2.57-7.23-5.76,3.24-5.75,7.23-5.75,7.22,2.58,7.22,5.75Z"/><path class="cls-1" d="M624.94,186.38c0,3.18-3.24,5.76-7.22,5.76s-7.22-2.58-7.22-5.76,3.24-5.75,7.22-5.75,7.22,2.58,7.22,5.75Z"/><path class="cls-1" d="M644.02,186.27c0,3.18-3.24,5.75-7.22,5.75s-7.22-2.58-7.22-5.75,3.23-5.76,7.22-5.76,7.22,2.58,7.22,5.76Z"/><path class="cls-1" d="M663.09,186.28c0,3.18-3.23,5.76-7.22,5.76s-7.22-2.58-7.22-5.76,3.23-5.75,7.22-5.75,7.22,2.58,7.22,5.75Z"/><path class="cls-1" d="M739.41,186.18c0,3.18-3.23,5.76-7.22,5.76s-7.22-2.58-7.22-5.76,3.23-5.75,7.22-5.75,7.22,2.58,7.22,5.75Z"/><path class="cls-1" d="M758.48,186.35c0,3.18-3.22,5.75-7.22,5.75s-7.22-2.58-7.22-5.75,3.24-5.76,7.22-5.76,7.22,2.58,7.22,5.76Z"/><path class="cls-1" d="M777.57,186.36c0,3.18-3.24,5.76-7.23,5.76s-7.22-2.58-7.22-5.76,3.24-5.75,7.22-5.75,7.23,2.58,7.23,5.75Z"/><path class="cls-1" d="M796.64,186.22c0,3.18-3.24,5.76-7.22,5.76s-7.22-2.58-7.22-5.76,3.23-5.76,7.22-5.76,7.22,2.58,7.22,5.76Z"/><path class="cls-1" d="M815.72,186.22c0,3.18-3.24,5.76-7.23,5.76s-7.22-2.57-7.22-5.76,3.24-5.75,7.22-5.75,7.23,2.58,7.23,5.75Z"/><path class="cls-1" d="M834.79,186.3c0,3.18-3.23,5.76-7.21,5.76s-7.22-2.58-7.22-5.76,3.23-5.76,7.22-5.76,7.21,2.58,7.21,5.76Z"/><path class="cls-1" d="M853.88,186.31c0,3.18-3.24,5.76-7.23,5.76s-7.22-2.58-7.22-5.76,3.23-5.75,7.22-5.75,7.23,2.58,7.23,5.75Z"/><path class="cls-1" d="M872.96,186.13c0,3.18-3.24,5.75-7.22,5.75s-7.22-2.57-7.22-5.75,3.24-5.76,7.22-5.76,7.22,2.58,7.22,5.76Z"/><path class="cls-1" d="M52.59,202.5c0,3.18-3.23,5.76-7.22,5.76s-7.22-2.58-7.22-5.76,3.23-5.76,7.22-5.76,7.22,2.58,7.22,5.76Z"/><path class="cls-1" d="M71.67,202.58c0,3.18-3.23,5.76-7.22,5.76s-7.22-2.58-7.22-5.76,3.23-5.76,7.22-5.76,7.22,2.58,7.22,5.76Z"/><path class="cls-1" d="M90.75,202.59c0,3.18-3.23,5.76-7.22,5.76s-7.22-2.58-7.22-5.76,3.23-5.76,7.22-5.76,7.22,2.58,7.22,5.76Z"/><path class="cls-1" d="M396,202.56c0,3.18-3.24,5.76-7.22,5.76s-7.22-2.58-7.22-5.76,3.23-5.76,7.22-5.76,7.22,2.58,7.22,5.76Z"/><path class="cls-1" d="M415.08,202.43c0,3.18-3.23,5.76-7.22,5.76s-7.22-2.58-7.22-5.76,3.22-5.76,7.22-5.76,7.22,2.58,7.22,5.76Z"/><path class="cls-1" d="M434.15,202.44c0,3.18-3.22,5.77-7.21,5.77s-7.22-2.58-7.22-5.77,3.23-5.76,7.22-5.76,7.21,2.58,7.21,5.76Z"/><path class="cls-1" d="M453.24,202.61c0,3.18-3.23,5.76-7.22,5.76s-7.22-2.58-7.22-5.76,3.23-5.76,7.22-5.76,7.22,2.58,7.22,5.76Z"/><path class="cls-1" d="M472.32,202.61c0,3.18-3.23,5.76-7.22,5.76s-7.22-2.58-7.22-5.76,3.23-5.76,7.22-5.76,7.22,2.58,7.22,5.76Z"/><path class="cls-1" d="M491.39,202.45c0,3.18-3.23,5.76-7.23,5.76s-7.21-2.58-7.21-5.76,3.23-5.75,7.21-5.75,7.23,2.58,7.23,5.75Z"/><path class="cls-1" d="M510.47,202.46c0,3.19-3.24,5.76-7.22,5.76s-7.22-2.58-7.22-5.76,3.22-5.75,7.22-5.75,7.22,2.58,7.22,5.75Z"/><path class="cls-1" d="M529.54,202.51c0,3.18-3.23,5.76-7.22,5.76s-7.22-2.58-7.22-5.76,3.23-5.76,7.22-5.76,7.22,2.57,7.22,5.76Z"/><path class="cls-1" d="M548.63,202.51c0,3.18-3.23,5.76-7.23,5.76s-7.21-2.58-7.21-5.76,3.23-5.75,7.21-5.75,7.23,2.58,7.23,5.75Z"/><path class="cls-1" d="M567.71,202.41c0,3.18-3.24,5.76-7.22,5.76s-7.22-2.58-7.22-5.76,3.23-5.76,7.22-5.76,7.22,2.58,7.22,5.76Z"/><path class="cls-1" d="M586.78,202.41c0,3.18-3.23,5.76-7.21,5.76s-7.22-2.57-7.22-5.76,3.22-5.75,7.22-5.75,7.21,2.58,7.21,5.75Z"/><path class="cls-1" d="M605.86,202.77c0,3.18-3.23,5.76-7.22,5.76s-7.21-2.58-7.21-5.76,3.23-5.76,7.21-5.76,7.22,2.58,7.22,5.76Z"/><path class="cls-1" d="M624.94,202.77c0,3.18-3.24,5.76-7.22,5.76s-7.22-2.58-7.22-5.76,3.24-5.76,7.22-5.76,7.22,2.58,7.22,5.76Z"/><path class="cls-1" d="M644.02,202.67c0,3.18-3.24,5.76-7.22,5.76s-7.22-2.58-7.22-5.76,3.23-5.76,7.22-5.76,7.22,2.58,7.22,5.76Z"/><path class="cls-1" d="M663.09,202.67c0,3.18-3.23,5.76-7.22,5.76s-7.21-2.58-7.21-5.76,3.22-5.76,7.21-5.76,7.22,2.58,7.22,5.76Z"/><path class="cls-1" d="M682.18,202.73c0,3.18-3.23,5.76-7.22,5.76s-7.22-2.58-7.22-5.76,3.24-5.76,7.22-5.76,7.22,2.58,7.22,5.76Z"/><path class="cls-1" d="M739.41,202.58c0,3.18-3.23,5.76-7.22,5.76s-7.22-2.58-7.22-5.76,3.23-5.75,7.22-5.75,7.22,2.57,7.22,5.75Z"/><path class="cls-1" d="M758.48,202.74c0,3.18-3.22,5.76-7.22,5.76s-7.22-2.58-7.22-5.76,3.24-5.76,7.22-5.76,7.22,2.58,7.22,5.76Z"/><path class="cls-1" d="M777.57,202.75c0,3.18-3.24,5.76-7.23,5.76s-7.21-2.58-7.21-5.76,3.23-5.76,7.21-5.76,7.23,2.58,7.23,5.76Z"/><path class="cls-1" d="M834.79,202.7c0,3.18-3.22,5.76-7.21,5.76s-7.22-2.58-7.22-5.76,3.23-5.76,7.22-5.76,7.21,2.58,7.21,5.76Z"/><path class="cls-1" d="M853.88,202.7c0,3.19-3.23,5.76-7.23,5.76s-7.22-2.58-7.22-5.76,3.23-5.76,7.22-5.76,7.23,2.58,7.23,5.76Z"/><path class="cls-1" d="M872.96,202.52c0,3.18-3.24,5.76-7.22,5.76s-7.21-2.58-7.21-5.76,3.23-5.76,7.21-5.76,7.22,2.58,7.22,5.76Z"/><path class="cls-1" d="M90.75,218.98c0,3.18-3.23,5.76-7.22,5.76s-7.22-2.57-7.22-5.76,3.23-5.75,7.22-5.75,7.22,2.58,7.22,5.75Z"/><path class="cls-1" d="M109.83,218.83c0,3.18-3.24,5.76-7.22,5.76s-7.22-2.58-7.22-5.76,3.23-5.75,7.22-5.75,7.22,2.58,7.22,5.75Z"/><path class="cls-1" d="M376.93,218.95c0,3.18-3.23,5.76-7.22,5.76s-7.22-2.57-7.22-5.76,3.23-5.75,7.22-5.75,7.22,2.58,7.22,5.75Z"/><path class="cls-1" d="M396,218.95c0,3.18-3.24,5.76-7.22,5.76s-7.22-2.57-7.22-5.76,3.23-5.75,7.22-5.75,7.22,2.57,7.22,5.75Z"/><path class="cls-1" d="M415.08,218.82c0,3.18-3.23,5.76-7.22,5.76s-7.22-2.58-7.22-5.76,3.22-5.75,7.22-5.75,7.22,2.58,7.22,5.75Z"/><path class="cls-1" d="M434.15,218.83c0,3.18-3.22,5.76-7.21,5.76s-7.22-2.58-7.22-5.76,3.23-5.76,7.22-5.76,7.21,2.59,7.21,5.76Z"/><path class="cls-1" d="M453.24,219c0,3.18-3.23,5.76-7.22,5.76s-7.22-2.58-7.22-5.76,3.23-5.75,7.22-5.75,7.22,2.58,7.22,5.75Z"/><path class="cls-1" d="M472.32,219.01c0,3.18-3.23,5.75-7.22,5.75s-7.22-2.58-7.22-5.75,3.23-5.76,7.22-5.76,7.22,2.58,7.22,5.76Z"/><path class="cls-1" d="M491.39,218.85c0,3.18-3.23,5.76-7.23,5.76s-7.21-2.58-7.21-5.76,3.23-5.76,7.21-5.76,7.23,2.58,7.23,5.76Z"/><path class="cls-1" d="M510.47,218.85c0,3.18-3.24,5.76-7.22,5.76s-7.22-2.58-7.22-5.76,3.22-5.75,7.22-5.75,7.22,2.58,7.22,5.75Z"/><path class="cls-1" d="M529.54,218.9c0,3.19-3.23,5.76-7.22,5.76s-7.22-2.58-7.22-5.76,3.23-5.75,7.22-5.75,7.22,2.58,7.22,5.75Z"/><path class="cls-1" d="M548.63,218.91c0,3.18-3.23,5.76-7.23,5.76s-7.21-2.58-7.21-5.76,3.23-5.76,7.21-5.76,7.23,2.58,7.23,5.76Z"/><path class="cls-1" d="M567.71,218.8c0,3.18-3.24,5.76-7.22,5.76s-7.22-2.57-7.22-5.76,3.23-5.75,7.22-5.75,7.22,2.58,7.22,5.75Z"/><path class="cls-1" d="M586.78,218.8c0,3.18-3.23,5.76-7.21,5.76s-7.22-2.58-7.22-5.76,3.22-5.75,7.22-5.75,7.21,2.58,7.21,5.75Z"/><path class="cls-1" d="M605.86,219.16c0,3.18-3.23,5.75-7.22,5.75s-7.21-2.58-7.21-5.75,3.23-5.76,7.21-5.76,7.22,2.58,7.22,5.76Z"/><path class="cls-1" d="M624.94,219.17c0,3.18-3.24,5.75-7.22,5.75s-7.22-2.57-7.22-5.75,3.24-5.75,7.22-5.75,7.22,2.58,7.22,5.75Z"/><path class="cls-1" d="M644.02,219.06c0,3.18-3.24,5.76-7.22,5.76s-7.22-2.58-7.22-5.76,3.23-5.76,7.22-5.76,7.22,2.58,7.22,5.76Z"/><path class="cls-1" d="M663.09,219.06c0,3.18-3.23,5.76-7.22,5.76s-7.21-2.58-7.21-5.76,3.22-5.75,7.21-5.75,7.22,2.58,7.22,5.75Z"/><path class="cls-1" d="M758.48,219.14c0,3.18-3.22,5.75-7.22,5.75s-7.22-2.58-7.22-5.75,3.24-5.76,7.22-5.76,7.22,2.58,7.22,5.76Z"/><path class="cls-1" d="M777.57,219.15c0,3.18-3.24,5.75-7.23,5.75s-7.21-2.58-7.21-5.75,3.23-5.76,7.21-5.76,7.23,2.58,7.23,5.76Z"/><path class="cls-1" d="M853.88,219.1c0,3.18-3.23,5.76-7.23,5.76s-7.22-2.58-7.22-5.76,3.23-5.76,7.22-5.76,7.23,2.58,7.23,5.76Z"/><path class="cls-1" d="M872.96,218.91c0,3.18-3.24,5.76-7.22,5.76s-7.21-2.58-7.21-5.76,3.23-5.75,7.21-5.75,7.22,2.57,7.22,5.75Z"/><path class="cls-1" d="M109.83,235.22c0,3.18-3.24,5.76-7.22,5.76s-7.22-2.58-7.22-5.76,3.23-5.75,7.22-5.75,7.22,2.58,7.22,5.75Z"/><path class="cls-1" d="M147.99,235.41c0,3.18-3.23,5.75-7.22,5.75s-7.22-2.57-7.22-5.75,3.23-5.76,7.22-5.76,7.22,2.58,7.22,5.76Z"/><path class="cls-1" d="M167.06,235.41c0,3.18-3.23,5.76-7.22,5.76s-7.22-2.58-7.22-5.76,3.24-5.75,7.22-5.75,7.22,2.58,7.22,5.75Z"/><path class="cls-1" d="M396,235.35c0,3.18-3.24,5.76-7.22,5.76s-7.22-2.58-7.22-5.76,3.23-5.75,7.22-5.75,7.22,2.58,7.22,5.75Z"/><path class="cls-1" d="M415.08,235.21c0,3.18-3.23,5.76-7.22,5.76s-7.22-2.58-7.22-5.76,3.22-5.75,7.22-5.75,7.22,2.57,7.22,5.75Z"/><path class="cls-1" d="M434.15,235.22c0,3.18-3.22,5.76-7.21,5.76s-7.22-2.58-7.22-5.76,3.23-5.75,7.22-5.75,7.21,2.58,7.21,5.75Z"/><path class="cls-1" d="M453.24,235.39c0,3.18-3.23,5.75-7.22,5.75s-7.22-2.57-7.22-5.75,3.23-5.75,7.22-5.75,7.22,2.58,7.22,5.75Z"/><path class="cls-1" d="M472.32,235.4c0,3.17-3.23,5.76-7.22,5.76s-7.22-2.58-7.22-5.76,3.23-5.76,7.22-5.76,7.22,2.58,7.22,5.76Z"/><path class="cls-1" d="M491.39,235.23c0,3.18-3.23,5.76-7.23,5.76s-7.21-2.58-7.21-5.76,3.23-5.76,7.21-5.76,7.23,2.58,7.23,5.76Z"/><path class="cls-1" d="M510.47,235.24c0,3.17-3.24,5.76-7.22,5.76s-7.22-2.58-7.22-5.76,3.22-5.75,7.22-5.75,7.22,2.57,7.22,5.75Z"/><path class="cls-1" d="M529.54,235.29c0,3.18-3.23,5.75-7.22,5.75s-7.22-2.57-7.22-5.75,3.23-5.75,7.22-5.75,7.22,2.58,7.22,5.75Z"/><path class="cls-1" d="M548.63,235.3c0,3.18-3.23,5.76-7.23,5.76s-7.21-2.57-7.21-5.76,3.23-5.75,7.21-5.75,7.23,2.58,7.23,5.75Z"/><path class="cls-1" d="M567.71,235.2c0,3.18-3.24,5.76-7.22,5.76s-7.22-2.58-7.22-5.76,3.23-5.76,7.22-5.76,7.22,2.58,7.22,5.76Z"/><path class="cls-1" d="M586.78,235.19c0,3.17-3.23,5.75-7.21,5.75s-7.22-2.58-7.22-5.75,3.22-5.76,7.22-5.76,7.21,2.58,7.21,5.76Z"/><path class="cls-1" d="M605.86,235.55c0,3.17-3.23,5.76-7.22,5.76s-7.21-2.58-7.21-5.76,3.23-5.76,7.21-5.76,7.22,2.58,7.22,5.76Z"/><path class="cls-1" d="M624.94,235.56c0,3.18-3.24,5.76-7.22,5.76s-7.22-2.58-7.22-5.76,3.24-5.76,7.22-5.76,7.22,2.58,7.22,5.76Z"/><path class="cls-1" d="M644.02,235.45c0,3.18-3.24,5.76-7.22,5.76s-7.22-2.58-7.22-5.76,3.23-5.75,7.22-5.75,7.22,2.58,7.22,5.75Z"/><path class="cls-1" d="M758.48,235.53c0,3.18-3.22,5.76-7.22,5.76s-7.22-2.58-7.22-5.76,3.24-5.75,7.22-5.75,7.22,2.58,7.22,5.75Z"/><path class="cls-1" d="M777.57,235.53c0,3.18-3.24,5.76-7.23,5.76s-7.21-2.57-7.21-5.76,3.23-5.76,7.21-5.76,7.23,2.58,7.23,5.76Z"/><path class="cls-1" d="M853.88,235.49c0,3.17-3.23,5.76-7.23,5.76s-7.22-2.58-7.22-5.76,3.23-5.76,7.22-5.76,7.23,2.58,7.23,5.76Z"/><path class="cls-1" d="M872.96,235.31c0,3.18-3.24,5.76-7.22,5.76s-7.21-2.58-7.21-5.76,3.23-5.75,7.21-5.75,7.22,2.58,7.22,5.75Z"/></svg>