<?xml version="1.0" encoding="UTF-8"?><svg id="Plant" xmlns="http://www.w3.org/2000/svg" xmlns:xlink="http://www.w3.org/1999/xlink" viewBox="0 0 706.72 483.07"><defs><style>.cls-1{fill:#fff;}.cls-2{fill:#fafafa;}.cls-3{fill:#f5f5f5;}.cls-4{fill:#455a64;}.cls-5{fill:#e0e0e0;}.cls-6{fill:#e8505b;}.cls-7{opacity:.4;}.cls-8{fill:#eb996e;}.cls-9{opacity:.3;}.cls-10{fill:#ffbe9d;}.cls-11{clip-path:url(#clippath);}.cls-12{fill:#ebebeb;}.cls-13{fill:none;}.cls-14{fill:#263238;}</style><clipPath id="clippath"><path class="cls-13" d="M559.35,227.97c-.26,.43-.41,.94-.41,1.48,0,1.61,1.3,2.91,2.91,2.91s2.91-1.3,2.91-2.91c0-.54-.15-1.05-.41-1.48h3.38c-.26,.43-.41,.94-.41,1.48,0,1.61,1.3,2.91,2.91,2.91s2.91-1.3,2.91-2.91c0-.54-.15-1.05-.41-1.48h3.38c-.26,.43-.41,.94-.41,1.48,0,1.61,1.3,2.91,2.91,2.91s2.91-1.3,2.91-2.91c0-.54-.15-1.05-.41-1.48h3.38c-.26,.43-.41,.94-.41,1.48,0,1.61,1.3,2.91,2.91,2.91s2.91-1.3,2.91-2.91c0-.54-.15-1.05-.41-1.48h3.38c-.26,.43-.41,.94-.41,1.48,0,1.61,1.3,2.91,2.91,2.91s2.91-1.3,2.91-2.91c0-.54-.15-1.05-.41-1.48h3.38c-.26,.43-.41,.94-.41,1.48,0,1.61,1.3,2.91,2.91,2.91s2.91-1.3,2.91-2.91c0-.54-.15-1.05-.41-1.48h2.12v60.24h-50.18v-60.24h1.12Z"/></clipPath></defs><g><polygon class="cls-12" points="416.21 53.3 395.71 118.13 410.55 118.13 417.09 95.77 416.21 53.3"/><rect class="cls-5" x="374.81" y="118.07" width="306.06" height="18.3" transform="translate(1055.68 254.43) rotate(180)"/><rect class="cls-5" x="623.41" y="132.36" width="14.81" height="28.08" transform="translate(1261.63 292.8) rotate(180)"/><rect class="cls-5" x="432.31" y="132.36" width="14.81" height="28.08" transform="translate(879.43 292.8) rotate(180)"/><g><g><path class="cls-12" d="M670.48,33.26s13.74,10.46,.58,24.29c-.22,.24-.54,.37-.87,.37l-120.01-.7s-10.25-11.49-1.74-24.74l122.05,.78Z"/><path class="cls-5" d="M576.7,44.18c0,.13,14.94,.24,33.37,.24s33.38-.11,33.38-.24-14.94-.24-33.38-.24-33.37,.11-33.37,.24Z"/><path class="cls-5" d="M595.36,48.52c0,.13,7.03,.24,15.69,.24s15.69-.11,15.69-.24-7.02-.24-15.69-.24-15.69,.11-15.69,.24Z"/><path class="cls-5" d="M564.43,56.83c.08-.02-.26-1.38-.64-3.6-.37-2.22-.72-5.32-.69-8.76,.04-3.44,.44-6.53,.86-8.74,.41-2.22,.78-3.57,.7-3.59-.03,0-.15,.32-.35,.92-.2,.6-.44,1.49-.69,2.6-.51,2.21-.97,5.33-1.01,8.81-.03,3.47,.38,6.6,.84,8.82,.23,1.11,.45,2,.64,2.61,.18,.61,.3,.94,.33,.93Z"/><path class="cls-5" d="M555.47,32.33s-.22,.29-.53,.87c-.16,.29-.35,.64-.53,1.07-.19,.43-.42,.91-.61,1.47-.43,1.1-.82,2.45-1.14,3.98-.29,1.53-.5,3.24-.52,5.05,0,1.81,.17,3.52,.44,5.06,.3,1.53,.67,2.89,1.08,4,.18,.56,.41,1.05,.59,1.48,.18,.43,.36,.79,.52,1.08,.31,.58,.49,.9,.52,.88,.08-.04-.59-1.33-1.3-3.55-.36-1.11-.7-2.45-.96-3.97-.24-1.52-.4-3.2-.4-4.98,.02-1.77,.21-3.46,.48-4.97,.29-1.51,.64-2.85,1.03-3.95,.75-2.21,1.44-3.49,1.36-3.53Z"/><path class="cls-5" d="M651.54,56.99s.23-.27,.56-.8c.17-.26,.37-.6,.56-1,.2-.4,.45-.85,.64-1.38,.45-1.04,.85-2.33,1.17-3.79,.29-1.47,.48-3.11,.47-4.83-.03-1.73-.27-3.36-.59-4.82-.36-1.45-.8-2.73-1.27-3.75-.21-.52-.47-.97-.68-1.36-.2-.4-.41-.73-.59-.99-.35-.53-.55-.81-.58-.79-.08,.05,.69,1.21,1.53,3.27,.43,1.02,.82,2.29,1.15,3.72,.3,1.43,.51,3.04,.55,4.73,.01,1.69-.16,3.3-.42,4.74-.29,1.44-.65,2.71-1.05,3.75-.78,2.08-1.53,3.26-1.44,3.31Z"/><path class="cls-5" d="M664.5,59.92s.25-.31,.62-.91c.19-.3,.41-.67,.63-1.13,.22-.45,.5-.96,.73-1.55,.51-1.16,.98-2.6,1.37-4.24,.36-1.64,.62-3.47,.68-5.41,.03-1.94-.15-3.79-.44-5.44-.32-1.65-.73-3.11-1.19-4.29-.2-.6-.46-1.12-.66-1.58-.2-.46-.4-.85-.58-1.15-.34-.62-.55-.95-.58-.94-.09,.04,.68,1.41,1.49,3.78,.41,1.18,.78,2.63,1.07,4.26,.26,1.63,.42,3.45,.39,5.35-.05,1.91-.3,3.71-.63,5.33-.36,1.61-.79,3.04-1.26,4.2-.91,2.33-1.74,3.66-1.65,3.71Z"/></g><g><g><path class="cls-12" d="M554.57,93.77v22.97h44.44v-22.97h-44.44Z"/><path class="cls-5" d="M698.09,105.46c0,.2-.02,.41-.03,.61-.36,6.95-6.26,12.32-13.22,12.32h-132.35v-1.66h31.42c6.34,0,11.48-5.14,11.48-11.48h0c0-6.34-5.14-11.48-11.48-11.48h-31.42v-2.44l132.38,.45c7.47,.03,13.48,6.22,13.21,13.69Z"/><path class="cls-5" d="M554.57,105.56c0,.13,9.14,.24,20.41,.24s20.41-.11,20.41-.24-9.14-.24-20.41-.24-20.41,.11-20.41,.24Z"/><path class="cls-5" d="M555.22,110.73c0,.13,8.65,.24,19.31,.24s19.31-.11,19.31-.24-8.64-.24-19.31-.24-19.31,.11-19.31,.24Z"/><path class="cls-5" d="M554.57,115.46c0,.13,7.77,.24,17.36,.24s17.36-.11,17.36-.24-7.77-.24-17.36-.24-17.36,.11-17.36,.24Z"/><path class="cls-5" d="M554.57,100.91c0,.13,8.95,.24,19.99,.24s19.99-.11,19.99-.24-8.95-.24-19.99-.24-19.99,.11-19.99,.24Z"/><path class="cls-5" d="M555.22,96.26c0,.13,7.97,.24,17.79,.24s17.79-.11,17.79-.24-7.96-.24-17.79-.24-17.79,.11-17.79,.24Z"/></g><path class="cls-3" d="M682.06,92.16c-.07,.07,1.29,1.11,2.81,3.34,1.52,2.2,3.06,5.76,3.02,9.88-.05,4.12-1.69,7.64-3.25,9.8-1.57,2.2-2.96,3.2-2.89,3.28,.02,.02,.37-.21,.96-.7,.59-.49,1.38-1.28,2.21-2.37,1.67-2.15,3.41-5.75,3.46-10,.04-4.25-1.61-7.89-3.22-10.08-.81-1.11-1.58-1.92-2.15-2.42-.57-.51-.92-.75-.94-.73Z"/><path class="cls-3" d="M686.53,91.67c-.07,.07,1.29,1.11,2.81,3.34,1.52,2.2,3.06,5.76,3.02,9.88-.05,4.12-1.69,7.64-3.25,9.8-1.57,2.2-2.96,3.2-2.89,3.28,.02,.02,.37-.21,.96-.7,.59-.49,1.38-1.28,2.21-2.37,1.67-2.15,3.41-5.75,3.46-10,.04-4.25-1.61-7.89-3.22-10.08-.81-1.11-1.58-1.91-2.15-2.42-.57-.51-.92-.75-.94-.73Z"/><path class="cls-3" d="M596.61,92.16c-.07,.07,1.29,1.11,2.81,3.34,1.52,2.2,3.06,5.76,3.02,9.88-.05,4.12-1.69,7.64-3.25,9.8-1.57,2.2-2.96,3.2-2.89,3.28,.02,.02,.37-.21,.96-.7,.59-.49,1.38-1.28,2.21-2.37,1.67-2.15,3.41-5.75,3.46-10,.04-4.25-1.61-7.89-3.22-10.08-.81-1.11-1.58-1.92-2.15-2.42-.57-.51-.92-.75-.94-.73Z"/><path class="cls-3" d="M601.08,91.67c-.07,.07,1.29,1.11,2.81,3.34,1.52,2.2,3.06,5.76,3.02,9.88-.05,4.12-1.69,7.64-3.25,9.8-1.57,2.2-2.96,3.2-2.89,3.28,.02,.02,.37-.21,.96-.7,.59-.49,1.38-1.28,2.21-2.37,1.67-2.15,3.41-5.75,3.46-10,.04-4.25-1.61-7.89-3.22-10.08-.81-1.11-1.58-1.91-2.15-2.42-.57-.51-.92-.75-.94-.73Z"/><path class="cls-3" d="M667,108.69l.13-9.34c.01-.81,.03-1.65,.33-2.41,.3-.76,.96-1.43,1.77-1.5,1.17-.52,2.99,.46,3.81,1.8,.82,1.35,.91,3,.92,4.58,.02,2.46-.1,4.93-.36,7.38-.12,1.16-.29,2.36-.87,3.38-.58,1.02-1.68,1.82-2.85,1.71-1.16-.11-2.09-1.08-2.5-2.17-.41-1.09-.4-2.28-.38-3.44Z"/><path class="cls-3" d="M615.6,106.01c0,.13,9.57,.24,21.37,.24s21.37-.11,21.37-.24-9.57-.24-21.37-.24-21.37,.11-21.37,.24Z"/></g><g><g><g><polygon class="cls-3" points="675.86 91.24 676.11 69.47 664.26 69.47 663.85 91.24 675.86 91.24"/><path class="cls-5" d="M664.96,73.35c0,.13,2.47,.24,5.51,.24s5.51-.11,5.51-.24-2.46-.24-5.51-.24-5.51,.11-5.51,.24Z"/><path class="cls-5" d="M664.96,76.71c0,.13,2.47,.24,5.51,.24s5.51-.11,5.51-.24-2.46-.24-5.51-.24-5.51,.11-5.51,.24Z"/><path class="cls-5" d="M664.96,80.07c0,.13,2.47,.24,5.51,.24s5.51-.11,5.51-.24-2.46-.24-5.51-.24-5.51,.11-5.51,.24Z"/><path class="cls-5" d="M664.96,83.43c0,.13,2.47,.24,5.51,.24s5.51-.11,5.51-.24-2.46-.24-5.51-.24-5.51,.11-5.51,.24Z"/><path class="cls-5" d="M664.96,86.79c0,.13,2.47,.24,5.51,.24s5.51-.11,5.51-.24-2.46-.24-5.51-.24-5.51,.11-5.51,.24Z"/></g><path class="cls-12" d="M676.74,68.9h-131.33c-1.62,7.21-1.39,15.14,0,23.53h130.77v-1.6h-7.99c-2.08,0-3.77-1.69-3.77-3.77v-13.02c0-2.08,1.69-3.77,3.77-3.77h8.55v-1.36Z"/><g><path class="cls-2" d="M645.69,80.68h-2.19c-.08,0-.16,.02-.24,.06-.16,.09-.24,.23-.24,.41,0,.05,0,.1,.02,.14,.04,.19,.09,.37,.15,.56,.31,1,.76,1.83,1.37,2.48,.6,.64,1.23,.97,1.87,.97,.09,0,.17,0,.26-.02,.6-.09,1.09-.45,1.49-1.08,.44-.7,.65-1.58,.65-2.64,0-.62-.09-1.25-.26-1.88-.28-1.02-.71-1.87-1.3-2.54-.62-.7-1.27-1.05-1.97-1.05-.29,0-.57,.06-.83,.19-.57,.28-.99,.81-1.28,1.6-.04,.07-.05,.14-.05,.22,0,.08,.02,.16,.06,.24,.09,.16,.23,.23,.41,.23,.05,0,.1,0,.15-.02,.15-.05,.25-.15,.3-.3l.02-.04c.07-.19,.16-.37,.26-.52,.29-.42,.64-.63,1.05-.63,.24,0,.48,.09,.72,.26,.46,.33,.86,.9,1.2,1.72,.35,.84,.52,1.66,.52,2.47s-.13,1.42-.38,1.94c-.28,.57-.66,.86-1.14,.86-.33,0-.68-.22-1.06-.64-.47-.52-.84-1.2-1.13-2.04,1.01,0,1.53,0,1.57-.02,.34-.05,.52-.23,.52-.53,0-.06-.02-.11-.05-.16-.09-.18-.25-.27-.49-.27Z"/><path class="cls-2" d="M638.23,76.4s-.04,.1-.06,.16c-.09,.32-.61,3.03-1.55,8.14-.01,.04-.02,.08-.02,.12,0,.08,.02,.16,.06,.24,.09,.16,.22,.24,.39,.24,.02,0,.05,0,.08,0,.19-.03,.31-.14,.36-.32l.52-2.7h2.7l1.3,2.71s.03,.06,.04,.09c.12,.15,.26,.23,.41,.23,.09,0,.18-.03,.26-.08,.14-.1,.22-.23,.22-.4,0-.05,0-.09-.03-.14-.08-.19-.22-.49-.4-.89-1.89-4.12-3.02-6.55-3.39-7.3-.11-.22-.26-.33-.46-.33-.19,0-.33,.08-.43,.24Zm.59,1.82l1.46,3.07h-2.06l.6-3.07Z"/><path class="cls-2" d="M630.91,85.29h3.96c.09,0,.18-.03,.25-.08,.11-.08,.19-.25,.22-.5h0c0-.17-.36-2.87-1.09-8.11,0-.06-.01-.12-.02-.17-.08-.19-.22-.29-.43-.29-.08,0-.15,.02-.22,.05-.17,.09-.25,.23-.25,.42,.03,.36,.12,1.1,.27,2.22,.45,3.46,.69,5.29,.71,5.48h-3.36c-.09,0-.18,.02-.25,.05-.2,.08-.3,.23-.3,.44,0,.05,0,.1,.02,.15,.07,.18,.23,.29,.49,.33Z"/><path class="cls-2" d="M625.5,76.4s-.04,.1-.06,.16c-.09,.32-.61,3.03-1.55,8.14-.01,.04-.02,.08-.02,.12,0,.08,.02,.16,.06,.24,.09,.16,.22,.24,.39,.24,.02,0,.05,0,.08,0,.19-.03,.31-.14,.36-.32l.52-2.7h2.7l1.3,2.71s.03,.06,.04,.09c.12,.15,.26,.23,.41,.23,.09,0,.18-.03,.26-.08,.14-.1,.22-.23,.22-.4,0-.05,0-.09-.03-.14-.08-.19-.22-.49-.4-.89-1.89-4.12-3.02-6.55-3.39-7.3-.11-.22-.26-.33-.46-.33-.19,0-.33,.08-.43,.24Zm.59,1.82l1.46,3.07h-2.06l.6-3.07Z"/><path class="cls-2" d="M619.19,81.07c-.31,.86-.55,1.52-.72,1.98-.41,1.13-.61,1.72-.61,1.79,0,.09,.03,.17,.08,.24,.09,.14,.23,.22,.4,.22,.18,0,.31-.11,.39-.32,.03-.08,.06-.15,.07-.2,.22-.49,.57-1.42,1.06-2.79l2.24,3.06c.12,.16,.26,.24,.42,.25,.08,0,.17-.02,.24-.06,.15-.09,.22-.22,.22-.4,0-.04,0-.07,0-.1-.01-.07-.09-.2-.24-.38-.75-.97-1.58-2.13-2.49-3.47,.1-.26,.19-.51,.27-.75,.84-2.26,1.26-3.42,1.26-3.5,0-.09-.02-.17-.06-.24-.09-.16-.21-.24-.38-.24-.2,0-.35,.09-.44,.26l-1.32,3.56-2.64-3.59c-.11-.15-.25-.22-.42-.22-.08,0-.15,.02-.22,.05-.15,.09-.23,.23-.23,.42,0,.07,.02,.14,.05,.22l3.06,4.21Z"/><path class="cls-2" d="M609.39,76.19c-.07,0-.15,.02-.22,.05-.16,.09-.24,.22-.25,.41,.65,5.12,1.01,7.88,1.07,8.3,.15,.87,.43,1.59,.85,2.16,.63,.86,1.51,1.29,2.63,1.29,.36,0,.78-.11,1.27-.34,.68-.31,1.14-.72,1.4-1.23,.04-.07,.05-.15,.05-.23s-.02-.16-.06-.24c-.09-.16-.23-.24-.41-.24-.14,0-.26,.07-.36,.19-.59,.77-1.26,1.15-2.03,1.15-.61,0-1.13-.27-1.57-.8-.5-.61-.79-1.44-.87-2.49,.15,.24,.35,.44,.58,.62,.43,.31,.9,.46,1.42,.46,.09,0,.18,0,.27-.02,.6-.09,1.11-.45,1.5-1.08,.44-.7,.66-1.58,.66-2.64,0-.48-.02-.97-.07-1.49-.07-.8-.25-1.94-.54-3.41,0-.05-.02-.09-.04-.14-.08-.22-.22-.32-.42-.32-.08,0-.16,.02-.23,.06-.16,.09-.24,.22-.24,.38,0,.24,.07,.85,.22,1.81,.21,1.41,.31,2.33,.31,2.76,0,.88-.12,1.59-.35,2.15-.27,.64-.66,.97-1.17,.97-.05,0-.1,0-.16-.02-.38-.08-.78-.39-1.18-.95-.46-.64-.79-1.36-.98-2.18l-.6-4.51c0-.07-.03-.14-.06-.2-.09-.17-.22-.26-.41-.26Z"/></g><path class="cls-3" d="M550.34,92.73c.13,0,.24-5.4,.24-12.07s-.11-12.07-.24-12.07-.24,5.4-.24,12.07,.11,12.07,.24,12.07Z"/><path class="cls-5" d="M657.81,92.73c.13,0,.24-5.4,.24-12.07s-.11-12.07-.24-12.07-.24,5.4-.24,12.07,.11,12.07,.24,12.07Z"/><path class="cls-3" d="M548.04,92.73c.13,0,.24-5.4,.24-12.07s-.11-12.07-.24-12.07-.24,5.4-.24,12.07,.11,12.07,.24,12.07Z"/><path class="cls-5" d="M659.96,92.73c.13,0,.24-5.4,.24-12.07s-.11-12.07-.24-12.07-.24,5.4-.24,12.07,.11,12.07,.24,12.07Z"/></g><g><path class="cls-5" d="M582.18,72.57l.02-.04c-3.59,2.89-8.46,6.83-13.88,11.2l-.12,.1,.15,.04c.59,.15,1.21,.32,1.85,.49,4.22,1.11,8.21,2.15,11.72,3.08h.02s.02,0,.02,0c4.36-1.85,8.03-3.41,10.62-4.5,1.29-.55,2.3-.99,3.01-1.29,.34-.15,.61-.26,.79-.35,.09-.04,.15-.07,.2-.09,.05-.02,.07-.03,.07-.03,0,0-.02,0-.07,.02-.05,.02-.12,.05-.21,.08-.19,.08-.46,.19-.8,.33-.71,.29-1.73,.72-3.02,1.25-2.6,1.09-6.28,2.63-10.64,4.45h.05c-3.51-.93-7.5-1.98-11.72-3.09-.63-.17-1.26-.33-1.85-.49l.03,.14c5.41-4.39,10.27-8.33,13.85-11.23l.02-.02v-.03"/><polygon class="cls-5" points="569.58 81.98 568.82 82.69 567.81 82.47 568.25 83.41 567.73 84.31 568.76 84.18 569.45 84.95 569.64 83.93 570.6 83.51 569.68 83.01 569.58 81.98"/><polygon class="cls-5" points="582.89 86.39 582.38 86.82 581.73 86.64 581.98 87.27 581.61 87.83 582.28 87.78 582.69 88.31 582.86 87.66 583.49 87.43 582.92 87.07 582.89 86.39"/><polygon class="cls-5" points="597.6 80.36 596.78 80.41 596.27 79.76 596.06 80.56 595.29 80.85 595.98 81.29 596.01 82.11 596.65 81.59 597.44 81.81 597.14 81.05 597.6 80.36"/><polygon class="cls-5" points="563.36 72.74 562.53 72.8 562.02 72.15 561.82 72.95 561.04 73.23 561.74 73.67 561.77 74.5 562.41 73.97 563.2 74.2 562.9 73.43 563.36 72.74"/><polygon class="cls-5" points="582.86 72.2 582.33 72.24 582.01 71.82 581.87 72.33 581.38 72.51 581.82 72.8 581.84 73.32 582.25 72.99 582.76 73.13 582.56 72.64 582.86 72.2"/><path class="cls-5" d="M562.2,73.32c0,.05,4.49-.1,10.03-.33,5.54-.24,10.02-.47,10.02-.53,0-.05-4.49,.1-10.03,.33-5.54,.24-10.02,.47-10.02,.53Z"/></g></g><g><path class="cls-5" d="M557.16,68.69h133.2c1.74-3.96,2.17-7.72,0-11.09h-133.2c-1.75,4.03-1.6,7.7,0,11.09Z"/><rect class="cls-12" x="590.61" y="60.77" width="72.16" height="4.03" transform="translate(1253.38 125.58) rotate(180)"/><path class="cls-5" d="M685.24,68.75s.52-.42,1.05-1.34c.54-.91,1.07-2.31,1.22-3.93,.14-1.62-.14-3.1-.51-4.09-.37-1-.76-1.53-.8-1.5-.07,.04,.2,.62,.47,1.61,.27,.98,.49,2.39,.35,3.94-.14,1.55-.6,2.9-1.04,3.82-.44,.92-.81,1.45-.75,1.5Z"/><path class="cls-5" d="M682.36,68.75s.52-.42,1.05-1.34c.54-.91,1.07-2.31,1.22-3.93,.14-1.62-.14-3.1-.51-4.09-.37-1-.76-1.53-.8-1.5-.07,.04,.2,.62,.47,1.61,.27,.98,.49,2.39,.35,3.94-.14,1.55-.6,2.9-1.04,3.82-.44,.92-.81,1.45-.75,1.5Z"/><path class="cls-3" d="M562.54,68.49c.15-.05-.94-2.36-.94-5.42-.04-3.06,1.02-5.38,.87-5.43-.09-.08-1.39,2.24-1.36,5.43,0,3.19,1.34,5.5,1.42,5.42Z"/><path class="cls-3" d="M565.02,68.47c.15-.03-.42-2.37-.4-5.31,0-2.94,.56-5.27,.41-5.31-.11-.04-.9,2.3-.9,5.31-.01,3.01,.77,5.35,.88,5.31Z"/></g></g><g><g><polygon class="cls-5" points="507.62 0 416.21 0 416.21 119.27 506.99 119.27 507.62 0"/><g><rect class="cls-1" x="423.38" y=".59" width="90.88" height="118.06"/><path class="cls-5" d="M422.93,.13V119.1h91.78V.13h-91.78Zm.9,118.06V1.04h89.98V118.2h-89.98Z"/></g><g><rect class="cls-1" x="435.2" y="13.39" width="69.57" height="92.49"/><path class="cls-5" d="M504.91,13.37s0,.16-.01,.45c0,.3,0,.74-.01,1.3,0,1.15-.01,2.84-.03,5.04-.01,4.41-.03,10.83-.06,18.97-.03,16.26-.06,39.36-.11,66.73l.21-.21c-20.87,0-44.56-.01-69.57-.02h0l.23,.23c-.02-34.44-.03-66.37-.04-92.49l-.19,.19c21.03-.04,38.39-.08,50.52-.1,6.07-.02,10.82-.04,14.07-.05,1.62,0,2.86-.02,3.7-.02,.84,0,1.28-.02,1.28-.02,0,0-.42-.01-1.24-.02-.84,0-2.07-.01-3.67-.02-3.24-.01-7.98-.03-14.02-.05-12.16-.02-29.57-.06-50.64-.1h-.19s0,.19,0,.19c-.01,26.12-.03,58.05-.04,92.49v.23h.24c25.01,0,48.7-.02,69.57-.02h.21s0-.21,0-.21c-.04-27.43-.08-50.57-.11-66.87-.02-8.12-.04-14.53-.06-18.92-.01-2.18-.02-3.85-.03-5,0-.56,0-.98-.01-1.28,0-.29-.01-.42-.01-.42Z"/></g><path class="cls-5" d="M514.46,118.65c.05-.04-.42-.8-1.23-2-.81-1.2-1.95-2.84-3.26-4.61-1.31-1.77-2.55-3.34-3.48-4.45-.93-1.11-1.54-1.77-1.59-1.73-.05,.04,.47,.77,1.33,1.93,.96,1.29,2.1,2.83,3.36,4.53,1.26,1.7,2.41,3.23,3.37,4.52,.88,1.15,1.44,1.84,1.5,1.8Z"/><path class="cls-5" d="M514.25,.59c-.1-.08-2.28,2.72-4.86,6.25-2.58,3.53-4.59,6.46-4.48,6.53,.1,.08,2.28-2.72,4.86-6.26,2.58-3.53,4.58-6.46,4.48-6.53Z"/><g><line class="cls-1" x1="423.38" y1=".59" x2="435.34" y2="13.84"/><path class="cls-5" d="M435.34,13.84c.1-.09-2.5-3.13-5.81-6.79-3.3-3.66-6.06-6.56-6.16-6.47-.1,.09,2.5,3.12,5.81,6.79,3.3,3.66,6.06,6.56,6.15,6.47Z"/></g><path class="cls-5" d="M423.38,118.65c.1,.09,2.73-2.68,5.89-6.17,3.16-3.5,5.63-6.4,5.54-6.49-.1-.09-2.73,2.68-5.89,6.17-3.15,3.49-5.63,6.4-5.54,6.49Z"/></g><path class="cls-5" d="M501.58,105.86s-7.49-23.19-11.93-25.66c-4.78-2.65-11.95-5.22-19.54-5.29-10.3-.09-15.21,.67-21.25,4.83-6.97,4.8-11.7,25.89-11.7,25.89"/><g><path class="cls-5" d="M480.83,36.8c6.4,.29,7.96,8.88,7.53,13.78-.21,2.32-.91,4.85,.26,6.87,.83,1.43,2.47,2.29,3.16,3.79,.84,1.82,.03,3.93-.58,5.85-.61,1.91-.87,4.33,.66,5.63-3.63,.94-7.3,1.89-11.05,2.08-3.75,.19-7.64-.43-10.82-2.41"/><g><path class="cls-5" d="M485.4,53.95c4.21-9.67-1.51-15.58-5.24-17.71-2.22-1.27-4.87-1.54-7.42-1.61-2.53-.07-5.08,.04-7.52,.67-2.45,.63-4.8,1.81-6.52,3.65-3.07,3.27-3.78,8.12-3.51,12.6,.32,5.27,1.82,10.48,4.42,15.08,.33,.59,.71,1.2,1.31,1.53,.59,.33,1.46,.26,1.81-.32"/><g><g><path class="cls-3" d="M471.14,87.13c-4.34,.29-8.14-3.43-8.59-10.13l-2.32-34.02,.16,2.35c-.02-1.42,1.04-2.62,2.45-2.76l13.48-1.39c4.65-.48,8.75,3.01,9.03,7.68,.31,5.18,.49,11.52-.14,15.38-1.26,7.77-7.21,8.74-7.21,8.74l.47,5.64c.36,4.39-2.94,8.22-7.33,8.52h0Z"/><g><path class="cls-5" d="M482.77,53.25c.02,.53-.41,.97-.96,1-.55,.03-1.01-.38-1.02-.9-.02-.53,.41-.98,.96-1,.55-.03,1.01,.38,1.03,.9Z"/><path class="cls-5" d="M483.97,52.15c-.12,.13-.88-.43-1.95-.43-1.07-.02-1.86,.53-1.98,.4-.06-.06,.07-.29,.41-.54,.34-.25,.91-.49,1.58-.48,.67,0,1.23,.25,1.55,.51,.33,.25,.44,.49,.38,.55Z"/></g><g><path class="cls-5" d="M472.47,53.25c.02,.53-.41,.97-.96,1-.55,.03-1.01-.38-1.02-.9-.02-.53,.41-.98,.96-1,.55-.03,1.01,.38,1.03,.9Z"/><path class="cls-5" d="M473.43,52.32c-.12,.13-.88-.43-1.95-.43-1.07-.02-1.86,.53-1.98,.4-.06-.06,.07-.29,.41-.54,.34-.25,.91-.49,1.58-.48,.67,0,1.23,.25,1.55,.51,.33,.25,.44,.49,.38,.55Z"/></g><path class="cls-5" d="M477.3,60.29c0-.06,.66-.17,1.74-.31,.27-.03,.53-.08,.58-.27,.07-.2-.05-.49-.18-.81-.26-.66-.52-1.36-.8-2.09-1.12-2.97-1.92-5.41-1.8-5.46,.12-.04,1.12,2.33,2.24,5.3,.27,.73,.53,1.43,.77,2.1,.1,.31,.28,.66,.14,1.07-.07,.2-.28,.35-.45,.4-.18,.05-.33,.06-.47,.06-1.09,.06-1.76,.06-1.77,0Z"/><path class="cls-12" d="M478.01,72.98s-5.23,.32-10.4-2.81c0,0,2.77,5.38,10.55,4.68l-.15-1.87Z"/><path class="cls-5" d="M476.84,62.87c-.38-.51-1.06-.79-1.73-.72-.47,.05-.94,.27-1.22,.65-.28,.38-.34,.92-.09,1.28,.29,.41,.89,.5,1.4,.36,.51-.14,.95-.48,1.37-.81,.12-.09,.23-.19,.31-.32,.07-.13,.09-.29,0-.4"/><path class="cls-5" d="M474.14,61.02c.17,0,.17,1.15,1.17,1.98,.99,.83,2.23,.7,2.24,.87,.02,.07-.28,.23-.8,.24-.51,.02-1.26-.15-1.87-.66-.61-.51-.87-1.18-.9-1.66-.04-.49,.09-.77,.17-.77Z"/></g><path class="cls-5" d="M473.92,50.45c-.11,.29-1.18,.15-2.44,.3-1.26,.12-2.28,.49-2.44,.23-.07-.13,.1-.4,.51-.68,.41-.28,1.06-.55,1.81-.63,.76-.08,1.45,.04,1.9,.23,.46,.19,.69,.42,.65,.56Z"/><path class="cls-5" d="M483.59,49.05c-.19,.24-.93-.01-1.82-.03-.89-.05-1.64,.16-1.81-.1-.08-.12,.04-.37,.37-.6,.32-.23,.87-.41,1.48-.39,.61,.02,1.14,.24,1.45,.49,.31,.25,.42,.5,.33,.62Z"/></g></g><path class="cls-5" d="M479.29,35.77c-7.53-4.23-15.61-1.27-21.7,4.85-1.34,1.35-2.55,2.94-4.3,3.69-1.89,.81-4.41,.68-5.53,2.4-1.31,2.01,.46,4.85-.5,7.06-.88,2.03-3.67,2.62-4.7,4.57-.81,1.54-.31,3.4,.08,5.09,.38,1.69,.53,3.73-.74,4.91l16.2,6.15c.73,.28,1.52,.4,2.28,.25,2.3-.46,2.47-2.59,2.25-4.35-.16-1.32-.45-2.72,.11-3.92,.66-1.42,2.33-2.19,2.92-3.64,1.04-2.56-1.85-5.23-1.51-7.98,.22-1.73,1.7-3.05,3.3-3.74,1.6-.69,3.35-.92,5.01-1.45,3.82-1.22,6.96-4.72,8.6-8.61,.82-1.96,.09-4.22-1.74-5.28h0Z"/></g></g></g><g><rect class="cls-5" x="8.35" y="41.19" width="145.71" height="151.89" transform="translate(162.42 234.27) rotate(180)"/><g><rect class="cls-2" x="18.22" y="41.19" width="145.71" height="151.89" transform="translate(182.15 234.27) rotate(180)"/><path class="cls-5" d="M18.18,193.13H163.98V41.14H18.18V193.13Zm145.71-.09H18.27V41.23H163.89V193.04Z"/></g><rect class="cls-1" x="37.81" y="61.61" width="106.54" height="111.05" transform="translate(182.15 234.27) rotate(180)"/><path class="cls-5" d="M144.34,173.4c-.08,.1,.93,1.26,2.63,3.06,1.7,1.8,4.09,4.23,6.77,6.87,2.68,2.64,5.14,4.99,6.96,6.66,1.82,1.67,2.99,2.66,3.08,2.56,.09-.09-.91-1.25-2.61-3.04-1.7-1.8-4.1-4.23-6.79-6.88-2.69-2.65-5.16-5-6.97-6.67-1.82-1.67-2.98-2.65-3.07-2.55Z"/><path class="cls-5" d="M37.81,173.13c-.1-.08-1.26,.93-3.06,2.63-1.8,1.7-4.23,4.09-6.87,6.77-2.64,2.68-4.99,5.14-6.66,6.96-1.67,1.82-2.66,2.99-2.56,3.08,.09,.09,1.25-.91,3.04-2.61,1.8-1.7,4.23-4.1,6.88-6.79,2.65-2.69,5-5.16,6.67-6.97,1.67-1.82,2.65-2.98,2.55-3.07Z"/><path class="cls-5" d="M38.1,61.9c.08-.1-.93-1.26-2.63-3.06-1.7-1.8-4.09-4.23-6.77-6.87-2.68-2.64-5.14-4.99-6.96-6.66-1.82-1.67-2.99-2.66-3.08-2.56-.09,.09,.91,1.25,2.61,3.04,1.7,1.8,4.1,4.23,6.79,6.88,2.69,2.65,5.16,5,6.97,6.67s2.98,2.65,3.06,2.55Z"/><path class="cls-5" d="M144.63,62.18c.1,.08,1.26-.93,3.06-2.63,1.8-1.7,4.23-4.09,6.87-6.77,2.64-2.68,4.99-5.14,6.66-6.96,1.67-1.82,2.66-2.99,2.56-3.08-.09-.09-1.25,.91-3.04,2.61-1.8,1.7-4.23,4.1-6.88,6.79-2.65,2.69-5,5.16-6.67,6.97-1.67,1.82-2.65,2.98-2.55,3.06Z"/><path class="cls-5" d="M38.1,172.66s.02-.19,.02-.54c0-.38,.01-.89,.02-1.55,.01-1.39,.03-3.4,.05-6,.02-5.26,.06-12.91,.11-22.63,.05-19.45,.12-47.16,.21-80.34l-.41,.41c31.01,.02,67.44,.04,106.23,.06h.01l-.47-.47c.02,40.76,.05,78.89,.07,111.05l.4-.4c-31.84,.09-58.34,.16-76.93,.21-9.29,.05-16.59,.08-21.61,.11-2.48,.02-4.39,.04-5.72,.05-.63,0-1.11,.02-1.48,.02-.33,0-.51,.01-.51,.02,0,0,.15,.01,.47,.02,.35,0,.82,.01,1.43,.02,1.31,.01,3.19,.03,5.64,.05,5,.02,12.27,.06,21.52,.11,18.65,.05,45.24,.12,77.19,.21h.41s0-.41,0-.41c.02-32.16,.04-70.29,.07-111.05v-.47s-.47,0-.47,0h-.01c-38.8,.02-75.22,.04-106.23,.06h-.41s0,.41,0,.41c.09,33.29,.16,61.09,.21,80.6,.05,9.68,.08,17.3,.11,22.54,.02,2.57,.04,4.54,.05,5.92,0,.64,.02,1.14,.02,1.51,0,.33,.02,.5,.02,.49Z"/><g><g><g><g><path class="cls-3" d="M69.02,95.49c11.47-8.83,26.83-10.76,40.13-5.04,0,0,1.99,26.39,1.85,37.88-.14,11.49-11.63,13.28-11.63,13.28l.05,12.44-27.93,1.05-4.17-58.29,1.7-1.31Z"/><path class="cls-5" d="M99.38,141.44s-7.26,.59-14.98-4.26c0,0,3.54,8.27,15.01,7.23l-.03-2.98Z"/></g><g><path class="cls-3" d="M68.74,108.71c-.2-.08-7.9-2.34-7.64,5.52,.25,7.86,8.09,5.98,8.09,5.76,0-.23-.45-11.28-.45-11.28Z"/><path class="cls-5" d="M66.69,117.08s-.13,.1-.36,.21c-.22,.11-.61,.19-1.02,.05-.84-.28-1.58-1.57-1.66-2.99-.04-.71,.09-1.4,.32-1.97,.22-.58,.58-1,1-1.08,.41-.11,.72,.13,.82,.35,.11,.22,.07,.37,.11,.39,.02,.02,.16-.14,.09-.46-.04-.15-.14-.34-.32-.48-.19-.15-.47-.22-.76-.18-.6,.06-1.13,.64-1.39,1.26-.29,.63-.45,1.4-.4,2.2,.1,1.58,.96,3.04,2.1,3.33,.56,.13,1.01-.05,1.25-.25,.24-.2,.27-.38,.25-.39Z"/></g><g><g><g><path class="cls-5" d="M105.38,108.13c.03,.87-.68,1.61-1.58,1.66-.9,.05-1.66-.61-1.69-1.48s.68-1.61,1.58-1.66c.9-.05,1.66,.61,1.69,1.48Z"/><path class="cls-5" d="M106.98,106.61c-.2,.21-1.45-.71-3.21-.7-1.76-.02-3.06,.89-3.25,.67-.09-.1,.11-.48,.68-.89,.56-.41,1.5-.81,2.6-.8,1.1,0,2.03,.41,2.56,.83,.54,.42,.73,.8,.63,.9Z"/></g><g><path class="cls-5" d="M88.03,108.87c.03,.87-.68,1.61-1.58,1.66-.9,.05-1.66-.61-1.69-1.48-.03-.87,.68-1.61,1.58-1.66,.9-.05,1.66,.61,1.69,1.48Z"/><path class="cls-5" d="M89.62,106.94c-.2,.21-1.45-.71-3.21-.7-1.76-.02-3.06,.89-3.25,.67-.09-.1,.11-.48,.68-.89,.56-.41,1.5-.81,2.6-.8,1.1,0,2.03,.41,2.56,.83,.54,.42,.73,.8,.63,.9Z"/></g><path class="cls-5" d="M96.03,120.04c0-.1,1.09-.29,2.87-.52,.45-.05,.88-.14,.95-.44,.11-.33-.08-.81-.3-1.34-.42-1.09-.87-2.23-1.33-3.43-1.85-4.89-3.19-8.91-2.99-8.98,.2-.07,1.86,3.83,3.71,8.72,.45,1.21,.87,2.35,1.28,3.45,.17,.51,.46,1.09,.23,1.77-.12,.34-.45,.58-.74,.66-.29,.09-.54,.09-.77,.11-1.79,.1-2.9,.1-2.91,0Z"/></g><path class="cls-5" d="M90.07,100.02c-.17,.48-1.94,.25-4.01,.5-2.08,.21-3.75,.81-4.02,.38-.12-.21,.17-.66,.84-1.12,.67-.46,1.74-.91,2.98-1.04,1.24-.14,2.38,.06,3.14,.37,.76,.31,1.14,.68,1.07,.91Z"/><path class="cls-5" d="M106.33,101.5c-.31,.4-1.53-.02-2.99-.03-1.46-.07-2.7,.27-2.99-.15-.12-.2,.07-.61,.61-.99,.53-.38,1.43-.69,2.43-.66,1,.03,1.88,.4,2.38,.81,.52,.41,.69,.83,.55,1.02Z"/></g></g><path class="cls-5" d="M114.75,83.2c.12-1.42-.41-2.95-1.57-3.79-1.16-.84-2.96-.78-3.9,.29,.54-1.92-1.03-4.13-3.02-4.26-1.87-.12-3.47,1.3-5.28,1.79-1.77,.48-3.66,.07-5.37-.62-1.7-.68-3.29-1.63-5.01-2.26-3.59-1.31-7.7-1.15-11.17,.45-3.47,1.6-6.28,4.6-7.62,8.18-2.51-.79-5.37,.49-6.92,2.62-1.55,2.13-1.95,4.92-1.64,7.54,.21,1.77,.72,3.47,1.31,5.16,0,.15-.01,.29-.01,.44,.12,6.32,.83,13.74,3.53,13.78,4.7,.07,3.58-8.78,3.58-8.78,5.77-2.23,3.62-10.87,5.06-12.18,1.44-1.31,4.46-4.36,16.53,1.81,4.69,2.4,10.92,2.32,14.32,1.55,.1-.02,.2-.04,.3-.06,.02,0,.05,0,.07-.01,.04,0,.06-.03,.1-.04,1.08-.28,2.13-.7,3.1-1.31,1.09-.69,2.09-1.63,2.55-2.84,.46-1.21,.29-2.72-.66-3.6,.89-1.12,1.59-2.44,1.71-3.87Z"/></g><path class="cls-5" d="M96.01,128.59c-.02-.12-.85,.22-2.02-.25-.57-.23-1.19-.68-1.53-1.39-.34-.7-.41-1.65-.05-2.48,.08-.21,.21-.4,.33-.57,.15-.16,.12-.15,.29-.13,.15,.04,.4,.16,.61,.24,.21,.09,.42,.17,.62,.25,.81,.33,1.55,.62,2.17,.85,1.24,.46,2.03,.71,2.06,.62,.04-.09-.68-.49-1.88-1.06-.6-.29-1.31-.62-2.11-.98-.2-.09-.41-.18-.61-.27-.22-.09-.39-.19-.69-.29-.15-.04-.36-.07-.56,.02-.2,.08-.32,.22-.42,.33-.17,.23-.32,.46-.43,.72-.45,1.04-.34,2.18,.12,3.03,.46,.87,1.25,1.36,1.92,1.56,.68,.21,1.27,.16,1.64,.06,.38-.1,.55-.23,.54-.27Z"/></g></g><g><g><path class="cls-4" d="M269.18,328.13c-1.46-8.99-9.17-15.63-18.28-15.76-39.54-.53-140.2-1.44-145.6,2.85-6.73,5.34-10.24,8.08-9.72,16.56,.48,7.79,8.98,142.27,8.98,142.27h188.39l-23.77-145.93Z"/><path class="cls-14" d="M126.01,474.13s.03-.13,.05-.4c.03-.29,.06-.68,.1-1.17,.08-1.06,.19-2.57,.33-4.49,.15-1.95,.3-4.33,.39-7.11,.1-2.77,.27-5.93,.28-9.42,.02-1.75,.04-3.58,.06-5.48,.02-1.91-.05-3.89-.07-5.94-.02-4.11-.24-8.49-.44-13.11-.52-9.22-1.4-19.34-2.81-29.91-1.46-10.56-3.32-20.56-5.28-29.59-1.05-4.5-2-8.79-3.08-12.75-.53-1.99-1-3.91-1.52-5.75-.53-1.83-1.04-3.59-1.52-5.27-.94-3.37-1.95-6.36-2.78-9.01-.82-2.65-1.61-4.91-2.27-6.75-.65-1.81-1.15-3.23-1.51-4.24-.17-.46-.31-.82-.41-1.1-.1-.25-.15-.37-.16-.37,0,0,.02,.13,.1,.39,.09,.28,.2,.65,.35,1.12,.33,1.01,.8,2.44,1.41,4.27,.63,1.85,1.38,4.11,2.17,6.77,.8,2.65,1.79,5.65,2.7,9.02,.47,1.68,.97,3.44,1.49,5.27,.51,1.83,.97,3.76,1.49,5.75,1.06,3.96,1.99,8.25,3.02,12.74,1.93,9.02,3.77,19,5.23,29.55,1.41,10.55,2.3,20.66,2.85,29.86,.21,4.61,.45,8.98,.49,13.09,.03,2.05,.11,4.03,.1,5.93,0,1.9-.02,3.73-.02,5.48,.02,3.49-.12,6.64-.19,9.41-.05,2.77-.17,5.16-.29,7.1-.09,1.92-.16,3.43-.21,4.49-.02,.49-.03,.87-.04,1.17,0,.26,0,.4,0,.4Z"/></g><g><path class="cls-14" d="M231.96,380.07s-.09-.06-.29-.11c-.19-.05-.49-.08-.88-.05-.76,.05-1.9,.5-2.76,1.63-.89,1.11-1.11,3.03-.28,4.69,.4,.83,1.02,1.62,1.84,2.21,.83,.6,1.85,.95,2.92,1.02,1.07,.06,2.16-.18,3.01-.78,.87-.58,1.39-1.53,1.56-2.45,.32-1.87-.44-3.55-1.44-4.51-2.12-1.8-3.99-1.87-3.95-1.69,0,.02,.1,.01,.29,.05,.19,.04,.46,.13,.79,.27,.66,.29,1.65,.77,2.57,1.67,.87,.89,1.52,2.47,1.2,4.1-.16,.8-.61,1.59-1.35,2.08-.72,.51-1.68,.72-2.64,.67-.96-.06-1.88-.38-2.62-.9-.74-.52-1.31-1.23-1.69-1.97-.77-1.5-.63-3.18,.13-4.21,.73-1.05,1.75-1.53,2.45-1.64,.71-.13,1.12,0,1.13-.07Z"/><path class="cls-14" d="M202.41,362.99c.01,.12,1.95-.24,5.06,.05,3.08,.27,7.39,1.38,11.29,4.11,3.9,2.73,6.41,6.4,7.72,9.2,1.34,2.82,1.66,4.77,1.78,4.74,.03,0-.02-.49-.21-1.36-.19-.86-.56-2.1-1.19-3.55-1.23-2.9-3.75-6.71-7.76-9.52-4.01-2.81-8.45-3.88-11.59-4.04-1.58-.09-2.87-.02-3.75,.1-.88,.11-1.35,.23-1.35,.27Z"/><path class="cls-14" d="M257.05,397.98s-.11-.37-.44-.97c-.33-.6-.87-1.44-1.66-2.39-1.55-1.89-4.26-4.17-7.86-5.39-3.6-1.23-7.14-1.08-9.52-.53-1.2,.27-2.14,.6-2.77,.88-.63,.27-.96,.47-.94,.5,.04,.1,1.42-.54,3.79-.96,2.35-.43,5.77-.5,9.25,.68,3.47,1.18,6.14,3.33,7.74,5.11,1.62,1.78,2.32,3.14,2.42,3.08Z"/><path class="cls-14" d="M220.6,402.66c.04,.06,.83-.42,1.94-1.4,1.11-.98,2.51-2.49,3.74-4.4,1.22-1.91,2.02-3.82,2.44-5.23,.43-1.42,.54-2.33,.47-2.34-.19-.06-.99,3.53-3.41,7.26-2.38,3.75-5.31,5.98-5.18,6.12Z"/></g><g><path class="cls-14" d="M168.34,381.66s-.09-.06-.29-.11c-.2-.05-.49-.08-.88-.05-.76,.05-1.9,.5-2.76,1.63-.89,1.11-1.11,3.03-.28,4.69,.4,.83,1.02,1.62,1.84,2.21,.83,.6,1.85,.95,2.92,1.02,1.07,.06,2.16-.18,3.01-.78,.87-.58,1.39-1.53,1.56-2.45,.32-1.87-.44-3.55-1.44-4.51-2.12-1.8-3.99-1.87-3.95-1.69,0,.02,.1,.01,.29,.05,.19,.04,.46,.13,.79,.27,.66,.29,1.65,.77,2.57,1.67,.87,.89,1.52,2.47,1.2,4.1-.16,.8-.61,1.59-1.35,2.08-.72,.51-1.68,.72-2.64,.67-.96-.06-1.88-.38-2.62-.9-.74-.52-1.31-1.23-1.69-1.97-.77-1.5-.63-3.18,.13-4.21,.73-1.05,1.75-1.53,2.45-1.64,.71-.13,1.12,0,1.13-.07Z"/><path class="cls-14" d="M138.79,364.58c.01,.12,1.95-.24,5.06,.05,3.08,.27,7.39,1.38,11.29,4.11,3.9,2.73,6.41,6.4,7.72,9.2,1.34,2.82,1.66,4.77,1.78,4.74,.03,0-.02-.49-.21-1.36-.19-.86-.56-2.1-1.19-3.55-1.23-2.9-3.75-6.71-7.76-9.52-4.01-2.81-8.45-3.88-11.59-4.04-1.58-.09-2.87-.02-3.75,.1-.88,.11-1.35,.23-1.35,.27Z"/><path class="cls-14" d="M193.43,399.57s-.11-.37-.44-.97c-.33-.6-.87-1.44-1.66-2.39-1.55-1.89-4.26-4.17-7.86-5.39-3.6-1.23-7.14-1.08-9.52-.53-1.2,.27-2.14,.6-2.77,.88-.63,.27-.96,.47-.94,.5,.04,.1,1.42-.54,3.79-.96,2.35-.43,5.77-.5,9.25,.68,3.47,1.18,6.14,3.33,7.74,5.11,1.62,1.78,2.32,3.14,2.42,3.08Z"/><path class="cls-14" d="M156.97,404.25c.04,.06,.83-.42,1.94-1.4,1.11-.98,2.51-2.49,3.74-4.4,1.22-1.91,2.02-3.82,2.44-5.23,.43-1.42,.54-2.33,.47-2.34-.19-.06-.99,3.53-3.41,7.26-2.38,3.75-5.31,5.98-5.18,6.12Z"/></g></g><g><g><path class="cls-6" d="M88.91,286.46c50.72-50.11,113.86-62.06,113.86-62.06,37.54,22.38,62.88,59.96,82.16,105.07-32.35,29.93-73.95,58.62-109.55,61.26-56.29-14.23-86.48-104.28-86.48-104.28Z"/><g class="cls-7"><path d="M88.91,286.46c50.72-50.11,113.86-62.06,113.86-62.06,37.54,22.38,62.88,59.96,82.16,105.07-32.35,29.93-73.95,58.62-109.55,61.26-56.29-14.23-86.48-104.28-86.48-104.28Z"/></g></g><path class="cls-6" d="M106.99,326.24s.05-.11,.13-.35c.08-.26,.19-.6,.32-1.03,.28-.94,.69-2.29,1.21-4.03,1.04-3.55,2.56-8.68,4.46-15.15l-.23,.12c6.83,2.22,15.27,4.95,24.88,8.06l-.16-.15s.02,.06,.07,.13c.07,.09,.24,.13,.3,.08,.09-.02,.18-.18,.16-.16,.03-.08,.04-.14,.04-.18l.03-.27,.02-.51,.02-1.01c0-.67,0-1.36,0-2.04,0-1.37-.01-2.76-.02-4.18-.01-2.83,0-5.74,.03-8.72,.04-2.99,.12-6.04,.3-9.16,.18-3.12,.42-6.3,.98-9.48l-.35,.23c7.24,1.68,14.82,3.45,22.61,5.26,4.68,1.08,9.28,2.15,13.79,3.2l.3,.07,.06-.3c2.04-10.68,3.98-20.84,5.76-30.2l-.34,.21c13.87,3.74,26.33,5.51,36.12,6.32l.18,.02,.02-.18c.95-7.78,1.7-13.96,2.22-18.23,.24-2.1,.43-3.73,.57-4.86,.06-.53,.1-.95,.13-1.25,.03-.28,.04-.43,.03-.43,0,0-.04,.14-.08,.42-.04,.3-.11,.72-.18,1.25-.15,1.13-.38,2.75-.66,4.85-.56,4.26-1.37,10.44-2.4,18.21l.21-.17c-9.77-.87-22.19-2.69-36.01-6.46l-.28-.08-.06,.29c-1.8,9.36-3.76,19.51-5.81,30.19l.36-.23c-4.5-1.05-9.11-2.12-13.78-3.2-7.79-1.81-15.38-3.56-22.62-5.24l-.3-.07-.05,.3c-.57,3.23-.8,6.43-.98,9.55-.17,3.13-.24,6.2-.28,9.19-.04,2.99-.03,5.91,0,8.73,.01,1.41,.02,2.81,.03,4.18,0,.68,0,1.36,0,2.04v1s-.03,.49-.03,.49l-.02,.23v.05s-.07-.02,.05,.04c.1,.06,.11,0,.14,.06,0,.06,0-.06,.05-.03,.18-.12,.14-.09,.14-.09l.13-.06-.29-.09c-9.62-3.06-18.07-5.75-24.92-7.93l-.18-.06-.05,.18c-1.83,6.48-3.29,11.63-4.3,15.19-.48,1.75-.86,3.1-1.12,4.05-.12,.44-.21,.79-.28,1.05-.06,.24-.09,.36-.08,.36Z"/><path class="cls-2" d="M116.69,342.19s.05-.09,.12-.27c.08-.2,.17-.47,.3-.81,.26-.74,.64-1.8,1.13-3.16,.98-2.8,2.4-6.87,4.21-12.03l-.19,.1c7.61,2.03,17.76,4.74,29.65,7.92l.27,.07,.04-.28c.71-5.45,1.49-11.31,2.36-17.48,.88-6.17,1.8-12.66,2.99-19.34l-.35,.23c6.99,1.62,14.25,3.31,21.7,5.04,4.99,1.16,9.9,2.3,14.7,3.41l.3,.07,.06-.3c2.04-10.69,3.98-20.84,5.76-30.2l-.34,.21c13.87,3.74,26.33,5.51,36.12,6.32l.18,.02,.02-.18c.95-7.78,1.7-13.97,2.22-18.24,.24-2.1,.43-3.73,.57-4.86,.06-.53,.1-.95,.13-1.25,.03-.28,.04-.43,.03-.43,0,0-.04,.14-.08,.42-.04,.3-.11,.72-.18,1.25-.15,1.13-.38,2.75-.66,4.84-.56,4.26-1.37,10.44-2.4,18.21l.2-.17c-9.76-.87-22.19-2.69-36.01-6.46l-.28-.08-.06,.29c-1.8,9.36-3.76,19.51-5.81,30.19l.36-.23c-4.79-1.11-9.7-2.25-14.7-3.41-7.45-1.73-14.72-3.41-21.71-5.03l-.3-.07-.05,.3c-1.19,6.7-2.09,13.19-2.96,19.37-.85,6.18-1.62,12.04-2.31,17.49l.31-.21c-11.91-3.11-22.08-5.76-29.69-7.75l-.15-.04-.05,.14c-1.75,5.19-3.12,9.27-4.07,12.08-.45,1.38-.8,2.44-1.05,3.19-.11,.35-.19,.61-.26,.82-.06,.18-.08,.28-.07,.28Z"/><path class="cls-6" d="M136.54,366.86s0-.32-.05-.95c-.05-.65-.13-1.57-.22-2.76-.22-2.45-.53-6.01-.93-10.56l-.19,.15c7.54,2.51,18.09,6.01,30.75,10.22l.26,.09,.05-.27c2.43-12.59,5.3-27.48,8.41-43.6l-.35,.23c6.05,1.41,12.36,2.87,18.8,4.37,6,1.39,11.88,2.75,17.6,4.08l.3,.07,.06-.3c2.04-10.7,3.98-20.84,5.76-30.2l-.33,.21c13.88,3.74,26.34,5.51,36.12,6.32h.18s.02-.16,.02-.16c.95-7.79,1.7-13.98,2.22-18.24,.24-2.1,.43-3.72,.57-4.85,.06-.53,.1-.95,.13-1.25,.03-.28,.04-.42,.03-.43,0,0-.04,.14-.08,.42-.04,.3-.11,.71-.18,1.24-.15,1.13-.38,2.75-.66,4.84-.56,4.26-1.37,10.44-2.4,18.22l.2-.16c-9.76-.87-22.18-2.69-36.01-6.46l-.28-.08-.05,.28c-1.8,9.35-3.76,19.5-5.82,30.19l.36-.23c-5.72-1.33-11.6-2.69-17.59-4.09-6.44-1.49-12.75-2.96-18.81-4.36l-.3-.07-.06,.3c-3.07,16.13-5.91,31.02-8.3,43.61l.31-.18c-12.68-4.13-23.25-7.57-30.81-10.03l-.21-.07,.02,.22c.46,4.54,.82,8.1,1.07,10.55,.13,1.19,.23,2.11,.3,2.76,.07,.62,.13,.94,.13,.94Z"/><path class="cls-2" d="M177.46,390.55s.03-.07,.07-.22c.05-.17,.1-.38,.18-.65,.16-.61,.37-1.45,.65-2.54,.56-2.26,1.36-5.52,2.37-9.63,.99-4.16,2.18-9.19,3.54-14.93,1.32-5.76,2.85-12.24,4.22-19.35l-.32,.21c10.87,2.53,23.25,5.42,36.39,8.48l.3,.07,.06-.3c.19-1,.4-2.07,.6-3.15,1.81-9.44,3.54-18.54,5.17-27.05l-.35,.22c13.67,3.69,26.17,5.5,36.13,6.32l.2,.02,.02-.2c.93-7.67,1.68-13.85,2.21-18.15,.24-2.11,.43-3.76,.57-4.91,.06-.54,.1-.96,.13-1.28,.03-.29,.04-.44,.03-.44,0,0-.04,.14-.08,.43-.05,.31-.11,.73-.19,1.27-.16,1.15-.39,2.79-.68,4.9-.57,4.3-1.38,10.47-2.39,18.13l.22-.18c-9.93-.89-22.38-2.74-36.01-6.46l-.29-.08-.06,.3c-1.64,8.51-3.38,17.6-5.2,27.04-.21,1.08-.41,2.15-.6,3.15l.36-.23c-13.14-3.04-25.54-5.9-36.41-8.42l-.27-.06-.05,.27c-1.34,7.09-2.84,13.58-4.12,19.35-1.32,5.75-2.47,10.79-3.42,14.96-.95,4.13-1.7,7.4-2.23,9.67-.25,1.1-.44,1.95-.57,2.56-.06,.27-.1,.49-.14,.66-.03,.15-.04,.22-.03,.23Z"/><path class="cls-6" d="M196.8,386.45s.19-.55,.43-1.59c.25-1.13,.58-2.61,.98-4.41,.81-3.75,1.9-8.99,3.1-14.93l-.36,.23c1.1,.26,2.25,.52,3.42,.8,6.7,1.56,12.78,2.93,17.19,3.9,2.13,.45,3.89,.83,5.22,1.12,1.24,.25,1.92,.37,1.93,.33,0-.04-.66-.24-1.88-.56-1.32-.33-3.07-.77-5.18-1.3-4.38-1.07-10.44-2.51-17.15-4.07-1.17-.27-2.32-.54-3.42-.79l-.3-.07-.06,.3c-1.18,5.94-2.2,11.19-2.9,14.96-.33,1.81-.6,3.31-.8,4.45-.18,1.05-.26,1.62-.22,1.63Z"/><path class="cls-6" d="M239.02,365.6s.19-.57,.43-1.62c.25-1.16,.57-2.66,.95-4.45,.78-3.76,1.81-8.97,2.91-14.73,.07-.35,.13-.7,.2-1.03l-.37,.23c5.44,1.47,10.39,2.52,13.97,3.17,1.79,.33,3.24,.56,4.25,.7,1,.14,1.56,.19,1.57,.16,0-.04-.54-.17-1.53-.38-1.1-.23-2.51-.52-4.21-.88-3.56-.75-8.47-1.87-13.89-3.34l-.31-.08-.06,.32c-.06,.33-.13,.68-.2,1.03-1.1,5.76-2.07,10.97-2.74,14.76-.31,1.81-.56,3.32-.76,4.49-.17,1.06-.24,1.65-.2,1.66Z"/><path class="cls-6" d="M281.49,332.62c.16,.02,.5-1.59,.76-3.59,.25-2,.33-3.65,.16-3.67-.16-.02-.5,1.59-.76,3.59-.25,2-.33,3.65-.16,3.67Z"/><path class="cls-2" d="M98.44,309.51s.03-.09,.07-.28c.04-.21,.1-.49,.17-.84,.14-.77,.34-1.86,.6-3.26,.51-2.89,1.25-7.07,2.18-12.36l-.19,.14c4.81,.77,10.66,1.71,17.3,2.77l.22,.04,.04-.23c1.74-10.4,3.83-22.91,6.12-36.65l-.35,.23c7.44,1.73,15.41,3.58,23.61,5.49,4.08,.95,8.1,1.88,12.03,2.79l.28,.07,.07-.28c2.56-10.39,4.93-20.24,6.72-29.32l-.3,.21c14.09,2.17,26.14,4.02,35.13,5.4l.18,.03,.02-.18c.68-5.63,1.22-10.09,1.59-13.17,.17-1.5,.3-2.67,.4-3.49,.04-.38,.07-.67,.09-.9,.02-.2,.02-.31,.01-.31s-.03,.1-.06,.3c-.03,.22-.08,.52-.14,.89-.11,.82-.28,1.98-.49,3.48-.41,3.08-1,7.53-1.75,13.15l.2-.15c-8.98-1.43-21.02-3.34-35.1-5.59l-.25-.04-.05,.25c-1.81,9.05-4.2,18.9-6.77,29.28l.35-.22c-3.93-.91-7.95-1.85-12.03-2.79-8.21-1.9-16.17-3.75-23.62-5.47l-.3-.07-.05,.3c-2.25,13.75-4.3,26.28-6.01,36.68l.26-.19c-6.64-1.02-12.51-1.92-17.32-2.65l-.17-.03-.03,.16c-.87,5.31-1.55,9.5-2.03,12.39-.22,1.41-.39,2.51-.51,3.28-.05,.35-.09,.63-.12,.84-.02,.19-.03,.29-.03,.29Z"/><path class="cls-14" d="M94.57,285.61s.11,.05,.32,.12c.25,.08,.56,.17,.95,.29,.82,.28,2.08,.55,3.63,1.12,3.13,1.02,7.58,2.81,12.73,5.66,5.16,2.83,10.93,6.9,16.69,12.14,5.76,5.24,11.44,11.72,16.58,19.09,5.11,7.41,9.27,14.93,12.7,21.93,3.43,7,6.2,13.47,8.44,18.93,2.24,5.46,3.99,9.91,5.2,12.98,.6,1.5,1.07,2.68,1.41,3.53,.16,.38,.28,.68,.38,.91,.09,.2,.14,.31,.15,.3s-.02-.11-.09-.33c-.08-.24-.19-.55-.33-.93-.31-.86-.75-2.05-1.31-3.57-1.15-3.1-2.84-7.57-5.03-13.05-2.2-5.48-4.92-11.98-8.34-19.01-3.41-7.03-7.58-14.58-12.71-22.02-5.17-7.41-10.89-13.9-16.7-19.16-5.81-5.25-11.64-9.3-16.86-12.1-5.21-2.82-9.7-4.56-12.86-5.51-1.56-.54-2.83-.78-3.67-1.02-.4-.1-.71-.17-.96-.23-.22-.05-.33-.07-.33-.06Z"/></g><g><path class="cls-12" d="M457.95,184.03l-.17,3.09c-.44-.42-1.03-.7-1.68-.73-1.46-.08-2.71,1.06-2.79,2.53-.08,1.48,1.04,2.74,2.51,2.82,.66,.04,1.27-.17,1.75-.55l-.17,3.1c-.44-.42-1.03-.7-1.68-.73-1.46-.08-2.71,1.06-2.79,2.53-.08,1.48,1.04,2.74,2.51,2.82,.66,.04,1.27-.17,1.75-.55l-.17,3.1c-.44-.42-1.03-.7-1.68-.73-1.46-.08-2.71,1.06-2.79,2.53-.08,1.48,1.04,2.74,2.51,2.82,.66,.04,1.27-.17,1.75-.55l-.17,3.1c-.44-.42-1.03-.7-1.68-.73-1.46-.08-2.71,1.06-2.79,2.53-.08,1.48,1.04,2.74,2.51,2.82,.66,.04,1.27-.17,1.75-.55l-.17,3.1c-.44-.42-1.03-.7-1.68-.73-1.46-.08-2.71,1.06-2.79,2.53-.08,1.48,1.04,2.74,2.51,2.82,.66,.04,1.27-.17,1.75-.55l-.17,3.1c-.44-.42-1.03-.7-1.68-.73-1.46-.08-2.71,1.06-2.79,2.53-.08,1.48,1.04,2.74,2.51,2.82,.66,.04,1.27-.17,1.75-.55l-.1,1.92-82.53-1.98,4.18-48.07,80.75,5.15Z"/><g><g><path class="cls-3" d="M459.78,182.05l-.17,3.09c-.44-.42-1.03-.7-1.68-.73-1.46-.08-2.71,1.06-2.79,2.53s1.04,2.74,2.51,2.82c.66,.04,1.27-.17,1.75-.55l-.17,3.1c-.44-.42-1.03-.7-1.68-.73-1.46-.08-2.71,1.06-2.79,2.53-.08,1.48,1.04,2.74,2.51,2.82,.66,.04,1.27-.17,1.75-.55l-.17,3.1c-.44-.42-1.03-.7-1.68-.73-1.46-.08-2.71,1.06-2.79,2.53-.08,1.48,1.04,2.74,2.51,2.82,.66,.04,1.27-.17,1.75-.55l-.17,3.1c-.44-.42-1.03-.7-1.68-.73-1.46-.08-2.71,1.06-2.79,2.53-.08,1.48,1.04,2.74,2.51,2.82,.66,.04,1.27-.17,1.75-.55l-.17,3.1c-.44-.42-1.03-.7-1.68-.73-1.46-.08-2.71,1.06-2.79,2.53s1.04,2.74,2.51,2.82c.66,.04,1.27-.17,1.75-.55l-.17,3.1c-.44-.42-1.03-.7-1.68-.73-1.46-.08-2.71,1.06-2.79,2.53-.08,1.48,1.04,2.74,2.51,2.82,.66,.04,1.27-.17,1.75-.55l-.1,1.92-82.5-4.41,2.4-44.9,82.5,4.41Z"/><path class="cls-5" d="M376.8,186.52c0,.16,18.45,1.29,41.23,2.5,22.79,1.22,41.26,2.07,41.27,1.91,0-.16-18.45-1.29-41.24-2.5-22.78-1.22-41.26-2.07-41.27-1.91Z"/><path class="cls-5" d="M376.42,193.7c0,.16,18.45,1.29,41.23,2.5,22.79,1.22,41.26,2.07,41.27,1.91,0-.16-18.45-1.29-41.24-2.5-22.78-1.22-41.26-2.07-41.27-1.91Z"/><path class="cls-5" d="M376.03,200.89c0,.16,18.45,1.29,41.23,2.5,22.79,1.22,41.26,2.07,41.27,1.91,0-.16-18.45-1.29-41.24-2.5-22.78-1.22-41.26-2.07-41.27-1.91Z"/><path class="cls-5" d="M375.65,208.07c0,.16,18.45,1.29,41.23,2.5,22.79,1.22,41.26,2.07,41.27,1.91,0-.16-18.45-1.29-41.24-2.5-22.78-1.22-41.26-2.07-41.27-1.91Z"/><path class="cls-5" d="M375.26,215.25c0,.16,18.45,1.29,41.23,2.5,22.79,1.22,41.26,2.07,41.27,1.91,0-.16-18.45-1.29-41.24-2.5-22.78-1.22-41.26-2.07-41.27-1.91Z"/><rect class="cls-6" x="424.62" y="203.6" width="44.97" height=".57" transform="translate(219.62 639.46) rotate(-86.94)"/><path class="cls-5" d="M438.43,225.94c.16,0,.84-10.04,1.5-22.43,.66-12.4,1.07-22.46,.9-22.47s-.84,10.03-1.5,22.44c-.66,12.4-1.07,22.46-.9,22.47Z"/><path class="cls-5" d="M453.12,226.72c.16,0,.84-10.04,1.5-22.43,.66-12.4,1.07-22.46,.9-22.47-.16,0-.84,10.03-1.5,22.44-.66,12.4-1.07,22.46-.9,22.47Z"/><path class="cls-5" d="M430.39,225.51c.16,0,.84-10.04,1.5-22.43,.66-12.4,1.07-22.46,.9-22.47-.16,0-.84,10.03-1.5,22.44-.66,12.4-1.07,22.46-.9,22.47Z"/><path class="cls-5" d="M422.34,225.08c.16,0,.84-10.04,1.5-22.43,.66-12.4,1.07-22.46,.9-22.47-.16,0-.84,10.03-1.5,22.44-.66,12.4-1.07,22.46-.9,22.47Z"/><path class="cls-5" d="M414.3,224.65c.16,0,.84-10.04,1.5-22.43,.66-12.4,1.07-22.46,.9-22.47-.16,0-.84,10.03-1.5,22.44-.66,12.4-1.07,22.46-.9,22.47Z"/><path class="cls-5" d="M406.26,224.22c.16,0,.84-10.04,1.5-22.43,.66-12.4,1.07-22.46,.9-22.47-.16,0-.84,10.03-1.5,22.44-.66,12.4-1.07,22.46-.9,22.47Z"/><path class="cls-5" d="M398.21,223.79c.16,0,.84-10.04,1.5-22.43,.66-12.4,1.07-22.46,.9-22.47s-.84,10.03-1.5,22.44c-.66,12.4-1.07,22.46-.9,22.47Z"/><path class="cls-5" d="M390.17,223.36c.16,0,.84-10.04,1.5-22.43,.66-12.4,1.07-22.46,.9-22.47s-.84,10.03-1.5,22.44c-.66,12.4-1.07,22.46-.9,22.47Z"/><path class="cls-5" d="M382.12,222.92c.16,0,.84-10.04,1.5-22.43,.66-12.4,1.07-22.46,.9-22.47-.16,0-.84,10.03-1.5,22.44-.66,12.4-1.07,22.46-.9,22.47Z"/></g><path class="cls-14" d="M383.13,195.73s.2,.05,.59,.09c.45,.04,1.01,.09,1.68,.14,1.55,.1,3.65,.25,6.2,.42,5.24,.33,12.48,.73,20.48,1.13,8,.4,15.25,.7,20.5,.87,5.24,.16,8.51,.18,8.5,0-3.13-.16-13.74-.69-28.96-1.46-7.96-.37-15.16-.71-20.49-.95-2.56-.09-4.66-.17-6.21-.23-.68-.01-1.24-.02-1.69-.03-.39,0-.59,0-.59,.03Z"/><path class="cls-14" d="M381.46,203.94c0,.16,13.3,.91,29.73,1.66,16.43,.75,29.75,1.23,29.76,1.07,0-.16-13.3-.91-29.73-1.66-16.42-.75-29.75-1.23-29.75-1.07Z"/><path class="cls-14" d="M380.57,211.12c0,.16,13.3,.91,29.73,1.66,16.43,.75,29.75,1.23,29.76,1.07,0-.16-13.3-.91-29.73-1.66-16.42-.75-29.75-1.23-29.75-1.07Z"/><path class="cls-5" d="M450.54,186.76c-.36,1.78-1.14,3.59-2.64,4.63-1.7,1.17-4.19,1.04-5.76-.31s-2.06-3.79-1.15-5.65c.91-1.86,3.15-2.96,5.18-2.54"/><g><path class="cls-4" d="M450.74,186.74c-.11,2.07-1.88,3.66-3.95,3.55-2.07-.11-3.66-1.88-3.55-3.95s1.88-3.66,3.95-3.55,3.66,1.88,3.55,3.95Z"/><path class="cls-4" d="M452.9,185.36c-.07,1.24-1.13,2.2-2.37,2.13s-2.2-1.13-2.13-2.37c.07-1.24,1.13-2.2,2.37-2.13,1.24,.07,2.2,1.13,2.13,2.37Z"/><path class="cls-14" d="M450.8,187.44c-.02-.09-.35-.06-.81-.23-.45-.16-1.05-.57-1.28-1.24-.23-.67-.06-1.37,.17-1.8,.23-.44,.49-.65,.44-.72-.03-.06-.41,.03-.79,.49-.37,.44-.7,1.32-.38,2.23,.33,.92,1.16,1.37,1.74,1.45,.6,.09,.94-.11,.92-.18Z"/><path class="cls-14" d="M448.91,183.86c-.08-.15-.64,.02-1.27-.13-.63-.14-1.07-.54-1.2-.44-.15,.07,.17,.81,1.07,1.02,.9,.2,1.51-.33,1.41-.45Z"/><path class="cls-14" d="M448.33,189.56c.17,.01,.32-.7,.91-1.25,.58-.56,1.3-.67,1.3-.84,.04-.16-.9-.33-1.71,.41-.79,.76-.67,1.71-.5,1.68Z"/></g><path class="cls-5" d="M387.12,184.11c-.36,1.78-1.14,3.59-2.64,4.63-1.7,1.17-4.19,1.04-5.76-.31s-2.06-3.79-1.15-5.65c.91-1.86,3.15-2.96,5.18-2.54"/><g><path class="cls-6" d="M379.87,183.09c-.11,2,1.43,3.71,3.43,3.82,2,.11,3.71-1.43,3.82-3.43,.11-2-1.43-3.71-3.43-3.82-2-.11-3.71,1.43-3.82,3.43Z"/><path class="cls-6" d="M377.95,181.54c-.06,1.2,.86,2.23,2.06,2.29s2.23-.86,2.29-2.06c.06-1.2-.86-2.23-2.06-2.29-1.2-.06-2.23,.86-2.29,2.06Z"/><path class="cls-14" d="M379.75,183.75c-.03,.06,.28,.29,.86,.27,.56-.01,1.42-.37,1.83-1.22,.4-.85,.17-1.73-.14-2.19-.32-.49-.68-.61-.72-.55-.06,.07,.17,.3,.34,.75,.17,.43,.27,1.12-.02,1.74-.29,.61-.9,.95-1.35,1.06-.46,.12-.78,.06-.8,.14Z"/><path class="cls-14" d="M381.93,180.51c-.12,.11,.42,.69,1.31,.59,.89-.11,1.27-.8,1.13-.88-.13-.11-.58,.22-1.2,.29-.62,.08-1.14-.13-1.24,0Z"/><path class="cls-14" d="M381.9,186.05c.16,.05,.38-.86-.3-1.67-.7-.8-1.63-.73-1.6-.56-.02,.17,.65,.36,1.15,.95,.51,.58,.59,1.28,.76,1.28Z"/></g></g></g><g><polygon class="cls-5" points="520.34 290.98 452.89 299.58 453.8 274.89 520.34 290.98"/><rect class="cls-4" x="454.62" y="272.65" width="64.98" height="21.57" transform="translate(996.1 525.38) rotate(175.23)"/><path class="cls-14" d="M462.94,281.83c.01,.16,10.87-.61,24.25-1.72,13.38-1.12,24.22-2.15,24.21-2.32-.01-.16-10.87,.61-24.25,1.72-13.38,1.12-24.22,2.15-24.2,2.32Z"/><path class="cls-14" d="M463.07,287.44c.01,.16,10.87-.61,24.25-1.72,13.38-1.12,24.22-2.15,24.21-2.32-.01-.16-10.87,.61-24.25,1.72-13.38,1.12-24.22,2.15-24.2,2.32Z"/><polygon class="cls-12" points="499.4 268.51 474.31 270.6 475.63 271.72 473.91 273.21 475.96 274.15 474.12 275.78 500.42 273.58 498.78 272.2 499.6 270.71 498.18 269.99 499.4 268.51"/></g><g><path class="cls-5" d="M558.59,229.61c-.26,.43-.41,.94-.41,1.48,0,1.61,1.3,2.91,2.91,2.91s2.91-1.3,2.91-2.91c0-.54-.15-1.05-.41-1.48h3.38c-.26,.43-.41,.94-.41,1.48,0,1.61,1.3,2.91,2.91,2.91s2.91-1.3,2.91-2.91c0-.54-.15-1.05-.41-1.48h3.38c-.26,.43-.41,.94-.41,1.48,0,1.61,1.3,2.91,2.91,2.91s2.91-1.3,2.91-2.91c0-.54-.15-1.05-.41-1.48h3.38c-.26,.43-.41,.94-.41,1.48,0,1.61,1.3,2.91,2.91,2.91s2.91-1.3,2.91-2.91c0-.54-.15-1.05-.41-1.48h3.38c-.26,.43-.41,.94-.41,1.48,0,1.61,1.3,2.91,2.91,2.91s2.91-1.3,2.91-2.91c0-.54-.15-1.05-.41-1.48h3.38c-.26,.43-.41,.94-.41,1.48,0,1.61,1.3,2.91,2.91,2.91s2.91-1.3,2.91-2.91c0-.54-.15-1.05-.41-1.48h2.12v60.24l-52.7,2.89,2.51-63.13h1.12Z"/><g><g class="cls-11"><path class="cls-3" d="M559.35,227.97c-.26,.43-.41,.94-.41,1.48,0,1.61,1.3,2.91,2.91,2.91s2.91-1.3,2.91-2.91c0-.54-.15-1.05-.41-1.48h3.38c-.26,.43-.41,.94-.41,1.48,0,1.61,1.3,2.91,2.91,2.91s2.91-1.3,2.91-2.91c0-.54-.15-1.05-.41-1.48h3.38c-.26,.43-.41,.94-.41,1.48,0,1.61,1.3,2.91,2.91,2.91s2.91-1.3,2.91-2.91c0-.54-.15-1.05-.41-1.48h3.38c-.26,.43-.41,.94-.41,1.48,0,1.61,1.3,2.91,2.91,2.91s2.91-1.3,2.91-2.91c0-.54-.15-1.05-.41-1.48h3.38c-.26,.43-.41,.94-.41,1.48,0,1.61,1.3,2.91,2.91,2.91s2.91-1.3,2.91-2.91c0-.54-.15-1.05-.41-1.48h3.38c-.26,.43-.41,.94-.41,1.48,0,1.61,1.3,2.91,2.91,2.91s2.91-1.3,2.91-2.91c0-.54-.15-1.05-.41-1.48h2.12v60.24h-50.18v-60.24h1.12Z"/><path class="cls-5" d="M611.48,290.98c.16,0,.45-14.6,.63-32.6,.18-18.01,.2-32.61,.04-32.61-.16,0-.45,14.59-.63,32.6-.18,18.01-.2,32.61-.04,32.61Z"/><path class="cls-5" d="M603.43,290.9c.16,0,.45-14.6,.63-32.6,.18-18.01,.2-32.61,.04-32.61-.16,0-.45,14.59-.63,32.6-.18,18.01-.2,32.61-.04,32.61Z"/><path class="cls-5" d="M599.43,290.9c.16,0,.45-14.6,.63-32.6,.18-18.01,.2-32.61,.04-32.61-.16,0-.45,14.59-.63,32.6-.18,18.01-.2,32.61-.04,32.61Z"/><path class="cls-5" d="M591.28,290.9c.16,0,.45-14.6,.63-32.6,.18-18.01,.2-32.61,.04-32.61-.16,0-.45,14.59-.63,32.6-.18,18.01-.2,32.61-.04,32.61Z"/><path class="cls-5" d="M583.14,290.9c.16,0,.45-14.6,.63-32.6,.18-18.01,.2-32.61,.04-32.61-.16,0-.45,14.59-.63,32.6-.18,18.01-.2,32.61-.04,32.61Z"/><path class="cls-5" d="M575,290.9c.16,0,.45-14.6,.63-32.6,.18-18.01,.2-32.61,.04-32.61-.16,0-.45,14.59-.63,32.6-.18,18.01-.2,32.61-.04,32.61Z"/><path class="cls-5" d="M567.28,290.9c.16,0,.45-14.6,.63-32.6,.18-18.01,.2-32.61,.04-32.61s-.45,14.59-.63,32.6c-.18,18.01-.2,32.61-.04,32.61Z"/><path class="cls-5" d="M559.56,290.9c.16,0,.45-14.6,.63-32.6,.18-18.01,.2-32.61,.04-32.61-.16,0-.45,14.59-.63,32.6-.18,18.01-.2,32.61-.04,32.61Z"/><path class="cls-5" d="M595.37,290.82c.16,0,.45-14.6,.63-32.6,.18-18.01,.2-32.61,.04-32.61-.16,0-.45,14.59-.63,32.6-.18,18.01-.2,32.61-.04,32.61Z"/><path class="cls-5" d="M587.32,290.73c.16,0,.45-14.6,.63-32.6,.18-18.01,.2-32.61,.04-32.61-.16,0-.45,14.59-.63,32.6-.18,18.01-.2,32.61-.04,32.61Z"/><path class="cls-5" d="M579.26,290.65c.16,0,.45-14.6,.63-32.6,.18-18.01,.2-32.61,.04-32.61-.16,0-.45,14.59-.63,32.6-.18,18.01-.2,32.61-.04,32.61Z"/><path class="cls-5" d="M571.21,290.57c.16,0,.45-14.6,.63-32.6,.18-18.01,.2-32.61,.04-32.61-.16,0-.45,14.59-.63,32.6-.18,18.01-.2,32.61-.04,32.61Z"/><path class="cls-5" d="M563.48,290.98c.16,0,.45-14.6,.63-32.6,.18-18.01,.2-32.61,.04-32.61-.16,0-.45,14.59-.63,32.6-.18,18.01-.2,32.61-.04,32.61Z"/><path class="cls-5" d="M555.1,290.4c.16,0,.45-14.6,.63-32.6,.18-18.01,.2-32.61,.04-32.61-.16,0-.45,14.59-.63,32.6-.18,18.01-.2,32.61-.04,32.61Z"/><path class="cls-5" d="M546.45,282.76c0,.16,14.6,.44,32.6,.62,18.01,.18,32.61,.19,32.61,.03,0-.16-14.59-.44-32.6-.62-18.01-.18-32.61-.19-32.61-.03Z"/><path class="cls-5" d="M546.12,286.88c0,.16,14.6,.44,32.6,.62,18.01,.18,32.61,.19,32.61,.03,0-.16-14.59-.44-32.6-.62-18.01-.18-32.61-.19-32.61-.03Z"/><path class="cls-5" d="M546.53,274.71c0,.16,14.6,.44,32.6,.62,18.01,.18,32.61,.19,32.61,.03s-14.59-.44-32.6-.62c-18.01-.18-32.61-.19-32.61-.03Z"/><path class="cls-5" d="M546.61,266.65c0,.16,14.6,.44,32.6,.62,18.01,.18,32.61,.19,32.61,.03,0-.16-14.59-.44-32.6-.62-18.01-.18-32.61-.19-32.61-.03Z"/><path class="cls-5" d="M546.69,258.6c0,.16,14.6,.44,32.6,.62,18.01,.18,32.61,.19,32.61,.03,0-.16-14.59-.44-32.6-.62-18.01-.18-32.61-.19-32.61-.03Z"/><path class="cls-5" d="M546.78,250.54c0,.16,14.6,.44,32.6,.62,18.01,.18,32.61,.19,32.61,.03,0-.16-14.59-.44-32.6-.62-18.01-.18-32.61-.19-32.61-.03Z"/><path class="cls-5" d="M546.86,242.49c0,.16,14.6,.44,32.6,.62,18.01,.18,32.61,.19,32.61,.03,0-.16-14.59-.44-32.6-.62-18.01-.18-32.61-.19-32.61-.03Z"/><path class="cls-5" d="M546.94,234.43c0,.16,14.6,.44,32.6,.62,18.01,.18,32.61,.19,32.61,.03,0-.16-14.59-.44-32.6-.62-18.01-.18-32.61-.19-32.61-.03Z"/><path class="cls-5" d="M546.94,231.21c0,.16,14.6,.44,32.6,.62,18.01,.18,32.61,.19,32.61,.03,0-.16-14.59-.44-32.6-.62-18.01-.18-32.61-.19-32.61-.03Z"/><path class="cls-5" d="M546.94,238.55c0,.16,14.6,.44,32.6,.62,18.01,.18,32.61,.19,32.61,.03,0-.16-14.59-.44-32.6-.62-18.01-.18-32.61-.19-32.61-.03Z"/><path class="cls-5" d="M546.94,246.54c0,.16,14.6,.44,32.6,.62,18.01,.18,32.61,.19,32.61,.03,0-.16-14.59-.44-32.6-.62-18.01-.18-32.61-.19-32.61-.03Z"/><path class="cls-5" d="M546.94,254.53c0,.16,14.6,.44,32.6,.62,18.01,.18,32.61,.19,32.61,.03,0-.16-14.59-.44-32.6-.62-18.01-.18-32.61-.19-32.61-.03Z"/><path class="cls-5" d="M546.94,262.52c0,.16,14.6,.44,32.6,.62,18.01,.18,32.61,.19,32.61,.03,0-.16-14.59-.44-32.6-.62-18.01-.18-32.61-.19-32.61-.03Z"/><path class="cls-5" d="M546.94,270.51c0,.16,14.6,.44,32.6,.62,18.01,.18,32.61,.19,32.61,.03,0-.16-14.59-.44-32.6-.62-18.01-.18-32.61-.19-32.61-.03Z"/><path class="cls-5" d="M546.94,278.5c0,.16,14.6,.44,32.6,.62,18.01,.18,32.61,.19,32.61,.03,0-.16-14.59-.44-32.6-.62-18.01-.18-32.61-.19-32.61-.03Z"/><path class="cls-13" d="M559.35,227.97c-.26,.43-.41,.94-.41,1.48,0,1.61,1.3,2.91,2.91,2.91s2.91-1.3,2.91-2.91c0-.54-.15-1.05-.41-1.48h3.38c-.26,.43-.41,.94-.41,1.48,0,1.61,1.3,2.91,2.91,2.91s2.91-1.3,2.91-2.91c0-.54-.15-1.05-.41-1.48h3.38c-.26,.43-.41,.94-.41,1.48,0,1.61,1.3,2.91,2.91,2.91s2.91-1.3,2.91-2.91c0-.54-.15-1.05-.41-1.48h3.38c-.26,.43-.41,.94-.41,1.48,0,1.61,1.3,2.91,2.91,2.91s2.91-1.3,2.91-2.91c0-.54-.15-1.05-.41-1.48h3.38c-.26,.43-.41,.94-.41,1.48,0,1.61,1.3,2.91,2.91,2.91s2.91-1.3,2.91-2.91c0-.54-.15-1.05-.41-1.48h3.38c-.26,.43-.41,.94-.41,1.48,0,1.61,1.3,2.91,2.91,2.91s2.91-1.3,2.91-2.91c0-.54-.15-1.05-.41-1.48h2.12v60.24h-50.18v-60.24h1.12Z"/></g><path class="cls-5" d="M586.77,236.69c-.36,1.78-1.14,3.59-2.64,4.63-1.7,1.17-4.19,1.04-5.76-.31-1.57-1.35-2.06-3.79-1.15-5.65,.91-1.86,3.15-2.96,5.18-2.54"/><g><path class="cls-6" d="M586.87,236.68c-.11,2.07-1.88,3.66-3.95,3.55-2.07-.11-3.66-1.88-3.55-3.95,.11-2.07,1.88-3.66,3.95-3.55,2.07,.11,3.66,1.88,3.55,3.95Z"/><path class="cls-6" d="M589.02,235.29c-.07,1.24-1.13,2.2-2.37,2.13-1.24-.07-2.2-1.13-2.13-2.37,.07-1.24,1.13-2.2,2.37-2.13,1.24,.07,2.2,1.13,2.13,2.37Z"/><path class="cls-14" d="M586.93,237.37c-.02-.09-.35-.06-.81-.23-.45-.16-1.05-.57-1.28-1.24-.23-.67-.06-1.37,.17-1.8,.23-.44,.49-.65,.44-.72-.03-.06-.41,.03-.79,.49-.37,.44-.7,1.32-.38,2.23,.33,.92,1.16,1.37,1.74,1.45,.6,.09,.94-.11,.92-.18Z"/><path class="cls-14" d="M585.04,233.79c-.08-.15-.64,.02-1.27-.13-.63-.14-1.07-.54-1.2-.44-.15,.07,.17,.81,1.07,1.02,.9,.2,1.51-.33,1.41-.45Z"/><path class="cls-14" d="M584.46,239.49c.17,.01,.32-.7,.91-1.25,.58-.56,1.3-.67,1.3-.84,.04-.16-.9-.33-1.71,.41-.79,.76-.67,1.71-.5,1.68Z"/></g></g><path class="cls-14" d="M563.86,249.49c0,.16,8.01,.3,17.88,.3s17.89-.13,17.89-.3-8.01-.3-17.89-.3-17.88,.13-17.88,.3Z"/><path class="cls-14" d="M563.86,253.21c0,.16,8.01,.3,17.88,.3s17.89-.13,17.89-.3-8.01-.3-17.89-.3-17.88,.13-17.88,.3Z"/><path class="cls-14" d="M563.86,256.92c0,.16,8.01,.3,17.88,.3s17.89-.13,17.89-.3-8.01-.3-17.89-.3-17.88,.13-17.88,.3Z"/><path class="cls-14" d="M563.86,260.64c0,.16,8.01,.3,17.88,.3s17.89-.13,17.89-.3-8.01-.3-17.89-.3-17.88,.13-17.88,.3Z"/><path class="cls-14" d="M563.86,264.36c0,.16,8.01,.3,17.88,.3s17.89-.13,17.89-.3-8.01-.3-17.89-.3-17.88,.13-17.88,.3Z"/><path class="cls-14" d="M563.86,268.08c0,.16,8.01,.3,17.88,.3s17.89-.13,17.89-.3-8.01-.3-17.89-.3-17.88,.13-17.88,.3Z"/><path class="cls-14" d="M563.86,271.79c0,.16,8.01,.3,17.88,.3s17.89-.13,17.89-.3-8.01-.3-17.89-.3-17.88,.13-17.88,.3Z"/></g><g><g><g><path class="cls-14" d="M652.2,442.96c.54,0,1.04-.36,1.18-.91l40.7-155.11c.17-.65-.22-1.32-.87-1.49-.65-.17-1.32,.22-1.49,.87l-40.7,155.11c-.17,.65,.22,1.32,.87,1.49,.1,.03,.21,.04,.31,.04Z"/><path class="cls-14" d="M662.95,446.8c.54,0,1.04-.36,1.18-.91l40.7-155.11c.17-.65-.22-1.32-.87-1.49-.65-.17-1.32,.22-1.49,.87l-40.7,155.11c-.17,.65,.22,1.32,.87,1.49,.1,.03,.21,.04,.31,.04Z"/><polygon class="cls-14" points="699.94 284.04 701.9 282.59 597.4 141.95 502.08 160.22 502.53 162.61 596.35 144.64 699.94 284.04"/><rect class="cls-14" x="639.28" y="130.16" width="2.44" height="172.74" transform="translate(-3.11 423.65) rotate(-36.52)"/><path class="cls-6" d="M600,148.42c-1.23,3.61-5.15,5.55-8.77,4.32-3.61-1.23-5.55-5.15-4.32-8.77,1.23-3.61,5.15-5.55,8.77-4.32,3.61,1.23,5.55,5.16,4.32,8.77Z"/></g><g><polygon class="cls-6" points="506.58 152.36 508.29 142.42 500.93 141.87 500.4 151.47 506.58 152.36"/><g class="cls-9"><polygon points="506.58 152.36 508.29 142.42 500.93 141.87 500.4 151.47 506.58 152.36"/></g><polyline class="cls-6" points="512.6 151.67 519.4 188.53 536.57 237.24 439.8 223.28 478.85 180.77 495.16 149.16 512.6 151.67"/></g></g><path class="cls-6" d="M706.72,288.16c0,4.24-3.44,7.68-7.68,7.68s-7.68-3.44-7.68-7.68,3.44-7.68,7.68-7.68,7.68,3.44,7.68,7.68Z"/><path class="cls-6" d="M682.84,473.99c.03-.51,.08-1.02,.08-1.54,0-16.96-13.75-30.71-30.72-30.71s-30.71,13.75-30.71,30.71c0,.52,.05,1.02,.08,1.54h61.27Z"/></g><g><g><path class="cls-10" d="M515.3,462.49c.38,.08,1.98,1.71-.32,4.31-2.3,2.6-16.17,9.71-18.73,5.46s3.62-7.2,3.62-7.2l15.43-2.57Z"/><path class="cls-10" d="M500.07,457.91s-14.31-1.58-20.15-.83c-6.34,.81-13.05-2.39-17.04-6.76-3.99-4.37-5.03-10.12-5.03-10.12l-9.11-6.37s-.98-21.65,13.45-18.15l16.87,.59s33.18,5.5,38.32,9.63c0,0,6.25,6.07,8.07,8.43,.69,.89,1.28,9.81-5.06,12.85,0,0,3.74,4.78,.44,7.47l-1.55,1.17s2.14,4.77,.13,6.13-17.93,6.2-22.46,3.05c-4.52-3.15,.72-6.78,3.12-7.1"/><path class="cls-8" d="M517.9,446.34s-.67,.05-1.87,.2c-1.2,.15-2.94,.37-5.1,.52-1.08,.08-2.26,.14-3.53,.17-1.27,.04-2.63-.02-4.08,.1-1.44,.12-3.03,.41-4.38,1.39-1.28,.95-2.39,2.57-2.14,4.41,.12,.91,.64,1.7,1.28,2.27,.65,.56,1.41,.94,2.16,1.2,1.53,.52,3.05,.68,4.48,.83,2.88,.24,5.49,.08,7.65-.15,2.16-.23,3.9-.52,5.09-.72,1.2-.21,1.85-.35,1.85-.39,0-.04-.67,.02-1.88,.16-1.2,.13-2.94,.36-5.1,.53-2.15,.17-4.73,.29-7.56,.02-1.4-.16-2.91-.33-4.34-.83-.71-.25-1.4-.6-1.97-1.1-.55-.5-.98-1.16-1.08-1.91-.22-1.52,.73-2.99,1.9-3.85,1.19-.88,2.69-1.18,4.08-1.31,1.4-.13,2.77-.09,4.05-.15,1.28-.05,2.47-.13,3.55-.24,2.16-.21,3.9-.49,5.1-.71,1.19-.23,1.84-.39,1.84-.43Z"/><path class="cls-8" d="M519.06,436s-.67,.05-1.87,.21c-1.2,.16-2.93,.39-5.07,.57-2.15,.19-4.71,.33-7.55,.33-1.41,.02-3-.07-4.52,.68-.74,.37-1.39,1.03-1.72,1.84-.33,.81-.39,1.71-.24,2.56,.32,1.75,1.54,3.12,2.89,3.97,1.36,.87,2.9,1.27,4.34,1.41,2.91,.25,5.47-.2,7.61-.35,2.07-.21,3.78-.38,5.09-.52,1.2-.14,1.86-.23,1.86-.27s-.67-.02-1.88,.04c-1.31,.08-3.03,.19-5.1,.33-2.15,.1-4.73,.5-7.52,.23-1.39-.15-2.82-.55-4.09-1.36-1.25-.79-2.34-2.05-2.62-3.58-.31-1.52,.3-3.15,1.64-3.78,1.3-.67,2.84-.62,4.25-.65,2.86-.03,5.44-.22,7.59-.46,2.15-.24,3.88-.53,5.07-.76,1.19-.23,1.84-.4,1.83-.44Z"/><path class="cls-8" d="M511.68,437.26c.17,.04,.57-1.22,1.3-2.64,.72-1.43,1.5-2.49,1.37-2.6-.11-.11-1.14,.82-1.9,2.33-.77,1.5-.92,2.88-.77,2.91Z"/><g><path class="cls-10" d="M467.92,416.56l13.53-1.8s38.24-7.79,38.61-6.79c.37,1.01,2.26,1.36,.85,5.46-1.41,4.09-23.48,7.74-24.46,9.04-.98,1.3-1.69,8.9-10.35,12.38-8.66,3.48-14.03,2.32-14.03,2.32"/><path class="cls-8" d="M472.05,437.16s.1,.04,.29,.08c.2,.04,.49,.09,.88,.12,.77,.07,1.93,.12,3.4,0,1.47-.11,3.27-.39,5.3-.94,2.02-.57,4.32-1.27,6.65-2.59,2.33-1.3,4.49-3.45,5.96-6.23,.75-1.37,1.27-2.94,1.84-4.45,.07-.19,.16-.36,.25-.5,.07-.1,.22-.17,.4-.25,.36-.16,.76-.28,1.16-.41,.8-.25,1.63-.47,2.47-.69,3.36-.87,6.92-1.72,10.57-2.79,1.82-.54,3.67-1.13,5.5-1.86,.91-.38,1.82-.79,2.69-1.33,.44-.26,.85-.58,1.23-.97,.18-.21,.36-.42,.47-.7,.13-.26,.17-.49,.26-.74,.28-.98,.5-2.05,.19-3.12-.15-.53-.51-.99-.83-1.36-.16-.19-.31-.36-.38-.52-.03-.04,.03,.02-.09-.15-.14-.14-.17-.11-.22-.13-.12-.04-.16-.03-.25-.04-.14,0-.27,0-.4,0-2,.13-3.89,.47-5.76,.76-3.74,.62-7.34,1.29-10.76,1.93-6.84,1.3-12.99,2.54-18.14,3.6-1.29,.25-2.52,.55-3.67,.74-1.17,.16-2.28,.32-3.31,.46-2.06,.29-3.84,.55-5.31,.76-1.42,.21-2.54,.38-3.35,.5-.35,.06-.64,.11-.87,.15-.2,.04-.3,.06-.29,.07s.1,0,.3,0c.23-.02,.52-.05,.88-.09,.82-.09,1.94-.23,3.37-.39,1.48-.18,3.26-.4,5.33-.66,1.04-.13,2.15-.27,3.33-.42,1.18-.18,2.4-.46,3.7-.7,5.18-.99,11.34-2.17,18.16-3.47,3.42-.63,7.02-1.29,10.75-1.9,1.86-.29,3.78-.62,5.69-.74,.12,0,.23,0,.34,0,.04,0,.12,0,.12,.02,.01-.02-.01,.04,.03-.04,.06-.1,.02-.09,.06-.14,.01-.01,.03-.03,.05-.03-.45,.17-.12,.06-.22,.11l.02,.05c.13,.29,.31,.49,.47,.68,.32,.37,.59,.72,.71,1.15,.26,.85,.08,1.85-.19,2.77-.15,.5-.27,.88-.59,1.21-.32,.32-.7,.62-1.11,.87-.82,.51-1.71,.91-2.6,1.29-1.8,.73-3.63,1.32-5.44,1.85-3.62,1.07-7.17,1.93-10.54,2.82-.84,.23-1.67,.45-2.49,.71-.41,.13-.81,.26-1.22,.44-.19,.09-.44,.19-.62,.43-.13,.21-.23,.41-.3,.61-.58,1.58-1.07,3.07-1.79,4.42-1.41,2.71-3.48,4.81-5.74,6.09-2.25,1.3-4.54,2.03-6.52,2.63-2,.57-3.78,.88-5.23,1.03-1.46,.15-2.6,.15-3.37,.11-.39-.02-.68-.04-.88-.06-.2-.02-.3-.03-.3-.02Z"/></g><path class="cls-8" d="M504.24,457.24s-.51-.06-1.41,.07c-.9,.12-2.2,.42-3.69,1.1-.74,.35-1.53,.76-2.31,1.37-.74,.6-1.56,1.45-1.69,2.65-.13,1.22,.65,2.39,1.7,3.03,1.08,.68,2.39,.79,3.63,.75,4.94-.3,9.36-1.03,12.5-1.84,1.57-.4,2.81-.81,3.66-1.13,.85-.31,1.3-.53,1.29-.56-.02-.04-.5,.1-1.36,.34-.86,.25-2.12,.59-3.69,.94-3.13,.7-7.54,1.36-12.42,1.65-1.19,.04-2.39-.08-3.3-.65-.92-.55-1.56-1.53-1.46-2.48,.08-.96,.77-1.75,1.46-2.32,.71-.58,1.48-1.01,2.18-1.37,2.87-1.4,4.95-1.42,4.92-1.54Z"/></g><path class="cls-6" d="M404.71,379.09s-16.95-27.91-20.76-46.33c-3.81-18.42-23.5-47.64-29.85-55.26-6.35-7.62-31.76-16.51-31.76-16.51l-9.37-5.05-72.57-6.38s-48.27,5.08-62.88,18.42c-14.61,13.34-26.04,43.83-26.04,59.07s-14.75,147.25-14.75,147.25l178.82-.24-4.01-65.08s21.6-14.61,27.31-27.31c5.72-12.7,2.54-6.35,2.54-6.35,0,0,20.27,43.1,27.26,48.18,6.99,5.08,88.19,30,88.19,30l11.12-42.62-63.25-31.79Z"/><path class="cls-6" d="M193.59,273.3c1.96,.61,26.18,63.17,27.88,68.86,1.71,5.69,0,41.54,0,41.54l-7.97,14.8s2.28,10.81,.57,15.93l35.85,6.83s9.1-6.26,17.64,0l42.29,3.58s-12.42,.14-8.72,19.19c3.62,18.66,6.38,22.76,6.38,22.76l-148.64-3.39s-16.51-.82-13.99-32.57c2.52-31.76,9.6-119.34,9.6-119.34,0,0,10.84-46.94,39.1-38.17Z"/><path class="cls-14" d="M221.81,378.69s.14-.26,.35-.77c.23-.57,.53-1.32,.9-2.25,.39-.98,.86-2.18,1.32-3.61,.46-1.42,1.06-3.02,1.55-4.85,.53-1.81,1.1-3.79,1.59-5.96,.56-2.15,.98-4.48,1.45-6.93,.84-4.92,1.5-10.37,1.74-16.13,.2-5.76-.03-11.25-.49-16.22-.29-2.48-.53-4.84-.93-7.02-.19-1.09-.33-2.15-.54-3.16-.21-1.01-.42-1.97-.61-2.9-.36-1.85-.83-3.49-1.2-4.94-.36-1.45-.74-2.69-1.07-3.69-.31-.96-.56-1.72-.75-2.31-.18-.53-.28-.8-.3-.79-.02,0,.04,.29,.19,.83,.16,.59,.38,1.37,.64,2.34,.3,1.01,.64,2.25,.97,3.71,.34,1.45,.79,3.1,1.11,4.95,.18,.92,.37,1.89,.57,2.89,.19,1.01,.33,2.07,.5,3.16,.38,2.18,.6,4.53,.88,7,.43,4.95,.64,10.41,.44,16.14-.23,5.73-.88,11.16-1.69,16.06-.45,2.44-.86,4.77-1.39,6.91-.46,2.16-1.01,4.14-1.51,5.96-.46,1.82-1.03,3.43-1.46,4.86-.43,1.43-.86,2.64-1.22,3.63-.33,.95-.59,1.71-.8,2.29-.18,.53-.26,.81-.24,.81Z"/><path class="cls-14" d="M170.09,446.53s.15-.14,.38-.44c.27-.36,.6-.79,.99-1.31,.42-.58,.94-1.28,1.59-2.06,.64-.79,1.34-1.71,2.2-2.65,.84-.96,1.76-2.02,2.81-3.08,1.02-1.11,2.2-2.19,3.41-3.36,2.5-2.27,5.36-4.63,8.56-6.85,3.21-2.2,6.43-4.05,9.43-5.59,1.52-.73,2.95-1.45,4.35-2.01,1.37-.61,2.68-1.1,3.88-1.55,1.19-.47,2.3-.8,3.26-1.12,.96-.33,1.8-.57,2.49-.76,.63-.19,1.15-.34,1.58-.47,.36-.11,.55-.18,.54-.2s-.2,0-.57,.09c-.44,.1-.97,.22-1.61,.36-.7,.15-1.55,.36-2.53,.67-.98,.3-2.1,.59-3.3,1.04-1.21,.42-2.54,.89-3.93,1.49-1.41,.54-2.86,1.25-4.4,1.97-3.04,1.52-6.29,3.37-9.53,5.59-3.22,2.24-6.1,4.63-8.59,6.94-1.22,1.19-2.39,2.29-3.4,3.42-1.05,1.09-1.96,2.16-2.78,3.15-.85,.97-1.52,1.91-2.14,2.72-.63,.8-1.12,1.53-1.52,2.13-.36,.55-.66,1.01-.9,1.38-.2,.32-.3,.49-.28,.5Z"/><path class="cls-14" d="M157.57,438.19c.09,.08,1.4-1.42,3.88-3.44,1.23-1.02,2.79-2.11,4.59-3.21,1.82-1.06,3.9-2.11,6.17-2.98,2.28-.85,4.53-1.45,6.59-1.86,2.07-.38,3.97-.59,5.56-.65,3.19-.13,5.17,.12,5.18,0,0-.04-.49-.12-1.38-.23-.45-.06-1-.12-1.64-.14-.64-.02-1.37-.08-2.18-.05-1.62,0-3.54,.18-5.65,.53-2.1,.39-4.39,.98-6.71,1.84-2.31,.89-4.41,1.96-6.24,3.07-1.81,1.14-3.37,2.28-4.58,3.35-.63,.51-1.14,1.04-1.6,1.48-.47,.44-.84,.85-1.13,1.19-.6,.68-.91,1.06-.88,1.09Z"/><path class="cls-14" d="M171.32,417.27c.08,.11,1.83-1.29,5.03-2.87,.8-.39,1.68-.81,2.67-1.17,.96-.41,2.04-.72,3.17-1.08,2.27-.62,4.82-1.12,7.54-1.32,2.72-.17,5.31-.02,7.65,.28,1.16,.2,2.27,.36,3.28,.64,1.03,.22,1.96,.51,2.81,.79,3.39,1.13,5.32,2.27,5.38,2.16,.02-.04-.46-.32-1.34-.81-.44-.25-.98-.55-1.64-.82-.66-.28-1.39-.65-2.26-.92-.85-.31-1.79-.63-2.82-.87-1.02-.3-2.15-.48-3.32-.7-2.37-.34-5.01-.51-7.77-.33-2.76,.21-5.35,.73-7.65,1.39-1.14,.38-2.23,.71-3.2,1.15-.99,.38-1.88,.83-2.68,1.25-.82,.39-1.5,.85-2.11,1.22-.62,.36-1.12,.73-1.52,1.04-.81,.61-1.24,.96-1.21,.99Z"/><path class="cls-14" d="M258.25,464.19c.13-.04-.74-2.39-1.06-6.37-.19-1.98-.14-4.37,.06-6.99,.24-2.62,.75-5.48,1.5-8.43,.78-2.94,1.8-5.66,2.85-8.08,1.14-2.37,2.25-4.48,3.4-6.11,2.23-3.31,4.13-4.95,4.03-5.04-.03-.03-.49,.38-1.31,1.16-.43,.37-.88,.89-1.4,1.5-.26,.31-.54,.64-.83,.98-.28,.36-.55,.76-.84,1.17-1.21,1.62-2.37,3.73-3.55,6.12-1.09,2.43-2.13,5.18-2.93,8.16-.76,2.98-1.25,5.88-1.47,8.54-.17,2.66-.18,5.07,.07,7.08,.06,.5,.11,.97,.16,1.43,.09,.44,.17,.86,.25,1.26,.15,.79,.29,1.46,.48,1.99,.34,1.08,.55,1.66,.59,1.65Z"/><path class="cls-14" d="M283.17,421.23s.03-.11,.07-.33c.04-.25,.09-.58,.16-.98,.13-.9,.31-2.16,.54-3.77,.46-3.27,1.07-8.02,1.78-13.89,1.41-11.74,3.09-27.99,4.41-45.98,1.31-18,2-34.33,2.31-46.14,.16-5.91,.24-10.69,.25-14,0-1.62,0-2.89,.01-3.81,0-.41,0-.73-.01-.99,0-.22-.01-.34-.02-.34-.01,0-.02,.11-.04,.34-.01,.26-.03,.58-.05,.99-.03,.91-.07,2.19-.12,3.8-.11,3.35-.26,8.12-.44,13.99-.41,11.81-1.17,28.12-2.48,46.11-1.32,17.98-2.93,34.23-4.23,45.98-.67,5.84-1.21,10.58-1.59,13.91-.18,1.61-.33,2.88-.43,3.78-.04,.41-.07,.73-.1,.99-.02,.22-.02,.34-.01,.34Z"/><path class="cls-14" d="M341.56,376.13s.31-.61,.78-1.75c.46-1.14,1.14-2.79,2-4.81,1.72-4.05,4.29-9.55,7.35-15.52,3.07-5.92,5.85-11.27,7.92-15.26,1-1.96,1.79-3.56,2.32-4.67,.53-1.11,.8-1.74,.77-1.75-.04-.02-.38,.57-.97,1.65-.63,1.17-1.47,2.72-2.48,4.58-2.08,3.88-5.01,9.21-8.08,15.19-3.07,5.98-5.58,11.53-7.21,15.63-.81,2.05-1.44,3.72-1.83,4.89-.4,1.17-.6,1.82-.56,1.83Z"/><path class="cls-14" d="M350.7,354.98s.38-.03,1.04-.2c.66-.16,1.6-.44,2.75-.81,2.3-.75,5.43-1.96,8.75-3.6,3.32-1.64,6.17-3.4,8.16-4.78,1-.69,1.79-1.27,2.31-1.69,.53-.42,.81-.67,.79-.7-.05-.07-1.29,.77-3.33,2.05-2.04,1.28-4.91,2.97-8.2,4.6-3.29,1.63-6.37,2.89-8.63,3.73-2.25,.85-3.67,1.32-3.65,1.41Z"/><path class="cls-14" d="M366.05,394.08s.46-.24,1.23-.75c.76-.52,1.88-1.24,3.29-2.1,2.81-1.72,6.84-3.85,11.54-5.62,4.71-1.76,9.15-2.79,12.4-3.34,1.62-.28,2.94-.47,3.86-.58,.92-.12,1.42-.2,1.42-.24,0-.04-.51-.04-1.44,.01-.93,.04-2.26,.17-3.9,.39-3.28,.45-7.79,1.43-12.54,3.2-4.75,1.78-8.79,4-11.56,5.82-1.39,.91-2.48,1.69-3.2,2.27-.73,.57-1.12,.9-1.09,.94Z"/><path class="cls-14" d="M242.29,249.65s0,.32,.07,.93c.08,.66,.18,1.55,.3,2.66,.3,2.3,.71,5.64,1.41,9.73,.7,4.09,1.66,8.96,3.21,14.24,1.59,5.25,3.79,10.96,7.2,16.35,1.76,2.84,3.85,5.35,5.97,7.65l.23,.25,.21-.28c3.07-4.1,6.98-7.12,10.86-9.01,1.93-.99,3.89-1.6,5.72-2.11,1.86-.41,3.61-.68,5.21-.7,3.21-.08,5.76,.47,7.42,1.04,1.67,.58,2.54,1.02,2.56,.96,0-.02-.21-.13-.62-.33-.43-.18-1.02-.55-1.87-.82-1.66-.64-4.24-1.26-7.5-1.23-1.63,0-3.41,.25-5.3,.64-1.87,.5-3.87,1.09-5.84,2.09-3.97,1.89-7.96,4.94-11.11,9.12l.44-.03c-2.08-2.27-4.14-4.75-5.88-7.56-3.37-5.33-5.57-10.98-7.18-16.19-1.57-5.24-2.57-10.08-3.32-14.15-.75-4.07-1.23-7.4-1.59-9.69-.17-1.1-.31-1.98-.41-2.64-.1-.6-.16-.92-.18-.92Z"/><polygon class="cls-6" points="241.31 250.37 252.34 235.76 264.32 236.14 303.26 256.71 241.31 250.37"/><path class="cls-14" d="M292.66,291.36s.22,.01,.63-.01c.41-.04,1.02-.11,1.79-.29,1.55-.33,3.71-1.2,6.15-2.63,1.22-.73,2.57-1.4,4.18-1.73,1.59-.34,3.37-.39,5.16,0,3.58,.72,7.15,3.51,8.64,7.52l.62,1.68-.05-1.79c-.01-.44-.02-.92-.04-1.4-.14-9.01-.15-17.2-.52-23.11-.16-2.96-.4-5.34-.64-6.98-.11-.82-.23-1.45-.32-1.88-.09-.43-.15-.65-.17-.65-.06,.01,.1,.91,.26,2.55,.17,1.64,.34,4.02,.45,6.98,.26,5.9,.2,14.07,.34,23.1,.01,.48,.03,.96,.04,1.41l.58-.11c-1.57-4.21-5.33-7.11-9.09-7.84-3.79-.79-7.33,.34-9.66,1.91-2.4,1.47-4.49,2.37-6,2.77-1.51,.42-2.38,.47-2.37,.53Z"/><g><g><path class="cls-10" d="M252.34,164.97v87.76c0,5.01,1.77,9.87,5,13.7h0c4.95,5.88,10.92,10.83,17.62,14.6l17.7,9.97,14.64-13.07c4.31-3.85,6.86-9.28,7.09-15.05,.25-6.39,.25-12.83,.25-12.83,0,0,24.81-1.78,27.14-26.25,1.1-11.52,1.44-35.11,1.5-56.86,.07-24.81-18.95-45.49-43.68-47.54l-.7-.06c-25.6-.62-46.67,20.01-46.58,45.62Z"/><path class="cls-8" d="M314.72,249.7s-15.58-.02-31.18-11.72c0,0,6.09,18.25,30.71,18.07l.47-6.35Z"/></g><g><g><g><path class="cls-14" d="M335.05,183.39c-.09,1.85-1.73,3.31-3.66,3.25-1.93-.06-3.43-1.6-3.34-3.45,.09-1.85,1.73-3.31,3.66-3.25,1.94,.06,3.44,1.6,3.35,3.45Z"/><path class="cls-14" d="M337.04,176.82c-.47,.42-2.96-1.76-6.72-2.06-3.76-.36-6.68,1.35-7.05,.86-.18-.22,.33-1.01,1.6-1.78,1.26-.77,3.35-1.45,5.69-1.25,2.34,.21,4.24,1.23,5.3,2.21,1.08,.98,1.41,1.84,1.18,2.03Z"/></g><g><path class="cls-14" d="M299.24,181.87c-.09,1.85-1.73,3.31-3.66,3.25-1.93-.06-3.43-1.6-3.34-3.45,.09-1.85,1.73-3.31,3.66-3.25,1.94,.06,3.43,1.6,3.35,3.45Z"/><path class="cls-14" d="M299.99,174.46c-.47,.42-2.96-1.76-6.72-2.06-3.76-.36-6.68,1.35-7.05,.86-.18-.22,.32-1.01,1.6-1.78,1.26-.77,3.34-1.45,5.69-1.25,2.34,.21,4.24,1.23,5.3,2.21,1.08,.98,1.41,1.84,1.18,2.03Z"/></g><path class="cls-14" d="M311.34,203.5c0-.22,2.37-.43,6.2-.6,.97-.02,1.89-.14,2.11-.78,.28-.68-.03-1.74-.41-2.9-.71-2.4-1.45-4.92-2.24-7.55-3.08-10.75-5.23-19.55-4.8-19.67,.43-.12,3.29,8.49,6.37,19.24,.74,2.65,1.44,5.17,2.11,7.59,.27,1.12,.8,2.41,.19,3.81-.32,.7-1.07,1.16-1.7,1.27-.63,.14-1.17,.1-1.65,.09-3.83-.11-6.2-.29-6.2-.5Z"/><path class="cls-14" d="M300.04,205.19c.62,.01,.28,4.1,3.54,7.29,3.25,3.2,7.64,3.1,7.63,3.67,.04,.26-1.04,.71-2.88,.61-1.81-.09-4.39-.88-6.39-2.84-1.99-1.95-2.71-4.4-2.71-6.09-.01-1.72,.52-2.69,.8-2.65Z"/></g><path class="cls-14" d="M302.18,159.79c-.46,.99-4.17,.2-8.63,.36-4.46,.08-8.13,1.07-8.64,.11-.22-.46,.48-1.37,2-2.24,1.51-.87,3.86-1.62,6.54-1.7,2.67-.07,5.07,.55,6.62,1.34,1.57,.79,2.32,1.66,2.12,2.13Z"/><path class="cls-14" d="M336.56,165.81c-.73,.8-3.25-.3-6.37-.6-3.1-.41-5.8,.1-6.34-.85-.23-.46,.26-1.28,1.48-1.99,1.2-.71,3.16-1.21,5.3-.97,2.14,.25,3.93,1.17,4.94,2.14,1.03,.97,1.32,1.88,.99,2.27Z"/></g><path class="cls-14" d="M281.15,140.32s-.1,.06-.14,.09c-4.15,2.76-7.1,7-8.19,11.86-.04,.17-.07,.33-.11,.49-1.54,6.91-1.95,14.03-3.55,20.92-1.6,6.89-1.31,12.16-8.21,13.71-4.35,.98-8.06-1.44-9.61-3.9-.6-.95-.61-2.15-.61-3.27,.09-16.97-3.32-23.57-1.83-41.2,.41-4.8,3.04-9.12,7.17-11.59,3.91-2.34,8.65-4.71,12.59-2.43,3.95,2.29,8.62,10.41,11.54,13.92"/><g><path class="cls-10" d="M259.68,176.74c-.4-.22-16.42-6.37-17.27,10.42-.85,16.79,16.18,14.18,16.23,13.7,.05-.48,1.03-24.12,1.03-24.12Z"/><path class="cls-8" d="M253.84,194.23c-.07-.06-.3,.19-.81,.39-.49,.2-1.33,.31-2.19-.07-1.74-.74-3.09-3.63-3.02-6.66,.03-1.53,.43-2.97,1.03-4.15,.57-1.2,1.41-2.02,2.31-2.13,.9-.16,1.5,.41,1.69,.89,.2,.48,.08,.81,.16,.84,.05,.04,.37-.26,.27-.96-.05-.34-.23-.74-.61-1.09-.39-.35-.97-.54-1.6-.51-1.3,.02-2.52,1.16-3.19,2.45-.73,1.29-1.21,2.91-1.25,4.63-.06,3.39,1.51,6.64,3.9,7.47,1.17,.37,2.17,.06,2.7-.31,.54-.39,.65-.76,.59-.79Z"/></g><path class="cls-14" d="M267.87,127.54c-3.57-7.04,8.52-15.72,17-17.64,8.48-1.92,19.03,3.01,27.03,6.42,5.05,2.15,10.02,4.98,15.5,5.21,3.68,.15,7.28-.89,10.84-1.83,3.56-.94,7.25-1.78,10.89-1.23,3.64,.55,7.24,2.81,8.35,6.32,1.11,3.51-1.27,7.99-4.94,8.2,4.84-2.16,11.27,1.74,11.59,7.03,.32,5.3-5.59,9.94-10.66,8.38,2.53-1.61,5.93,1.68,5.39,4.62s-3.41,4.89-6.25,5.86c-7.24,2.49-15.3,.84-22.32-2.19-7.03-3.03-13.41-7.37-20.36-10.58-6.95-3.2-18.56-8.88-25.96-6.94-5.45,1.43-9.66,7.5-12.54,5.85-2.78-1.6-4.36-4.78-4.68-7.97-.32-3.19,.4-6.38,1.12-9.51"/><path class="cls-4" d="M354.6,132.68c-.13-.09-.96,1.17-2.93,2.97-1.96,1.77-5.2,4.05-9.8,5.22-4.51,1.17-10.52,1.17-15.91-1.97-5.49-3.02-9.93-8.53-15.14-13.8-5.19-5.31-11.5-9.45-18.07-10.6-6.53-1.17-12.8,.74-16.47,4.22-3.69,3.52-4.72,7.79-4.69,10.51,0,1.39,.27,2.44,.47,3.14,.25,.68,.41,1.02,.46,1,.16-.04-.43-1.48-.28-4.12,.16-2.58,1.33-6.53,4.84-9.66,3.46-3.09,9.32-4.76,15.41-3.58,6.12,1.15,12.1,5.08,17.17,10.27,5.11,5.16,9.7,10.82,15.58,13.97,5.84,3.29,12.28,3.14,16.96,1.76,4.79-1.38,8.06-3.92,9.94-5.89,.93-1,1.6-1.84,1.96-2.46,.38-.61,.56-.94,.51-.97Z"/><path class="cls-4" d="M255.47,175.65c.06,.06,.76-.4,1.5-1.68,.75-1.26,1.43-3.37,1.34-6,.08-5.42-4.22-11.61-4.2-19.11-.07-3.71,.88-7.25,2.68-9.84,1.79-2.59,4.39-4.15,6.67-4.86,2.31-.74,4.33-.58,5.65-.3,1.33,.33,2.03,.7,2.1,.57,.05-.07-.54-.64-1.91-1.19-1.36-.51-3.58-.88-6.15-.21-2.55,.63-5.49,2.22-7.6,5.11-2.1,2.86-3.16,6.76-3.09,10.74,.01,4,1.16,7.71,2.36,10.82,1.18,3.12,2.16,5.91,2.34,8.34,.48,4.98-1.91,7.51-1.67,7.61Z"/></g><rect class="cls-14" x="249.54" y="181.78" width="8.61" height="19.95" rx="2.14" ry="2.14" transform="translate(570.38 159.88) rotate(137.18)"/><path class="cls-14" d="M151.36,330.81s-.03,.22-.07,.67c-.03,.45-.08,1.11-.15,1.97-.12,1.75-.3,4.33-.54,7.68-.45,6.73-1.12,16.56-1.95,29.02-.83,12.47-1.82,27.57-2.96,44.82-.28,4.31-.58,8.76-.88,13.34-.17,2.28-.26,4.62-.36,6.98-.09,1.18,0,2.37,.03,3.57,.07,1.19,0,2.41,.2,3.61,.15,1.2,.3,2.42,.45,3.64,.26,1.2,.52,2.41,.78,3.63,.34,1.2,.75,2.38,1.13,3.59,.53,1.15,.96,2.34,1.58,3.46,2.4,4.46,6.14,8.62,11.35,10.34h.02s.04,0,.04,0c33.39,0,71.59-.02,111.98-.02,12.06,0,23.92-.01,35.51-.02h.39s-.1-.37-.1-.37c-1.08-3.86-2.16-7.7-3.22-11.5-.53-1.9-1.06-3.79-1.59-5.68-.54-1.89-1.07-3.74-1.33-5.65-.57-3.79-.18-7.68,.99-11.25,.6-1.77,1.45-3.46,2.67-4.83,1.19-1.37,2.85-2.41,4.56-2.68l2.35-.37-2.34-.2c-14.79-1.24-28.93-2.43-42.3-3.55l.13,.05c-2.67-1.92-5.92-2.97-9.11-2.8-3.18,.14-6.21,1.17-8.82,2.81l.19-.04c-12.92-2.45-24.91-4.72-35.86-6.79l.16,.27c.45-1.4,.57-2.83,.62-4.21,.04-1.39,0-2.76-.11-4.1-.21-2.68-.59-5.25-1.09-7.73l-.02,.13c2.88-5.37,5.51-10.28,7.94-14.81l.02-.03v-.04c.56-13.2,.76-23.6,.67-30.7-.04-3.55-.17-6.27-.36-8.1-.09-.92-.18-1.61-.3-2.06-.1-.46-.16-.69-.16-.69,0,0,.03,.24,.12,.7,.11,.45,.18,1.14,.26,2.06,.16,1.83,.27,4.55,.28,8.1,.04,7.1-.21,17.49-.82,30.68l.02-.07c-2.44,4.52-5.09,9.43-7.99,14.78l-.03,.06v.07c.5,2.46,.87,5.03,1.07,7.68,.11,1.33,.15,2.68,.1,4.05-.05,1.36-.17,2.77-.61,4.1l-.07,.23,.24,.04c10.94,2.1,22.93,4.39,35.84,6.86l.09,.02,.09-.06c2.51-1.56,5.5-2.58,8.56-2.71,3.08-.16,6.2,.85,8.78,2.71l.06,.04h.07c13.36,1.14,27.5,2.35,42.29,3.6v-.56c-1.97,.3-3.66,1.42-4.94,2.86-1.29,1.45-2.18,3.2-2.79,5.03-1.2,3.66-1.59,7.62-1.02,11.51,.26,1.94,.81,3.85,1.34,5.72,.53,1.88,1.06,3.78,1.59,5.68,1.06,3.8,2.14,7.64,3.22,11.5l.28-.37c-11.59,0-23.45,0-35.51,.01-40.39,.03-78.59,.06-111.98,.09h.06c-2.44-.75-4.66-2.26-6.5-4-1.83-1.78-3.35-3.83-4.52-6.06-.61-1.09-1.04-2.27-1.56-3.4-.37-1.18-.78-2.35-1.12-3.53-.26-1.2-.52-2.4-.77-3.59-.15-1.21-.3-2.41-.45-3.6-.19-1.19-.14-2.39-.21-3.58-.03-1.19-.13-2.37-.03-3.54,.1-2.35,.18-4.66,.35-6.95,.29-4.58,.58-9.02,.85-13.34,1.09-17.25,2.05-32.36,2.84-44.84,.77-12.46,1.39-22.3,1.8-29.03,.2-3.35,.35-5.93,.46-7.68,.05-.86,.08-1.52,.11-1.97,.02-.44,.02-.67,.02-.67Z"/><path class="cls-14" d="M183.77,268.44s.73,.46,2.04,1.27c1.32,.8,3.17,2.05,5.3,3.79,4.29,3.45,9.44,9.17,13.72,16.42,4.28,7.25,7.12,14.36,9.16,19.48,.98,2.51,1.78,4.58,2.38,6.1,.27,.67,.49,1.21,.66,1.65,.16,.38,.25,.57,.27,.56,.02,0-.04-.21-.16-.6-.15-.45-.33-1.01-.56-1.69-.5-1.46-1.24-3.57-2.2-6.17-1.94-5.17-4.73-12.34-9.04-19.64-4.31-7.3-9.57-13.05-13.97-16.44-2.18-1.71-4.08-2.92-5.44-3.67-.67-.39-1.22-.64-1.58-.82-.37-.18-.56-.26-.57-.24Z"/><g class="cls-9"><path d="M228.58,312.14c4.87,10.58,6.83,22.6,6.4,34.24-.43,11.64-1.83,23.3-.69,34.89,1.14,11.59,5.17,23.42,13.81,31.22,1.04,.94,2.17,1.85,2.79,3.1s.57,2.98-.53,3.84c-.98,.76-2.37,.59-3.6,.37-8.28-1.44-16.66-2.46-24.94-3.9-1.77-.31-7.75-1.48-7.75-1.48,0,0,.79-4.54,.5-6.81-.26-2.07-1.07-9.13-1.07-9.13,.24-1.08,1.03-1.92,1.59-2.95,5.45-10.12,6.87-17.62,6.87-17.62,2.83-5.79,4.1-11.6,5.41-17,3.64-15,3.53-29.78,1.22-48.78"/></g><g class="cls-9"><path d="M319.32,295.06c-.68,1.72-1.36,3.44-2.04,5.15-.21,.52-.47,1.1-.99,1.3-1.02,.39-1.83-.86-2.32-1.84-1.92-3.87-5.87-6.64-10.16-7.14-3.48-.4-7.05,.61-10.48-.1,3.03-1.81,6.1-3.63,9.45-4.7,3.36-1.08,7.09-1.37,10.38-.1,3.29,1.27,6.02,4.3,6.27,7.82"/></g><g class="cls-9"><path d="M291.02,290.72c-4.07,.07-8.17,.14-12.12,1.09-3.95,.94-7.8,2.84-10.38,5.98-2.77,3.38-3.8,7.8-4.92,12.02-.21,.81-.61,1.77-1.44,1.87-.5,.06-.97-.25-1.37-.55-6.84-5.03-11.37-12.74-13.85-20.86-2.47-8.12-3.05-16.7-3.18-25.19,3.27,5.85,4.69,12.51,6.85,18.85,2.16,6.34,5.35,12.73,10.96,16.4-.19-1.43,.38-2.89,1.28-4.02,.9-1.13,2.1-1.98,3.34-2.73,7.55-4.56,17.06-5.72,25.48-3.12"/></g><g><path class="cls-10" d="M308.81,425.55h14.02s31.63-11.43,38.13-10.34c5.86,.98,27.3,15.23,31.5,18.05,.47,.31,.82,.77,1.02,1.3h0c.86,2.32-.27,4.9-2.56,5.84l-.44,.18,.19,.64c.24,.79,.37,1.68,.32,2.56-.16,3.01-4.2,3.93-5.75,1.33l.81,1.44c.33,.58,.48,1.25,.45,1.92l-.07,1.3c-.08,1.45-1.04,2.7-2.42,3.15h0c-1.31,.43-2.75,.05-3.68-.97-2.72-2.99-8.59-8.98-12.57-9.65-3.53-.59-9.42-.67-12.98-.65-1.81,0-3.42,1.12-4.08,2.81h0c2.36,.17,18.79,8.74,24.61,11.81,1.8,.95,3.15,2.66,3.38,4.68,.21,1.82-.71,3.73-4.31,2.89-7.73-1.8-21.63-8.2-21.63-8.2,0,0-7.17-2.05-11.82,1.23-6.54,4.61-9.53,6.3-15.14,4.44-5.61-1.86-9.75-4.53-9.75-4.53l-11.06-1.1s-10.46-26.13,3.84-30.14Z"/><path class="cls-8" d="M350.58,430.89c.03,.12,2.24-.59,5.94-.82,3.67-.25,8.89,.18,14.09,2.39,5.2,2.22,9.12,5.69,11.48,8.52,2.39,2.83,3.41,4.92,3.52,4.86,.03-.02-.2-.55-.7-1.46-.5-.92-1.32-2.2-2.49-3.67-2.31-2.93-6.26-6.53-11.57-8.8-5.3-2.26-10.64-2.63-14.35-2.26-1.87,.17-3.36,.47-4.37,.74-1.01,.27-1.55,.47-1.54,.5Z"/><path class="cls-8" d="M353.93,423.21c.04,.15,2.29-.96,6.19-1.08,3.87-.17,9.3,1,14.38,4.07,5.08,3.09,8.89,7,11.59,9.81,1.28,1.36,2.35,2.5,3.18,3.38,.75,.8,1.18,1.23,1.21,1.2,.03-.03-.34-.51-1.04-1.35-.7-.84-1.73-2.05-3.04-3.51-2.63-2.88-6.42-6.89-11.59-10.03-5.18-3.14-10.77-4.26-14.71-3.98-1.98,.12-3.55,.48-4.59,.84-.53,.15-.91,.35-1.18,.45-.27,.12-.4,.19-.39,.2Z"/></g></g><g><path class="cls-1" d="M171.32,105.23c25.85,0,46.81,20.96,46.81,46.81,0,9.95-3.12,19.18-8.41,26.76l5.62,17.46-17.2-5.86c-7.6,5.32-16.84,8.45-26.81,8.45-25.85,0-46.81-20.96-46.81-46.81s20.96-46.81,46.81-46.81Z"/><g><g><path class="cls-14" d="M183.66,151.68c.07,2.23,1.93,3.98,4.16,3.91,2.23-.07,3.98-1.93,3.91-4.16-.07-2.23-1.93-3.98-4.16-3.91-2.23,.07-3.98,1.93-3.91,4.16Z"/><path class="cls-14" d="M167.51,152.16c.07,2.23,1.93,3.98,4.16,3.91,2.23-.07,3.98-1.93,3.91-4.16-.07-2.23-1.93-3.98-4.16-3.91-2.23,.07-3.98,1.93-3.91,4.16Z"/><path class="cls-14" d="M151.34,150.63c-1.06,1.96-.32,4.41,1.64,5.47,1.96,1.06,4.41,.32,5.47-1.64,1.06-1.96,.32-4.41-1.64-5.47-1.96-1.06-4.41-.32-5.47,1.64Z"/></g><path class="cls-14" d="M169.88,104.91s-.28-.01-.82,.01c-.59,.03-1.39,.08-2.4,.14-.53,.04-1.12,.06-1.77,.13-.65,.11-1.35,.23-2.11,.36-.76,.13-1.58,.28-2.46,.43-.86,.24-1.77,.5-2.74,.77-3.84,1.11-8.49,2.96-13.19,6.23-4.7,3.22-9.56,7.78-13.42,13.88-3.79,6.11-6.63,13.74-7.18,22.23-.02,2.12-.21,4.28,.06,6.47,.11,1.09,.12,2.2,.31,3.3,.2,1.1,.4,2.2,.6,3.31,1.04,4.39,2.49,8.87,4.89,13.02,2.35,4.16,5.34,8.09,8.95,11.56,3.68,3.4,7.94,6.32,12.65,8.52,4.7,2.22,9.87,3.7,15.23,4.18,1.33,.22,2.68,.18,4.04,.22,1.35,.05,2.71,.06,4.07-.05,2.72-.19,5.44-.62,8.12-1.27,5.82-1.42,11.27-3.98,16.02-7.32l-.49,.06c5.69,2.09,11.28,4.14,16.73,6.14l.99,.36-.31-1.01c-1.85-6.01-3.65-11.86-5.39-17.52l-.07,.44c4.45-6.3,7.2-13.43,8.21-20.45,.51-3.51,.66-7,.33-10.36-.12-1.69-.25-3.35-.62-4.95-.15-.81-.3-1.61-.45-2.41-.17-.79-.44-1.55-.65-2.32-3.57-12.34-11.5-21.29-19.25-26.32-3.88-2.56-7.68-4.37-11.15-5.46-.86-.28-1.7-.55-2.5-.81-.82-.18-1.61-.36-2.36-.53-.75-.16-1.47-.32-2.16-.47-.69-.11-1.36-.16-1.98-.24-1.25-.12-2.36-.3-3.32-.32-.95,0-1.76,0-2.43,0-.62,0-1.1,0-1.48,.01-.33,0-.5,.02-.5,.03,0,.01,.17,.03,.5,.05,.38,.02,.87,.04,1.48,.07,.67,.02,1.47,.05,2.42,.09,.96,.05,2.05,.25,3.29,.4,4.89,.75,12.24,2.47,19.85,7.69,7.6,5.04,15.33,13.91,18.77,26.04,.2,.76,.46,1.51,.63,2.28,.14,.78,.28,1.57,.43,2.36,.35,1.58,.47,3.21,.58,4.86,.31,3.3,.15,6.72-.36,10.16-1.02,6.88-3.73,13.85-8.1,20.01l-.14,.2,.07,.24c1.73,5.66,3.52,11.51,5.35,17.53l.68-.64c-5.45-2.01-11.03-4.06-16.72-6.15l-.26-.1-.23,.16c-4.65,3.26-9.97,5.75-15.66,7.15-2.62,.64-5.28,1.06-7.94,1.25-1.33,.1-2.66,.09-3.98,.05-1.32-.04-2.65,0-3.95-.21-5.24-.46-10.3-1.9-14.89-4.07-4.61-2.15-8.78-5-12.39-8.31-3.54-3.39-6.47-7.24-8.79-11.3-2.37-4.05-3.8-8.44-4.83-12.74-.2-1.09-.4-2.17-.6-3.25-.19-1.08-.21-2.17-.32-3.24-.28-2.14-.09-4.26-.09-6.35,.51-8.33,3.25-15.84,6.94-21.88,3.76-6.03,8.51-10.56,13.12-13.79,4.61-3.28,9.18-5.16,12.97-6.33,.95-.28,1.85-.55,2.7-.81,.86-.17,1.68-.33,2.43-.47,.75-.15,1.45-.28,2.09-.41,.64-.09,1.23-.12,1.75-.18,1-.1,1.79-.18,2.38-.25,.54-.06,.81-.1,.81-.12Z"/></g></g><g><g><path class="cls-14" d="M67.88,462.82c2.94,.41,5.81,1.84,7.6,4.22,1.79,2.38,2.35,5.73,1.07,8.42-1.28,2.68-4.51,4.4-7.38,3.61-.09,2.11-2,3.97-4.11,4.01-2.11,.04-4.08-1.76-4.24-3.86-1.37,1.56-3.76,2.11-5.67,1.31-1.91-.8-3.2-2.89-3.05-4.96,.09-1.31,.7-2.53,.86-3.84,.17-1.42-.2-2.86-.16-4.29,.04-1.43,.65-3.04,2.01-3.5"/><path class="cls-14" d="M126.61,470.57c-4.43-2.84-9.5-4.52-14.6-5.83-3.71-.96-7.67-1.73-11.31-.54-3.42,1.13-6.2,4.05-7.14,7.53-.36,1.33-.45,2.8,.19,4.02,.85,1.62,2.75,2.35,4.53,2.79,1.36,.34,3.09,.44,3.85-.74,.89,1.13,2.27,1.87,3.71,1.98,1.44,.11,2.91-.4,3.97-1.38,.98,2.24,3.74,3.53,6.09,2.84,2.35-.69,3.97-3.27,3.58-5.68,1.09,1.56,2.99,2.58,4.89,2.41,1.9-.17,3.66-1.61,4.03-3.48s-.85-3.96-2.7-4.41"/><path class="cls-14" d="M169.44,469.84c1.16-4.95-.75-10.11-4.87-13.08-4.59-3.31-7.82-7.15-13.8-10.72-4.26-2.54-11.41-5.21-14.62-6.27-11.73-3.9-19.67-4.89-24.49-7.41-5.28-2.77-12.33-7.11-12.33-7.11l-59.9,4.64s-7.2,44.24,3.7,48.56c0,0,50.75,.53,54.73-1.23,4.32-1.92,70.36-1.88,70.17-1.44l1.4-5.93Z"/><g><path class="cls-14" d="M137.03,461.39c12.8,1.93,19.22,2.51,32.16,2.58,3.79,.02,7.62-.03,11.34,.73,2.26,.46,4.53,1.28,6.18,2.88s2.57,4.13,1.75,6.29c-.82,2.15-3.66,3.45-5.62,2.24-.33,1.8-1.84,3.32-3.63,3.67s-3.76-.51-4.73-2.06c-.83,1.06-2.34,1.37-3.67,1.15-1.33-.22-2.54-.87-3.76-1.44-5.23-2.44-10.77-1.84-16.54-1.8-10.07,.07-21.47-.03-17.27,0"/><path class="cls-4" d="M133.24,475.63s-.29-.04-.85-.06h-.03s-.01,0-.01,0h0c0,.21,0,.06,0,.1h.06s.11,0,.11,0c.08,0,.16,0,.25,0,.18,0,.36,0,.57,.02,.42,0,.89,.02,1.42,.03,2.19,.02,5.29,.06,9.16,.1,1.96,0,4.11,0,6.43,.01,2.33,0,4.83-.12,7.47-.05,2.63,.08,5.43,.38,8.13,1.45,1.34,.51,2.63,1.34,4.16,1.76,.76,.21,1.6,.29,2.42,.13,.81-.15,1.63-.55,2.18-1.24l-.47-.02c1.01,1.6,3,2.53,4.94,2.2,1.93-.33,3.59-1.93,3.96-3.92l-.45,.2c1.45,.91,3.44,.52,4.74-.58,.86-.69,1.42-1.73,1.57-2.79,.17-1.07-.02-2.15-.4-3.12-.77-1.97-2.46-3.4-4.24-4.23-1.8-.85-3.72-1.25-5.58-1.51-1.87-.26-3.7-.35-5.49-.38-7.14-.03-13.55-.07-18.92-.47-5.37-.37-9.7-.94-12.69-1.31-1.46-.19-2.61-.34-3.44-.44-.37-.04-.66-.08-.9-.1-.2-.02-.31-.03-.31-.01s.1,.04,.3,.08c.23,.04,.53,.1,.89,.16,.83,.13,1.97,.32,3.43,.55,2.98,.45,7.31,1.08,12.69,1.5,5.38,.45,11.82,.54,18.94,.6,1.78,.04,3.59,.14,5.42,.4,1.83,.27,3.69,.66,5.4,1.47,1.7,.8,3.24,2.12,3.94,3.93,.74,1.74,.56,4.01-1,5.24-1.15,.98-2.88,1.28-4.05,.53l-.37-.24-.08,.44c-.31,1.73-1.8,3.16-3.47,3.44-1.68,.29-3.48-.54-4.35-1.93l-.22-.34-.26,.32c-.91,1.14-2.62,1.32-3.99,.92-1.43-.38-2.71-1.19-4.11-1.72-2.79-1.09-5.66-1.38-8.31-1.44-2.67-.05-5.17,.09-7.49,.11-2.32,.02-4.47,.04-6.43,.06-3.87,.03-6.97,.05-9.16,.07-.53,0-1,.01-1.42,.02-.2,0-.39,0-.57,0-.09,0-.17,0-.25,0h-.11s-.05,0-.05,0h0s0-.1,0,.1h0s.01,0,.01,0h.03c.56-.01,.85-.03,.85-.05Z"/></g><path class="cls-4" d="M53.11,473.29s-.31,.24-.67,.88c-.35,.63-.72,1.7-.55,3.09,.08,.68,.3,1.44,.76,2.15,.44,.72,1.15,1.37,2.05,1.76,1.77,.79,4.41,.59,6.09-1.31l-.42-.08c.55,1.65,2.18,3.04,4.15,3.18,1.97,.13,4.04-1.17,4.73-3.22l-.34,.19c3.17,.79,6.72-1.35,8.06-4.55,1.05-2.43,.6-5.15-.5-7.27-1.11-2.15-2.85-3.83-4.78-4.89-1.93-1.07-3.98-1.61-5.9-1.86-1.93-.25-3.74-.22-5.38-.09-3.27,.29-5.86,.86-7.66,1.19-.85,.17-1.53,.3-2.06,.41-.47,.09-.72,.15-.71,.17s.26,0,.73-.05c.48-.06,1.18-.16,2.08-.3,1.81-.26,4.41-.77,7.65-1,3.19-.19,7.24-.06,10.98,2.02,1.84,1.02,3.49,2.64,4.53,4.67,1.03,2.01,1.43,4.56,.47,6.77-1.24,2.97-4.54,4.94-7.37,4.23l-.26-.06-.08,.26c-.58,1.78-2.44,2.97-4.15,2.86-1.73-.1-3.23-1.35-3.72-2.8l-.14-.41-.28,.33c-1.47,1.71-3.93,1.96-5.56,1.26-1.72-.69-2.51-2.32-2.69-3.59-.2-1.31,.11-2.35,.4-2.98,.31-.64,.57-.92,.54-.95Z"/><path class="cls-4" d="M44.15,461.82c.07,.07,.69-.54,1.88-1.19,1.18-.65,3.01-1.29,5.07-1.19,2.06,.11,3.82,.93,4.92,1.7,1.12,.77,1.68,1.44,1.75,1.37,.05-.04-.39-.81-1.5-1.71-1.09-.89-2.93-1.84-5.14-1.95-2.21-.11-4.14,.64-5.31,1.42-1.2,.78-1.72,1.51-1.67,1.55Z"/><path class="cls-4" d="M126.83,477.57s.16-.09,.44-.3c.25-.24,.64-.59,.99-1.17,.7-1.12,1.28-3.15,.64-5.51-.64-2.36-2.66-4.65-5.38-6.23-2.72-1.63-6.07-2.54-9.3-3.98-6.51-2.94-11.06-7.88-13.5-11.81-1.24-1.97-2.06-3.69-2.56-4.9-.5-1.21-.74-1.89-.79-1.88-.02,0,.02,.18,.11,.52,.1,.33,.22,.83,.46,1.45,.43,1.24,1.2,3,2.41,5.03,2.37,4.04,6.96,9.13,13.61,12.13,3.3,1.47,6.62,2.35,9.27,3.91,2.65,1.5,4.6,3.67,5.25,5.87,.66,2.21,.18,4.17-.43,5.27-.63,1.14-1.28,1.54-1.23,1.59Z"/><path class="cls-4" d="M102.97,477.22c-.06-.05-.35,.52-1.3,1.02-.9,.49-2.56,.83-4.28,.06-1.72-.73-3.04-2.92-2.97-5.4,.01-1.24,.38-2.52,1.05-3.69,.69-1.16,1.66-2.2,2.85-3.02,2.38-1.65,5.19-2.32,7.7-2.32,2.53,0,4.79,.5,6.64,1.02,1.86,.52,3.33,1.05,4.36,1.4,1.02,.35,1.6,.54,1.61,.5,.01-.04-.53-.29-1.53-.71-1-.42-2.46-1-4.32-1.59-1.86-.57-4.15-1.14-6.76-1.16-2.6-.03-5.53,.64-8.04,2.38-1.25,.86-2.29,1.98-3.01,3.22-.71,1.25-1.1,2.64-1.09,3.97-.05,2.66,1.43,5.04,3.35,5.8,1.9,.78,3.65,.34,4.57-.25,.48-.28,.77-.61,.96-.84,.17-.24,.24-.37,.23-.38Z"/><path class="cls-4" d="M109.65,478.04c-.06-.03-.55,.75-1.91,1.24-.65,.24-1.51,.49-2.38,.41-.87-.11-1.8-.66-2.31-1.54-.51-.88-.48-1.95-.23-2.82,.25-.89,.71-1.61,1.13-2.18,.88-1.14,1.53-1.78,1.46-1.85-.05-.05-.79,.48-1.79,1.59-.48,.56-1.02,1.31-1.33,2.29-.31,.95-.38,2.19,.24,3.28,.62,1.06,1.72,1.69,2.76,1.79,1.07,.07,1.92-.26,2.61-.56,.68-.32,1.18-.7,1.45-1.04,.28-.33,.33-.58,.3-.59Z"/><path class="cls-4" d="M119.26,475.9s.04,.33,.05,.91c0,.57-.12,1.41-.63,2.29-.5,.87-1.43,1.74-2.73,2-1.27,.28-2.84,0-4.03-.93-1.19-.95-1.82-2.39-1.96-3.7-.15-1.33,.2-2.53,.67-3.44,.97-1.83,2.17-2.52,2.08-2.6-.02-.03-.32,.11-.8,.48-.47,.37-1.11,.98-1.65,1.93-.54,.93-.98,2.23-.84,3.69,.12,1.44,.8,3.04,2.14,4.11,1.35,1.07,3.1,1.35,4.52,1,1.46-.33,2.5-1.36,2.98-2.33,.51-.98,.57-1.91,.49-2.5-.08-.6-.25-.9-.28-.89Z"/><path class="cls-14" d="M95.48,435.55s-12.67,13.95-28.38,12.19c-15.71-1.76-27.79-17-27.79-17-2.42-3.84-1.42-7.8-.67-10.73,.76-2.93,2.19-5.74,2.21-8.76,.01-2.59-1.02-5.05-1.76-7.53-1.67-5.54-1.92-11.4-2.17-17.18-.11-2.48,.02-5.44,2.12-6.77,1.3-.82,3.02-.71,4.43-.09,1.41,.62,2.56,1.69,3.67,2.76,4.73,4.55,9.18,9.39,13.31,14.49,6.36-4.52,15.92-3.74,21.47,1.73,6.73-2.82,8.94-12.25,15.83-14.66,1.5-.52,3.29-.62,4.56,.33,1.67,1.25,1.77,3.69,1.7,5.78-.28,9.42-.63,19.12-4.46,27.72,1.68,5.8,.25,12.4-3.67,16.98"/><path class="cls-4" d="M72.49,437.53c-.83-1.21-2.09-2.12-3.5-2.52-1.41-.4-2.96-.29-4.31,.3-.33,.15-.67,.33-.88,.63s-.28,.72-.08,1.03c.24-.38,.85-.33,1.16-.01,.31,.32,.39,.8,.41,1.24,.02,.45-.01,.91,.15,1.32,.19,.5,.65,.88,1.18,.98,.52,.1,1.09-.09,1.46-.48,.32-.35,.47-.81,.68-1.23,.21-.42,.54-.84,1-.92,.37-.07,.74,.1,1.08,.23s.75,.25,1.09,.1c.34-.15,.5-.69,.19-.9"/><path class="cls-4" d="M66.63,439.27c-.09,0-.07,.51-.25,1.25-.18,.73-.63,1.73-1.5,2.47-.87,.74-1.93,1.01-2.68,1.07-.76,.06-1.25-.05-1.27,.04-.03,.06,.44,.33,1.28,.38,.83,.06,2.05-.18,3.06-1.03,1.01-.86,1.45-2.03,1.53-2.85,.09-.84-.1-1.34-.16-1.32Z"/><path class="cls-4" d="M66.54,438.53c-.06-.03-.4,.53-.43,1.55-.04,.99,.32,2.49,1.49,3.59,1.18,1.09,2.69,1.35,3.68,1.24,1.02-.1,1.55-.48,1.52-.53-.03-.09-.6,.12-1.53,.11-.91,0-2.23-.31-3.25-1.25-1.01-.95-1.41-2.25-1.47-3.16-.07-.93,.1-1.51,0-1.54Z"/><path class="cls-4" d="M42.29,443.78c.08,.18,3.58-1.72,8.37-2.28,4.78-.62,8.65,.38,8.68,.19,.02-.07-.92-.4-2.5-.67-1.58-.27-3.81-.4-6.25-.11-2.44,.3-4.57,.98-6.04,1.62-1.47,.64-2.3,1.19-2.26,1.26Z"/><path class="cls-4" d="M35,440.67c.03,.09,1.43-.26,3.73-.67,2.3-.41,5.5-.82,9.06-.89,3.56-.06,6.78,.25,9.09,.58,2.31,.33,3.73,.63,3.75,.54,0-.04-.33-.16-.97-.34-.63-.19-1.56-.4-2.72-.62-2.31-.44-5.57-.82-9.17-.76-3.6,.06-6.84,.55-9.14,1.07-1.15,.26-2.07,.51-2.7,.71-.63,.2-.97,.33-.96,.37Z"/><path class="cls-4" d="M31.15,432.56c0,.09,1.73,.01,4.52,.02,2.78,0,6.63,.13,10.8,.89,4.17,.76,7.78,2.1,10.25,3.36,2.48,1.24,3.87,2.28,3.93,2.2,.02-.03-.3-.32-.93-.79-.63-.47-1.57-1.1-2.81-1.78-2.45-1.37-6.12-2.8-10.34-3.57-4.22-.77-8.12-.83-10.91-.73-1.4,.05-2.53,.14-3.31,.22-.78,.08-1.21,.15-1.2,.19Z"/><path class="cls-4" d="M96.77,450.74s-.21-.27-.67-.66c-.45-.4-1.15-.93-2.04-1.54-1.78-1.22-4.42-2.68-7.56-3.74-3.14-1.06-6.12-1.5-8.28-1.61-1.08-.06-1.95-.06-2.56-.01-.6,.04-.93,.08-.93,.12,0,.1,1.33,.1,3.46,.31,2.12,.21,5.04,.72,8.12,1.76,3.08,1.05,5.7,2.41,7.52,3.53,1.82,1.12,2.87,1.93,2.94,1.85Z"/><path class="cls-4" d="M97.74,444.39s-.29-.2-.87-.45c-.57-.26-1.42-.59-2.48-.95-2.13-.72-5.16-1.49-8.57-1.86-3.42-.37-6.54-.26-8.78,0-1.12,.12-2.02,.26-2.63,.4-.62,.13-.95,.22-.94,.26,.02,.09,1.39-.1,3.61-.24,2.22-.14,5.3-.18,8.68,.18,3.37,.37,6.37,1.06,8.51,1.67,2.14,.61,3.44,1.09,3.48,1Z"/><path class="cls-4" d="M105.72,441.71s-.41-.23-1.19-.54c-.78-.32-1.93-.71-3.37-1.13-2.88-.84-6.99-1.65-11.59-1.82-4.6-.15-8.75,.37-11.69,1.01-1.47,.32-2.65,.63-3.44,.89-.8,.26-1.24,.42-1.22,.46,.03,.1,1.81-.41,4.75-.94,2.93-.53,7.04-.98,11.59-.83,4.54,.16,8.61,.9,11.5,1.63,2.89,.73,4.64,1.36,4.67,1.26Z"/><path class="cls-4" d="M75.2,426.03s.53,.68,1.76,1.25c1.21,.57,3.16,.98,5.2,.45,2.04-.53,3.54-1.84,4.32-2.93,.8-1.1,.99-1.93,.93-1.95-.09-.04-.42,.71-1.26,1.69-.82,.97-2.26,2.12-4.14,2.61-1.88,.49-3.7,.18-4.89-.27-1.21-.44-1.86-.94-1.92-.86Z"/><path class="cls-4" d="M49.71,420.53c-.06-.02-.25,.82,.2,2.07,.4,1.24,1.64,2.79,3.49,3.57,1.84,.81,3.66,.9,4.92,.91,1.27,0,2.05-.09,2.05-.17,0-.09-.78-.15-2.03-.25-1.24-.12-2.98-.27-4.69-1.03-1.72-.74-2.87-2.07-3.35-3.19-.51-1.11-.48-1.92-.59-1.91Z"/><path class="cls-4" d="M94.06,403.66c-.7-.74-1.39-1.5-1.91-2.43s-.84-2.06-.7-3.17c.14-1.19,.79-2.2,1.45-3.11,1.81-2.49,3.94-4.64,6.28-6.38,0,0,1.82-1.37,2.63,0,.54,.91,.2,15.95-1.89,16.91-2.09,.96-5.85-1.82-5.85-1.82Z"/><path class="cls-4" d="M42.12,382.17c3.34,2.62,4.63,7.13,7.13,10.57,.45,.62,.91,1.25,1.21,1.95s.43,1.51,.19,2.24c-.24,.75-.83,1.34-1.44,1.85-1.33,1.12-2.83,2.03-4.43,2.69,0,0-3.47,1.07-4.39-2.08-.91-3.15-.51-18.97,1.73-17.22Z"/><path class="cls-14" d="M148.49,447.02c4.02,.62,13.33-.93,16.05-3.73,2.83-2.92,1.96-7.2,.48-10.99-1.48-3.8-3.75-7.22-5.69-10.79-3.25-5.98-5.61-12.58-5.79-19.39-.18-6.81,2.02-13.84,6.84-18.65,4.82-4.81,12.42-6.98,18.77-4.52,5.22,2.02,9.27,8.05,7.24,13.28-1.27,3.28-4.44,5.35-6.67,8.07-3.15,3.82-4.4,9.13-3.3,13.95,1.2,5.25,4.92,9.62,6.32,14.81,2.14,7.92-1.74,16.71-8.28,21.67-6.54,4.96-15.23,6.45-23.39,5.49"/></g><path class="cls-6" d="M63.81,444.27s-.5,3.06,.56,4.31c.47,.56,1.12,1.01,1.85,1.08,1.08,.11,2.11-.62,2.65-1.56,.54-.94,.68-2.06,.74-3.14,0,0-2.73-.98-3.12-2.57,0,0-1.09,1.71-2.68,1.87Z"/><path class="cls-4" d="M49.94,445.51s.27,.4,.89,1.01c.61,.61,1.56,1.44,2.84,2.32,2.53,1.77,6.56,3.64,11.32,4.02,4.76,.38,9.04-.82,11.82-2.16,1.4-.67,2.47-1.33,3.17-1.84,.7-.51,1.06-.83,1.04-.85-.07-.1-1.58,1.09-4.38,2.31-2.77,1.22-6.96,2.32-11.6,1.95-4.64-.37-8.59-2.13-11.14-3.78-2.57-1.65-3.88-3.06-3.95-2.98Z"/><path class="cls-4" d="M66.28,466.13c-.05,.09,.79,.51,1.83,1.55,1.03,1.02,2.22,2.77,2.56,4.97,.34,2.2-.26,4.23-.93,5.52-.67,1.31-1.35,1.97-1.27,2.04,.04,.05,.83-.51,1.64-1.83,.8-1.29,1.52-3.44,1.15-5.81-.37-2.37-1.71-4.2-2.86-5.19-1.17-1.01-2.1-1.3-2.12-1.25Z"/><path class="cls-4" d="M55.13,467.46c0,.11,.94,.02,2.23,.62,1.28,.57,2.85,1.97,3.55,4.01,.68,2.06,.42,4.11,.08,5.49-.34,1.4-.72,2.23-.64,2.27,.06,.03,.58-.74,1.04-2.16,.45-1.4,.82-3.56,.08-5.8-.76-2.24-2.53-3.7-3.95-4.21-1.45-.54-2.42-.28-2.4-.23Z"/><path class="cls-4" d="M86.16,460.05c-.06,.04,.28,.68,.94,1.64,.67,.95,1.69,2.23,3.06,3.41,1.37,1.17,2.83,1.96,3.91,2.41,1.09,.45,1.8,.6,1.82,.53,.08-.19-2.69-1.12-5.34-3.39-2.63-2.29-4.22-4.73-4.39-4.6Z"/><path class="cls-4" d="M100.01,425.66s.21,.19,.65,.5c.43,.32,1.1,.76,1.96,1.3,1.73,1.09,4.32,2.54,7.65,4.07,3.33,1.53,7.39,3.13,11.98,4.63,4.6,1.51,9.71,2.92,14.99,4.67,5.28,1.74,10.22,3.7,14.44,6,4.23,2.29,7.73,4.88,10.37,7.38,2.64,2.5,4.44,4.86,5.54,6.56,1.11,1.71,1.6,2.73,1.66,2.7,.02,0-.1-.27-.33-.75-.22-.49-.61-1.19-1.13-2.07-1.05-1.75-2.82-4.17-5.45-6.74-2.63-2.56-6.15-5.22-10.4-7.56-4.25-2.34-9.22-4.33-14.52-6.08-5.3-1.76-10.42-3.16-15.01-4.63-4.59-1.47-8.65-3.03-11.98-4.5-3.33-1.47-5.94-2.86-7.7-3.89-.88-.52-1.56-.92-2.02-1.21-.46-.28-.71-.42-.72-.4Z"/><path class="cls-4" d="M93.97,435.85s.81-.66,1.79-2.03c.98-1.36,2.11-3.41,2.87-5.87,.75-2.46,.97-4.8,.92-6.47-.04-1.68-.27-2.69-.34-2.68-.2,0,.36,4.16-1.15,8.98-1.45,4.83-4.25,7.96-4.08,8.07Z"/></g><g><path class="cls-14" d="M506.57,474.63l37.98-95.35c3.36-8.2-2.67-17.19-11.53-17.19h-118.33c-5.34,0-10.09,3.4-11.8,8.46l-32.63,96.17-38.1,.18c-3.1,.01-5.6,4.54-5.6,7.64h0l41.94-.48,138.07,.57Z"/><g><path class="cls-6" d="M505.66,384.13c2.69-.1,5.38,.59,7.64,2.05,.74,.48,1.48,1.05,2.08,1.73,2.03,2.27,5.64,6.71,4.2,13.62-1.44,6.91-5.9,7.87-7.98,8.1-2.08,.23-16.62-3.9-16.62-3.9,0,0-5.27-4.48-3.4-10.36,1.61-5.04,6.28-10.94,14.07-11.23Z"/><path class="cls-3" d="M512.59,407.56s-.52,3.7-2.38,4.64c-1.85,.94-5.31,.77-7.96,.11-2.64-.66-6.59-2.18-7.06-4.23-.47-2.05-.07-4.55,.23-4.82,.3-.27,4.33-2.55,9.75-.9,5.42,1.65,7.41,5.21,7.41,5.21Z"/><g class="cls-7"><path class="cls-1" d="M500.81,389.9c-.94,3.73,1.33,7.51,5.05,8.45,3.73,.94,7.51-1.33,8.45-5.05,.94-3.73-1.33-7.51-5.05-8.45-3.73-.94-7.51,1.33-8.45,5.05Z"/></g><g class="cls-7"><path class="cls-1" d="M518.38,405.05c-1.29-1.65-2.11-3.82-1.97-5.9,.14-2.09,1.08-4.11,2.58-5.56,0,0,1.32,3.93,.76,7.05-.6,3.31-1.36,4.42-1.36,4.42Z"/></g><g class="cls-7"><path class="cls-1" d="M491.17,398.21c1.91-.84,3.67-2.37,4.53-4.27,.86-1.9,1.08-3.84,.44-5.83,0,0-2.67,2.53-3.95,5.56-1.35,3.19-1.02,4.54-1.02,4.54Z"/></g></g><path class="cls-3" d="M451.89,422.29c0,4.24,3.44,7.69,7.69,7.69s7.69-3.44,7.69-7.69-3.44-7.69-7.69-7.69-7.69,3.44-7.69,7.69Z"/></g><path class="cls-14" d="M0,474.06c0,.16,157.35,.3,351.4,.3s351.43-.13,351.43-.3-157.31-.3-351.43-.3-351.4,.13-351.4,.3Z"/><g><g><path class="cls-6" d="M598.25,434.75c11.19-6.49,17.18-21.59,17.63-33.94,.45-12.36-4.7-25.25-14.83-32.33-10.67-7.46-25.88-7.33-36.84-.3-10.97,7.02-17.39,20.28-16.9,33.29s7.59,25.44,18.08,33.16"/><path class="cls-1" d="M580.38,435.95c.07,0,.14-1.01,.21-2.83,.06-2.02,.13-4.61,.22-7.71,.17-6.51,.42-15.49,.86-25.41,.44-9.92,.97-18.9,1.38-25.39,.18-3.09,.34-5.68,.46-7.7,.1-1.82,.11-2.83,.04-2.83-.07,0-.23,.99-.45,2.8-.22,1.81-.5,4.43-.79,7.67-.6,6.49-1.25,15.47-1.69,25.4-.44,9.93-.57,18.93-.55,25.45,.01,3.26,.05,5.89,.11,7.71,.06,1.82,.13,2.83,.2,2.83Z"/><path class="cls-14" d="M612.56,398.01c.02,.29,1.81,.38,3.99,.2,2.18-.18,3.93-.56,3.9-.85-.02-.29-1.81-.38-3.99-.2-2.18,.18-3.93,.56-3.9,.85Z"/><path class="cls-14" d="M611.95,386.92c.12,.26,1.66-.16,3.44-.95,1.78-.79,3.13-1.65,3.01-1.91-.12-.26-1.66,.16-3.44,.95-1.78,.79-3.13,1.65-3.01,1.91Z"/><path class="cls-14" d="M606.25,378.69c.15,.24,1.88-.57,3.68-2.07,1.8-1.49,2.93-3.04,2.72-3.23-.22-.2-1.64,.98-3.39,2.42-1.74,1.45-3.17,2.63-3.01,2.88Z"/><path class="cls-14" d="M600.51,370.93c.26,.12,1.09-1.18,1.85-2.9,.76-1.72,1.16-3.2,.89-3.32-.26-.12-1.09,1.18-1.85,2.9-.76,1.72-1.16,3.2-.89,3.32Z"/><path class="cls-14" d="M591.51,365.42c.26,.12,1.15-1.26,1.74-3.17,.6-1.91,.64-3.56,.36-3.6-.29-.05-.79,1.45-1.37,3.29-.57,1.84-1.01,3.36-.74,3.48Z"/><path class="cls-14" d="M576.49,359.21c-.27,.1-.11,1.28,.37,2.63,.48,1.36,1.09,2.38,1.36,2.28,.27-.1,.11-1.27-.37-2.63-.48-1.36-1.09-2.38-1.36-2.28Z"/><path class="cls-14" d="M565.35,363.99c-.2,.21,.52,1.19,1.6,2.19,1.08,1,2.11,1.63,2.31,1.42,.2-.21-.52-1.19-1.6-2.19-1.08-1-2.11-1.63-2.31-1.42Z"/><path class="cls-14" d="M555.54,370.32c-.16,.24,.71,1.11,1.95,1.95,1.24,.84,2.37,1.32,2.53,1.08,.16-.24-.71-1.11-1.95-1.95-1.24-.84-2.37-1.32-2.53-1.08Z"/><path class="cls-14" d="M548.58,379.77c-.11,.27,1.26,1.11,3.07,1.88,1.81,.77,3.37,1.18,3.48,.91,.11-.27-1.26-1.11-3.07-1.88-1.81-.77-3.37-1.18-3.48-.91Z"/><path class="cls-14" d="M545.83,390.07c-.04,.29,1.36,.7,3.12,.92,1.76,.22,3.21,.16,3.25-.13,.04-.29-1.36-.7-3.12-.92-1.76-.22-3.21-.16-3.25,.13Z"/><path class="cls-14" d="M544.41,402.74c.12,.27,1.6-.13,3.32-.87,1.72-.75,3.02-1.57,2.91-1.84-.12-.27-1.6,.13-3.33,.87-1.72,.75-3.02,1.57-2.91,1.84Z"/><path class="cls-14" d="M545.66,413.62c.09,.26,1.97-.18,3.94-1.48,1.97-1.28,3.14-2.83,2.93-3.02-.21-.21-1.64,.93-3.51,2.14-1.86,1.22-3.47,2.07-3.37,2.35Z"/><path class="cls-14" d="M551.33,423.53c.17,.22,1.67-.66,3.11-2.21,1.44-1.55,2.21-3.11,1.97-3.26-.24-.17-1.36,1.07-2.74,2.55-1.38,1.49-2.52,2.69-2.34,2.92Z"/><path class="cls-14" d="M605.11,424.69c-.13,.26,1.44,1.34,3.51,2.42,2.08,1.08,3.87,1.75,4,1.49,.13-.26-1.44-1.34-3.51-2.42-2.07-1.08-3.86-1.75-4-1.49Z"/><path class="cls-14" d="M610.03,415.73c-.12,.26,1.14,1.09,2.82,1.85,1.68,.76,3.13,1.16,3.25,.9,.12-.26-1.14-1.09-2.82-1.85-1.68-.76-3.13-1.16-3.25-.9Z"/><path class="cls-14" d="M613.64,407.8c-.04,.29,1.51,.74,3.47,1.02,1.96,.28,3.58,.27,3.62-.02,.04-.29-1.51-.74-3.47-1.02-1.96-.28-3.57-.27-3.62,.02Z"/><path class="cls-14" d="M601.79,403.42c-.09,.27,1.43,.98,3.45,1.2,2.02,.23,3.65-.12,3.63-.4-.02-.3-1.6-.42-3.51-.64-1.91-.21-3.48-.44-3.57-.16Z"/><path class="cls-14" d="M591.95,393.63c-.09,.27,1.12,.88,2.75,1.04,1.63,.16,2.93-.2,2.9-.48-.03-.29-1.28-.41-2.79-.56-1.51-.14-2.76-.28-2.85,0Z"/><path class="cls-14" d="M590.07,385.79c.09,.27,1.4,.07,2.91-.45,1.52-.52,2.67-1.17,2.57-1.44-.09-.27-1.4-.07-2.92,.45-1.51,.52-2.67,1.17-2.57,1.44Z"/><path class="cls-14" d="M586.46,377.86c.2,.2,1.1-.39,1.74-1.5,.64-1.11,.71-2.18,.43-2.26-.28-.08-.77,.75-1.34,1.73-.56,.99-1.04,1.82-.83,2.03Z"/><path class="cls-14" d="M590.81,410.33c-.07,.28,1.06,.8,2.52,1.16,.84,.21,1.62,.31,2.12,.31l.21-.61c-.38-.07-.62-.05-.67,.06-.05,.11,.11,.3,.41,.53l.21-.61c-.45-.23-1.18-.49-2.03-.7-1.46-.36-2.7-.42-2.77-.14Z"/><path class="cls-14" d="M588.79,424.24c-.11,.27,1.34,1.09,3.22,1.83,1.88,.74,3.5,1.12,3.6,.85,.11-.27-1.33-1.09-3.22-1.83-1.88-.74-3.5-1.12-3.6-.85Z"/><path class="cls-14" d="M599.9,418.06c-.09,.27,.87,.85,2.15,1.28,1.28,.44,2.39,.57,2.48,.29,.09-.27-.87-.85-2.15-1.28-1.28-.44-2.39-.57-2.48-.29Z"/><path class="cls-14" d="M599.05,389.75c.07,.28,1.74,.11,3.67-.58,1.94-.68,3.34-1.61,3.22-1.87-.13-.27-1.69,.21-3.57,.88-1.88,.67-3.39,1.28-3.32,1.56Z"/><path class="cls-14" d="M572.15,386.68c-.16,.24,.78,1.14,2.1,2.02,1.32,.87,2.52,1.38,2.68,1.14,.16-.24-.78-1.14-2.1-2.02-1.32-.87-2.52-1.38-2.68-1.14Z"/><path class="cls-14" d="M570.69,400.64c-.06,.28,.93,.73,2.21,.99,1.28,.27,2.37,.25,2.42-.03,.06-.28-.93-.73-2.21-.99-1.28-.27-2.37-.25-2.42,.03Z"/><path class="cls-14" d="M568.99,416.35c.12,.26,1.55-.14,3.18-.9,1.64-.76,2.87-1.59,2.74-1.85-.12-.26-1.55,.14-3.18,.9-1.64,.76-2.87,1.59-2.74,1.85Z"/><path class="cls-14" d="M572.59,431.63c.22,.18,1.15-.57,2.07-1.69,.92-1.12,1.48-2.17,1.26-2.36-.22-.18-1.15,.57-2.07,1.69-.92,1.12-1.48,2.17-1.26,2.36Z"/><path class="cls-14" d="M573.32,376.39c-.18,.22,.43,.99,1.48,1.52,1.05,.53,2.03,.56,2.1,.28,.08-.28-.69-.74-1.63-1.22-.95-.47-1.77-.81-1.95-.58Z"/><path class="cls-14" d="M560.14,390.48c-.1,.27,1.12,.94,2.79,1.17,1.67,.24,3.02-.08,3-.36-.02-.3-1.31-.46-2.86-.68-1.56-.21-2.84-.41-2.94-.13Z"/><path class="cls-14" d="M562.77,377.84c-.13,.25,1.08,1.12,2.8,1.67,1.72,.55,3.21,.55,3.25,.27,.05-.29-1.3-.74-2.93-1.27-1.64-.52-2.99-.93-3.12-.67Z"/><path class="cls-14" d="M557.26,410.06c0,.28,2.07,.47,4.57,0,2.5-.45,4.37-1.35,4.28-1.61-.1-.28-2.05,.15-4.47,.58-2.41,.44-4.39,.73-4.39,1.02Z"/><path class="cls-14" d="M562.16,428.43c.17,.22,1.7-.67,3.22-2.21,1.53-1.53,2.42-3.06,2.19-3.23-.23-.18-1.46,1.01-2.93,2.49-1.47,1.48-2.66,2.71-2.48,2.94Z"/><path class="cls-1" d="M583.7,362.89c-.16,.23,4.18,1.98,9.2,7.27,5.01,5.17,10.18,14.29,11.45,25.32,.61,5.48,.09,10.78-.69,15.51-.82,4.74-1.9,8.94-2.91,12.45-1.01,3.51-1.93,6.31-2.55,8.26-.62,1.95-.95,3.03-.88,3.06,.06,.02,.53-1.01,1.27-2.92,.74-1.91,1.77-4.69,2.88-8.18,1.1-3.5,2.27-7.71,3.15-12.5,.84-4.78,1.41-10.17,.78-15.8-1.3-11.28-6.71-20.57-11.96-25.71-2.61-2.61-5.07-4.35-6.86-5.36-.87-.55-1.62-.84-2.1-1.09-.49-.23-.75-.33-.77-.3Z"/><path class="cls-1" d="M569.4,435.43c.23-.11-2.36-4.09-4.71-11.27-2.43-7.08-4.44-17.57-2.82-28.97,.76-5.68,2.4-10.95,4.47-15.45,2.15-4.44,4.91-8.07,7.62-10.61,2.8-2.47,5.55-3.89,7.46-4.72,1.94-.81,3.1-1,3.09-1.09,0-.03-.3-.02-.86,.07-.55,.1-1.37,.29-2.38,.64-2,.72-4.85,2.06-7.81,4.54-2.88,2.57-5.73,6.19-8,10.75-2.16,4.58-3.86,9.93-4.63,15.72-1.65,11.61,.52,22.26,3.16,29.36,.59,1.81,1.36,3.36,1.92,4.76,.68,1.35,1.23,2.53,1.74,3.46,1.07,1.84,1.68,2.84,1.75,2.8Z"/></g><polygon class="cls-14" points="610.03 432.95 552.21 432.95 551.85 444.52 610.03 444.52 610.03 432.95"/><polygon class="cls-14" points="605.11 438.73 601.79 474.06 559.52 474.06 556.13 439.12 605.11 438.73"/><path class="cls-4" d="M551.85,444.66c0,.29,13.02,.52,29.08,.52s29.08-.23,29.08-.52-13.02-.52-29.08-.52-29.08,.23-29.08,.52Z"/><path class="cls-4" d="M557.73,455.42c-.06,.03,.33,.85,1.24,2.21,.91,1.35,2.35,3.26,4.48,5.3l.27,.25,.26-.28c2.78-2.92,6.61-6.5,11.33-9.92l-.64-.03c1.61,1.42,3.3,2.89,5.02,4.41,2.05,1.79,4.04,3.52,5.94,5.17l.33,.29,.33-.28c3.6-3.03,6.88-5.78,9.65-8.12l-.56-.06c1.99,2.43,3.67,4.48,4.99,6.09,1.2,1.43,1.9,2.19,1.96,2.15s-.52-.91-1.61-2.42c-1.25-1.67-2.84-3.79-4.72-6.31l-.24-.32-.32,.26c-2.82,2.29-6.14,4.98-9.8,7.94h.66c-1.89-1.65-3.87-3.39-5.92-5.19-1.73-1.51-3.42-2.98-5.04-4.39l-.31-.27-.33,.24c-4.76,3.5-8.57,7.2-11.28,10.24l.53-.02c-4.29-3.89-6.06-7.08-6.23-6.95Z"/></g></svg>