<?xml version="1.0" encoding="utf-8"?>
<!-- Generator: Adobe Illustrator 26.5.0, SVG Export Plug-In . SVG Version: 6.00 Build 0)  -->
<svg version="1.1" id="Layer_1" xmlns="http://www.w3.org/2000/svg" xmlns:xlink="http://www.w3.org/1999/xlink" x="0px" y="0px"
	 viewBox="0 0 276.3 277.5" style="enable-background:new 0 0 276.3 277.5;" xml:space="preserve">
<style type="text/css">
	.st0{fill:none;}
	.st1{fill:#FB5163;}
	.st2{fill:#202642;}
	.st3{fill:#FFFFFF;}
	.st4{fill:#FED8DE;}
	.st5{fill:#FEFEFE;}
	.st6{fill:#020202;}
</style>
<g>
	<path class="st0" d="M168.5,151.7c0,4.8,4,8.8,8.8,8.7c4.7-0.1,8.6-4.1,8.5-8.8c0-1.6-0.5-3-1.2-4.3h-14.9
		C168.9,148.6,168.5,150.1,168.5,151.7L168.5,151.7z"/>
	<path class="st0" d="M135.3,147.5c0.6,0,1.1,0,1.5-0.1H41.5C72.8,147.6,104,147.4,135.3,147.5z"/>
	<path class="st0" d="M177.1,143.1c-3.1,0-5.9,1.7-7.4,4.3h14.9C183,144.8,180.3,143.1,177.1,143.1z"/>
	<path class="st1" d="M32.6,147.3c-0.7,0-1.4,0-2,0.1h10.9C38.5,147.3,35.6,147.3,32.6,147.3z"/>
	<path class="st2" d="M147,146.8c0.8-1.4,3.2-1,4.9-1.6c2.1-0.7,3.2-2.2,3.4-4.4c-0.2-2-1.5-3.6-2.6-5.3c-0.7-1.1-0.8-1.9,0.3-2.7
		c0.6-0.4,1-1,1.5-1.5c1.5-1.5,2.7-3.5,4.5-4.2c1.8-0.7,3.4,1.6,5.1,2.4c2.8,1.2,5.4,0,6.3-3c1-3.3,3.3-5,6.8-5h0.5
		c3,0,4.8,1.4,5.6,4.2c1.2,4.4,3.7,5.5,7.6,3.2c2.5-1.5,4.8-1.1,6.9,0.9c0.2,0.2,0.4,0.4,0.6,0.6c2.4,2.4,2.8,5,1.2,8
		c-1.8,3.3-0.7,6,3,7c2.6,0.7,3.8,1,4.3,2.1h9.1c0-0.6,0-1.3,0-1.9c0.1-2.5-0.1-4.9-2.8-6.8c10.3,0,20.1,0.3,29.8-0.1
		c10.7-0.4,18.5-5.8,22.8-15.6c4.2-9.8,2.7-19.1-4.2-27.3c-5.7-6.7-13.2-9.4-22-9c-1.5,0.1-2.2,0-2.1-2.1
		c0.6-12.2-4.2-21.9-14.7-28.2c-10.5-6.3-21.3-6-31.8,0.4c-1.2,0.7-1.9,0.8-2.9-0.2c-5.2-5-11.3-8.7-18.2-10.8
		c-1.5-0.5-1.9-1.3-2.1-2.6c-3.5-21.6-27.2-32.7-45.7-21.2c-1.7,1.1-2.5,0.8-3.8-0.5c-8.7-8-19-12.4-30.8-12.7
		C63,7.9,42.1,25.7,38.9,49.9c-0.2,1.7-0.9,2.2-2.5,2.1c-2.3-0.1-4.7,0-7,0.4C17.2,54.6,8.1,65.4,8,77.8c0,12.6,9.1,23.6,21.3,25.7
		c5.9,1,11.9,0.4,17.8,0.5c10.5,0.1,20.9,0,31.6,0c-0.2,1-0.4,1.7-0.6,2.5c-3.6,14.5,5.9,29.2,20.7,31.7c6.1,1,12.3,0.4,18.4,0.4
		c7.7,0.1,15.5,0,23.2,0c-2.1,1.5-2.6,3.6-2.3,5.8c0.2,1.8-0.2,2.5-1.4,2.8h10.1C146.9,147.1,146.9,146.9,147,146.8L147,146.8z
		 M82.6,95.4c-16.3,0-32.7,0.1-49-0.1c-9.4-0.1-16.9-7.9-16.9-17.3c0-9.4,7.5-17.1,16.9-17.3c2.7-0.1,5.4,0,8.1,0
		c3.8,0,5.2-1.5,5.4-5.2C47.7,38.1,58.6,23.7,75.3,19c15.4-4.3,28.7-0.2,39.7,11.3c4,4.2,4.9,4.3,9.3,0.7
		c11.6-9.5,29.2-4.6,34.2,9.6c0.7,1.9,0,2.9-1.9,2.9c-0.5,0-1.1,0-1.6,0c-23.5,0.1-43.6,17.8-46.7,41.1c-0.2,1.9-0.9,2.3-2.7,2.3
		c-8-0.4-14.9,2-20.6,7.8C84.3,95.2,83.5,95.4,82.6,95.4L82.6,95.4z M103.6,130c-9.8,0-17.5-7.6-17.5-17.2c0-9.7,7.6-17.3,17.6-17.4
		c2.5,0,5.1,0,7.6,0c3.5,0,5-1.5,5.2-5.1c0.7-17.7,11.8-32.2,28.7-36.7c15.2-4.1,28.3,0.1,39.2,11.4c4,4.2,4.9,4.4,9.3,0.7
		c7.3-6,17.6-6.6,25.5-1.5c7.9,5.1,11.6,14.7,9.2,23.8c-1.5,5.6-0.1,7.4,5.8,7.4c4,0.1,7.9-0.4,11.9,0.5c8.4,1.9,14.2,9.9,13.4,18.5
		c-0.8,8.5-7.8,15.5-16.3,15.6c-10.4,0.2-20.8,0-31.2,0.1c-1.1,0-1.8-0.4-2.5-1.2c-2.8-2.9-5.7-5.8-8.6-8.6c-3-3-6.3-3.5-10.1-1.5
		c-0.2-0.9-0.4-1.8-0.7-2.6c-0.7-2.1-2-3.4-4.3-3.4c-5.7,0-11.4,0-17.1,0c-2.3,0-3.7,1.2-4.4,3.3c-0.3,0.9-0.5,1.7-0.7,2.8
		c-0.7-0.4-1.2-0.6-1.7-0.9c-2.9-1.7-4.4-1.5-6.7,0.8c-3.3,3.3-6.7,6.6-10,10c-0.9,1-1.8,1.5-3.3,1.5
		C129.1,130.1,116.4,130.1,103.6,130L103.6,130z"/>
	<path class="st1" d="M183.9,242.8c-2,0.1-2.5-0.5-2.5-2.5c0.1-15.6,0.1-31.2,0-46.9c0-2.2,0.5-2.9,2.8-2.8c4.1,0.2,5-0.6,6.1-4.5
		c0.1-0.5,0.4-1,0.5-1.4c5.3,2.9,5.6,2.8,9.9-1.4c2.6-2.6,5.2-5.2,7.8-7.9c4.4-4.4,4.5-4.5,1.6-10c0.4-0.2,0.8-0.4,1.2-0.5
		c4.2-1.3,4.8-2,4.8-6.3c0-3.8,0-7.6,0-11.4h-9.1c0.4,0.8,0.4,2,0.4,4.2v0.3c0,3.4-1.6,5.5-4.8,6.4c-3.6,1-4.7,3.7-2.9,7.1
		c1.6,2.9,1.2,5.5-1.1,7.8c-2.4,2.4-5.2,2.9-8.2,1.3c-3.3-1.8-5.9-0.6-7,3.1c-0.9,3.1-2.9,4.6-6,4.6H177c-3.3,0-5.4-1.6-6.4-4.8
		c-1-3.5-3.7-4.6-6.9-2.9c-3,1.6-5.8,1.2-8.2-1.2c-2.4-2.4-2.8-5-1.2-7.8c1.9-3.5,0.8-6.1-3.1-7.2c-3-0.8-4.6-2.8-4.5-5.8
		c0-1.7-0.4-3.6,0-5h-10.1c-0.4,0.1-0.9,0.1-1.5,0.1c-31.2-0.1-62.5,0.1-93.8-0.1H30.6c-8.8,0.7-14.1,6.5-14,16.1
		c0.4,25.5,0.1,50.9,0.2,76.4c0,2.5-0.6,3.1-3.1,3c-3.8-0.2-5.6,2.1-4.9,5.9c0.6,3.2,1.1,6.4,1.8,9.6c1.3,6.2,6.3,10.5,12.7,10.5
		c50.6,0,101.2,0,151.7,0c6.3,0,11.4-4.2,12.7-10.5c0.6-3,1.1-6,1.6-9.1C190.1,244.8,188.5,242.7,183.9,242.8L183.9,242.8z
		 M25.4,162.1c0-4.7,1.3-6,5.9-6c34.8,0,69.5,0,104.3,0c2.1,0,2.9,0.5,2.6,2.6c-0.6,4.5,2.1,6.2,6.1,6.6c-0.6,1-1,1.8-1.5,2.6
		c-1.1,2-0.9,3.8,0.7,5.5c4,4,8,8.1,12.1,12.1c2.6,2.6,5.1,1,7.5-0.5c0.8,0.3,0.7,1,0.8,1.6c1,3.6,2,4.6,5.7,4.3
		c2.7-0.2,3.2,0.7,3.1,3.2c-0.1,15.5-0.1,31.1,0,46.6c0,1.9-0.5,2.3-2.4,2.3c-19-0.1-38.1,0-57.2-0.1c-2.6,0-4.7,0.7-5.4,3.4
		c-0.3,1-0.8,1-1.6,1c-4.9,0-9.8,0-14.6,0c-0.8,0-1.2-0.2-1.5-1.1c-0.8-2.7-2.9-3.3-5.5-3.3c-18.9,0-37.7,0-56.6,0.1
		c-2.2,0-2.8-0.4-2.8-2.7C25.4,214.1,25.4,188.1,25.4,162.1L25.4,162.1z M179.7,254c-1.1,5.7-1.7,6.2-7.5,6.2c-24.5,0-49,0-73.4,0
		s-49.1,0-73.7,0c-4.9,0-7.4-2.8-6.9-7.8c0.1-0.8,0.4-0.9,1-0.9c0.5,0,1.1,0,1.6,0c19.4,0,38.8,0,58.2,0c1.5,0,2.7-0.1,3.2,1.8
		c0.5,1.8,2.2,2.5,4.1,2.5c8.5,0,17,0,25.5,0c1.9,0,3.5-0.7,4.1-2.5c0.5-1.7,1.5-1.8,2.9-1.8c19.6,0,39.2,0.1,58.8,0
		C179.8,251.4,180.1,252.1,179.7,254L179.7,254z"/>
	<path class="st2" d="M246.5,153.5c0-6.1,0-6-6.1-6.1c-2.1,0-2.6,0.5-2.6,2.6c0.1,16.2,0.1,32.5,0,48.7c0,8.2-5.5,13.7-13.8,13.7
		c-9.1,0-18.2,0-27.3,0c-6.7,0-6.6,0-6.6,6.7c0,1.8,0.6,2,2.1,2c10.7-0.1,21.3,0,31.9,0c12.9,0,22.3-9.4,22.3-22.4
		c0-7.9,0-15.7,0-23.5C246.5,167.9,246.5,160.7,246.5,153.5L246.5,153.5z"/>
	<path class="st3" d="M28.1,242.8c18.9-0.1,37.7,0,56.6-0.1c2.6,0,4.7,0.6,5.5,3.3c0.3,0.9,0.6,1.1,1.5,1.1c4.9,0,9.8,0,14.6,0
		c0.7,0,1.3,0.1,1.6-1c0.7-2.7,2.8-3.4,5.4-3.4c19,0,38.1,0,57.2,0.1c1.9,0,2.4-0.4,2.4-2.3c-0.1-15.5-0.1-31.1,0-46.6
		c0-2.5-0.4-3.4-3.1-3.2c-3.7,0.3-4.7-0.7-5.7-4.3c-0.2-0.5-0.1-1.3-0.8-1.6c-2.4,1.5-4.9,3.1-7.5,0.5c-4.1-4-8.1-8-12.1-12.1
		c-1.6-1.6-1.8-3.5-0.7-5.5c0.4-0.8,0.9-1.5,1.5-2.6c-4.1-0.4-6.8-2.2-6.1-6.6c0.3-2.1-0.5-2.6-2.6-2.6c-34.8,0.1-69.5,0-104.3,0
		c-4.5,0-5.9,1.4-5.9,6c0,26,0,52-0.1,78C25.3,242.4,26,242.8,28.1,242.8L28.1,242.8z M116.2,195.1c3,0,4.5,1.5,4.5,4.4
		c0,2.8-1.4,4.2-4.2,4.2c-3,0-4.5-1.5-4.5-4.4C112.1,196.5,113.5,195.1,116.2,195.1z M98.9,195.1c3,0,4.5,1.5,4.5,4.5
		c0,2.8-1.4,4.2-4.2,4.2c-3,0-4.5-1.5-4.5-4.5C94.7,196.5,96.1,195.1,98.9,195.1z M81.6,195.1c3,0,4.5,1.5,4.5,4.5
		c0,2.8-1.4,4.2-4.2,4.2c-3,0-4.5-1.5-4.5-4.5C77.4,196.5,78.8,195.1,81.6,195.1z"/>
	<path class="st4" d="M155,118.7c2.4-2.3,3.8-2.5,6.7-0.8c0.5,0.3,1,0.6,1.7,0.9c0.3-1,0.5-1.9,0.7-2.8c0.7-2.1,2.1-3.3,4.4-3.3
		c5.7,0,11.4,0,17.1,0c2.3,0,3.7,1.3,4.3,3.4c0.3,0.9,0.5,1.7,0.7,2.6c3.8-1.9,7.1-1.4,10.1,1.5c2.9,2.9,5.8,5.7,8.6,8.6
		c0.7,0.7,1.4,1.2,2.5,1.2c10.4,0,20.8,0.1,31.2-0.1c8.5-0.2,15.5-7.2,16.3-15.6c0.8-8.6-5-16.5-13.4-18.5
		c-3.9-0.9-7.9-0.4-11.9-0.5c-5.9-0.1-7.3-1.8-5.8-7.4c2.4-9.1-1.3-18.7-9.2-23.8c-7.9-5.1-18.2-4.5-25.5,1.5
		c-4.4,3.6-5.3,3.5-9.3-0.7c-10.8-11.3-24-15.4-39.2-11.4c-17,4.5-28,19-28.7,36.7c-0.1,3.6-1.6,5.1-5.2,5.1c-2.5,0-5.1,0-7.6,0
		c-10,0.1-17.6,7.7-17.6,17.4c0,9.6,7.7,17.2,17.5,17.2c12.7,0.1,25.5,0,38.2,0.1c1.4,0,2.3-0.5,3.3-1.5
		C148.3,125.3,151.7,121.9,155,118.7L155,118.7z"/>
	<path class="st3" d="M105.6,86.7c1.8,0.1,2.5-0.4,2.7-2.3c3.1-23.3,23.2-41,46.7-41.1c0.5,0,1.1,0,1.6,0c2,0,2.6-0.9,1.9-2.9
		c-5-14.2-22.6-19.1-34.2-9.6c-4.4,3.6-5.3,3.5-9.3-0.7C104,18.8,90.7,14.7,75.3,19c-16.8,4.7-27.6,19.1-28.3,36.5
		c-0.1,3.7-1.6,5.2-5.4,5.2c-2.7,0-5.4,0-8.1,0c-9.4,0.2-16.9,7.9-16.9,17.3s7.5,17.2,16.9,17.3c16.3,0.1,32.7,0,49,0.1
		c0.9,0,1.7-0.1,2.4-0.9C90.7,88.7,97.6,86.4,105.6,86.7L105.6,86.7z"/>
	<path class="st5" d="M177.6,251.4c-19.6,0.1-39.2,0.1-58.8,0c-1.4,0-2.4,0.1-2.9,1.8c-0.5,1.8-2.2,2.5-4.1,2.5c-8.5,0-17,0-25.5,0
		c-1.9,0-3.6-0.7-4.1-2.5c-0.5-2-1.7-1.8-3.2-1.8c-19.4,0-38.8,0-58.2,0c-0.5,0-1.1,0-1.6,0c-0.6,0-0.9,0.1-1,0.9
		c-0.5,5,1.9,7.8,6.9,7.8c24.6,0,49.1,0,73.7,0c24.6,0,49,0,73.4,0c5.8,0,6.3-0.5,7.5-6.2C180.1,252.1,179.8,251.4,177.6,251.4
		L177.6,251.4z"/>
	<path class="st6" d="M81.9,203.8c2.8,0,4.2-1.4,4.2-4.2c0-3-1.5-4.5-4.5-4.5c-2.8,0-4.2,1.4-4.2,4.2
		C77.4,202.3,78.9,203.8,81.9,203.8z"/>
	<path class="st6" d="M99.2,203.8c2.8,0,4.2-1.4,4.2-4.2c0-3-1.5-4.5-4.5-4.5c-2.8,0-4.2,1.4-4.2,4.2
		C94.7,202.3,96.2,203.8,99.2,203.8z"/>
	<path class="st6" d="M116.6,203.8c2.8,0,4.2-1.4,4.2-4.2c0-3-1.5-4.4-4.5-4.4c-2.8,0-4.2,1.4-4.2,4.2
		C112.1,202.3,113.6,203.8,116.6,203.8z"/>
	<path class="st6" d="M176.9,169.1c9.6,0.1,17.5-7.6,17.6-17.2c0-1.6-0.2-3.1-0.6-4.5h-9.3c0.8,1.3,1.2,2.7,1.2,4.3
		c0.1,4.7-3.8,8.7-8.5,8.8c-4.8,0.1-8.8-3.9-8.8-8.7c0-1.6,0.5-3.1,1.2-4.4h-9.3c-0.4,1.4-0.6,2.9-0.6,4.4
		C159.8,161.2,167.4,169,176.9,169.1L176.9,169.1z"/>
	<path class="st6" d="M177.1,143.1c3.2,0,6,1.7,7.5,4.3h9.3c-2-7.4-8.7-12.9-16.7-13c-8.1,0-14.9,5.5-16.9,13h9.3
		C171.2,144.8,173.9,143.1,177.1,143.1L177.1,143.1z"/>
</g>
</svg>
