<?xml version="1.0" encoding="UTF-8"?><svg xmlns="http://www.w3.org/2000/svg" xmlns:xlink="http://www.w3.org/1999/xlink" viewBox="0 0 488.19 373.88"><defs><style>.cls-1{fill:#744ca2;}.cls-2{fill:url(#_Áåçûìÿííûé_ãðàäèåíò_27);}.cls-2,.cls-3,.cls-4,.cls-5,.cls-6,.cls-7,.cls-8,.cls-9,.cls-10,.cls-11,.cls-12,.cls-13,.cls-14,.cls-15,.cls-16,.cls-17,.cls-18,.cls-19,.cls-20,.cls-21,.cls-22,.cls-23,.cls-24,.cls-25,.cls-26,.cls-27,.cls-28{mix-blend-mode:multiply;}.cls-2,.cls-3,.cls-6,.cls-7,.cls-8,.cls-10,.cls-11,.cls-13,.cls-14,.cls-15,.cls-16,.cls-17,.cls-18,.cls-19,.cls-20,.cls-24,.cls-25,.cls-27{opacity:.62;}.cls-3{fill:url(#_Áåçûìÿííûé_ãðàäèåíò_27-13);}.cls-29{fill:url(#_Áåçûìÿííûé_ãðàäèåíò_86);}.cls-4{fill:url(#_Áåçûìÿííûé_ãðàäèåíò_33);}.cls-4,.cls-5,.cls-12{opacity:.83;}.cls-30{fill:#fff;}.cls-5{fill:url(#_Áåçûìÿííûé_ãðàäèåíò_33-2);}.cls-31{fill:url(#_Áåçûìÿííûé_ãðàäèåíò_107-3);}.cls-31,.cls-32,.cls-33,.cls-34,.cls-35,.cls-36,.cls-37,.cls-23,.cls-38{fill-rule:evenodd;}.cls-39{fill:url(#_Áåçûìÿííûé_ãðàäèåíò_184-3);}.cls-40{fill:url(#_Áåçûìÿííûé_ãðàäèåíò_302);}.cls-6{fill:url(#_Áåçûìÿííûé_ãðàäèåíò_27-11);}.cls-41{fill:url(#_Áåçûìÿííûé_ãðàäèåíò_12-2);}.cls-7{fill:url(#_Áåçûìÿííûé_ãðàäèåíò_27-2);}.cls-42{fill:url(#_Áåçûìÿííûé_ãðàäèåíò_34);}.cls-43{fill:url(#_Áåçûìÿííûé_ãðàäèåíò_15);}.cls-44{fill:url(#_Áåçûìÿííûé_ãðàäèåíò_373-11);}.cls-45{fill:url(#_Áåçûìÿííûé_ãðàäèåíò_373-7);}.cls-46{fill:url(#_Áåçûìÿííûé_ãðàäèåíò_264-3);}.cls-46,.cls-47,.cls-34,.cls-48,.cls-49,.cls-50{mix-blend-mode:soft-light;}.cls-46,.cls-51,.cls-52,.cls-22,.cls-23{opacity:.5;}.cls-53{fill:url(#_Áåçûìÿííûé_ãðàäèåíò_78);}.cls-54{fill:url(#_Áåçûìÿííûé_ãðàäèåíò_184-4);}.cls-55{fill:url(#_Áåçûìÿííûé_ãðàäèåíò_30-3);}.cls-56{fill:url(#_Áåçûìÿííûé_ãðàäèåíò_184-5);}.cls-57{isolation:isolate;}.cls-58{fill:#e37e7f;}.cls-8{fill:url(#_Áåçûìÿííûé_ãðàäèåíò_27-7);}.cls-32{fill:url(#_Áåçûìÿííûé_ãðàäèåíò_206-2);}.cls-59{fill:url(#_Áåçûìÿííûé_ãðàäèåíò_96-2);}.cls-60{fill:url(#_Áåçûìÿííûé_ãðàäèåíò_134);}.cls-33{fill:url(#_Áåçûìÿííûé_ãðàäèåíò_107-2);}.cls-9{fill:url(#_Áåçûìÿííûé_ãðàäèåíò_27-18);}.cls-9,.cls-26,.cls-28{opacity:.84;}.cls-61{fill:url(#_Áåçûìÿííûé_ãðàäèåíò_25);}.cls-62{fill:url(#_Áåçûìÿííûé_ãðàäèåíò_184-2);}.cls-63{fill:url(#_Áåçûìÿííûé_ãðàäèåíò_373-3);}.cls-64{fill:url(#_Áåçûìÿííûé_ãðàäèåíò_97);}.cls-64,.cls-65{opacity:.73;}.cls-10{fill:url(#_Áåçûìÿííûé_ãðàäèåíò_17);}.cls-66{fill:url(#_Áåçûìÿííûé_ãðàäèåíò_71);}.cls-67{fill:url(#_Áåçûìÿííûé_ãðàäèåíò_2-2);}.cls-68{fill:url(#_Áåçûìÿííûé_ãðàäèåíò_11);}.cls-47,.cls-69{fill:#d7d9ff;}.cls-11{fill:url(#_Áåçûìÿííûé_ãðàäèåíò_27-12);}.cls-70{fill:url(#_Áåçûìÿííûé_ãðàäèåíò_71-4);}.cls-71{fill:url(#_Áåçûìÿííûé_ãðàäèåíò_10);}.cls-72{fill:#473da2;}.cls-12{fill:url(#_Áåçûìÿííûé_ãðàäèåíò_33-3);}.cls-51{fill:#e0f3ff;}.cls-34{fill:#b3d9ff;}.cls-48{fill:#d7e2ff;}.cls-73{fill:url(#_Áåçûìÿííûé_ãðàäèåíò_373-9);}.cls-13{fill:url(#_Áåçûìÿííûé_ãðàäèåíò_27-15);}.cls-74{fill:url(#_Áåçûìÿííûé_ãðàäèåíò_184-6);}.cls-75{fill:url(#_Áåçûìÿííûé_ãðàäèåíò_117-2);}.cls-35{fill:url(#_Áåçûìÿííûé_ãðàäèåíò_206-4);}.cls-14{fill:url(#_Áåçûìÿííûé_ãðàäèåíò_27-10);}.cls-76{fill:url(#_Áåçûìÿííûé_ãðàäèåíò_86-2);}.cls-52{fill:url(#_Áåçûìÿííûé_ãðàäèåíò_95);}.cls-52,.cls-77{mix-blend-mode:screen;}.cls-78{fill:url(#_Áåçûìÿííûé_ãðàäèåíò_86-3);}.cls-79{fill:url(#_Áåçûìÿííûé_ãðàäèåíò_373);}.cls-49{fill:url(#_Áåçûìÿííûé_ãðàäèåíò_264);}.cls-80{fill:#9f4a8b;}.cls-77{fill:url(#_Áåçûìÿííûé_ãðàäèåíò_9);}.cls-81{fill:url(#_Áåçûìÿííûé_ãðàäèåíò_30-4);}.cls-36{fill:url(#_Áåçûìÿííûé_ãðàäèåíò_107);}.cls-15{fill:url(#_Áåçûìÿííûé_ãðàäèåíò_27-14);}.cls-82{fill:url(#_Áåçûìÿííûé_ãðàäèåíò_96-3);}.cls-37{fill:url(#_Áåçûìÿííûé_ãðàäèåíò_206-3);}.cls-16{fill:url(#_Áåçûìÿííûé_ãðàäèåíò_27-3);}.cls-17{fill:url(#_Áåçûìÿííûé_ãðàäèåíò_27-19);}.cls-83{fill:#77485e;}.cls-84{fill:url(#_Áåçûìÿííûé_ãðàäèåíò_117);}.cls-85{fill:url(#_Áåçûìÿííûé_ãðàäèåíò_2);}.cls-86{fill:url(#_Áåçûìÿííûé_ãðàäèåíò_30-5);}.cls-18{fill:url(#_Áåçûìÿííûé_ãðàäèåíò_27-5);}.cls-19{fill:url(#_Áåçûìÿííûé_ãðàäèåíò_27-4);}.cls-87{fill:url(#_Áåçûìÿííûé_ãðàäèåíò_373-6);}.cls-88{fill:url(#_Áåçûìÿííûé_ãðàäèåíò_25-2);}.cls-20{fill:url(#_Áåçûìÿííûé_ãðàäèåíò_27-6);}.cls-89{fill:url(#_Áåçûìÿííûé_ãðàäèåíò_30);}.cls-90{fill:url(#_Áåçûìÿííûé_ãðàäèåíò_71-6);}.cls-21{fill:#d1d4fb;}.cls-91{fill:url(#_Áåçûìÿííûé_ãðàäèåíò_3-2);}.cls-92{fill:url(#_Áåçûìÿííûé_ãðàäèåíò_30-2);}.cls-93{fill:url(#_Áåçûìÿííûé_ãðàäèåíò_6);}.cls-94{fill:url(#_Áåçûìÿííûé_ãðàäèåíò_96);}.cls-50{fill:url(#_Áåçûìÿííûé_ãðàäèåíò_264-2);}.cls-95{fill:url(#_Áåçûìÿííûé_ãðàäèåíò_373-2);}.cls-96{fill:url(#_Áåçûìÿííûé_ãðàäèåíò_29);}.cls-97{fill:url(#_Áåçûìÿííûé_ãðàäèåíò_373-4);}.cls-98{fill:url(#_Áåçûìÿííûé_ãðàäèåíò_373-8);}.cls-22{fill:url(#_Áåçûìÿííûé_ãðàäèåíò_87);}.cls-99{fill:url(#_Áåçûìÿííûé_ãðàäèåíò_373-5);}.cls-100{fill:#e5e2ff;}.cls-101{fill:url(#_Áåçûìÿííûé_ãðàäèåíò_115);opacity:.81;}.cls-102{fill:url(#_Áåçûìÿííûé_ãðàäèåíò_71-5);}.cls-103{fill:url(#_Áåçûìÿííûé_ãðàäèåíò_28);}.cls-104{fill:#e87a8d;}.cls-23{fill:#601734;}.cls-105{fill:url(#_Áåçûìÿííûé_ãðàäèåíò_3);}.cls-106{fill:url(#_Áåçûìÿííûé_ãðàäèåíò_184);}.cls-107{fill:url(#_Áåçûìÿííûé_ãðàäèåíò_71-2);}.cls-38{fill:url(#_Áåçûìÿííûé_ãðàäèåíò_206);}.cls-108{fill:url(#_Áåçûìÿííûé_ãðàäèåíò_184-7);}.cls-24{fill:url(#_Áåçûìÿííûé_ãðàäèåíò_27-8);}.cls-109{fill:url(#_Áåçûìÿííûé_ãðàäèåíò_12);}.cls-110{fill:url(#_Áåçûìÿííûé_ãðàäèåíò_80);}.cls-111{fill:url(#_Áåçûìÿííûé_ãðàäèåíò_28-2);}.cls-112{fill:url(#_Áåçûìÿííûé_ãðàäèåíò_86-4);}.cls-113{fill:url(#_Áåçûìÿííûé_ãðàäèåíò_373-10);}.cls-65{fill:url(#_Áåçûìÿííûé_ãðàäèåíò_97-2);}.cls-25{fill:url(#_Áåçûìÿííûé_ãðàäèåíò_94);}.cls-26{fill:url(#_Áåçûìÿííûé_ãðàäèåíò_27-16);}.cls-27{fill:url(#_Áåçûìÿííûé_ãðàäèåíò_27-9);}.cls-28{fill:url(#_Áåçûìÿííûé_ãðàäèåíò_27-17);}.cls-114{fill:url(#_Áåçûìÿííûé_ãðàäèåíò_71-3);}.cls-115{fill:#953da2;}</style><linearGradient id="_Áåçûìÿííûé_ãðàäèåíò_96" x1="290.59" y1="232.45" x2="290.59" y2="130.6" gradientUnits="userSpaceOnUse"><stop offset="0" stop-color="#744fd8"/><stop offset="1" stop-color="#3996f7"/></linearGradient><linearGradient id="_Áåçûìÿííûé_ãðàäèåíò_33" x1="287.99" y1="232.28" x2="287.99" y2="130.6" gradientUnits="userSpaceOnUse"><stop offset="0" stop-color="#9d68c2"/><stop offset="1" stop-color="#ccedff"/></linearGradient><linearGradient id="_Áåçûìÿííûé_ãðàäèåíò_373" x1="236.74" y1="373.85" x2="236.74" y2="247.83" gradientUnits="userSpaceOnUse"><stop offset="0" stop-color="#1c257b"/><stop offset="1" stop-color="#482c83"/></linearGradient><linearGradient id="_Áåçûìÿííûé_ãðàäèåíò_27" x1="248.87" y1="294.36" x2="248.87" y2="247.83" gradientUnits="userSpaceOnUse"><stop offset="0" stop-color="#8b8be0"/><stop offset="1" stop-color="#a177b7"/></linearGradient><linearGradient id="_Áåçûìÿííûé_ãðàäèåíò_71" x1="309.65" y1="228.87" x2="309.65" y2="212.13" gradientUnits="userSpaceOnUse"><stop offset=".02" stop-color="#ffc2a9"/><stop offset="1" stop-color="#ff9595"/></linearGradient><linearGradient id="_Áåçûìÿííûé_ãðàäèåíò_12" x1="248.05" y1="263.74" x2="248.05" y2="247.83" gradientUnits="userSpaceOnUse"><stop offset="0" stop-color="#d1c8f8"/><stop offset="1" stop-color="#eee5f9"/></linearGradient><linearGradient id="_Áåçûìÿííûé_ãðàäèåíò_27-2" x1="247.81" y1="263.74" x2="247.81" y2="247.83" xlink:href="#_Áåçûìÿííûé_ãðàäèåíò_27"/><linearGradient id="_Áåçûìÿííûé_ãðàäèåíò_30" x1="338.19" y1="197.59" x2="338.19" y2="192.26" gradientUnits="userSpaceOnUse"><stop offset=".02" stop-color="#ffa58b"/><stop offset="1" stop-color="#ff898e"/></linearGradient><linearGradient id="_Áåçûìÿííûé_ãðàäèåíò_96-2" x1="189.22" y1="202.12" x2="189.22" y2="127.33" xlink:href="#_Áåçûìÿííûé_ãðàäèåíò_96"/><linearGradient id="_Áåçûìÿííûé_ãðàäèåíò_30-2" x1="240.44" y1="148.39" x2="240.44" y2="103.77" xlink:href="#_Áåçûìÿííûé_ãðàäèåíò_30"/><linearGradient id="_Áåçûìÿííûé_ãðàäèåíò_12-2" x1="239.35" y1="142.91" x2="239.35" y2="122" xlink:href="#_Áåçûìÿííûé_ãðàäèåíò_12"/><linearGradient id="_Áåçûìÿííûé_ãðàäèåíò_33-2" x1="189.37" y1="202.12" x2="189.37" y2="127.33" xlink:href="#_Áåçûìÿííûé_ãðàäèåíò_33"/><linearGradient id="_Áåçûìÿííûé_ãðàäèåíò_71-2" x1="241.8" y1="115.4" x2="241.8" y2="44.55" xlink:href="#_Áåçûìÿííûé_ãðàäèåíò_71"/><linearGradient id="_Áåçûìÿííûé_ãðàäèåíò_30-3" x1="240.26" y1="100.24" x2="240.26" y2="44.26" xlink:href="#_Áåçûìÿííûé_ãðàäèåíò_30"/><linearGradient id="_Áåçûìÿííûé_ãðàäèåíò_11" x1="239.69" y1="87.19" x2="231.33" y2="34.39" gradientUnits="userSpaceOnUse"><stop offset="0" stop-color="#d49092"/><stop offset=".13" stop-color="#d18e91"/><stop offset=".2" stop-color="#c98891"/><stop offset=".27" stop-color="#ba7e90"/><stop offset=".32" stop-color="#a6708e"/><stop offset=".37" stop-color="#8c5e8c"/><stop offset=".42" stop-color="#6c488a"/><stop offset=".46" stop-color="#462e87"/><stop offset=".47" stop-color="#3e2987"/><stop offset=".61" stop-color="#352177"/><stop offset=".85" stop-color="#281661"/><stop offset="1" stop-color="#24135a"/></linearGradient><linearGradient id="_Áåçûìÿííûé_ãðàäèåíò_71-3" x1="137.16" y1="200.73" x2="137.16" y2="76.1" xlink:href="#_Áåçûìÿííûé_ãðàäèåíò_71"/><linearGradient id="_Áåçûìÿííûé_ãðàäèåíò_96-3" x1="241.3" y1="262.52" x2="241.3" y2="122" xlink:href="#_Áåçûìÿííûé_ãðàäèåíò_96"/><linearGradient id="_Áåçûìÿííûé_ãðàäèåíò_373-2" x1="313.15" y1="220.6" x2="313.15" y2="152.55" xlink:href="#_Áåçûìÿííûé_ãðàäèåíò_373"/><linearGradient id="_Áåçûìÿííûé_ãðàäèåíò_27-3" x1="336.53" y1="205.74" x2="336.53" y2="179.53" xlink:href="#_Áåçûìÿííûé_ãðàäèåíò_27"/><linearGradient id="_Áåçûìÿííûé_ãðàäèåíò_71-4" x1="337.48" y1="193.46" x2="337.48" y2="179.53" xlink:href="#_Áåçûìÿííûé_ãðàäèåíò_71"/><linearGradient id="_Áåçûìÿííûé_ãðàäèåíò_71-5" x1="344.17" y1="181.15" x2="344.17" y2="170.6" xlink:href="#_Áåçûìÿííûé_ãðàäèåíò_71"/><linearGradient id="_Áåçûìÿííûé_ãðàäèåíò_71-6" x1="336.86" y1="199.09" x2="336.86" y2="194.49" xlink:href="#_Áåçûìÿííûé_ãðàäèåíò_71"/><linearGradient id="_Áåçûìÿííûé_ãðàäèåíò_373-3" x1="235.92" y1="70.81" x2="235.92" y2="59.39" xlink:href="#_Áåçûìÿííûé_ãðàäèåíò_373"/><linearGradient id="_Áåçûìÿííûé_ãðàäèåíò_117" x1="240.12" y1="79.57" x2="240.12" y2="70.44" gradientUnits="userSpaceOnUse"><stop offset="0" stop-color="#d0c7f8"/><stop offset="1" stop-color="#fff"/></linearGradient><linearGradient id="_Áåçûìÿííûé_ãðàäèåíò_117-2" x1="257.86" y1="77.07" x2="257.86" y2="67.94" xlink:href="#_Áåçûìÿííûé_ãðàäèåíò_117"/><linearGradient id="_Áåçûìÿííûé_ãðàäèåíò_184" x1="111.64" y1="105.79" x2="126.37" y2="105.79" gradientUnits="userSpaceOnUse"><stop offset="0" stop-color="#cf6074"/><stop offset="1" stop-color="#ff817f"/></linearGradient><radialGradient id="_Áåçûìÿííûé_ãðàäèåíò_3" cx="239.1" cy="76.31" fx="239.1" fy="76.31" r="3.59" gradientUnits="userSpaceOnUse"><stop offset="0" stop-color="#cf95ff"/><stop offset="1" stop-color="#8161ff"/></radialGradient><linearGradient id="_Áåçûìÿííûé_ãðàäèåíò_2" x1="238.98" y1="77.36" x2="238.98" y2="72.28" gradientUnits="userSpaceOnUse"><stop offset="0" stop-color="#8642a0"/><stop offset="1" stop-color="#4e37b7"/></linearGradient><radialGradient id="_Áåçûìÿííûé_ãðàäèåíò_3-2" cx="257.13" cy="74.32" fx="257.13" fy="74.32" r="2.41" xlink:href="#_Áåçûìÿííûé_ãðàäèåíò_3"/><linearGradient id="_Áåçûìÿííûé_ãðàäèåíò_184-2" x1="106.73" y1="93.91" x2="119.05" y2="93.91" xlink:href="#_Áåçûìÿííûé_ãðàäèåíò_184"/><linearGradient id="_Áåçûìÿííûé_ãðàäèåíò_2-2" x1="256.55" y1="75.37" x2="256.55" y2="70.29" xlink:href="#_Áåçûìÿííûé_ãðàäèåíò_2"/><linearGradient id="_Áåçûìÿííûé_ãðàäèåíò_373-4" x1="257.61" y1="63.77" x2="257.61" y2="55.9" xlink:href="#_Áåçûìÿííûé_ãðàäèåíò_373"/><linearGradient id="_Áåçûìÿííûé_ãðàäèåíò_134" x1="252.96" y1="87.96" x2="255.13" y2="81.34" gradientUnits="userSpaceOnUse"><stop offset="0" stop-color="#ff8883"/><stop offset="1" stop-color="#e8868d"/></linearGradient><linearGradient id="_Áåçûìÿííûé_ãðàäèåíò_6" x1="254.3" y1="85.03" x2="254.3" y2="78.45" gradientUnits="userSpaceOnUse"><stop offset="0" stop-color="#ff8883"/><stop offset="1" stop-color="#ffb1a4"/></linearGradient><linearGradient id="_Áåçûìÿííûé_ãðàäèåíò_373-5" x1="111.47" y1="75.29" x2="111.47" y2="24.5" gradientTransform="translate(41.03 1.54) rotate(28.27)" xlink:href="#_Áåçûìÿííûé_ãðàäèåíò_373"/><linearGradient id="_Áåçûìÿííûé_ãðàäèåíò_373-6" x1="13.45" y1="75.47" x2="13.45" y2="24.68" gradientTransform="translate(154.97 62.61) rotate(-151.73) scale(1 -1)" xlink:href="#_Áåçûìÿííûé_ãðàäèåíò_373"/><linearGradient id="_Áåçûìÿííûé_ãðàäèåíò_373-7" x1="113.64" y1="76.72" x2="113.64" y2="74.49" gradientTransform="translate(41.03 1.54) rotate(28.27)" xlink:href="#_Áåçûìÿííûé_ãðàäèåíò_373"/><linearGradient id="_Áåçûìÿííûé_ãðàäèåíò_34" x1="113.64" y1="70.53" x2="113.64" y2="51.43" gradientTransform="translate(41.03 1.54) rotate(28.27)" gradientUnits="userSpaceOnUse"><stop offset="0" stop-color="#6a4fac"/><stop offset="1" stop-color="#513689"/></linearGradient><linearGradient id="_Áåçûìÿííûé_ãðàäèåíò_30-4" x1="124.06" y1="95.93" x2="124.06" y2="71.28" xlink:href="#_Áåçûìÿííûé_ãðàäèåíò_30"/><linearGradient id="_Áåçûìÿííûé_ãðàäèåíò_373-8" x1="310.06" y1="227.83" x2="310.06" y2="219.99" xlink:href="#_Áåçûìÿííûé_ãðàäèåíò_373"/><linearGradient id="_Áåçûìÿííûé_ãðàäèåíò_373-9" x1="318.34" y1="373.88" x2="318.34" y2="227.8" xlink:href="#_Áåçûìÿííûé_ãðàäèåíò_373"/><linearGradient id="_Áåçûìÿííûé_ãðàäèåíò_15" x1="157.68" y1="123" x2="157.68" y2="102.96" gradientTransform="translate(353.33 -45.85) rotate(169.44) scale(1 -1)" gradientUnits="userSpaceOnUse"><stop offset=".02" stop-color="#ffac8b"/><stop offset="1" stop-color="#ff9595"/></linearGradient><linearGradient id="_Áåçûìÿííûé_ãðàäèåíò_184-3" x1="228.94" y1="114.98" x2="254.03" y2="114.98" xlink:href="#_Áåçûìÿííûé_ãðàäèåíò_184"/><linearGradient id="_Áåçûìÿííûé_ãðàäèåíò_80" x1="128.55" y1="119.92" x2="128.55" y2="100.48" gradientUnits="userSpaceOnUse"><stop offset=".02" stop-color="#ff997c"/><stop offset="1" stop-color="#ff898e"/></linearGradient><linearGradient id="_Áåçûìÿííûé_ãðàäèåíò_184-4" x1="135.11" y1="108.64" x2="139.65" y2="108.64" xlink:href="#_Áåçûìÿííûé_ãðàäèåíò_184"/><linearGradient id="_Áåçûìÿííûé_ãðàäèåíò_184-5" x1="139.5" y1="134.26" x2="139.5" y2="126.23" xlink:href="#_Áåçûìÿííûé_ãðàäèåíò_184"/><linearGradient id="_Áåçûìÿííûé_ãðàäèåíò_184-6" x1="172.48" y1="199.9" x2="172.48" y2="157.15" xlink:href="#_Áåçûìÿííûé_ãðàäèåíò_184"/><linearGradient id="_Áåçûìÿííûé_ãðàäèåíò_27-4" x1="240.32" y1="262.52" x2="240.32" y2="123.94" xlink:href="#_Áåçûìÿííûé_ãðàäèåíò_27"/><linearGradient id="_Áåçûìÿííûé_ãðàäèåíò_27-5" x1="232.88" y1="194.42" x2="232.88" y2="188.26" xlink:href="#_Áåçûìÿííûé_ãðàäèåíò_27"/><linearGradient id="_Áåçûìÿííûé_ãðàäèåíò_27-6" x1="275" y1="163.26" x2="275" y2="126.75" xlink:href="#_Áåçûìÿííûé_ãðàäèåíò_27"/><linearGradient id="_Áåçûìÿííûé_ãðàäèåíò_27-7" x1="261.83" y1="172.31" x2="261.83" y2="138.42" xlink:href="#_Áåçûìÿííûé_ãðàäèåíò_27"/><linearGradient id="_Áåçûìÿííûé_ãðàäèåíò_27-8" x1="250.93" y1="237.2" x2="250.93" y2="227.83" xlink:href="#_Áåçûìÿííûé_ãðàäèåíò_27"/><linearGradient id="_Áåçûìÿííûé_ãðàäèåíò_87" x1="206.55" y1="182.76" x2="206.55" y2="164.73" gradientUnits="userSpaceOnUse"><stop offset="0" stop-color="#9d68c2"/><stop offset="1" stop-color="#90aeff"/></linearGradient><linearGradient id="_Áåçûìÿííûé_ãðàäèåíò_27-9" x1="260.75" x2="260.75" y2="266.84" xlink:href="#_Áåçûìÿííûé_ãðàäèåíò_27"/><linearGradient id="_Áåçûìÿííûé_ãðàäèåíò_27-10" x1="207.51" y1="373.85" x2="207.51" y2="279.13" xlink:href="#_Áåçûìÿííûé_ãðàäèåíò_27"/><linearGradient id="_Áåçûìÿííûé_ãðàäèåíò_27-11" x1="266.18" y1="373.85" x2="266.18" y2="294.6" xlink:href="#_Áåçûìÿííûé_ãðàäèåíò_27"/><linearGradient id="_Áåçûìÿííûé_ãðàäèåíò_27-12" x1="217.5" y1="361.69" x2="217.5" y2="351.87" xlink:href="#_Áåçûìÿííûé_ãðàäèåíò_27"/><linearGradient id="_Áåçûìÿííûé_ãðàäèåíò_27-13" x1="274.5" y1="356.61" x2="274.5" y2="349.84" xlink:href="#_Áåçûìÿííûé_ãðàäèåíò_27"/><linearGradient id="_Áåçûìÿííûé_ãðàäèåíò_25" x1="313.15" y1="218.94" x2="313.15" y2="152.55" gradientUnits="userSpaceOnUse"><stop offset="0" stop-color="#8642a0"/><stop offset="1" stop-color="#6456c0"/></linearGradient><linearGradient id="_Áåçûìÿííûé_ãðàäèåíò_184-7" x1="332.12" y1="188.93" x2="340.89" y2="188.93" xlink:href="#_Áåçûìÿííûé_ãðàäèåíò_184"/><linearGradient id="_Áåçûìÿííûé_ãðàäèåíò_33-3" x1="220.03" y1="130.5" x2="220.03" y2="130.29" xlink:href="#_Áåçûìÿííûé_ãðàäèåíò_33"/><linearGradient id="_Áåçûìÿííûé_ãðàäèåíò_264" x1="250.07" y1="245.76" x2="250.07" y2="231.51" gradientUnits="userSpaceOnUse"><stop offset="0" stop-color="#b9acf4"/><stop offset="1" stop-color="#e1d1f5"/></linearGradient><linearGradient id="_Áåçûìÿííûé_ãðàäèåíò_264-2" x1="260.4" y1="254.37" x2="260.4" y2="243.67" xlink:href="#_Áåçûìÿííûé_ãðàäèåíò_264"/><linearGradient id="_Áåçûìÿííûé_ãðàäèåíò_264-3" x1="300.42" y1="220.6" x2="300.42" y2="181.53" xlink:href="#_Áåçûìÿííûé_ãðàäèåíò_264"/><linearGradient id="_Áåçûìÿííûé_ãðàäèåíò_27-14" x1="216.27" y1="328.19" x2="216.27" y2="288.72" xlink:href="#_Áåçûìÿííûé_ãðàäèåíò_27"/><linearGradient id="_Áåçûìÿííûé_ãðàäèåíò_27-15" x1="258.67" y1="330.01" x2="258.67" y2="282.26" xlink:href="#_Áåçûìÿííûé_ãðàäèåíò_27"/><linearGradient id="_Áåçûìÿííûé_ãðàäèåíò_78" x1="255.14" y1="139.74" x2="255.14" y2="126.08" gradientUnits="userSpaceOnUse"><stop offset="0" stop-color="#3d2cb0"/><stop offset="1" stop-color="#0355c7"/></linearGradient><linearGradient id="_Áåçûìÿííûé_ãðàäèåíò_10" x1="219.71" y1="71.11" x2="216.89" y2="53.29" gradientUnits="userSpaceOnUse"><stop offset="0" stop-color="#5e3187"/><stop offset=".38" stop-color="#412271"/><stop offset=".76" stop-color="#2b1760"/><stop offset="1" stop-color="#24135a"/></linearGradient><linearGradient id="_Áåçûìÿííûé_ãðàäèåíò_27-16" x1="246.98" y1="52.49" x2="246.98" y2="36.4" xlink:href="#_Áåçûìÿííûé_ãðàäèåíò_27"/><linearGradient id="_Áåçûìÿííûé_ãðàäèåíò_27-17" x1="235.28" y1="52.49" x2="235.28" y2="41.56" xlink:href="#_Áåçûìÿííûé_ãðàäèåíò_27"/><linearGradient id="_Áåçûìÿííûé_ãðàäèåíò_27-18" x1="257.46" y1="51.61" x2="257.46" y2="44.55" xlink:href="#_Áåçûìÿííûé_ãðàäèåíò_27"/><linearGradient id="_Áåçûìÿííûé_ãðàäèåíò_17" x1="236.52" y1="86.24" x2="236.52" y2="67.59" gradientUnits="userSpaceOnUse"><stop offset="0" stop-color="#f2c7cc"/><stop offset="1" stop-color="#a177b7"/></linearGradient><linearGradient id="_Áåçûìÿííûé_ãðàäèåíò_373-10" x1="238.45" y1="84.33" x2="240.62" y2="66.26" xlink:href="#_Áåçûìÿííûé_ãðàäèåíò_373"/><linearGradient id="_Áåçûìÿííûé_ãðàäèåíò_86" x1="238.78" y1="84.29" x2="240.96" y2="66.23" gradientUnits="userSpaceOnUse"><stop offset="0" stop-color="#1c257b"/><stop offset="1" stop-color="#65459c"/></linearGradient><linearGradient id="_Áåçûìÿííûé_ãðàäèåíò_373-11" x1="258.48" y1="80.68" x2="260.31" y2="65.39" xlink:href="#_Áåçûìÿííûé_ãðàäèåíò_373"/><linearGradient id="_Áåçûìÿííûé_ãðàäèåíò_86-2" x1="258.85" y1="80.68" x2="260.69" y2="65.39" xlink:href="#_Áåçûìÿííûé_ãðàäèåíò_86"/><linearGradient id="_Áåçûìÿííûé_ãðàäèåíò_86-3" x1="251.74" y1="69.28" x2="252.04" y2="66.72" xlink:href="#_Áåçûìÿííûé_ãðàäèåíò_86"/><linearGradient id="_Áåçûìÿííûé_ãðàäèåíò_86-4" x1="222.42" y1="85.34" x2="224.05" y2="71.79" xlink:href="#_Áåçûìÿííûé_ãðàäèåíò_86"/><linearGradient id="_Áåçûìÿííûé_ãðàäèåíò_25-2" x1="224.59" y1="78.64" x2="224.59" y2="74.82" xlink:href="#_Áåçûìÿííûé_ãðàäèåíò_25"/><linearGradient id="_Áåçûìÿííûé_ãðàäèåíò_9" x1="232.98" y1="79.45" x2="232.98" y2="71.04" gradientUnits="userSpaceOnUse"><stop offset="0" stop-color="#000"/><stop offset="1" stop-color="#e1d1f5"/></linearGradient><linearGradient id="_Áåçûìÿííûé_ãðàäèåíò_30-5" x1="244.38" y1="115.4" x2="244.38" y2="100.51" xlink:href="#_Áåçûìÿííûé_ãðàäèåíò_30"/><linearGradient id="_Áåçûìÿííûé_ãðàäèåíò_29" x1="-1396.53" y1="905.1" x2="-1396.53" y2="843.82" gradientTransform="translate(1593.47 -372.36) rotate(12.61)" gradientUnits="userSpaceOnUse"><stop offset="0" stop-color="#dbccff"/><stop offset="1" stop-color="#d1bbff"/></linearGradient><linearGradient id="_Áåçûìÿííûé_ãðàäèåíò_28" x1="-1396.54" y1="907.49" x2="-1396.54" y2="846.21" gradientTransform="translate(1593.47 -372.36) rotate(12.61)" gradientUnits="userSpaceOnUse"><stop offset="0" stop-color="#b5a6e7"/><stop offset="1" stop-color="#7760bf"/></linearGradient><linearGradient id="_Áåçûìÿííûé_ãðàäèåíò_28-2" x1="-1396.53" y1="892.25" x2="-1396.53" y2="866.42" xlink:href="#_Áåçûìÿííûé_ãðàäèåíò_28"/><linearGradient id="_Áåçûìÿííûé_ãðàäèåíò_27-19" x1="-1400.2" y1="866.94" x2="-1392.87" y2="866.94" gradientTransform="translate(1593.47 -372.36) rotate(12.61)" xlink:href="#_Áåçûìÿííûé_ãðàäèåíò_27"/><linearGradient id="_Áåçûìÿííûé_ãðàäèåíò_94" x1="-1396.53" y1="868.64" x2="-1396.53" y2="864.21" gradientTransform="translate(1593.47 -372.36) rotate(12.61)" gradientUnits="userSpaceOnUse"><stop offset="0" stop-color="#fff"/><stop offset="1" stop-color="#a177b7"/></linearGradient><linearGradient id="_Áåçûìÿííûé_ãðàäèåíò_95" x1="-1392.66" y1="894.89" x2="-1392.66" y2="866.42" gradientTransform="translate(1593.47 -372.36) rotate(12.61)" gradientUnits="userSpaceOnUse"><stop offset="0" stop-color="#000"/><stop offset="1" stop-color="#fff"/></linearGradient><linearGradient id="_Áåçûìÿííûé_ãðàäèåíò_115" x1="88.45" y1="310.84" x2="98.62" y2="229.87" gradientUnits="userSpaceOnUse"><stop offset="0" stop-color="#067eff"/><stop offset="1" stop-color="#3e37a0"/></linearGradient><linearGradient id="_Áåçûìÿííûé_ãðàäèåíò_302" x1="-147.91" y1="1175.6" x2="-147.91" y2="1166.05" gradientTransform="translate(975.73 -827.79) rotate(22.82)" gradientUnits="userSpaceOnUse"><stop offset="0" stop-color="#459fff"/><stop offset="1" stop-color="#a96dff"/></linearGradient><linearGradient id="_Áåçûìÿííûé_ãðàäèåíò_97" x1="135.11" y1="49.64" x2="135.11" y2=".26" gradientUnits="userSpaceOnUse"><stop offset="0" stop-color="#d906e3"/><stop offset="1" stop-color="#ff6df9"/></linearGradient><linearGradient id="_Áåçûìÿííûé_ãðàäèåíò_97-2" x1="444.62" y1="287.26" x2="444.62" y2="225.49" xlink:href="#_Áåçûìÿííûé_ãðàäèåíò_97"/><linearGradient id="_Áåçûìÿííûé_ãðàäèåíò_206" x1="422.42" y1="79.44" x2="417.15" y2="34.27" gradientTransform="translate(58.31 -40.6) rotate(15.07)" gradientUnits="userSpaceOnUse"><stop offset="0" stop-color="#1852a0"/><stop offset="1" stop-color="#067ed3"/></linearGradient><linearGradient id="_Áåçûìÿííûé_ãðàäèåíò_206-2" x1="417.31" y1="79.61" x2="417.31" y2="33.32" xlink:href="#_Áåçûìÿííûé_ãðàäèåíò_206"/><linearGradient id="_Áåçûìÿííûé_ãðàäèåíò_107" x1="365.73" y1="156.97" x2="362.33" y2="127.75" gradientTransform="translate(171.4 -211.1) rotate(19.3) scale(1 1.57)" gradientUnits="userSpaceOnUse"><stop offset="0" stop-color="#188dc1"/><stop offset="1" stop-color="#06bfe7"/></linearGradient><linearGradient id="_Áåçûìÿííûé_ãðàäèåíò_107-2" x1="377.15" y1="66.49" x2="389.14" y2="21.96" gradientTransform="matrix(1, 0, 0, 1, 0, 0)" xlink:href="#_Áåçûìÿííûé_ãðàäèåíò_107"/><linearGradient id="_Áåçûìÿííûé_ãðàäèåíò_206-3" x1="356.53" y1="61.35" x2="365.48" y2="28.14" gradientTransform="matrix(1, 0, 0, 1, 0, 0)" xlink:href="#_Áåçûìÿííûé_ãðàäèåíò_206"/><linearGradient id="_Áåçûìÿííûé_ãðàäèåíò_107-3" x1="60.64" y1="89.92" x2="68.81" y2="59.57" gradientTransform="translate(94.85) rotate(-180) scale(1 -1)" xlink:href="#_Áåçûìÿííûé_ãðàäèåíò_107"/><linearGradient id="_Áåçûìÿííûé_ãðàäèåíò_206-4" x1="46.59" y1="86.42" x2="52.68" y2="63.78" gradientTransform="translate(94.85) rotate(-180) scale(1 -1)" xlink:href="#_Áåçûìÿííûé_ãðàäèåíò_206"/></defs><g class="cls-57"><g id="Layer_1"><g><circle class="cls-51" cx="250.56" cy="161.44" r="128.19" transform="translate(-40.77 224.45) rotate(-45)"/><path class="cls-94" d="M308.09,191.69s-2.34-.71-3.28,1.17c-.94,1.88-3.88,24.43-3.06,30.77,.83,6.34,3.17,4,3.17,4,0,0-.23,3.76-1.76,4.82h0s-.06-.05-.1-.08c-.04-.02-.08-.06-.14-.09h0c-.9-.6-4.03-2.66-6.91-4.64-3.4-2.35-5.4-4.35-5.4-4.35,0,0,.47-3.76,.47-4.81s-7.52-26.09-14.92-33.83c-6.9-7.23-.12-47.93,.83-53.43l.11-.61s5.99,1.77,8.57,3.65c2.58,1.9,11.87,24.78,12.33,36.52,.47,11.75,4.7,18.41,4.7,18.41,0,0,1.41-.86,3.77,0l1.64,2.5Z"/><path class="cls-4" d="M302.9,232.28c-.9-.6-4.03-2.66-6.91-4.64-3.4-2.35-5.4-4.35-5.4-4.35,0,0,.47-3.76,.47-4.81s-7.52-26.09-14.92-33.83c-6.9-7.23-.12-47.93,.83-53.43l.11-.61s4.87,6.11,6.98,18.26c2.12,12.16-.87,36.13-.87,36.13,0,0,4.22,19.38,14.62,19.73,0,0-8.72,12.77-5.28,19.18,.66,1.22,8.78,7.24,10.37,8.37Z"/><path class="cls-79" d="M283.02,344.46c-.2,2.14-.57,3.87-1.01,5.38h0c-.75,2.6-1.7,4.55-2.22,6.78-.82,3.52-1.76,17.24-1.76,17.24h-24.67c.94-5.08,2.11-9.01,3.52-21.71,1.35-12.14-5.91-53.97-6.53-57.55-.03-.16-.05-.24-.05-.24-6.34,26.54-21.91,57.32-23.5,59.08-1.58,1.77-4.75,3.35-4.75,3.35-1.77,3.35-5.47,17.06-5.47,17.06h-28.36c1.58-7.25,8.81-18.12,11.1-22.17,2.29-4.05,10.92-31.72,13.21-50.04,.96-7.63,1.69-15.7,2.23-22.51v-.02c.75-9.52,1.12-16.59,1.12-16.59,7.22-7.39,63.67-14.68,63.67-14.68l1.79,5.79s2.02,.44,2.29,1.85c.26,1.4-1.63,2.7-1.63,2.7,6.33,35.94,1.53,80.47,1.01,86.28Z"/><path class="cls-2" d="M215.73,265.33s17.07-2.11,27.82,3c10.75,5.11,9.78,13.92,9.78,13.92l-3.03,12.1,10.44-10.92,21.26-25.26s-3.98,2.41-9.15,3.47c0,0,7.25-4.49,8.48-8.02l-1.78-5.79-63.83,13.63v3.87Z"/><path class="cls-66" d="M300.02,217.24s-.7,7.93,4.05,11.63c0,0,9.78-5.11,14.6-13.45,4.82-8.34-18.65,1.82-18.65,1.82Z"/><path class="cls-109" d="M215.89,262.52l-.16,1.23s13.19-3.34,19.53-3.57c6.34-.23,13.07,4.81,26.57,2.35,13.51-2.47,18.53-12.21,18.53-12.21l-.8-2.47-63.67,14.68Z"/><path class="cls-7" d="M220.32,262.66s12.8-3.22,30.61-5.24c17.81-2.03,24.51-2.64,26.18-3.96,1.67-1.32,2.79-4.6,2.79-4.6l-.33-1.02-63.67,14.68-.16,1.23,4.59-1.09Z"/><path class="cls-89" d="M337.7,192.26s2.73,2.21,2.74,4.11c.02,1.9-4.51,1.02-4.51,1.02l1.76-5.12Z"/><path class="cls-59" d="M203.55,183.58l-1.93-10.57s-4.94,0-12.15,6.7c0,0-.18,3.63-2.65,8.16,0,0-8.31,4.01-12.17,9.47-3.86,5.46-5.32,6.01-9.35,2.91-1.07-.82-1.79-3.6-2.18-7.38-.57-5.72-.35-13.74,.63-20.79,.82-5.82,2.17-10.98,4.04-13.67,0,0-.18-3.59,1.59-6.41,.08,.06,.18,.11,.26,.18,.58,.36,2.06,1.16,3.61,.88,2-.35,3.67-3.41,3.67-3.41,0,0,1.14,.12,1.73,.95,0,0,7.99-4.85,13.05-13,5.05-8.15,5.87-9.15,5.87-9.15,0,0,1.29-.53,3.04-.86,1.38-.26,3.04-.38,4.59-.02,0,0,24.55,37.94-1.65,56.03Z"/><path class="cls-92" d="M255.83,130.6s-3.06-4.57-3.06-15.21l-23.82-11.63s1.2,8.21-2.84,15.32c-1.07,1.88-6.04,4.85-6.04,4.85,0,0,21.77,26.85,32.23,24.27,10.45-2.58,8.36-13.96,8.36-13.96,0,0-1.77,.69-4.82-3.65Z"/><path class="cls-41" d="M222.99,122s11.8,11.76,21.96,12.42c10.88,.71,9.09-8.34,9.09-8.34,0,0,4.92,6.9,3.51,12.33-1.41,5.43-12.16,5.7-20.44,2.09-8.28-3.61-16.21-17.65-16.21-17.65l2.09-.85Z"/><path class="cls-5" d="M203.55,183.58l-1.93-10.57s-4.94,0-12.15,6.7c0,0-.18,3.63-2.65,8.16,0,0-8.31,4.01-12.17,9.47-3.86,5.46-5.32,6.01-9.35,2.91-1.07-.82-1.79-3.6-2.18-7.38l.63-1.52v-19.28c.82-5.82,2.17-10.98,4.04-13.67,0,0-.18-3.59,1.59-6.41,.08,.06,.18,.11,.26,.18,6.84,4.45,9.25,17.56,9.72,27.31,.07-2.47,1.63-12.05,2.82-11.86,1.53,.23,4.11,17.85,4.11,17.85,3.05-15.11-6.79-33.34-7.58-34.79,8.99,12.42,10.52,26.69,10.52,26.69l13.98-10.22s8.42-8.46,5.51-23.03c-2.91-14.56-8.1-16.54-8.1-16.54,1.38-.26,3.04-.38,4.59-.02,0,0,24.55,37.94-1.65,56.03Z"/><path class="cls-107" d="M261.92,112.92s-.07,.06-.09,.1c-.33,.4-.69,.71-1.07,.9-5.29,2.71-19.38,2-27.02-4.7-2.9-2.55-5.08-5.6-6.81-8.71,0-.03-.02-.04-.02-.04-2.77-5.05-4.34-10.29-5.87-13.92-2.46-5.87-4.49-15.7-3.99-21.38,.46-5.28,1.53-9.75,8.7-15.86,7.16-6.11,24.78-6.46,29.25-.35,4.46,6.11,4.34,19.85,5.4,22.9,1.06,3.06,4.82,6.7,5.88,10.81,.97,3.8-.06,24.88-4.36,30.24Z"/><path class="cls-55" d="M261.97,74.82s-.23,3.67-3.09,3.92c-2.24,.2-3.61-3.11-3.61-3.11,0,0-.4-8.97,.74-13.39l1.07-3.52s-3.07-3.21-7.65-2.81c-4.58,.4-6.23,5.3-6.23,5.3,0,0,4.07,11.64,3.48,17.25,0,0-3.07,2.93-8.24,2.58-5.98-.41-8.99-3.97-8.99-3.97,0,0-3.26,3.81-3.89,7.05-.74,3.87,.54,16.12,.54,16.12,0,0-4.11-13.27-5.23-17.15-1.12-3.88-3.17-21.09-1.94-24.02,1.23-2.94,4.79-12.5,20.05-14.39,15.25-1.88,18.09,3.23,18.09,3.23l1.57,7.58v3.91s1.06,10.07,1.44,11.76c.38,1.69,1.89,3.67,1.89,3.67Z"/><path class="cls-68" d="M258.7,59.78s-.41-5.17-3.35-10.29c0,0-3.26,3.44-8.55,5.28,0,0,2.46-2.28,3.6-4.04-.2,.16-3.49,2.7-8.09,4.66,0,0,1.32-2.03,1.32-2.91s-3.35-4.75-7.23-4.67c-3.88,.09-11.28,2.64-14.98,9.69-3.69,7.05,.02,7.7,2.05,9.54,0,0-1.01,8.74-.79,16.05,.07,2.19,.26,4.24,.6,5.9,.06,.27,.12,.52,.19,.76l-5.29-4.84s-.05-3.23-2.08-7.86c-.22-.53-.48-1.08-.77-1.65l-.03-.05c-.11-.22-.23-.45-.35-.68-1.26-2.36-5.16-6.78-4.6-11.28,.53-4.23,8.23-7.87,10.11-10.69,0,0-5.91,1.89-8.7,4.71,0,0,.45-2.65,2.64-4.15,2.19-1.5,4.03-.57,7.21-1.85,3.19-1.27,7.5-11.98,12.6-16.03,5.11-4.05,16.83-3.25,20.62,0,.98,.84,1.7,1.85,2.24,2.89h0v.02s.02,.03,.02,.05c1.56,2.99,1.61,6.2,1.61,6.2,0,0,2.2,9.03,0,15.22Z"/><path class="cls-114" d="M171.48,157.15l-3.7,1.23s-16.92-10.03-22.38-34.44c0,0,4.23-7.32,4.41-9.96s-2.53-8.16-3.35-15.09c-.82-6.93,.82-12.22,.7-13.04-.12-.82-4.35-.94-5.52,2.47-1.17,3.41,.59,9.51,0,10.69-.59,1.17-2,3.17-2,3.17,0,0-6.23-9.4-7.87-10.34-1.64-.94-4.23,3.66-5.4,3.89-1.17,.22-5.46-5.71-9.6-9.14s-11.89-10.66-12.69-10.48c-.79,.18-1.85,1.59-1.67,3,.18,1.41,3.52,7.58,8.63,10.04,0,0,6.17,4.23,9.43,9.96,0,0-1.41,2.38-2.38,2.47-.97,.09-6.52-3.61-10.92-5.37-4.41-1.76-8.46-2.91-9.16-2.64-.7,.26-.44,1.85,0,2.91,.44,1.06,4.41,4.14,8.72,5.2,0,0,6.43,2.55,8.55,5.2,0,0-.26,2.64-.97,3.08-.7,.44-5.99-.35-9.25-.79-3.26-.44-7.04,.09-7.48,.53s-.09,1.94,2.55,2.91c2.64,.97,5.81,.35,6.34,.44,.53,.09,10.13,3.08,11.28,3.79,1.15,.7,6.17,8.21,9.78,10.5,3.61,2.29,8.81,1.13,8.81,1.13,0,0,5.79,32.48,8.6,45.4,2.82,12.92,13.63,26.31,23.02,26.9,0,0,8.46-3.29,8.93-20.67,.47-17.39-5.4-22.91-5.4-22.91Z"/><path class="cls-82" d="M273.32,193.22s-3.52,18.39,1.06,38.3c0,0,2.82,1.93,3.17,4.4,0,0,0,.02,0,.05,.33,2.46-.19,4.71-.19,4.71,0,0,1.24,1.24,2.3,2.99,.2,.33,.31,.73,.34,1.15,.17,1.82-.87,4.13-.87,4.13,0,0-2.12,5.47-24.14,7.4-22.02,1.94-39.11,6.17-39.11,6.17,0,0-1.33-4.4,1.1-7.75,0,0-3.75-3.35-3.57-4.58,.18-1.24,8.29-15.33,6.17-25.19-2.12-9.87-10.04-17.87-14.45-37.13,0,0-2.94-.99-3.12-2.4-.18-1.4,1.29-3.7,1.29-3.7l.53,1s10.04-5.76,7.34-30.07c-2.7-24.32-5.55-25.8-10.58-25.12,0,0,4.01-3.71,4.95-3.63,.94,.08,1.29,1.81,1.29,1.81,0,0,3.14,1.29,6.84,0,3.7-1.29,6.18-3.76,6.18-3.76,0,0,22.31,18.89,32.1,17.73,11.17-1.32,3.29-13.55,3.29-13.55,0,0,7.02,1.37,10.77,2.25,3.77,.88,5.17,0,5.17,0,0,0,2.23-3.32,5.17-1.1,2.94,2.21,6.57,14.43,5.4,34.17-1.17,19.73-8.46,31.72-8.46,31.72Z"/><path class="cls-104" d="M235.2,74.43s-.6,1.81-.29,3.44c.31,1.63,6.17,3.22,8.96,.75,2.78-2.47-8.67-4.19-8.67-4.19Z"/><path class="cls-95" d="M352.97,157.15c-7.28,19.5-27.26,60.97-27.26,60.97-26.31,5.05-50.98,.82-50.98,.82l-1.41-2.28c9.16-27.71,28.9-63.85,28.9-63.85,24.2-1.29,49.81,2.58,49.81,2.58l.94,1.77Z"/><path class="cls-16" d="M329.65,186.49s-1.12,13.1,1.94,19.25l12.01-26.21-5.72,1.35,.75,2.65s-4.76-.23-8.99,2.97Z"/><path class="cls-70" d="M342.75,179.53s1.91,1.52,2.29,2.76c.41,1.35,.94,4.75-3,5.81l-1.76,.47s1.29,.59,1.53,1.47c.23,.88-1.23,2.82-3.58,3.29-2.35,.47-6.28-.47-7.46-1.53-1.17-1.06-.41-2.53,1.35-2.94,0,0-2.58-.58-2.47-2.38,.12-1.79,6.05-3.73,12.33-3.15l.76-3.82Z"/><path class="cls-104" d="M255.83,76.17s.95,1.51,3.05,1.07c2.1-.44,1.91-4.09,1.53-5.37-.38-1.28-4.54,3.12-4.58,4.3Z"/><path class="cls-102" d="M347.51,170.6s3.17,2.94,3.17,4.97-4.67,4.58-12.69,5.58c0,0-.75-1.56,0-3.23,.75-1.67,4.76-4.02,8.06-4.55l1.45-2.77Z"/><path class="cls-90" d="M338.27,194.51s-5.45-.53-4.98,4.45c0,0,3.05,.43,5.28-.22,2.23-.65,1.94-2.35,1.76-2.94-.18-.59-.37-1.06-2.07-1.29Z"/><path class="cls-63" d="M229.19,70.81s.44-2.84,3.22-5.71c2-2.07,5.86-4.16,8.56-5.21,0,0,.41,.88,.41,2.53,0,0,.44-1.56,.82-3.02,0,0,.6,1.47,.43,4.33,0,0-2.37,.83-6.26,1.89-4.85,1.32-7.18,5.2-7.18,5.2Z"/><path class="cls-83" d="M255.27,74.43s0-7.43,2.16-7.84c1.81-.34,2.66,3.85,2.66,3.85l-4.82,3.99Z"/><path class="cls-83" d="M234.91,76.54s-.07-5.22,4.2-7.07c4.27-1.85,5.75,4.15,5.75,4.15l-9.95,2.92Z"/><path class="cls-84" d="M245.31,76.54c-.12,1.09-1.59,3.03-4.76,3.03-2.82,0-5.64-1.41-5.64-3.03,0-.57,.15-1.18,.41-1.8,.57-1.37,1.71-2.72,3.11-3.53,.93-.55,1.98-.85,3.06-.73,3.41,.35,3.93,4.99,3.82,6.07Z"/><path class="cls-75" d="M260.46,72.84c.05,2.42-1,4.26-2.85,4.22-.77-.02-1.25-.23-1.58-.6-.28-.32-.45-.75-.59-1.28-.07-.23-.13-.48-.19-.75,0,0,.2-2.28,.8-4.14,.14-.41,.29-.79,.46-1.12,.3-.59,.66-1.02,1.1-1.17,1.43-.52,2.81,2.42,2.85,4.85Z"/><path class="cls-106" d="M126.37,95.73s-2.65,3.58-5.84,9.33c-2.61,4.69-2.79,11.74-2.79,11.74,0,0-3.7-1.67-5.73-2.11s4.94-11.19,4.94-11.19l7.91-8.72,1.51,.95Z"/><path class="cls-105" d="M242.65,74.82c0,2.03-1.64,3.66-3.66,3.66s-3.67-1.64-3.67-3.66c0-.03,0-.07,0-.09,.57-1.37,1.71-2.72,3.11-3.53,.18-.03,.37-.05,.56-.05,2.03,0,3.66,1.65,3.66,3.67Z"/><path class="cls-85" d="M241.53,74.82c0,1.4-1.14,2.54-2.54,2.54s-2.54-1.14-2.54-2.54,1.14-2.54,2.54-2.54,2.54,1.14,2.54,2.54Z"/><path class="cls-91" d="M258.88,72.83c0,2.03-1.12,3.66-2.49,3.66-.12,0-.24,0-.35-.04-.28-.32-.45-.75-.59-1.28-.07-.23-.13-.48-.19-.75,0,0,.2-2.28,.8-4.14,.14-.41,.29-.79,.46-1.12,1.32,.1,2.36,1.7,2.36,3.66Z"/><path class="cls-62" d="M106.73,101.65s2.47,.88,3.57,.62,1.67-2.66,1.67-2.96-3.16-2.4-3.16-2.4l3.99,2.01,3.92-4.63s-2.19-2.85-5.31-4.89c0,0,3.19,1.93,4.16,1.23,.97-.7,1.37-2.03,1.37-2.69,0-.66-3.27-4.01-3.27-4.01,0,0,4.92,4.02,5.32,4.7,.41,.68-2.33,10.45-2.33,10.45l-5.31,4.8s-3.19-1.49-4.65-2.24Z"/><path class="cls-67" d="M257.85,72.83c0,1.4-.77,2.54-1.73,2.54-.23,0-.46-.07-.67-.2-.07-.23-.13-.48-.19-.75,0,0,.2-2.28,.8-4.14h.06c.96,0,1.73,1.14,1.73,2.55Z"/><path class="cls-104" d="M256.15,59.83s-1.97,10.45-.88,15.8c0,0-.63-8.04,1.81-13.76l-.92-2.03Z"/><path class="cls-97" d="M255.76,63.77s.23-3.52,.76-6.52l.35,1.23,1.02-2.58s2.65,1.61,1.03,5.06c0,0-1.7-.2-3.17,2.8Z"/><path class="cls-104" d="M245.52,89.34s.22,2.39,4.63,3.74c4.41,1.35,8.17,.52,9.54-1.01,0,0-1.42,1.7-4,2.17-2.58,.47-6.5-.14-8.34-1.56-2.03-1.56-2.44-2.94-2.44-2.94l.62-.41Z"/><path class="cls-58" d="M243.61,90.36s2.14-1.1,4.05-1.42c0,0-2.03-.38-2.97-.15-.94,.23-1.09,1.57-1.09,1.57Z"/><path class="cls-60" d="M248.13,83.85s3.05,0,5.87,.18c2.82,.18,5.41-.18,6.46-.94,0,0,.17,3.29-3.35,5.29,0,0-1.41,.53-2.88,0,0,0-1.35-1.47-3.88-1.94,0,0-2.35-.7-2.23-2.58Z"/><path class="cls-93" d="M253.71,78.49c-3.64,.51-5.58,5.36-5.58,5.36l6.87,1.17c3.11-.18,5.46-1.94,5.46-1.94,0,0-3.11-5.11-6.76-4.6Z"/><path class="cls-80" d="M250.14,86.35s.34-.32,1.47-.25,2.2,1.89,2.2,1.89c0,0-1.17-1.07-3.66-1.63Z"/><path class="cls-99" d="M124.36,77.34l-11.43,21.26s-2.95,12.31-8.42,17.16c0,0-.63,2.36,.95,5.91l24.05-44.73s-2.87-1.23-5.16,.4Z"/><path class="cls-87" d="M132.02,81.47l-11.43,21.26s-8.64,9.25-9.67,16.48c0,0-1.62,1.83-5.46,2.47l24.05-44.73s2.6,1.72,2.51,4.53Z"/><path class="cls-45" d="M105.01,120.53l1.65,.89s-1.4,1.78-1.88,1.52c-.48-.26,.23-2.41,.23-2.41Z"/><path class="cls-42" d="M104.51,115.76l6.41,3.45s.74-6.19,9.67-16.48l-7.67-4.12s-1.77,9.53-8.42,17.16Z"/><path class="cls-81" d="M133.65,93.8s-3.76-4.66-7.05-9.83c-3.29-5.17-9.22-13.51-11.25-12.63-2.03,.88-.26,6.17,1.59,9.51,1.85,3.35,4.23,4.58,5.29,6.34,1.06,1.76,4.14,8.53,4.14,8.53,0,0,4.78,1.14,7.28-1.93Z"/><path class="cls-98" d="M308.94,220.24s-1.49,7.13-.85,7.57c.65,.44,4.08-7.82,4.08-7.82l-3.24,.25Z"/><path class="cls-73" d="M287.3,373.88l-.46-.05c.02-.24,2.81-24.57,32.41-33.39,16.2-4.83,26.97-16.05,29.55-30.8,2.55-14.58-3.6-29.76-15.67-38.68-23.61-17.44-25.25-42.88-25.26-43.14l.46-.03c.01,.25,1.65,25.49,25.07,42.79,12.21,9.02,18.44,24.38,15.86,39.14-2.61,14.93-13.5,26.28-29.87,31.16-29.31,8.73-32.06,32.75-32.09,32.99Z"/><path class="cls-43" d="M222.92,88.05s-5.82-5.8-9.3-2.52c-4.13,3.89-1.21,12.47,3.36,16.17,3.97,3.22,8.24,2.36,9.12-1.47,0,0,1.21-8.65-3.18-12.19Z"/><path class="cls-104" d="M222.77,93.51s-3.43-4.02-6.25-2.98c-2.83,1.03-2.01,5.54-2.01,5.54,0,0,.03-3.3,1.87-3.79,1.83-.49,2.96,1.88,2.96,1.88,0,0-.98,.08-.95,2.86,.03,2.78,3.28,5.36,4.57,3.4,1.29-1.96-.18-6.9-.18-6.9Z"/><path class="cls-30" d="M243.2,75.04c0,.34-.28,.62-.62,.62s-.62-.28-.62-.62,.28-.62,.62-.62,.62,.28,.62,.62Z"/><path class="cls-30" d="M259.68,72.9c0,.34-.28,.62-.62,.62s-.62-.28-.62-.62,.28-.62,.62-.62,.62,.28,.62,.62Z"/><path class="cls-39" d="M228.94,109.89s9.16,17.78,25.1,16.2c0,0-1.42-6.24-1.27-10.68,0,0-7.43-.2-12.93-2.48-6.2-2.57-10.9-9.15-10.9-9.15v6.11Z"/><path class="cls-110" d="M133.65,119.68c-4.32,1.24-12.36-2.57-13.06-6.23-.7-3.66,4.72-13.57,9.57-12.95s7.17,4.19,6.17,7.4c-1.15,3.68-.21,11.07-2.67,11.78Z"/><path class="cls-54" d="M139.65,102.18s-4.82,8.02-4.38,14.62c0,0-1.26-9.57,3.23-16.33l1.15,1.7Z"/><path class="cls-56" d="M136.33,128.43s4.49-.88,6.34-2.2l-5.29,8.03s-.7-3.21-1.05-5.83Z"/><path class="cls-74" d="M167.78,158.39s3.14,3.71,5.23,18.27c2.09,14.56-3.65,23.24-3.65,23.24,0,0,5.82-1.1,7.56-18.13,1.74-17.03-5.43-24.61-5.43-24.61l-3.7,1.23Z"/><path class="cls-19" d="M279.14,248.95s-2.12,5.47-24.14,7.4c-22.02,1.94-39.11,6.17-39.11,6.17,0,0-1.33-4.4,1.1-7.75,0,0-3.75-3.35-3.57-4.58,.18-1.24,8.29-15.33,6.17-25.19-2.12-9.87-10.04-17.87-14.45-37.13,0,0-2.94-.99-3.12-2.4-.18-1.4,1.29-3.7,1.29-3.7l.53,1s10.04-5.76,7.34-30.07c-2.7-24.32-5.55-25.8-10.58-25.12,0,0,4.01-3.71,4.95-3.63,0,0,5.97,4.49,10.09,28.6,3.45,20.2,9.19,32.8,9.19,32.8,0,0,11.3,4.23,24.54,3.79,13.23-.44,11.88-2.11,23.49-1.27,0,0-25.08,2.68-34.59,4.4-9.51,1.72-18.2,5.33-18.2,5.33,0,0,8.06,18.77,6.74,31.28-.94,8.95-4.23,16.44-4.23,16.44,0,0,1.66,.65,17.83-.05,16.17-.71,37.14-9.35,37.14-9.35,0,0,0,.02,0,.05,.07,.36,.46,2.84-.19,4.71,0,0-16.15,3.52-31.07,6.34-14.92,2.82-23.72,7.4-23.72,7.4,0,0,3.05,1.71,26.28-.82,23.24-2.52,29.96-4.07,31.14-8.79v.02c.18,1.82-.86,4.13-.86,4.13Z"/><path class="cls-18" d="M216.98,193.23s2.76-3.68,9.12-4.71c6.36-1.04,16.46,1.42,22.67,1.41,0,0-17.36,3.29-23.95,4.23-6.59,.94-7.84-.92-7.84-.92Z"/><path class="cls-20" d="M271.21,128.43s6.34,11.11,7.52,34.83c0,0,1.05-18.76-5.41-36.52,0,0-1.01,.27-2.11,1.68Z"/><path class="cls-8" d="M270.33,138.42s-1.93,13.94-17,33.89c0,0,9.86-7.99,13.32-15.74,3.67-8.22,3.67-18.15,3.67-18.15Z"/><path class="cls-24" d="M232.88,227.83s4.39,7.09,13.9,8.85c9.51,1.76,22.2-1.53,22.2-1.53,0,0-12.22,2.11-21.38-.94-9.16-3.05-14.72-6.38-14.72-6.38Z"/><path class="cls-22" d="M201.61,173.01s7.13-2.94,9.88-8.28c0,0-.42,13.23-7.65,18.04,0,0-1.8-5.36-2.23-9.76Z"/><path class="cls-27" d="M250.3,294.36l3.76-13.74s6.53-9.46,17.13-13.77l-10.44,16.01-10.44,11.51Z"/><path class="cls-14" d="M226.81,353.44c-1.58,1.77-4.75,3.35-4.75,3.35-1.77,3.35-5.47,17.06-5.47,17.06h-28.36c1.58-7.25,8.81-18.12,11.1-22.17,2.29-4.05,10.92-31.72,13.21-50.04,.96-7.63,1.69-15.7,2.23-22.51,.03,.52,.97,5.84-1.77,31.72-2.82,26.55-4.74,38.02-4.51,40.36,.23,2.35,11.75,7.99,18.32,2.23Z"/><path class="cls-6" d="M282.01,349.84c-.75,2.59-1.7,4.54-2.22,6.77-.82,3.52-1.76,17.24-1.76,17.24h-24.67c.94-5.08,2.11-9.01,3.52-21.71,1.35-12.14-5.91-53.97-6.53-57.55,.82,3.85,9.93,47.23,11.99,50.91,4.46,7.99,16.59,10.69,19.66,4.33Z"/><path class="cls-11" d="M208.78,351.87s1.95,8.55,11.4,9.82l1.87-4.9s3.58-2.18,4.16-2.76c0,0-2.64,2-8.72,1.06-6.08-.94-8.72-3.22-8.72-3.22Z"/><path class="cls-3" d="M266.99,351.1s4.28,4.81,12.79,5.51c0,0,1.59-4.16,2.22-6.77,0,0-3.56,3.39-7.51,3.39-4.17,0-7.51-2.13-7.51-2.13Z"/><path class="cls-61" d="M352.97,157.15c-35.6-4.58-50.07-2.46-50.07-2.46-12.74,21.8-28.17,64.25-28.17,64.25l-1.41-2.28c9.16-27.71,28.9-63.85,28.9-63.85,24.2-1.29,49.81,2.58,49.81,2.58l.94,1.77Z"/><path class="cls-108" d="M340.28,188.58s-4.64,.53-8.16,.29c0,0,4.85,.88,8.77,.06l-.6-.35Z"/><path class="cls-12" d="M219.99,130.29c.02,.07,.05,.14,.07,.21-.04-.1-.07-.18-.07-.21Z"/><path class="cls-49" d="M222.58,245.3s8.6,.28,26.29-2.87c18.82-3.35,25.51-10.92,25.51-10.92,0,0,2.7,1.76,3.17,4.4,0,0-15.96,6.74-28.68,8.39-12.72,1.65-23.71,1.77-26.29,1Z"/><path class="cls-50" d="M240.91,254.37s10.66-1.71,22.55-4.62c11.89-2.91,16.21-6.08,16.21-6.08,0,0,1.96,3.82-5.85,6.03-7.81,2.21-32.91,4.67-32.91,4.67Z"/><path class="cls-46" d="M289.17,182.81l38.34,31.56-1.79,3.75s-24.2,4.99-50.98,.82l-1.41-2.28s8.65-23.13,14.45-35.13l1.39,1.28Z"/><path class="cls-15" d="M215.73,288.72s-2.4,19,1.77,39.47l-1.77-39.47Z"/><path class="cls-13" d="M255.18,293.18s6.53,25.84,11.81,36.83c0,0-10.4-14.27-14.18-23.91l-2.45-11.5,2.98-12.34,1.84,10.92Z"/><path class="cls-53" d="M255.27,126.18l-1.23-.1s2.54,4.07,3.07,7.42c.53,3.35-1.69,5.5-5.13,6.24,0,0,5.54-.32,6.25-4.14,.7-3.82-2.96-9.42-2.96-9.42Z"/><path class="cls-71" d="M215.79,56.84s-5.91,3.4-6.08,7.9c-.18,4.49,3.62,7.39,3.62,7.39l.52-2.43s2.91,.47,5.64-.53c2.73-1,3.99-2.12,3.99-2.12,0,0-3.47-2.04-3.55-5.44-.08-3.4,5.92-9.52,5.92-9.52l-5.38,.63s-3.43,2.74-4.67,4.12Z"/><path class="cls-26" d="M243.64,52.49s5.41-5.87,6.5-9.98c1.09-4.11-3.25-6.11-3.25-6.11,0,0,1.53,1.71,1.24,5.64-.3,3.93-4.49,10.45-4.49,10.45Z"/><path class="cls-28" d="M226.82,51.34s5.5-9.66,10.67-9.78c5.17-.12,6.67,9.4,6.15,10.92,0,0-.15-3.77-6.57-3.95-6.42-.19-10.25,2.81-10.25,2.81Z"/><path class="cls-9" d="M255.36,49.49s2.83-3.62,3.35-4.94c0,0,.71,3.18,.84,5.47,0,0,.41,1.06-3.11,1.59l-1.08-2.12Z"/><path class="cls-10" d="M218.19,84.92l9.44-7.86s.36,7.46,6.88,8.78c6.52,1.32,11.38-.81,13.16-4.93,1.78-4.12,2.11-9.84,2.11-9.84,0,0,.43-.67,2.52-.64s2.97,.84,2.97,.84v-3.55s-4.32-.67-6.19,.85c0,0,.64,11.44-3.43,14.27-4.08,2.83-7.54,3.2-11.9,.98-3.38-1.71-4.79-7.16-3.75-10.31l-3.17,.64-9.04,10.62,.41,.14Z"/><path class="cls-113" d="M248.32,67.82c-1.78-2.37-14.19-.13-17.67,3.72-3.48,3.85,.98,11.48,6.5,12.56,6.46,1.27,9.49-.81,11.28-3.54,1.89-2.88,1.51-10.6-.11-12.74Zm-.08,11.42c-1.45,4.01-6.79,5.37-11.29,4.17-2.77-.74-7.5-5.04-6.44-9.88,1.06-4.85,15.41-6.94,17.16-5.09,1.41,1.49,2.03,6.79,.58,10.8Z"/><path class="cls-29" d="M248.65,67.78c-1.78-2.37-14.19-.13-17.67,3.72-3.48,3.85,.98,11.48,6.5,12.56,6.46,1.27,9.49-.81,11.28-3.54,1.89-2.88,1.51-10.6-.11-12.74Zm-.08,11.42c-1.45,4.01-6.79,5.37-11.29,4.17-2.77-.74-7.5-5.04-6.44-9.88,1.06-4.85,15.41-6.94,17.16-5.09,1.41,1.49,2.03,6.79,.58,10.8Z"/><path class="cls-44" d="M263.98,66.57c-1.06-1.74-7.09-1.08-8.6,0-.98,.7-.45,9.15,2.23,12.71,1.69,2.24,4.09,1.71,4.81,1.2,2-1.41,2.61-12.17,1.56-13.91Zm-.85,11.53c-.83,2.29-2.88,2.83-4.89,.96-1.81-1.68-3.41-9.88-2.23-11.65,.98-1.48,5.91-1.93,7.32-.38,1.41,1.55,.77,8.41-.19,11.07Z"/><path class="cls-76" d="M264.35,66.57c-1.06-1.74-7.09-1.08-8.6,0-.98,.7-.45,9.15,2.23,12.71,1.69,2.24,4.09,1.71,4.81,1.2,2-1.41,2.61-12.17,1.56-13.91Zm-.85,11.53c-.83,2.29-2.88,2.83-4.89,.96-1.81-1.68-3.41-9.88-2.23-11.65,.98-1.48,5.91-1.93,7.32-.38,1.41,1.55,.77,8.41-.19,11.07Z"/><path class="cls-78" d="M249.26,68.98s2.71-2.02,6.06-.57c0,0-.07-.72,.15-1.23,0,0-2.38-.71-6.99,.41,0,0,.63,.97,.79,1.4Z"/><path class="cls-112" d="M229.98,72.5l-3.17,1.02-10.32,11.02s.35-.1,1.28,.24l9.24-9.78s1.52-.8,2.6-.58c0,0-.05-1.27,.37-1.92Z"/><polygon class="cls-88" points="225.6 74.82 225.7 76.4 223.58 78.64 223.48 77.09 225.6 74.82"/><path class="cls-48" d="M249.28,67.4l.54,.57s1.6-.36,3.13-.37c1.53-.01,1.91,.17,1.91,.17l.4-.64s-2.71-.59-5.98,.27Z"/><path class="cls-48" d="M256.67,66.13l.33,.44s2.15-1.27,5.65-.44l-.09-.49s-2.93-.53-5.89,.49Z"/><path class="cls-48" d="M243.2,67.45l.17-.5s3.96-.41,5.03,.68,1.38,3.44,1.38,3.44l-.49,.07s-.38-2.48-1.57-3.21c-1.22-.75-4.51-.49-4.51-.49Z"/><path class="cls-47" d="M234.5,81.85s2.08,2.6,6.84,2.2c4.76-.4,6.79-3.89,6.79-3.89,0,0-2.25,3.52-6.9,3.67-4.65,.15-6.73-1.98-6.73-1.98Z"/><path class="cls-47" d="M258.61,79.06s1.29,1.45,2.75,1.25c1.45-.2,2-1.85,2-1.85,0,0-.83,1.69-2.37,1.6s-2.37-.99-2.37-.99Z"/><path class="cls-69" d="M239.56,83.79s.37,.28,1.4,.3c1.03,.02,2.11-.51,2.11-.51,0,0-2.03,.34-3.51,.21Z"/><path class="cls-69" d="M259.71,79.89s1.14,.41,2.06,0c.91-.41,1.11-.75,1.11-.75,0,0-.03,1.05-1.16,1.18s-2.01-.44-2.01-.44Z"/><path class="cls-47" d="M235.92,83.01s-.18-3.81,4.34-6.47c4.52-2.66,8.68-.4,8.68-.4,0,0,.14,3.32-2.29,5.6s-7.73,2.41-10.74,1.27Z"/><path class="cls-47" d="M257.67,77.6s3.04-3.88,6.47-5.1c0,0-.07,5.25-1.26,6.64-1.19,1.39-3.45,1.85-5.2-1.54Z"/><path class="cls-77" d="M230.97,74.71s.48,3.09,2.25,4.75l1.78-.42s-1.38-5.33-1.41-7.99c0,0-2.26,1.35-2.61,3.67Z"/><path class="cls-86" d="M261.83,113.02c-.33,.4-.69,.71-1.07,.9-5.29,2.71-19.38,2-27.02-4.7-2.9-2.55-5.08-5.6-6.81-8.71,.37,.47,4.27,7.15,13.5,10.83,9.65,3.84,20.71,2.65,21.39,1.68Z"/><path class="cls-96" d="M54.68,159.36c.85-6.48-2.32-11.86-2.32-11.86l-2.18-.49-1.44,9.33c-2.42,2.14-5.21,2.19-5.21,2.19h0s-2.5-1.25-3.78-4.22l2.67-9.05-2.18-.49s-5.17,3.52-7.15,9.74c0,0-.53,2.1-.52,2.33,.06,1.23,1.06,3.36,4.41,5.63l-5.21,29.59c-2.13,.87-3.82,2.73-4.36,5.15-.88,3.93,1.59,7.83,5.53,8.71,3.93,.88,7.83-1.59,8.71-5.53,.54-2.42-.19-4.82-1.75-6.52l7.89-28.97c3.92-.61,5.76-2.05,6.39-3.22,.13-.25,.52-2.33,.52-2.33Zm-18.95,43.34l-3.98-.89-1.22-3.89,2.76-3,3.98,.89,1.22,3.89-2.76,3Z"/><path class="cls-103" d="M54.16,161.69c.85-6.48-2.32-11.86-2.32-11.86l-2.18-.49-1.44,9.33c-2.42,2.14-5.21,2.19-5.21,2.19h0s-2.5-1.25-3.78-4.22l2.67-9.05-2.18-.49s-5.17,3.52-7.15,9.74c0,0-.09,5.27,3.89,7.97l-5.21,29.59c-2.13,.87-3.82,2.73-4.36,5.15-.88,3.93,1.59,7.83,5.53,8.71,3.93,.88,7.83-1.59,8.71-5.53,.54-2.42-.19-4.82-1.75-6.52l7.89-28.97c4.74-.74,6.91-5.55,6.91-5.55Zm-18.95,43.34l-3.98-.89-1.22-3.89,2.76-3,3.98,.89,1.22,3.89-2.76,3Z"/><rect class="cls-100" x="39.87" y="145.06" width="2.39" height="2.23" transform="translate(-110.55 154.33) rotate(-77.39)"/><rect class="cls-100" x="49.82" y="147.3" width="2.39" height="2.23" transform="translate(-104.96 165.79) rotate(-77.39)"/><rect class="cls-100" x="32.29" y="201.38" width="2.39" height="4.08" transform="translate(-172.33 191.67) rotate(-77.39)"/><path class="cls-111" d="M37.61,168.2l-4.31,24.02c2.26,1.92,4.9,1.1,4.9,1.1l6.56-23.52c-3.17-2.64-7.15-1.6-7.15-1.6Zm-.21,24.73c-.44,.02-1.06,.02-1.74-.14-.54-.12-1.05-.32-1.51-.58l4.02-23.68c.74-.05,1.93-.05,3.23,.25,.98,.22,1.88,.57,2.71,1.05l-6.71,23.1Z"/><path class="cls-100" d="M37.4,192.92l.8,.39s-2.42,1.03-4.9-1.1h.85s1.38,.82,3.25,.7Z"/><path class="cls-17" d="M37.61,168.2l.56,.33s2.74-.41,5.94,1.3l.64-.03s-.98-1.08-3.39-1.62c-2.41-.54-3.76,.02-3.76,.02Z"/><path class="cls-25" d="M36.45,164.81s4.88,2.55,10.8,2.43l-1.01,3.71s-.31-2.32-4.1-3.37c-4.44-1.23-6.35,1.63-6.35,1.63l.66-4.4Z"/><path class="cls-52" d="M46.24,170.94c-.37-1.23-1.29-1.97-1.29-1.97l-7.46,27.51,1.87-.27,6.88-25.27Z"/><path class="cls-30" d="M46.24,170.94s-3.06,2.09-1.47,5.41l1.47-5.41Z"/><path class="cls-101" d="M131.13,306.87H57.28c-3.29,0-5.97-2.62-6.05-5.91l-1.38-60.57c-.08-3.39,2.65-6.19,6.05-6.19h76.88c3.41,0,6.14,2.81,6.05,6.21l-1.66,60.57c-.09,3.27-2.77,5.88-6.05,5.88Z"/><path class="cls-72" d="M131.13,307.06H57.28c-3.36,0-6.16-2.74-6.24-6.1l-1.38-60.57c-.04-1.69,.59-3.29,1.78-4.5,1.18-1.21,2.77-1.88,4.46-1.88h76.88c1.7,0,3.29,.67,4.47,1.89,1.18,1.22,1.81,2.82,1.77,4.52l-1.66,60.57c-.09,3.4-2.83,6.07-6.24,6.07ZM55.9,234.4c-1.59,0-3.08,.63-4.19,1.76-1.11,1.14-1.7,2.64-1.67,4.23l1.38,60.57c.07,3.16,2.7,5.72,5.86,5.72h73.85c3.2,0,5.77-2.5,5.85-5.7l1.66-60.57c.04-1.59-.54-3.1-1.66-4.24-1.11-1.14-2.6-1.77-4.2-1.77H55.9Z"/><rect class="cls-30" x="69.76" y="246.6" width="38.84" height="1.66"/><rect class="cls-30" x="69.76" y="250.64" width="19.42" height="1.66"/><rect class="cls-30" x="69.76" y="254.02" width="19.42" height="1.66"/><rect class="cls-30" x="91.36" y="254.02" width="15.45" height="1.66"/><rect class="cls-30" x="69.76" y="257.39" width="31.31" height="1.66"/><rect class="cls-30" x="69.76" y="260.77" width="11.14" height="1.66"/><rect class="cls-30" x="83.2" y="270.9" width="19.27" height="1.66"/><rect class="cls-30" x="69.76" y="264.15" width="34.92" height="1.66"/><rect class="cls-30" x="69.76" y="267.52" width="26.87" height="1.66"/><rect class="cls-30" x="69.76" y="270.9" width="12.64" height="1.66"/><rect class="cls-30" x="69.76" y="274.28" width="19.42" height="1.66"/><rect class="cls-30" x="69.76" y="277.65" width="5.57" height="1.66"/><rect class="cls-30" x="77.62" y="277.65" width="20.21" height="1.66"/><rect class="cls-30" x="83.2" y="280.93" width="19.27" height="1.66"/><rect class="cls-30" x="69.76" y="280.93" width="12.64" height="1.66"/><rect class="cls-30" x="69.76" y="284.31" width="19.42" height="1.66"/><rect class="cls-30" x="69.76" y="287.68" width="5.57" height="1.66"/><rect class="cls-30" x="77.62" y="287.68" width="20.21" height="1.66"/><path class="cls-40" d="M389.74,195.97c-1.02,2.43-3.82,3.57-6.25,2.55-2.43-1.02-3.57-3.82-2.55-6.25,1.02-2.43,3.82-3.57,6.25-2.55s3.57,3.82,2.55,6.25Z"/><path class="cls-64" d="M160.98,49.64h-51.64c-4.16,0-7.56-3.29-7.7-7.45l-1.15-33.96c-.15-4.36,3.34-7.97,7.7-7.97h53.82c4.35,0,7.84,3.6,7.7,7.94l-1.04,33.96c-.13,4.16-3.54,7.47-7.7,7.47Z"/><path class="cls-115" d="M160.98,49.91h-51.64c-4.32,0-7.82-3.38-7.97-7.7l-1.15-33.96c-.07-2.18,.72-4.24,2.24-5.81,1.52-1.57,3.55-2.43,5.73-2.43h53.82c2.18,0,4.21,.86,5.72,2.42,1.51,1.56,2.31,3.62,2.25,5.79l-1.04,33.96c-.13,4.33-3.63,7.73-7.97,7.73ZM108.2,.53c-2.04,0-3.94,.81-5.35,2.27s-2.16,3.39-2.09,5.42l1.15,33.96c.14,4.03,3.4,7.19,7.44,7.19h51.64c4.05,0,7.31-3.17,7.44-7.22l1.04-33.96c.06-2.03-.68-3.95-2.1-5.41-1.41-1.46-3.31-2.26-5.34-2.26h-53.82Z"/><polygon class="cls-30" points="123.11 12.47 110.38 27.22 123.34 38.23 123.34 32.55 115.84 26.06 122.81 18.18 123.11 12.47"/><polygon class="cls-30" points="145.49 13.13 158.22 27.89 145.26 38.89 145.26 33.21 152.76 26.72 144.41 17.89 145.49 13.13"/><polygon class="cls-30" points="125.88 38.23 136.98 13.79 142.19 13.79 129.63 38.23 125.88 38.23"/><path class="cls-65" d="M476.99,287.26h-64.6c-5.2,0-9.46-4.12-9.64-9.32l-1.43-42.49c-.18-5.45,4.18-9.97,9.64-9.97h67.33c5.44,0,9.8,4.5,9.64,9.94l-1.3,42.49c-.16,5.21-4.43,9.35-9.64,9.35Z"/><path class="cls-115" d="M476.98,287.52h-64.6c-5.37,0-9.72-4.2-9.9-9.57l-1.43-42.49c-.09-2.71,.9-5.27,2.78-7.22,1.88-1.95,4.41-3.02,7.12-3.02h67.33c2.7,0,5.23,1.07,7.11,3.01,1.88,1.94,2.87,4.5,2.79,7.2l-1.3,42.49c-.16,5.38-4.51,9.6-9.9,9.6Zm-66.03-61.77c-2.56,0-4.96,1.02-6.74,2.86-1.78,1.84-2.72,4.27-2.63,6.83l1.43,42.49c.17,5.08,4.29,9.06,9.37,9.06h64.6c5.1,0,9.22-3.99,9.37-9.09l1.3-42.49c.08-2.56-.86-4.98-2.64-6.82-1.78-1.84-4.17-2.85-6.73-2.85h-67.33Z"/><rect class="cls-21" x="414.26" y="232.33" width="59.16" height="35.14"/><polygon class="cls-30" points="438.6 241.04 438.6 258.74 453.72 249.08 438.6 241.04"/><rect class="cls-21" x="414.26" y="273.94" width="59.16" height="3.21"/><rect class="cls-30" x="414.26" y="273.94" width="15.32" height="3.21"/><path class="cls-38" d="M451.99,114.45l-3.09,8.83c1.7-4.88,4.16-8.05,3.09-8.83Zm-3.09,8.83l-3.09,8.83c.78-.23,1.38-3.95,3.09-8.83Zm3.09-8.83l-3.09,8.83c1.7-4.88,4.16-8.05,3.09-8.83Zm-3.09,8.83l-3.09,8.83c.78-.23,1.38-3.95,3.09-8.83Zm8.91,7.65l3,1.7,3.24-8.84-3.47-.58c.06-.33,.12-.66,.17-.98,.25-1.52,.34-3,.29-4.4l3.63-2.28-1.65-7.78-3.48,3.33c-.48-1-1.08-1.87-1.78-2.59-.19-.21-.39-.41-.6-.59l2.13-4.91-5.66-1.84h0l-1.36,4.95c-1.27,0-2.55,.32-3.83,.9l-.62-4.68-6.23,4.72,1.44,4.15c-1.12,1.28-2.15,2.76-3.04,4.43l-3-1.69-3.24,8.84,3.47,.58c-.37,1.86-.51,3.67-.46,5.39l-3.63,2.28,1.65,7.78,3.48-3.33c.62,1.27,1.42,2.35,2.38,3.17l-2.13,4.92,5.57,2.17,.86-3.14,.59-2.14c1.27,0,2.56-.32,3.84-.89l.62,4.68,6.23-4.72-1.44-4.15c.88-1.01,1.71-2.14,2.45-3.39,.21-.34,.4-.69,.59-1.04Zm-8.91-7.65c-1.71,4.88,0,9.91-3.09,8.83-3.1-1.09-4.23-5.92-2.52-10.8,1.71-4.88,5.61-7.95,8.7-6.87,3.1,1.08-1.38,3.95-3.09,8.83Zm3.09-8.83l-3.09,8.83c1.7-4.88,4.16-8.05,3.09-8.83Zm-3.09,8.83l-3.09,8.83c.78-.23,1.38-3.95,3.09-8.83Z"/><path class="cls-32" d="M460.82,132.63l3.24-8.84-3.3-1.56-.53-.25,.35-4.87,3.67-1.79-1.21-7.56-7.98-2.6,1.47,3.51,2.78-5.67-5.66-1.84-2.32-.76-5.58-2.17-1.04,3.8-4.85-2.31-6.23,4.72,1.89,5.1-5.83,16.15-2.88,10.49,5.53,.61-1.8,4.16,5.58,2.17,7.98,2.6-1.28-2.56-.81-1.53,2.95,.96,5.04,1.64,6.23-4.72-3.85-4.54,4.87-3,3.59,.66Zm-17.53-11.32c1.71-4.88,5.61-7.95,8.7-6.87l-3.09,8.83-3.09,8.83c-3.1-1.09-4.23-5.92-2.52-10.8Z"/><path class="cls-36" d="M452.83,130.03l3.24-8.84-3.47-.58c.37-1.86,.51-3.67,.46-5.38l3.63-2.28-1.65-7.79-3.48,3.32c-.62-1.27-1.42-2.35-2.38-3.18l2.13-4.91-5.58-2.17-1.44,5.28c-1.26,0-2.56,.32-3.83,.89l-.62-4.67-6.23,4.71,1.43,4.15c-1.12,1.28-2.15,2.77-3.04,4.43l-3-1.69-3.24,8.84,3.47,.58c-.37,1.86-.51,3.67-.46,5.38l-3.63,2.28,1.65,7.79,3.48-3.32c.62,1.27,1.42,2.35,2.38,3.18l-2.13,4.91,5.58,2.17,1.44-5.28c1.26,0,2.56-.32,3.83-.89l.62,4.67,6.23-4.71-1.43-4.15c1.12-1.28,2.15-2.77,3.04-4.43l3,1.69Zm-15.01-.52c-3.1-1.09-4.23-5.92-2.52-10.8,1.71-4.88,5.61-7.95,8.71-6.87,3.1,1.09,4.23,5.92,2.52,10.8-1.71,4.88-5.61,7.95-8.71,6.87Z"/><polygon class="cls-23" points="464.67 115.55 456.69 112.95 453.06 115.23 461.05 117.83 464.67 115.55"/><polygon class="cls-34" points="456.22 139.51 448.23 136.91 446.79 132.76 454.78 135.37 456.22 139.51"/><polygon class="cls-23" points="449.18 105.32 453.55 106.58 455.04 105.17 457.94 106.11 459.29 103 451.31 100.4 449.18 105.32"/><path class="cls-23" d="M437.54,137.84l4.18,1.74-.35-2.63s-2.25,1.19-3.83,.89Z"/><path class="cls-23" d="M438.19,113.9l7.04,3.72s1.02-1.37,1.81-1.92c0,0-1.84-7.76-8.85-1.81Z"/><polygon class="cls-33" points="362.21 62.47 360.68 26.85 407.31 26.85 405.4 62.36 362.21 62.47"/><polygon class="cls-37" points="360.68 26.85 359.28 28.95 360.68 62.47 362.21 62.47 360.68 26.85"/><polygon class="cls-30" points="376.16 33.96 368.84 33.18 369.85 57.58 376.16 56.96 376.16 54.44 372.5 54.52 372.09 35.7 376.16 35.82 376.16 33.96"/><polygon class="cls-30" points="391.15 33.96 398.47 33.18 397.46 57.58 391.15 56.96 391.15 54.44 394.81 54.52 395.23 35.7 391.15 35.82 391.15 33.96"/><polygon class="cls-31" points="44.39 87.18 45.43 62.9 13.64 62.9 14.95 87.11 44.39 87.18"/><polygon class="cls-35" points="45.43 62.9 46.38 64.33 45.43 87.18 44.39 87.18 45.43 62.9"/><path class="cls-30" d="M33.19,67.79s3.49-.13,4.1,.15c.62,.28-.16,5.96-.16,5.96l1.39,1.28-1.3,1.26s.07,5.76-.75,6.24c-.82,.48-3.62,0-3.62,0v-1.44s2.29,.14,2.67-.16,.34-5.34,.34-5.34l.62-.67-.62-.73s.11-3.59,.05-4.57c-.05-.66-2.71-.69-2.71-.69v-1.29Z"/><path class="cls-30" d="M25.2,67.79s-3.49-.13-4.1,.15,.16,5.96,.16,5.96l-1.39,1.28,1.3,1.26s-.07,5.76,.75,6.24c.82,.48,3.62,0,3.62,0v-1.44s-2.29,.14-2.67-.16c-.38-.31-.34-5.34-.34-5.34l-.62-.67,.62-.73s-.11-3.59-.05-4.57c.05-.66,2.71-.69,2.71-.69v-1.29Z"/><polygon class="cls-1" points="7.35 187.58 0 178.43 .41 178.1 7.76 187.25 7.35 187.58"/><rect class="cls-1" x="404.23" y="176.66" width=".43" height="8.71" transform="translate(-22.85 298.34) rotate(-39.47)"/><polygon class="cls-1" points="320.79 20.67 320.84 20.22 334.44 19.15 334.4 19.6 320.79 20.67"/></g></g></g></svg>