<?xml version="1.0" encoding="UTF-8"?><svg xmlns="http://www.w3.org/2000/svg" xmlns:xlink="http://www.w3.org/1999/xlink" viewBox="0 0 1402.1 1724.82"><defs><style>.cls-1{fill:#744ca2;}.cls-2{fill:url(#_Áåçûìÿííûé_ãðàäèåíò_27);}.cls-2,.cls-3,.cls-4,.cls-5,.cls-6,.cls-7,.cls-8,.cls-9,.cls-10,.cls-11,.cls-12,.cls-13,.cls-14,.cls-15,.cls-16,.cls-17{mix-blend-mode:multiply;}.cls-2,.cls-5,.cls-6,.cls-7,.cls-9,.cls-11,.cls-12,.cls-13,.cls-17{opacity:.62;}.cls-18{fill:url(#_Áåçûìÿííûé_ãðàäèåíò_86);}.cls-3{fill:url(#_Áåçûìÿííûé_ãðàäèåíò_33);}.cls-3,.cls-4,.cls-8{opacity:.83;}.cls-19{fill:#fff;}.cls-4{fill:url(#_Áåçûìÿííûé_ãðàäèåíò_33-2);}.cls-20{fill:url(#_Áåçûìÿííûé_ãðàäèåíò_184-3);}.cls-21{fill:url(#_Áåçûìÿííûé_ãðàäèåíò_302);}.cls-22{fill:#64342f;}.cls-23{fill:url(#_Áåçûìÿííûé_ãðàäèåíò_12-2);}.cls-5{fill:url(#_Áåçûìÿííûé_ãðàäèåíò_27-2);}.cls-24{fill:url(#_Áåçûìÿííûé_ãðàäèåíò_34);}.cls-25{fill:url(#_Áåçûìÿííûé_ãðàäèåíò_15);}.cls-26{fill:url(#_Áåçûìÿííûé_ãðàäèåíò_373-7);}.cls-27{fill:url(#_Áåçûìÿííûé_ãðàäèåíò_78);}.cls-28{fill:url(#_Áåçûìÿííûé_ãðàäèåíò_184-4);}.cls-29{fill:url(#_Áåçûìÿííûé_ãðàäèåíò_30-3);}.cls-30{fill:url(#_Áåçûìÿííûé_ãðàäèåíò_184-5);}.cls-31{isolation:isolate;}.cls-32{fill:#e37e7f;}.cls-6{fill:url(#_Áåçûìÿííûé_ãðàäèåíò_27-7);}.cls-33{fill:url(#_Áåçûìÿííûé_ãðàäèåíò_206-2);}.cls-33,.cls-34,.cls-35,.cls-36,.cls-37,.cls-16,.cls-38{fill-rule:evenodd;}.cls-39{fill:url(#_Áåçûìÿííûé_ãðàäèåíò_96-2);}.cls-40{fill:url(#_Áåçûìÿííûé_ãðàäèåíò_134);}.cls-34{fill:url(#_Áåçûìÿííûé_ãðàäèåíò_107-2);}.cls-41{fill:url(#_Áåçûìÿííûé_ãðàäèåíò_25);}.cls-42{fill:url(#_Áåçûìÿííûé_ãðàäèåíò_184-2);}.cls-43{fill:url(#_Áåçûìÿííûé_ãðàäèåíò_373-3);}.cls-44{fill:url(#_Áåçûìÿííûé_ãðàäèåíò_97);}.cls-44,.cls-45{opacity:.73;}.cls-7{fill:url(#_Áåçûìÿííûé_ãðàäèåíò_17);}.cls-46{fill:url(#_Áåçûìÿííûé_ãðàäèåíò_71);}.cls-47{fill:url(#_Áåçûìÿííûé_ãðàäèåíò_2-2);}.cls-48{fill:url(#_Áåçûìÿííûé_ãðàäèåíò_11);}.cls-49,.cls-35,.cls-50,.cls-51{mix-blend-mode:soft-light;}.cls-49,.cls-52{fill:#d7d9ff;}.cls-53{fill:url(#_Áåçûìÿííûé_ãðàäèåíò_71-4);}.cls-54{fill:url(#_Áåçûìÿííûé_ãðàäèåíò_10);}.cls-55{fill:#473da2;}.cls-8{fill:url(#_Áåçûìÿííûé_ãðàäèåíò_33-3);}.cls-56{fill:#e0f3ff;}.cls-56,.cls-57,.cls-51,.cls-15,.cls-16{opacity:.5;}.cls-35{fill:#b3d9ff;}.cls-50{fill:#d7e2ff;}.cls-58{fill:#3f1d1b;}.cls-59{fill:#222a4e;}.cls-60{fill:url(#_Áåçûìÿííûé_ãðàäèåíò_373-9);}.cls-61{fill:url(#_Áåçûìÿííûé_ãðàäèåíò_184-6);}.cls-62{fill:url(#_Áåçûìÿííûé_ãðàäèåíò_117-2);}.cls-63{fill:url(#_Áåçûìÿííûé_ãðàäèåíò_86-2);}.cls-57{fill:url(#_Áåçûìÿííûé_ãðàäèåíò_95);}.cls-57,.cls-64{mix-blend-mode:screen;}.cls-65{fill:url(#_Áåçûìÿííûé_ãðàäèåíò_86-3);}.cls-66{fill:url(#_Áåçûìÿííûé_ãðàäèåíò_373);}.cls-67{fill:#9f4a8b;}.cls-64{fill:url(#_Áåçûìÿííûé_ãðàäèåíò_9);}.cls-68{fill:url(#_Áåçûìÿííûé_ãðàäèåíò_30-4);}.cls-36{fill:url(#_Áåçûìÿííûé_ãðàäèåíò_107);}.cls-69{fill:url(#_Áåçûìÿííûé_ãðàäèåíò_96-3);}.cls-37{fill:url(#_Áåçûìÿííûé_ãðàäèåíò_206-3);}.cls-9{fill:url(#_Áåçûìÿííûé_ãðàäèåíò_27-3);}.cls-70{fill:#77485e;}.cls-10{fill:url(#_Áåçûìÿííûé_ãðàäèåíò_27-8);opacity:.84;}.cls-71{fill:url(#_Áåçûìÿííûé_ãðàäèåíò_117);}.cls-72{fill:url(#_Áåçûìÿííûé_ãðàäèåíò_2);}.cls-73{fill:url(#_Áåçûìÿííûé_ãðàäèåíò_30-5);}.cls-11{fill:url(#_Áåçûìÿííûé_ãðàäèåíò_27-5);}.cls-12{fill:url(#_Áåçûìÿííûé_ãðàäèåíò_27-4);}.cls-74{fill:url(#_Áåçûìÿííûé_ãðàäèåíò_373-6);}.cls-75{fill:url(#_Áåçûìÿííûé_ãðàäèåíò_25-2);}.cls-13{fill:url(#_Áåçûìÿííûé_ãðàäèåíò_27-6);}.cls-76{fill:url(#_Áåçûìÿííûé_ãðàäèåíò_30);}.cls-77{fill:url(#_Áåçûìÿííûé_ãðàäèåíò_71-6);}.cls-14{fill:#d1d4fb;}.cls-78{fill:url(#_Áåçûìÿííûé_ãðàäèåíò_3-2);}.cls-79{fill:url(#_Áåçûìÿííûé_ãðàäèåíò_30-2);}.cls-80{fill:url(#_Áåçûìÿííûé_ãðàäèåíò_6);}.cls-81{fill:url(#_Áåçûìÿííûé_ãðàäèåíò_96);}.cls-82{fill:url(#_Áåçûìÿííûé_ãðàäèåíò_373-2);}.cls-83{fill:url(#_Áåçûìÿííûé_ãðàäèåíò_29);}.cls-84{fill:url(#_Áåçûìÿííûé_ãðàäèåíò_373-4);}.cls-51{fill:url(#_Áåçûìÿííûé_ãðàäèåíò_264);}.cls-85{fill:url(#_Áåçûìÿííûé_ãðàäèåíò_373-8);}.cls-15{fill:url(#_Áåçûìÿííûé_ãðàäèåíò_87);}.cls-86{fill:url(#_Áåçûìÿííûé_ãðàäèåíò_373-5);}.cls-87{fill:#e5e2ff;}.cls-88{fill:url(#_Áåçûìÿííûé_ãðàäèåíò_115);opacity:.81;}.cls-89{fill:url(#_Áåçûìÿííûé_ãðàäèåíò_71-5);}.cls-90{fill:url(#_Áåçûìÿííûé_ãðàäèåíò_28);}.cls-91{fill:#e87a8d;}.cls-16{fill:#601734;}.cls-92{fill:url(#_Áåçûìÿííûé_ãðàäèåíò_3);}.cls-93{fill:url(#_Áåçûìÿííûé_ãðàäèåíò_184);}.cls-94{fill:url(#_Áåçûìÿííûé_ãðàäèåíò_71-2);}.cls-38{fill:url(#_Áåçûìÿííûé_ãðàäèåíò_206);}.cls-95{fill:url(#_Áåçûìÿííûé_ãðàäèåíò_184-7);}.cls-96{fill:#262728;}.cls-97{fill:url(#_Áåçûìÿííûé_ãðàäèåíò_12);}.cls-98{fill:url(#_Áåçûìÿííûé_ãðàäèåíò_80);}.cls-99{fill:url(#_Áåçûìÿííûé_ãðàäèåíò_322);}.cls-100{fill:#ced0d8;}.cls-101{fill:url(#_Áåçûìÿííûé_ãðàäèåíò_28-2);}.cls-102{fill:url(#_Áåçûìÿííûé_ãðàäèåíò_86-4);}.cls-103{fill:url(#_Áåçûìÿííûé_ãðàäèåíò_373-10);}.cls-45{fill:url(#_Áåçûìÿííûé_ãðàäèåíò_97-2);}.cls-17{fill:url(#_Áåçûìÿííûé_ãðàäèåíò_94);}.cls-104{fill:url(#_Áåçûìÿííûé_ãðàäèåíò_71-3);}.cls-105{fill:#953da2;}</style><linearGradient id="_Áåçûìÿííûé_ãðàäèåíò_29" x1="-1358.32" y1="1665.91" x2="-1358.32" y2="1480.06" gradientTransform="translate(1749.68 -465.97) rotate(12.61)" gradientUnits="userSpaceOnUse"><stop offset="0" stop-color="#dbccff"/><stop offset="1" stop-color="#d1bbff"/></linearGradient><linearGradient id="_Áåçûìÿííûé_ãðàäèåíò_28" x1="-1358.33" y1="1673.16" x2="-1358.33" y2="1487.31" gradientTransform="translate(1749.68 -465.97) rotate(12.61)" gradientUnits="userSpaceOnUse"><stop offset="0" stop-color="#b5a6e7"/><stop offset="1" stop-color="#7760bf"/></linearGradient><linearGradient id="_Áåçûìÿííûé_ãðàäèåíò_28-2" x1="-1358.33" y1="1626.95" x2="-1358.33" y2="1548.61" xlink:href="#_Áåçûìÿííûé_ãðàäèåíò_28"/><linearGradient id="_Áåçûìÿííûé_ãðàäèåíò_27" x1="-1369.45" y1="1550.18" x2="-1347.21" y2="1550.18" gradientTransform="translate(1749.68 -465.97) rotate(12.61)" gradientUnits="userSpaceOnUse"><stop offset="0" stop-color="#8b8be0"/><stop offset="1" stop-color="#a177b7"/></linearGradient><linearGradient id="_Áåçûìÿííûé_ãðàäèåíò_94" x1="-1358.33" y1="1555.34" x2="-1358.33" y2="1541.88" gradientTransform="translate(1749.68 -465.97) rotate(12.61)" gradientUnits="userSpaceOnUse"><stop offset="0" stop-color="#fff"/><stop offset="1" stop-color="#a177b7"/></linearGradient><linearGradient id="_Áåçûìÿííûé_ãðàäèåíò_95" x1="-1346.57" y1="1634.95" x2="-1346.57" y2="1548.59" gradientTransform="translate(1749.68 -465.97) rotate(12.61)" gradientUnits="userSpaceOnUse"><stop offset="0" stop-color="#000"/><stop offset="1" stop-color="#fff"/></linearGradient><linearGradient id="_Áåçûìÿííûé_ãðàäèåíò_115" x1="149.48" y1="1272.06" x2="175.34" y2="1066.13" gradientUnits="userSpaceOnUse"><stop offset="0" stop-color="#067eff"/><stop offset="1" stop-color="#3e37a0"/></linearGradient><linearGradient id="_Áåçûìÿííûé_ãðàäèåíò_302" x1="566.58" y1="1726.63" x2="566.58" y2="1697.66" gradientTransform="translate(1270.86 -970.64) rotate(22.82)" gradientUnits="userSpaceOnUse"><stop offset="0" stop-color="#459fff"/><stop offset="1" stop-color="#a96dff"/></linearGradient><linearGradient id="_Áåçûìÿííûé_ãðàäèåíò_322" x1="777.83" y1="2161.18" x2="777.83" y2="2144.72" gradientTransform="translate(1270.86 -970.64) rotate(22.82)" gradientUnits="userSpaceOnUse"><stop offset="0" stop-color="#b31a8f"/><stop offset="1" stop-color="#fe117e"/></linearGradient><linearGradient id="_Áåçûìÿííûé_ãðàäèåíò_97" x1="105.8" y1="356.98" x2="105.8" y2="207.21" gradientUnits="userSpaceOnUse"><stop offset="0" stop-color="#d906e3"/><stop offset="1" stop-color="#ff6df9"/></linearGradient><linearGradient id="_Áåçûìÿííûé_ãðàäèåíò_97-2" x1="1269.95" y1="1204.82" x2="1269.95" y2="1017.47" xlink:href="#_Áåçûìÿííûé_ãðàäèåíò_97"/><linearGradient id="_Áåçûìÿííûé_ãðàäèåíò_206" x1="1256.97" y1="497.29" x2="1241.01" y2="360.28" gradientTransform="translate(247.14 -148.27) rotate(15.07)" gradientUnits="userSpaceOnUse"><stop offset="0" stop-color="#1852a0"/><stop offset="1" stop-color="#067ed3"/></linearGradient><linearGradient id="_Áåçûìÿííûé_ãðàäèåíò_206-2" x1="1241.5" y1="497.81" x2="1241.5" y2="357.41" xlink:href="#_Áåçûìÿííûé_ãðàäèåíò_206"/><linearGradient id="_Áåçûìÿííûé_ãðàäèåíò_107" x1="1159.1" y1="648.72" x2="1148.77" y2="560.09" gradientTransform="translate(542.86 -696.99) rotate(19.3) scale(1 1.57)" gradientUnits="userSpaceOnUse"><stop offset="0" stop-color="#188dc1"/><stop offset="1" stop-color="#06bfe7"/></linearGradient><linearGradient id="_Áåçûìÿííûé_ãðàäèåíò_107-2" x1="1217.3" y1="120.22" x2="1253.67" y2="-14.84" gradientTransform="matrix(1, 0, 0, 1, 0, 0)" xlink:href="#_Áåçûìÿííûé_ãðàäèåíò_107"/><linearGradient id="_Áåçûìÿííûé_ãðàäèåíò_206-3" x1="1154.79" y1="104.64" x2="1181.91" y2="3.92" gradientTransform="matrix(1, 0, 0, 1, 0, 0)" xlink:href="#_Áåçûìÿííûé_ãðàäèåíò_206"/><linearGradient id="_Áåçûìÿííûé_ãðàäèåíò_12" x1="699.19" y1="849.84" x2="699.19" y2="798.75" gradientTransform="translate(1426.87) rotate(-180) scale(1 -1)" gradientUnits="userSpaceOnUse"><stop offset="0" stop-color="#d1c8f8"/><stop offset="1" stop-color="#eee5f9"/></linearGradient><linearGradient id="_Áåçûìÿííûé_ãðàäèåíò_96" x1="730.5" y1="741.11" x2="730.5" y2="377.67" gradientTransform="translate(1306.26) rotate(-180) scale(1 -1)" gradientUnits="userSpaceOnUse"><stop offset="0" stop-color="#744fd8"/><stop offset="1" stop-color="#3996f7"/></linearGradient><linearGradient id="_Áåçûìÿííûé_ãðàäèåíò_33" x1="721.24" y1="740.48" x2="721.24" y2="377.67" gradientTransform="translate(1306.26) rotate(-180) scale(1 -1)" gradientUnits="userSpaceOnUse"><stop offset="0" stop-color="#9d68c2"/><stop offset="1" stop-color="#ccedff"/></linearGradient><linearGradient id="_Áåçûìÿííûé_ãðàäèåíò_71" x1="798.52" y1="728.31" x2="798.52" y2="668.59" gradientTransform="translate(1306.26) rotate(-180) scale(1 -1)" gradientUnits="userSpaceOnUse"><stop offset=".02" stop-color="#ffc2a9"/><stop offset="1" stop-color="#ff9595"/></linearGradient><linearGradient id="_Áåçûìÿííûé_ãðàäèåíò_30" x1="900.35" y1="616.7" x2="900.35" y2="597.69" gradientTransform="translate(1306.26) rotate(-180) scale(1 -1)" gradientUnits="userSpaceOnUse"><stop offset=".02" stop-color="#ffa58b"/><stop offset="1" stop-color="#ff898e"/></linearGradient><linearGradient id="_Áåçûìÿííûé_ãðàäèåíò_96-2" x1="368.77" y1="632.88" x2="368.77" y2="365.98" xlink:href="#_Áåçûìÿííûé_ãðàäèåíò_96"/><linearGradient id="_Áåçûìÿííûé_ãðàäèåíò_30-2" x1="551.55" y1="441.15" x2="551.55" y2="281.93" xlink:href="#_Áåçûìÿííûé_ãðàäèåíò_30"/><linearGradient id="_Áåçûìÿííûé_ãðàäèåíò_12-2" x1="547.66" y1="421.58" x2="547.66" y2="346.98" gradientTransform="translate(1306.26) rotate(-180) scale(1 -1)" xlink:href="#_Áåçûìÿííûé_ãðàäèåíò_12"/><linearGradient id="_Áåçûìÿííûé_ãðàäèåíò_33-2" x1="369.32" y1="632.88" x2="369.32" y2="365.98" xlink:href="#_Áåçûìÿííûé_ãðàäèåíò_33"/><linearGradient id="_Áåçûìÿííûé_ãðàäèåíò_71-2" x1="556.4" y1="323.41" x2="556.4" y2="70.61" xlink:href="#_Áåçûìÿííûé_ãðàäèåíò_71"/><linearGradient id="_Áåçûìÿííûé_ãðàäèåíò_30-3" x1="550.92" y1="269.32" x2="550.92" y2="69.58" xlink:href="#_Áåçûìÿííûé_ãðàäèåíò_30"/><linearGradient id="_Áåçûìÿííûé_ãðàäèåíò_11" x1="548.86" y1="222.76" x2="519.02" y2="34.36" gradientTransform="translate(1306.26) rotate(-180) scale(1 -1)" gradientUnits="userSpaceOnUse"><stop offset="0" stop-color="#d49092"/><stop offset=".13" stop-color="#d18e91"/><stop offset=".2" stop-color="#c98891"/><stop offset=".27" stop-color="#ba7e90"/><stop offset=".32" stop-color="#a6708e"/><stop offset=".37" stop-color="#8c5e8c"/><stop offset=".42" stop-color="#6c488a"/><stop offset=".46" stop-color="#462e87"/><stop offset=".47" stop-color="#3e2987"/><stop offset=".61" stop-color="#352177"/><stop offset=".85" stop-color="#281661"/><stop offset="1" stop-color="#24135a"/></linearGradient><linearGradient id="_Áåçûìÿííûé_ãðàäèåíò_71-3" x1="183" y1="627.92" x2="183" y2="183.17" xlink:href="#_Áåçûìÿííûé_ãðàäèåíò_71"/><linearGradient id="_Áåçûìÿííûé_ãðàäèåíò_96-3" x1="554.63" y1="848.39" x2="554.63" y2="346.98" xlink:href="#_Áåçûìÿííûé_ãðàäèåíò_96"/><linearGradient id="_Áåçûìÿííûé_ãðàäèåíò_373" x1="810.99" y1="698.81" x2="810.99" y2="455.97" gradientTransform="translate(1306.26) rotate(-180) scale(1 -1)" gradientUnits="userSpaceOnUse"><stop offset="0" stop-color="#1c257b"/><stop offset="1" stop-color="#482c83"/></linearGradient><linearGradient id="_Áåçûìÿííûé_ãðàäèåíò_27-2" x1="894.43" y1="645.79" x2="894.43" y2="552.26" gradientTransform="translate(1306.26) rotate(-180) scale(1 -1)" xlink:href="#_Áåçûìÿííûé_ãðàäèåíò_27"/><linearGradient id="_Áåçûìÿííûé_ãðàäèåíò_71-4" x1="897.84" y1="601.96" x2="897.84" y2="552.26" xlink:href="#_Áåçûìÿííûé_ãðàäèåíò_71"/><linearGradient id="_Áåçûìÿííûé_ãðàäèåíò_71-5" x1="921.69" y1="558.03" x2="921.69" y2="520.38" xlink:href="#_Áåçûìÿííûé_ãðàäèåíò_71"/><linearGradient id="_Áåçûìÿííûé_ãðàäèåíò_71-6" x1="895.61" y1="622.07" x2="895.61" y2="605.65" xlink:href="#_Áåçûìÿííûé_ãðàäèåíò_71"/><linearGradient id="_Áåçûìÿííûé_ãðàäèåíò_373-2" x1="535.42" y1="164.32" x2="535.42" y2="123.56" xlink:href="#_Áåçûìÿííûé_ãðàäèåíò_373"/><linearGradient id="_Áåçûìÿííûé_ãðàäèåíò_117" x1="550.4" y1="195.56" x2="550.4" y2="162.99" gradientTransform="translate(1306.26) rotate(-180) scale(1 -1)" gradientUnits="userSpaceOnUse"><stop offset="0" stop-color="#d0c7f8"/><stop offset="1" stop-color="#fff"/></linearGradient><linearGradient id="_Áåçûìÿííûé_ãðàäèåíò_117-2" x1="613.71" y1="186.63" x2="613.71" y2="154.06" xlink:href="#_Áåçûìÿííûé_ãðàäèåíò_117"/><linearGradient id="_Áåçûìÿííûé_ãðàäèåíò_184" x1="91.95" y1="289.14" x2="144.51" y2="289.14" gradientTransform="translate(1306.26) rotate(-180) scale(1 -1)" gradientUnits="userSpaceOnUse"><stop offset="0" stop-color="#cf6074"/><stop offset="1" stop-color="#ff817f"/></linearGradient><radialGradient id="_Áåçûìÿííûé_ãðàäèåíò_3" cx="546.76" cy="183.92" fx="546.76" fy="183.92" r="12.82" gradientTransform="translate(1306.26) rotate(-180) scale(1 -1)" gradientUnits="userSpaceOnUse"><stop offset="0" stop-color="#cf95ff"/><stop offset="1" stop-color="#8161ff"/></radialGradient><linearGradient id="_Áåçûìÿííûé_ãðàäèåíò_2" x1="546.35" y1="187.69" x2="546.35" y2="169.56" gradientTransform="translate(1306.26) rotate(-180) scale(1 -1)" gradientUnits="userSpaceOnUse"><stop offset="0" stop-color="#8642a0"/><stop offset="1" stop-color="#4e37b7"/></linearGradient><radialGradient id="_Áåçûìÿííûé_ãðàäèåíò_3-2" cx="611.09" cy="176.83" fx="611.09" fy="176.83" r="8.59" xlink:href="#_Áåçûìÿííûé_ãðàäèåíò_3"/><linearGradient id="_Áåçûìÿííûé_ãðàäèåíò_184-2" x1="74.41" y1="246.75" x2="118.38" y2="246.75" xlink:href="#_Áåçûìÿííûé_ãðàäèåíò_184"/><linearGradient id="_Áåçûìÿííûé_ãðàäèåíò_2-2" x1="609.05" y1="180.59" x2="609.05" y2="162.44" xlink:href="#_Áåçûìÿííûé_ãðàäèåíò_2"/><linearGradient id="_Áåçûìÿííûé_ãðàäèåíò_373-3" x1="612.82" y1="139.17" x2="612.82" y2="111.11" xlink:href="#_Áåçûìÿííûé_ãðàäèåíò_373"/><linearGradient id="_Áåçûìÿííûé_ãðàäèåíò_134" x1="596.24" y1="225.51" x2="603.96" y2="201.9" gradientTransform="translate(1306.26) rotate(-180) scale(1 -1)" gradientUnits="userSpaceOnUse"><stop offset="0" stop-color="#ff8883"/><stop offset="1" stop-color="#e8868d"/></linearGradient><linearGradient id="_Áåçûìÿííûé_ãðàäèåíò_6" x1="600.99" y1="215.04" x2="600.99" y2="191.58" gradientTransform="translate(1306.26) rotate(-180) scale(1 -1)" gradientUnits="userSpaceOnUse"><stop offset="0" stop-color="#ff8883"/><stop offset="1" stop-color="#ffb1a4"/></linearGradient><linearGradient id="_Áåçûìÿííûé_ãðàäèåíò_373-4" x1="-72.06" y1="605.71" x2="-72.06" y2="424.49" gradientTransform="translate(892.87 -157.21) rotate(151.73) scale(1 -1)" xlink:href="#_Áåçûìÿííûé_ãðàäèåíò_373"/><linearGradient id="_Áåçûìÿííûé_ãðàäèåíò_373-5" x1="1188.67" y1="605.89" x2="1188.67" y2="424.66" gradientTransform="translate(-104.29 378.81) rotate(-28.27)" xlink:href="#_Áåçûìÿííûé_ãðàäèåíò_373"/><linearGradient id="_Áåçûìÿííûé_ãðàäèåíò_373-6" x1="-64.29" y1="610.83" x2="-64.29" y2="602.88" gradientTransform="translate(892.87 -157.21) rotate(151.73) scale(1 -1)" xlink:href="#_Áåçûìÿííûé_ãðàäèåíò_373"/><linearGradient id="_Áåçûìÿííûé_ãðàäèåíò_34" x1="-64.29" y1="588.74" x2="-64.29" y2="520.59" gradientTransform="translate(892.87 -157.21) rotate(151.73) scale(1 -1)" gradientUnits="userSpaceOnUse"><stop offset="0" stop-color="#6a4fac"/><stop offset="1" stop-color="#513689"/></linearGradient><linearGradient id="_Áåçûìÿííûé_ãðàäèåíò_30-4" x1="136.25" y1="253.96" x2="136.25" y2="165.98" xlink:href="#_Áåçûìÿííûé_ãðàäèåíò_30"/><linearGradient id="_Áåçûìÿííûé_ãðàäèåíò_373-7" x1="799.97" y1="724.6" x2="799.97" y2="696.64" xlink:href="#_Áåçûìÿííûé_ãðàäèåíò_373"/><linearGradient id="_Áåçûìÿííûé_ãðàäèåíò_373-8" x1="829.51" y1="1245.76" x2="829.51" y2="724.5" xlink:href="#_Áåçûìÿííûé_ãðàäèåíò_373"/><linearGradient id="_Áåçûìÿííûé_ãðàäèåíò_15" x1="807.41" y1="265.66" x2="807.41" y2="194.17" gradientTransform="translate(79.54 -126.55) rotate(10.56)" gradientUnits="userSpaceOnUse"><stop offset=".02" stop-color="#ffac8b"/><stop offset="1" stop-color="#ff9595"/></linearGradient><linearGradient id="_Áåçûìÿííûé_ãðàäèåíò_184-3" x1="510.5" y1="321.91" x2="600.06" y2="321.91" xlink:href="#_Áåçûìÿííûé_ãðàäèåíò_184"/><linearGradient id="_Áåçûìÿííûé_ãðàäèåíò_80" x1="152.26" y1="339.54" x2="152.26" y2="270.17" gradientTransform="translate(1306.26) rotate(-180) scale(1 -1)" gradientUnits="userSpaceOnUse"><stop offset=".02" stop-color="#ff997c"/><stop offset="1" stop-color="#ff898e"/></linearGradient><linearGradient id="_Áåçûìÿííûé_ãðàäèåíò_184-4" x1="175.68" y1="299.3" x2="191.88" y2="299.3" xlink:href="#_Áåçûìÿííûé_ãðàäèåíò_184"/><linearGradient id="_Áåçûìÿííûé_ãðàäèåíò_184-5" x1="191.36" y1="390.71" x2="191.36" y2="362.06" xlink:href="#_Áåçûìÿííûé_ãðàäèåíò_184"/><linearGradient id="_Áåçûìÿííûé_ãðàäèåíò_184-6" x1="309.05" y1="624.93" x2="309.05" y2="472.41" xlink:href="#_Áåçûìÿííûé_ãðàäèåíò_184"/><linearGradient id="_Áåçûìÿííûé_ãðàäèåíò_27-3" x1="551.11" y1="848.39" x2="551.11" y2="353.91" gradientTransform="translate(1306.26) rotate(-180) scale(1 -1)" xlink:href="#_Áåçûìÿííûé_ãðàäèåíò_27"/><linearGradient id="_Áåçûìÿííûé_ãðàäèåíò_27-4" x1="524.56" y1="605.39" x2="524.56" y2="583.42" gradientTransform="translate(1306.26) rotate(-180) scale(1 -1)" xlink:href="#_Áåçûìÿííûé_ãðàäèåíò_27"/><linearGradient id="_Áåçûìÿííûé_ãðàäèåíò_27-5" x1="674.88" y1="494.21" x2="674.88" y2="363.91" gradientTransform="translate(1306.26) rotate(-180) scale(1 -1)" xlink:href="#_Áåçûìÿííûé_ãðàäèåíò_27"/><linearGradient id="_Áåçûìÿííûé_ãðàäèåíò_27-6" x1="627.88" y1="526.48" x2="627.88" y2="405.55" gradientTransform="translate(1306.26) rotate(-180) scale(1 -1)" xlink:href="#_Áåçûìÿííûé_ãðàäèåíò_27"/><linearGradient id="_Áåçûìÿííûé_ãðàäèåíò_27-7" x1="588.98" y1="758.04" x2="588.98" y2="724.6" gradientTransform="translate(1306.26) rotate(-180) scale(1 -1)" xlink:href="#_Áåçûìÿííûé_ãðàäèåíò_27"/><linearGradient id="_Áåçûìÿííûé_ãðàäèåíò_87" x1="430.62" y1="563.8" x2="430.62" y2="499.43" gradientTransform="translate(1306.26) rotate(-180) scale(1 -1)" gradientUnits="userSpaceOnUse"><stop offset="0" stop-color="#9d68c2"/><stop offset="1" stop-color="#90aeff"/></linearGradient><linearGradient id="_Áåçûìÿííûé_ãðàäèåíò_25" x1="810.99" y1="692.89" x2="810.99" y2="455.97" gradientTransform="translate(1306.26) rotate(-180) scale(1 -1)" gradientUnits="userSpaceOnUse"><stop offset="0" stop-color="#8642a0"/><stop offset="1" stop-color="#6456c0"/></linearGradient><linearGradient id="_Áåçûìÿííûé_ãðàäèåíò_184-7" x1="878.69" y1="585.8" x2="909.98" y2="585.8" xlink:href="#_Áåçûìÿííûé_ãðàäèåíò_184"/><linearGradient id="_Áåçûìÿííûé_ãðàäèåíò_33-3" x1="478.7" y1="377.31" x2="478.7" y2="376.54" xlink:href="#_Áåçûìÿííûé_ãðàäèåíò_33"/><linearGradient id="_Áåçûìÿííûé_ãðàäèåíò_264" x1="765.56" y1="698.82" x2="765.56" y2="559.39" gradientTransform="translate(1306.26) rotate(-180) scale(1 -1)" gradientUnits="userSpaceOnUse"><stop offset="0" stop-color="#b9acf4"/><stop offset="1" stop-color="#e1d1f5"/></linearGradient><linearGradient id="_Áåçûìÿííûé_ãðàäèåíò_78" x1="604.01" y1="410.26" x2="604.01" y2="361.54" gradientTransform="translate(1306.26) rotate(-180) scale(1 -1)" gradientUnits="userSpaceOnUse"><stop offset="0" stop-color="#3d2cb0"/><stop offset="1" stop-color="#0355c7"/></linearGradient><linearGradient id="_Áåçûìÿííûé_ãðàäèåíò_10" x1="477.59" y1="165.39" x2="467.51" y2="101.77" gradientTransform="translate(1306.26) rotate(-180) scale(1 -1)" gradientUnits="userSpaceOnUse"><stop offset="0" stop-color="#5e3187"/><stop offset=".38" stop-color="#412271"/><stop offset=".76" stop-color="#2b1760"/><stop offset="1" stop-color="#24135a"/></linearGradient><linearGradient id="_Áåçûìÿííûé_ãðàäèåíò_27-8" x1="188.87" y1="364.92" x2="188.87" y2="307.5" gradientTransform="translate(1306.26) rotate(-180) scale(1 -1)" xlink:href="#_Áåçûìÿííûé_ãðàäèåíò_27"/><linearGradient id="_Áåçûìÿííûé_ãðàäèåíò_17" x1="537.55" y1="219.37" x2="537.55" y2="152.8" gradientTransform="translate(1306.26) rotate(-180) scale(1 -1)" gradientUnits="userSpaceOnUse"><stop offset="0" stop-color="#f2c7cc"/><stop offset="1" stop-color="#a177b7"/></linearGradient><linearGradient id="_Áåçûìÿííûé_ãðàäèåíò_373-9" x1="544.44" y1="212.54" x2="552.19" y2="148.09" xlink:href="#_Áåçûìÿííûé_ãðàäèåíò_373"/><linearGradient id="_Áåçûìÿííûé_ãðàäèåíò_86" x1="545.64" y1="212.4" x2="553.39" y2="147.95" gradientTransform="translate(1306.26) rotate(-180) scale(1 -1)" gradientUnits="userSpaceOnUse"><stop offset="0" stop-color="#1c257b"/><stop offset="1" stop-color="#65459c"/></linearGradient><linearGradient id="_Áåçûìÿííûé_ãðàäèåíò_373-10" x1="615.9" y1="199.52" x2="622.46" y2="144.98" xlink:href="#_Áåçûìÿííûé_ãðàäèåíò_373"/><linearGradient id="_Áåçûìÿííûé_ãðàäèåíò_86-2" x1="617.24" y1="199.52" x2="623.8" y2="144.98" xlink:href="#_Áåçûìÿííûé_ãðàäèåíò_86"/><linearGradient id="_Áåçûìÿííûé_ãðàäèåíò_86-3" x1="591.86" y1="158.84" x2="592.96" y2="149.71" xlink:href="#_Áåçûìÿííûé_ãðàäèåíò_86"/><linearGradient id="_Áåçûìÿííûé_ãðàäèåíò_86-4" x1="487.25" y1="216.17" x2="493.06" y2="167.8" xlink:href="#_Áåçûìÿííûé_ãðàäèåíò_86"/><linearGradient id="_Áåçûìÿííûé_ãðàäèåíò_25-2" x1="494.98" y1="192.26" x2="494.98" y2="178.62" xlink:href="#_Áåçûìÿííûé_ãðàäèåíò_25"/><linearGradient id="_Áåçûìÿííûé_ãðàäèåíò_9" x1="524.93" y1="195.15" x2="524.93" y2="165.11" gradientTransform="translate(1306.26) rotate(-180) scale(1 -1)" gradientUnits="userSpaceOnUse"><stop offset="0" stop-color="#000"/><stop offset="1" stop-color="#e1d1f5"/></linearGradient><linearGradient id="_Áåçûìÿííûé_ãðàäèåíò_30-5" x1="565.61" y1="323.41" x2="565.61" y2="270.29" xlink:href="#_Áåçûìÿííûé_ãðàäèåíò_30"/></defs><g class="cls-31"><g id="Layer_1"><circle class="cls-56" cx="690.83" cy="668.75" r="467.82" transform="translate(-270.54 684.36) rotate(-45)"/><path class="cls-83" d="M126.26,721.9c2.58-19.64-7.04-35.98-7.04-35.98l-6.61-1.48-4.38,28.29c-7.35,6.5-15.82,6.66-15.82,6.66v-.04s-7.59-3.75-11.46-12.76l8.1-27.46-6.61-1.48s-15.67,10.68-21.7,29.55c0,0-1.62,6.38-1.58,7.08,.19,3.73,3.21,10.2,13.38,17.09l-15.81,89.74c-6.47,2.64-11.59,8.29-13.23,15.62-2.67,11.93,4.83,23.75,16.76,26.42,11.93,2.67,23.75-4.83,26.42-16.76,1.64-7.33-.58-14.62-5.31-19.77l23.93-87.87c11.87-1.86,17.46-6.23,19.38-9.76,.41-.75,1.58-7.08,1.58-7.08Zm-57.48,131.44l-12.07-2.7-3.7-11.8,8.37-9.1,12.07,2.7,3.7,11.8-8.37,9.1Z"/><path class="cls-90" d="M124.68,728.97c2.58-19.64-7.04-35.98-7.04-35.98l-6.61-1.48-4.38,28.29c-7.35,6.5-15.82,6.66-15.82,6.66v-.04s-7.59-3.75-11.46-12.76l8.1-27.46-6.61-1.48s-15.67,10.68-21.7,29.55c0,0-.26,16,11.8,24.16l-15.81,89.74c-6.47,2.64-11.59,8.29-13.23,15.62-2.67,11.93,4.83,23.75,16.76,26.42,11.93,2.67,23.75-4.83,26.42-16.76,1.64-7.33-.58-14.62-5.31-19.77l23.93-87.87c14.39-2.25,20.97-16.83,20.97-16.83Zm-57.48,131.44l-12.07-2.7-3.7-11.8,8.37-9.1,12.07,2.7,3.7,11.8-8.37,9.1Z"/><rect class="cls-87" x="81.34" y="678.53" width="7.25" height="6.77" transform="translate(-599.06 615.93) rotate(-77.39)"/><rect class="cls-87" x="111.5" y="685.33" width="7.25" height="6.77" transform="translate(-582.11 650.7) rotate(-77.39)"/><rect class="cls-87" x="58.33" y="849.34" width="7.25" height="12.37" transform="translate(-786.45 729.19) rotate(-77.39)"/><g><path class="cls-101" d="M74.47,748.71l-13.06,72.86c6.85,5.81,14.86,3.32,14.86,3.32l19.91-71.33c-9.6-7.99-21.7-4.86-21.7-4.86Zm-.62,74.99c-1.32,.07-3.21,.05-5.27-.41-1.63-.37-3.17-.96-4.59-1.77l12.2-71.82c2.23-.15,5.84-.14,9.81,.75,2.98,.67,5.72,1.74,8.22,3.19l-20.37,70.05Z"/><path class="cls-87" d="M73.85,823.7l2.42,1.19s-7.35,3.12-14.86-3.32l2.58-.04s4.2,2.52,9.86,2.18Z"/><path class="cls-2" d="M74.47,748.71l1.71,1s8.32-1.23,18.03,3.94l1.96-.09s-2.98-3.27-10.3-4.9c-7.31-1.64-11.4,.05-11.4,.05Z"/></g><path class="cls-17" d="M70.96,738.43s14.79,7.72,32.75,7.38l-3.06,11.24s-.94-7.03-12.45-10.21c-13.46-3.73-19.26,4.94-19.26,4.94l2.01-13.34Z"/><path class="cls-57" d="M100.65,757.04c-1.11-3.72-3.93-5.98-3.93-5.98l-22.62,83.44,5.67-.83,20.87-76.64Z"/><path class="cls-19" d="M100.65,757.04s-9.27,6.33-4.47,16.42l4.47-16.42Z"/><path class="cls-88" d="M262.97,1261.36H65.42c-8.79,0-15.98-6.63-16.18-14.93l-3.69-152.98c-.21-8.57,7.1-15.62,16.18-15.62h205.69c9.11,0,16.42,7.1,16.17,15.69l-4.44,152.98c-.24,8.27-7.41,14.86-16.17,14.86Z"/><path class="cls-55" d="M262.97,1261.84H65.42c-9,0-16.48-6.91-16.69-15.4l-3.69-152.98c-.1-4.28,1.58-8.32,4.75-11.38,3.17-3.06,7.41-4.74,11.93-4.74h205.69c4.54,0,8.79,1.69,11.96,4.77,3.17,3.07,4.85,7.13,4.72,11.42l-4.44,152.98c-.25,8.59-7.58,15.33-16.68,15.33Zm-201.24-183.53c-4.25,0-8.23,1.58-11.2,4.45-2.97,2.87-4.56,6.66-4.46,10.68l3.69,152.98c.19,7.97,7.22,14.46,15.66,14.46h197.55c8.55,0,15.43-6.32,15.66-14.39l4.44-152.98c.12-4.03-1.46-7.83-4.43-10.72-2.98-2.89-6.96-4.48-11.23-4.48H61.73Z"/><g><rect class="cls-19" x="98.81" y="1109.12" width="103.9" height="4.2"/><rect class="cls-19" x="98.81" y="1119.34" width="51.95" height="4.2"/><rect class="cls-19" x="98.81" y="1127.86" width="51.95" height="4.2"/><rect class="cls-19" x="156.58" y="1127.86" width="41.33" height="4.2"/><rect class="cls-19" x="98.81" y="1136.39" width="83.75" height="4.2"/><rect class="cls-19" x="98.81" y="1144.92" width="29.81" height="4.2"/><rect class="cls-19" x="134.74" y="1170.5" width="51.55" height="4.2"/><rect class="cls-19" x="98.81" y="1153.45" width="93.43" height="4.2"/><rect class="cls-19" x="98.81" y="1161.98" width="71.88" height="4.2"/><rect class="cls-19" x="98.81" y="1170.5" width="33.81" height="4.2"/><rect class="cls-19" x="98.81" y="1179.03" width="51.95" height="4.2"/><rect class="cls-19" x="98.81" y="1187.56" width="14.9" height="4.2"/><rect class="cls-19" x="119.84" y="1187.56" width="54.07" height="4.2"/><rect class="cls-19" x="134.74" y="1195.84" width="51.55" height="4.2"/><rect class="cls-19" x="98.81" y="1195.84" width="33.81" height="4.2"/><rect class="cls-19" x="98.81" y="1204.37" width="51.95" height="4.2"/><rect class="cls-19" x="98.81" y="1212.89" width="14.9" height="4.2"/><rect class="cls-19" x="119.84" y="1212.89" width="54.07" height="4.2"/></g><path class="cls-21" d="M1142.51,832.95c-3.1,7.37-11.59,10.84-18.97,7.73-7.37-3.1-10.84-11.59-7.74-18.97,3.1-7.37,11.6-10.84,18.97-7.73,7.37,3.1,10.84,11.59,7.73,18.97Z"/><path class="cls-99" d="M1160.84,1312.37c2.24,8.67-5.85,13.8-11.95,10.38-3.15-1.77-4.81-5.51-3.96-9.02,1.69-7.04,11.36-9.28,15.91-1.36Z"/><path class="cls-44" d="M184.28,356.98H27.66c-12.6,0-22.94-9.99-23.36-22.59L.82,231.38c-.45-13.21,10.14-24.16,23.36-24.16H187.43c13.19,0,23.77,10.91,23.36,24.09l-3.15,103.01c-.39,12.63-10.73,22.66-23.36,22.66Z"/><path class="cls-105" d="M184.28,357.78H27.66c-13.11,0-23.72-10.26-24.16-23.36L.01,231.41c-.22-6.61,2.19-12.87,6.78-17.62,4.6-4.75,10.77-7.37,17.38-7.37H187.43c6.6,0,12.76,2.61,17.35,7.34,4.59,4.74,7.01,10.98,6.81,17.57l-3.15,103.01c-.4,13.14-11.02,23.44-24.17,23.44ZM24.18,208.01c-6.17,0-11.94,2.44-16.23,6.88-4.29,4.44-6.54,10.28-6.33,16.45l3.48,103.01c.41,12.23,10.32,21.81,22.56,21.81H184.28c12.28,0,22.19-9.61,22.56-21.88l3.15-103.01c.19-6.16-2.07-11.98-6.36-16.4-4.29-4.42-10.04-6.86-16.2-6.86H24.18Z"/><polygon class="cls-19" points="69.41 244.22 30.8 288.98 70.12 322.37 70.12 305.14 47.37 285.44 68.5 261.55 69.41 244.22"/><polygon class="cls-19" points="137.29 246.23 175.91 290.99 136.58 324.38 136.58 307.15 159.33 287.45 134.02 260.66 137.29 246.23"/><polygon class="cls-19" points="77.82 322.37 111.47 248.24 127.28 248.24 89.18 322.37 77.82 322.37"/><path class="cls-45" d="M1368.12,1204.82h-195.93c-15.77,0-28.69-12.5-29.23-28.26l-4.35-128.87c-.56-16.53,12.69-30.23,29.23-30.23h204.22c16.5,0,29.73,13.64,29.23,30.14l-3.94,128.87c-.48,15.8-13.43,28.35-29.23,28.35Z"/><path class="cls-105" d="M1368.12,1205.63h-195.93c-16.29,0-29.48-12.75-30.03-29.03l-4.35-128.87c-.28-8.22,2.72-15.99,8.43-21.9,5.71-5.91,13.38-9.16,21.6-9.16h204.22c8.2,0,15.86,3.24,21.56,9.12,5.71,5.89,8.72,13.64,8.47,21.84l-3.94,128.87c-.5,16.33-13.69,29.13-30.03,29.13Zm-200.28-187.35c-7.78,0-15.04,3.08-20.44,8.67-5.41,5.59-8.24,12.95-7.98,20.73l4.35,128.87c.52,15.41,13,27.48,28.42,27.48h195.93c15.47,0,27.95-12.11,28.43-27.57l3.94-128.87c.24-7.76-2.61-15.1-8.01-20.67-5.4-5.57-12.65-8.64-20.41-8.64h-204.22Z"/><rect class="cls-14" x="1177.87" y="1038.22" width="179.45" height="106.57"/><polygon class="cls-19" points="1251.71 1064.66 1251.71 1118.35 1297.56 1089.05 1251.71 1064.66"/><rect class="cls-14" x="1177.87" y="1164.43" width="179.45" height="9.75"/><rect class="cls-19" x="1177.87" y="1164.43" width="46.46" height="9.75"/><path class="cls-38" d="M1351.13,563.2l-9.36,26.79c5.17-14.81,12.61-24.42,9.36-26.79Zm-9.36,26.79l-9.39,26.79c2.36-.7,4.19-11.99,9.39-26.79Zm9.36-26.79l-9.36,26.79c5.17-14.81,12.61-24.42,9.36-26.79Zm-9.36,26.79l-9.39,26.79c2.36-.7,4.19-11.99,9.39-26.79Zm27.04,23.21l9.1,5.16,9.82-26.81-10.52-1.76c.19-1,.38-1.99,.51-2.97,.76-4.6,1.02-9.08,.89-13.36l11.01-6.91-5.01-23.61-10.55,10.09c-1.47-3.02-3.28-5.66-5.39-7.86-.58-.64-1.2-1.23-1.83-1.78l6.45-14.89-17.16-5.59h0l-4.12,15.01c-3.84,.01-7.74,.97-11.62,2.72l-1.89-14.19-18.9,14.3,4.37,12.57c-3.41,3.88-6.52,8.38-9.22,13.42l-9.1-5.13-9.82,26.81,10.52,1.76c-1.12,5.65-1.55,11.14-1.39,16.33l-11.01,6.91,5.01,23.61,10.55-10.09c1.88,3.86,4.31,7.11,7.23,9.62l-6.46,14.92,16.89,6.59,2.62-9.51,1.78-6.5c3.84-.01,7.77-.97,11.65-2.71l1.87,14.18,18.9-14.3-4.37-12.57c2.67-3.06,5.18-6.49,7.44-10.28,.63-1.04,1.21-2.09,1.79-3.17Zm-27.04-23.21c-5.19,14.8,0,30.07-9.39,26.79-9.41-3.31-12.84-17.97-7.65-32.74,5.19-14.8,17.01-24.12,26.4-20.84,9.41,3.29-4.19,11.99-9.36,26.79Zm9.36-26.79l-9.36,26.79c5.17-14.81,12.61-24.42,9.36-26.79Zm-9.36,26.79l-9.39,26.79c2.36-.7,4.19-11.99,9.39-26.79Z"/><path class="cls-33" d="M1377.9,618.37l9.82-26.81-10.02-4.74-1.62-.76,1.05-14.76,11.12-5.43-3.67-22.93-24.22-7.89,4.46,10.64,8.44-17.2-17.16-5.59-7.05-2.3-16.92-6.59-3.16,11.54-14.72-6.99-18.9,14.3,5.73,15.46-17.67,48.99-8.73,31.82,16.78,1.84-5.46,12.61,16.92,6.59,24.21,7.89-3.89-7.78-2.45-4.66,8.95,2.92,15.29,4.98,18.9-14.3-11.69-13.77,14.76-9.09,10.89,1.99Zm-53.17-34.32c5.19-14.8,17.01-24.12,26.4-20.84l-9.36,26.79-9.39,26.79c-9.41-3.31-12.84-17.97-7.65-32.74Z"/><path class="cls-36" d="M1353.69,610.47l9.81-26.81-10.53-1.76c1.11-5.64,1.55-11.12,1.4-16.31l11.01-6.9-5.02-23.62-10.55,10.08c-1.87-3.86-4.29-7.12-7.22-9.63l6.46-14.9-16.91-6.59-4.38,16c-3.84,.02-7.76,.97-11.63,2.71l-1.87-14.17-18.9,14.29,4.35,12.57c-3.4,3.88-6.51,8.4-9.22,13.44l-9.11-5.14-9.81,26.81,10.53,1.76c-1.11,5.64-1.55,11.12-1.4,16.31l-11.01,6.9,5.02,23.62,10.55-10.08c1.87,3.86,4.29,7.12,7.22,9.63l-6.46,14.9,16.91,6.59,4.38-16c3.84-.02,7.76-.97,11.63-2.71l1.87,14.17,18.9-14.29-4.35-12.57c3.4-3.88,6.51-8.4,9.22-13.44l9.11,5.14Zm-45.54-1.58c-9.4-3.29-12.82-17.95-7.64-32.75,5.18-14.79,17-24.12,26.4-20.82,9.4,3.29,12.82,17.96,7.64,32.75-5.18,14.79-17,24.12-26.4,20.82Z"/><polygon class="cls-16" points="1389.6 566.56 1365.38 558.68 1354.38 565.58 1378.59 573.47 1389.6 566.56"/><polygon class="cls-35" points="1363.94 639.23 1339.71 631.34 1335.36 618.77 1359.58 626.66 1363.94 639.23"/><polygon class="cls-16" points="1342.59 535.51 1355.87 539.36 1360.37 535.06 1369.18 537.94 1373.27 528.5 1349.05 520.61 1342.59 535.51"/><path class="cls-16" d="M1307.31,634.17l12.69,5.28-1.06-7.99s-6.82,3.6-11.63,2.71Z"/><path class="cls-16" d="M1309.27,561.56l21.36,11.29s3.1-4.15,5.49-5.82c0,0-5.57-23.55-26.85-5.48Z"/><polygon class="cls-34" points="1172 108.02 1167.36 0 1308.8 0 1302.98 107.72 1172 108.02"/><polygon class="cls-37" points="1167.36 0 1163.12 6.37 1167.36 108.02 1172 108.02 1167.36 0"/><polygon class="cls-19" points="1214.32 21.57 1192.12 19.19 1195.16 93.21 1214.32 91.33 1214.32 83.67 1203.22 83.93 1201.96 26.85 1214.32 27.21 1214.32 21.57"/><polygon class="cls-19" points="1259.78 21.57 1281.97 19.19 1278.93 93.21 1259.78 91.33 1259.78 83.67 1270.87 83.93 1272.14 26.85 1259.78 27.21 1259.78 21.57"/><polygon class="cls-1" points="392.29 120.09 382.08 76.66 383.35 76.37 393.56 119.8 392.29 120.09"/><rect class="cls-1" x="365.51" y="97.58" width="44.61" height="1.3" transform="translate(-11.92 81.94) rotate(-11.88)"/><polygon class="cls-1" points="496.29 985.09 486.08 941.66 487.35 941.37 497.56 984.8 496.29 985.09"/><rect class="cls-1" x="469.51" y="962.58" width="44.61" height="1.3" transform="translate(-187.75 121.87) rotate(-11.88)"/><ellipse class="cls-100" cx="729.37" cy="1582.02" rx="142" ry="284" transform="translate(-893.99 2214.07) rotate(-86.52)"/><path class="cls-22" d="M647.54,1463.12s-51.58,69.14-79.17,73.89c0,0-25.27,19.34-13.34,34.52,11.93,15.18,34.33,16.54,48.93,14.22,14.6-2.33,65.52-47.41,65.52-47.41l3.69-7.81,4.31,8.29,18.38-11.73-5.61-66.19-42.7,2.22Z"/><path class="cls-22" d="M782.61,1500.24l-1.61,52.9,15.95,28.27,3.1,1.79s2.61,62.8,4.01,66.09c1.41,3.3,.92,11.3,10.03,19.88,9.11,8.58,32.44,21.24,49.41,6.22,16.97-15.03,19.55-30.93,19.55-30.93,0,0-38.48-106.74-39.5-116.43-1.02-9.7-6.06-32.49-6.06-32.49l-54.89,4.69Z"/><path class="cls-55" d="M625.03,803.88s-17.31,53.11-22.17,112.23c-4.4,53.55,31.71,464.12,38.55,541,.65,7.27,6.19,13.13,13.41,14.19l18.54,2.72c11.88,1.74,22.63-7.25,23.01-19.26l13.4-422.09,69.43,470.57s47.63,24.08,62.8-2.61c6.98-12.29,22.47-569.46,14.67-619.97-7.8-50.51-45.1-87.35-45.1-87.35l-186.55,10.56Z"/><path class="cls-55" d="M652.52,1227.12c-10.53-.67-20.85-1.97-30.98-3.82,8.33,103.22,16.89,200.28,19.88,233.82,.65,7.27,6.19,13.13,13.41,14.19l18.54,2.72c11.88,1.74,22.63-7.25,23.01-19.26l7.27-229.07c-16.58,2.68-33.63,3.15-51.13,1.43Z"/><path class="cls-55" d="M836.7,1163.62c-24.52,23.38-52.84,39.23-84.96,47.57-4.87,2.19-9.79,4.15-14.75,5.91l42.22,286.15s47.63,24.08,62.8-2.61c3.97-6.98,10.67-189.61,14.3-355.43-6.03,6.47-12.56,12.62-19.61,18.41Z"/><path class="cls-96" d="M641.5,814.29s0,24.58,27.25,39.01c27.25,14.43,67.33,22.44,88.17,17.63,20.84-4.81,81.76-35.27,84.97-52.9l-.53,.53-199.86-4.28Z"/><rect class="cls-59" x="768.14" y="840.47" width="9.62" height="30.46" transform="translate(-171.63 194.31) rotate(-12.91)"/><rect class="cls-59" x="676.77" y="832.46" width="9.62" height="30.46" transform="translate(406.58 -204.69) rotate(24.16)"/><rect class="cls-59" x="798.6" y="829.25" width="9.62" height="30.46" transform="translate(-285.71 429.22) rotate(-25.56)"/><rect class="cls-59" x="646.31" y="818.03" width="9.62" height="30.46" transform="translate(740.61 -220.43) rotate(42.86)"/><rect class="cls-100" x="696" y="848.49" width="44.12" height="27.25" rx="5.56" ry="5.56" transform="translate(97.29 -72.5) rotate(6.2)"/><rect class="cls-96" x="698.62" y="850.7" width="38.93" height="22.44" rx="4.74" ry="4.74" transform="translate(97.27 -72.5) rotate(6.2)"/><path class="cls-58" d="M642.42,1470.75c-5.71,4.01-12.81,5.83-19.12,8.67-6.17,2.77-12.27,6.21-17.02,11.1-2.58,2.66-5.51,5.98-5.09,9.96,.24,2.24,1.73,4.18,4.12,4.24,1.68,.05,3.51-.65,5.11-1.09,6.48-1.81,12.83-4.44,18.09-8.71,2.92-2.37,5.27-5.28,7.27-8.45,1.92-3.04,3.68-6.22,6.65-8.37-1.49-.99-2.98-1.99-4.47-2.98-3.18,9.56-2.76,20.07,1.1,29.37,.98,2.37,2.18,5.33,5.17,5.45,2.53,.11,4.36-2.23,4.97-4.46,1.42-5.13,1.77-10.8,1.71-16.09-.07-6.07-.87-12.13-2.43-18-.39-1.45-1.77-2.46-3.29-2.14-1.41,.3-2.53,1.84-2.14,3.29,2.3,8.61,2.9,17.53,1.73,26.37-.22,1.63-.38,4.02-.99,5.33-.03,.07-.34,.53-.34,.53-.07-.14,.59-.16,.35-.23,.37,.1,1.48-1.66,1.55,.25,0-.06-.17-.28-.19-.34-.23-.95-.92-1.94-1.29-2.86-1.44-3.59-2.29-7.54-2.46-11.4-.2-4.52,.39-8.98,1.82-13.27,.93-2.81-2.32-4.54-4.47-2.98-4.98,3.61-6.9,9.67-10.96,14.06-3.91,4.23-9.11,7.01-14.48,8.92-1.26,.45-2.55,.84-3.84,1.2-.63,.18-1.27,.35-1.9,.51-.38,.1-.76,.19-1.14,.28-.25,.06-.51,.12-.76,.18-.93,.1-.56,.44,1.1,1.03-.11,.26-.05-.7-.05-.67,.03-.26,.08-.38,.18-.66,.26-.71,.72-1.33,1.17-1.93,.83-1.1,1.77-2.1,2.76-3.05,4.41-4.24,9.82-7.16,15.37-9.62,6.72-2.98,13.86-5.04,19.93-9.3,1.23-.86,1.15-2.89,.24-3.92-1.09-1.23-2.69-1.1-3.92-.24h0Z"/><path class="cls-58" d="M819.86,1515.01c-1.62,9.04-6.48,17.3-9.81,25.77-3.46,8.79-6.2,18.18-6,27.71,.09,4.03,.33,8.78,3.14,11.96,1.52,1.73,4.07,3.12,6.37,2.08,2-.9,3.04-3.17,4.11-4.96,4.67-7.84,8.47-16.35,9.7-25.46,.7-5.15,.29-10.28-.8-15.35-1.06-4.92-2.5-9.82-1.66-14.88-1.75,.36-3.5,.72-5.25,1.09,5.75,11.69,15.69,21.03,27.63,26.2,3.04,1.31,7.74,3.58,10.22,.13,1.96-2.73,.49-6.17-1.14-8.64-3.78-5.72-8.1-11.04-13.01-15.82-5.59-5.45-11.82-10.23-18.56-14.17-1.29-.76-2.98-.54-3.85,.76-.8,1.19-.54,3.09,.76,3.85,10.4,6.08,19.51,14.13,26.77,23.75,.83,1.1,1.64,2.21,2.41,3.35,.67,.98,1.6,2.22,1.88,3.19-.03-.1,.24,.88,.13,.55,.03,.09-.2,.2,.04,.03,.03-.02,.58-.8,.63-.54-.01-.06-.13-.04-.15-.08-.13-.27-1.87-.65-2.2-.77-.72-.27-1.43-.56-2.13-.86-4.86-2.1-9.45-5.08-13.35-8.66-4.6-4.22-8.37-9.19-11.12-14.79-.54-1.1-1.86-1.72-3.05-1.46-1.28,.27-2,1.33-2.2,2.55-1.4,8.42,2.81,16.39,2.83,24.75,.02,8.07-2.62,15.95-6.29,23.07-.93,1.8-1.92,3.58-2.96,5.32-.5,.83-1,1.67-1.53,2.48-.36,.56-.67,.59,.18,.37,.95-.25,.39-.14-.02-.51-2.08-1.92-1.97-6.39-1.98-9.12-.01-8.68,2.49-17.07,5.63-25.09,3.56-9.09,8.45-17.75,10.19-27.45,.26-1.48-1.23-2.86-2.6-2.94-1.64-.1-2.68,1.12-2.94,2.6h0Z"/><path class="cls-97" d="M841.53,845.91l.57,3.94s-46.69-10.72-69.15-11.47c-22.46-.75-46.26,15.45-94.09,7.53-47.83-7.92-65.62-39.22-65.62-39.22l2.84-7.94,225.44,47.15Z"/><path class="cls-81" d="M513.3,595.66s8.36-2.52,11.71,4.18c3.35,6.7,13.84,87.18,10.92,109.81-2.95,22.63-11.32,14.27-11.32,14.27,0,0,.83,13.41,6.27,17.19l.03-.03c.07-.03,.2-.13,.37-.27,.13-.07,.3-.2,.5-.33h.03c3.22-2.12,14.37-9.49,24.66-16.56,12.15-8.4,19.28-15.53,19.28-15.53,0,0-1.69-13.41-1.69-17.16s26.85-93.08,53.23-120.72c24.62-25.78,.43-171.03-2.95-190.64l-.4-2.19s-21.36,6.3-30.59,13.04c-9.19,6.77-42.35,88.41-44.01,130.32-1.69,41.91-16.76,65.7-16.76,65.7,0,0-5.04-3.05-13.44,0l-5.84,8.93Z"/><path class="cls-3" d="M531.82,740.48c3.22-2.12,14.37-9.49,24.66-16.56,12.15-8.4,19.28-15.53,19.28-15.53,0,0-1.69-13.41-1.69-17.16s26.85-93.08,53.23-120.72c24.62-25.78,.43-171.03-2.95-190.64l-.4-2.19s-17.39,21.8-24.92,65.17c-7.57,43.4,3.12,128.92,3.12,128.92,0,0-15.07,69.16-52.17,70.42,0,0,31.12,45.57,18.85,68.43-2.34,4.37-31.33,25.85-37,29.87Z"/><path class="cls-46" d="M542.1,686.82s2.52,28.29-14.46,41.5c0,0-34.9-18.23-52.08-47.99-17.19-29.76,66.54,6.5,66.54,6.5Z"/><path class="cls-76" d="M407.65,597.69s-9.73,7.88-9.79,14.66c-.06,6.77,16.08,3.63,16.08,3.63l-6.29-18.29Z"/><path class="cls-39" d="M886.36,566.72l6.9-37.73s17.62,0,43.37,23.89c0,0,.63,12.94,9.46,29.1,0,0,29.67,14.3,43.44,33.78,13.77,19.48,18.98,21.44,33.35,10.39,3.82-2.92,6.4-12.84,7.77-26.35,2.02-20.41,1.26-49.01-2.26-74.2-2.92-20.77-7.73-39.19-14.4-48.78,0,0,.63-12.81-5.67-22.86-.3,.2-.63,.4-.93,.63-2.06,1.29-7.37,4.15-12.88,3.15-7.13-1.26-13.11-12.18-13.11-12.18,0,0-4.08,.43-6.17,3.38,0,0-28.51-17.29-46.56-46.39-18.02-29.07-20.94-32.65-20.94-32.65,0,0-4.61-1.89-10.85-3.05-4.91-.93-10.85-1.36-16.39-.07,0,0-87.61,135.39,5.87,199.94Z"/><path class="cls-79" d="M699.8,377.67s10.92-16.31,10.92-54.26l85.01-41.49s-4.28,29.28,10.13,54.67c3.81,6.71,21.56,17.31,21.56,17.31,0,0-77.69,95.82-115,86.62-37.31-9.2-29.82-49.82-29.82-49.82,0,0,6.31,2.48,17.2-13.04Z"/><path class="cls-23" d="M816.98,346.98s-42.11,41.97-78.35,44.32c-38.82,2.52-32.43-29.76-32.43-29.76,0,0-17.56,24.62-12.53,44.01,5.03,19.39,43.38,20.34,72.94,7.45,29.55-12.89,57.83-62.97,57.83-62.97l-7.45-3.05Z"/><path class="cls-4" d="M886.36,566.72l6.9-37.73s17.62,0,43.37,23.89c0,0,.63,12.94,9.46,29.1,0,0,29.67,14.3,43.44,33.78,13.77,19.48,18.98,21.44,33.35,10.39,3.82-2.92,6.4-12.84,7.77-26.35l-2.26-5.41v-68.79c-2.92-20.77-7.73-39.19-14.4-48.78,0,0,.63-12.81-5.67-22.86-.3,.2-.63,.4-.93,.63-24.39,15.9-33.01,62.67-34.68,97.46-.23-8.83-5.82-42.99-10.06-42.34-5.45,.84-14.66,63.71-14.66,63.71-10.88-53.92,24.23-118.97,27.05-124.14-32.09,44.33-37.53,95.24-37.53,95.24l-49.88-36.47s-30.03-30.2-19.64-82.16c10.39-51.97,28.9-59.04,28.9-59.04-4.91-.93-10.85-1.36-16.39-.07,0,0-87.61,135.39,5.87,199.94Z"/><path class="cls-94" d="M678.06,314.56c.1,.1,.23,.2,.33,.36,1.19,1.43,2.46,2.52,3.82,3.22,18.88,9.66,69.16,7.13,96.4-16.76,10.35-9.09,18.12-19.98,24.29-31.09,.03-.1,.07-.13,.07-.13,9.89-18.02,15.5-36.73,20.94-49.68,8.79-20.94,16.03-56.02,14.24-76.29-1.66-18.85-5.44-34.78-31.03-56.58-25.55-21.8-88.44-23.06-104.36-1.26-15.93,21.8-15.5,70.85-19.28,81.73-3.78,10.92-17.19,23.89-20.97,38.56-3.45,13.57,.2,88.77,15.56,107.92Z"/><path class="cls-29" d="M677.88,178.62s.82,13.09,11.03,14c8,.71,12.9-11.11,12.9-11.11,0,0,1.42-32.02-2.64-47.79l-3.8-12.58s10.95-11.47,27.3-10.03c16.35,1.44,22.22,18.9,22.22,18.9,0,0-14.51,41.53-12.42,61.56,0,0,10.95,10.47,29.39,9.21,21.34-1.46,32.07-14.16,32.07-14.16,0,0,11.65,13.6,13.87,25.16,2.65,13.81-1.92,57.53-1.92,57.53,0,0,14.67-47.37,18.65-61.2,3.98-13.83,11.32-75.24,6.92-85.72-4.4-10.48-17.1-44.61-71.53-51.33-54.43-6.72-64.54,11.51-64.54,11.51l-5.61,27.04,.03,13.94s-3.81,35.93-5.16,41.97c-1.35,6.04-6.74,13.09-6.74,13.09Z"/><path class="cls-48" d="M689.54,124.94s1.46-18.45,11.95-36.7c0,0,11.65,12.28,30.5,18.85,0,0-8.76-8.13-12.84-14.4,.73,.56,12.44,9.62,28.87,16.63,0,0-4.71-7.23-4.71-10.39s11.95-16.96,25.78-16.66c13.84,.33,40.25,9.42,53.46,34.58,13.17,25.15-.07,27.48-7.3,34.05,0,0,3.62,31.19,2.82,57.28-.27,7.8-.93,15.13-2.16,21.04-.2,.96-.43,1.86-.66,2.72l18.88-17.26s.17-11.52,7.43-28.04c.8-1.89,1.73-3.85,2.75-5.87l.1-.17c.4-.8,.83-1.59,1.26-2.42,4.51-8.43,18.4-24.2,16.4-40.26-1.89-15.1-29.37-28.07-36.08-38.16,0,0,21.07,6.74,31.06,16.79,0,0-1.59-9.46-9.42-14.8-7.8-5.34-14.37-2.02-25.72-6.6-11.38-4.55-26.75-42.74-44.96-57.21-18.25-14.47-60.06-11.61-73.57,0-3.48,2.99-6.07,6.6-8,10.32h-.03v.07c-.03,.07-.07,.1-.07,.17-5.57,10.69-5.74,22.13-5.74,22.13,0,0-7.86,32.22,0,54.32Z"/><path class="cls-104" d="M1000.78,472.41l13.2,4.4s60.36-35.81,79.85-122.91c0,0-15.09-26.11-15.72-35.54-.63-9.43,9.01-29.13,11.95-53.86,2.93-24.73-2.93-43.59-2.52-46.53,.42-2.93,15.51-3.35,19.7,8.8,4.19,12.16-2.1,33.95,0,38.14,2.1,4.19,7.13,11.32,7.13,11.32,0,0,22.22-33.53,28.08-36.89,5.87-3.35,15.09,13.08,19.28,13.87,4.19,.8,19.49-20.37,34.27-32.63,14.78-12.26,42.44-38.04,45.27-37.41,2.83,.63,6.6,5.66,5.97,10.69-.63,5.03-12.58,27.04-30.81,35.84,0,0-22.01,15.09-33.64,35.52,0,0,5.03,8.49,8.49,8.8,3.46,.31,23.26-12.89,38.98-19.18,15.72-6.29,30.18-10.37,32.7-9.43,2.52,.94,1.57,6.6,0,10.37-1.57,3.77-15.72,14.78-31.12,18.55,0,0-22.95,9.12-30.49,18.55,0,0,.94,9.43,3.46,11,2.52,1.57,21.38-1.26,33.01-2.83,11.63-1.57,25.11,.31,26.7,1.89s.33,6.92-9.1,10.37c-9.43,3.46-20.75,1.26-22.64,1.57-1.89,.31-36.15,11-40.24,13.52-4.09,2.52-22.02,29.3-34.91,37.48-12.89,8.17-31.43,4.02-31.43,4.02,0,0-20.64,115.9-30.7,162.01-10.06,46.11-48.62,93.89-82.16,95.99,0,0-30.18-11.74-31.86-73.77-1.68-62.04,19.28-81.74,19.28-81.74Z"/><path class="cls-69" d="M637.38,601.1s12.54,65.61-3.78,136.65c0,0-10.05,6.9-11.32,15.7,0,0,0,.07-.03,.17-1.19,8.76,.66,16.82,.66,16.82,0,0-4.41,4.41-8.2,10.69-.7,1.19-1.1,2.59-1.23,4.11-.6,6.5,3.12,14.73,3.12,14.73,0,0,7.57,19.51,86.15,26.41,78.58,6.94,139.57,22,139.57,22,0,0,4.75-15.7-3.92-27.64,0,0,13.37-11.95,12.74-16.36-.63-4.41-29.57-54.69-22.03-89.9,7.57-35.21,35.84-63.78,51.57-132.5,0,0,10.49-3.52,11.12-8.56,.63-5.01-4.61-13.21-4.61-13.21l-1.89,3.58s-35.84-20.54-26.18-107.32c9.62-86.78,19.81-92.05,37.76-89.63,0,0-14.3-13.24-17.65-12.94-3.35,.3-4.61,6.47-4.61,6.47,0,0-11.22,4.61-24.42,0s-22.07-13.41-22.07-13.41c0,0-79.62,67.42-114.56,63.28-39.87-4.71-11.75-48.37-11.75-48.37,0,0-25.04,4.89-38.45,8.01-13.44,3.15-18.45,0-18.45,0,0,0-7.96-11.85-18.45-3.92-10.49,7.9-23.46,51.5-19.28,121.92,4.18,70.42,30.2,113.19,30.2,113.19Z"/><path class="cls-91" d="M773.41,177.21s2.12,6.44,1.02,12.26c-1.1,5.82-22.03,11.49-31.96,2.68-9.93-8.81,30.94-14.94,30.94-14.94Z"/><path class="cls-66" d="M353.15,472.41c25.98,69.59,97.26,217.56,97.26,217.56,93.88,18.02,181.92,2.92,181.92,2.92l5.04-8.13c-32.69-98.89-103.14-227.84-103.14-227.84-86.35-4.61-177.74,9.19-177.74,9.19l-3.35,6.31Z"/><path class="cls-5" d="M436.37,577.11s3.98,46.73-6.92,68.68l-42.87-93.53,20.4,4.8-2.68,9.45s16.98-.81,32.07,10.6Z"/><path class="cls-53" d="M389.63,552.26s-6.83,5.42-8.17,9.85c-1.47,4.82-3.35,16.94,10.69,20.75l6.29,1.68s-4.61,2.1-5.45,5.24c-.84,3.14,4.4,10.06,12.78,11.74,8.38,1.68,22.43-1.68,26.62-5.45,4.19-3.77,1.47-9.01-4.82-10.48,0,0,9.22-2.07,8.8-8.48-.42-6.4-21.59-13.32-44.01-11.22l-2.72-13.62Z"/><path class="cls-91" d="M699.8,183.44s-3.39,5.4-10.89,3.82c-7.51-1.58-6.8-14.61-5.44-19.17,1.36-4.56,16.22,11.13,16.33,15.35Z"/><path class="cls-89" d="M372.65,520.38s-11.32,10.5-11.32,17.73,16.66,16.35,45.27,19.91c0,0,2.67-5.55,0-11.53-2.67-5.97-16.98-14.36-28.77-16.24l-5.19-9.87Z"/><path class="cls-77" d="M405.62,605.71s19.43-1.89,17.75,15.87c0,0-10.87,1.53-18.84-.78-7.96-2.31-6.92-8.38-6.29-10.48,.63-2.1,1.33-3.77,7.37-4.61Z"/><path class="cls-82" d="M794.86,164.32s-1.58-10.13-11.47-20.38c-7.13-7.38-20.9-14.83-30.55-18.6,0,0-1.47,3.14-1.47,9.01,0,0-1.57-5.55-2.93-10.79,0,0-2.15,5.24-1.52,15.46,0,0,8.45,2.98,22.32,6.76,17.29,4.72,25.62,18.55,25.62,18.55Z"/><path class="cls-70" d="M701.81,177.21s0-26.51-7.7-27.98c-6.45-1.23-9.48,13.75-9.48,13.75l17.18,14.23Z"/><path class="cls-70" d="M774.43,184.75s.26-18.62-14.99-25.22c-15.25-6.6-20.53,14.8-20.53,14.8l35.52,10.42Z"/><path class="cls-71" d="M737.33,184.74c.43,3.88,5.67,10.82,16.99,10.82,10.05,0,20.14-5.04,20.11-10.82,0-2.02-.53-4.21-1.46-6.44-2.02-4.88-6.11-9.72-11.08-12.61-3.32-1.96-7.07-3.02-10.92-2.62-12.18,1.26-14.04,17.82-13.64,21.67Z"/><path class="cls-62" d="M683.27,171.56c-.17,8.63,3.58,15.2,10.15,15.07,2.75-.07,4.45-.83,5.64-2.16,1-1.13,1.59-2.69,2.09-4.58,.23-.83,.46-1.73,.66-2.69,0,0-.7-8.13-2.85-14.77-.5-1.46-1.03-2.82-1.63-3.98-1.06-2.09-2.36-3.65-3.92-4.18-5.11-1.86-10.02,8.63-10.15,17.29Z"/><path class="cls-93" d="M1161.74,253.23s9.45,12.76,20.85,33.3c9.3,16.75,9.96,41.9,9.96,41.9,0,0,13.2-5.97,20.43-7.55,7.23-1.57-17.62-39.93-17.62-39.93l-28.23-31.1-5.4,3.37Z"/><path class="cls-92" d="M746.82,178.63c0,7.23,5.84,13.07,13.07,13.07s13.11-5.84,13.11-13.07c0-.1,0-.23-.03-.33-2.02-4.88-6.11-9.72-11.08-12.61-.63-.1-1.33-.17-1.99-.17-7.23,0-13.07,5.87-13.07,13.11Z"/><path class="cls-72" d="M750.84,178.62c0,5.01,4.06,9.07,9.07,9.07s9.07-4.06,9.07-9.07-4.06-9.07-9.07-9.07-9.07,4.06-9.07,9.07Z"/><path class="cls-78" d="M688.91,171.53c0,7.23,3.98,13.07,8.89,13.07,.43,0,.86-.03,1.26-.13,1-1.13,1.59-2.69,2.09-4.58,.23-.83,.46-1.73,.66-2.69,0,0-.7-8.13-2.85-14.77-.5-1.46-1.03-2.82-1.63-3.98-4.71,.36-8.43,6.07-8.43,13.07Z"/><path class="cls-42" d="M1231.85,274.35s-8.8,3.14-12.73,2.2c-3.93-.94-5.97-9.5-5.97-10.56s11.27-8.57,11.27-8.57l-14.25,7.19-13.99-16.5s7.83-10.15,18.94-17.44c0,0-11.4,6.9-14.86,4.39-3.46-2.52-4.9-7.23-4.89-9.59,.02-2.36,11.66-14.32,11.66-14.32,0,0-17.55,14.36-19,16.78-1.45,2.42,8.3,37.28,8.3,37.28l18.95,17.14s11.39-5.32,16.58-7.99Z"/><path class="cls-47" d="M692.59,171.53c0,5.01,2.75,9.06,6.17,9.06,.83,0,1.66-.27,2.39-.7,.23-.83,.46-1.73,.66-2.69,0,0-.7-8.13-2.85-14.77h-.2c-3.42,0-6.17,4.08-6.17,9.09Z"/><path class="cls-91" d="M698.66,125.14s7.03,37.29,3.15,56.36c0,0,2.26-28.68-6.44-49.11l3.29-7.26Z"/><path class="cls-43" d="M700.03,139.17s-.84-12.58-2.72-23.26l-1.26,4.4-3.66-9.19s-9.44,5.73-3.66,18.07c0,0,6.06-.7,11.3,9.99Z"/><path class="cls-91" d="M736.6,230.44s-.79,8.52-16.51,13.34c-15.72,4.82-29.15,1.86-34.04-3.59,0,0,5.06,6.08,14.29,7.75,9.22,1.68,23.18-.5,29.76-5.55,7.23-5.55,8.7-10.48,8.7-10.48l-2.2-1.47Z"/><path class="cls-32" d="M743.41,234.06s-7.65-3.93-14.46-5.08c0,0,7.23-1.36,10.58-.52,3.35,.84,3.88,5.6,3.88,5.6Z"/><g><path class="cls-40" d="M727.27,210.85s-10.9,0-20.96,.63c-10.06,.63-19.29-.63-23.06-3.35,0,0-.62,11.74,11.95,18.86,0,0,5.03,1.89,10.27,0,0,0,4.82-5.24,13.83-6.92,0,0,8.38-2.52,7.96-9.22Z"/><path class="cls-80" d="M707.36,191.71c12.99,1.82,19.91,19.14,19.91,19.14l-24.52,4.19c-11.11-.63-19.5-6.92-19.5-6.92,0,0,11.11-18.23,24.11-16.42Z"/><path class="cls-67" d="M720.09,219.77s-1.23-1.14-5.24-.9c-4.01,.24-7.83,6.73-7.83,6.73,0,0,4.16-3.82,13.07-5.83Z"/></g><g><path class="cls-84" d="M1168.94,187.62l40.79,75.85s10.53,43.94,30.03,61.22c0,0,2.26,8.42-3.39,21.1l-85.83-159.61s10.24-4.37,18.4,1.44Z"/><path class="cls-86" d="M1141.58,202.33l40.79,75.85s30.85,33.01,34.52,58.81c0,0,5.78,6.53,19.47,8.8l-85.83-159.61s-9.29,6.13-8.95,16.15Z"/><path class="cls-74" d="M1237.97,341.71l-5.9,3.17s5.01,6.33,6.72,5.42c1.7-.92-.82-8.59-.82-8.59Z"/><path class="cls-24" d="M1239.75,324.7l-22.86,12.3s-2.65-22.1-34.52-58.81l27.35-14.71s6.33,34.01,30.03,61.22Z"/></g><path class="cls-68" d="M1135.76,246.33s13.41-16.62,25.14-35.06c11.74-18.44,32.9-48.2,40.14-45.06,7.23,3.14,.94,22.01-5.66,33.95-6.6,11.95-15.09,16.35-18.86,22.64-3.77,6.29-14.78,30.43-14.78,30.43,0,0-17.07,4.06-25.98-6.9Z"/><path class="cls-26" d="M510.26,697.53s5.33,25.43,3.02,27.01c-2.31,1.57-14.57-27.91-14.57-27.91l11.55,.9Z"/><path class="cls-85" d="M587.49,1245.76l1.65-.17c-.09-.87-10.03-87.68-115.67-119.16-57.8-17.22-96.22-57.27-105.43-109.89-9.11-52.03,12.85-106.21,55.93-138.03,84.25-62.22,90.1-153.02,90.15-153.93l-1.66-.09c-.05,.9-5.88,90.95-89.47,152.68-43.59,32.19-65.79,87-56.58,139.65,9.32,53.26,48.17,93.79,106.59,111.19,104.59,31.16,114.41,116.87,114.49,117.74Z"/><path class="cls-25" d="M817.22,225.83s20.77-20.69,33.18-8.99c14.73,13.89,4.31,44.5-11.98,57.72-14.16,11.48-29.41,8.44-32.55-5.24,0,0-4.32-30.88,11.35-43.49Z"/><path class="cls-91" d="M817.75,245.31s12.23-14.34,22.32-10.65c10.09,3.69,7.19,19.77,7.19,19.77,0,0-.12-11.76-6.66-13.53-6.54-1.76-10.56,6.7-10.56,6.7,0,0,3.5,.29,3.38,10.2-.12,9.91-11.7,19.13-16.29,12.14-4.59-7,.63-24.63,.63-24.63Z"/><path class="cls-19" d="M744.88,179.41c0,1.22,.99,2.2,2.2,2.2s2.2-.99,2.2-2.2-.99-2.2-2.2-2.2-2.2,.99-2.2,2.2Z"/><path class="cls-19" d="M686.05,171.77c0,1.23,.99,2.22,2.22,2.22s2.22-.99,2.22-2.22-.99-2.22-2.22-2.22-2.22,.99-2.22,2.22Z"/><path class="cls-20" d="M795.75,303.75s-32.67,63.45-89.56,57.79c0,0,5.08-22.25,4.52-38.13,0,0,26.5-.7,46.13-8.84,22.12-9.17,38.88-32.65,38.88-32.65l.02,21.82Z"/><path class="cls-98" d="M1135.76,338.69c15.43,4.41,44.1-9.16,46.61-22.22,2.51-13.06-16.86-48.41-34.15-46.21s-25.6,14.95-22.01,26.41c4.12,13.14,.74,39.51,9.54,42.02Z"/><path class="cls-28" d="M1114.38,276.24s17.19,28.61,15.61,52.19c0,0,4.51-34.15-11.52-58.26l-4.09,6.07Z"/><path class="cls-30" d="M1126.22,369.92s-16.03-3.14-22.64-7.86l18.89,28.65s2.51-11.44,3.74-20.79Z"/><path class="cls-61" d="M1013.98,476.81s-11.2,13.23-18.65,65.18c-7.45,51.95,13.04,82.94,13.04,82.94,0,0-20.77-3.93-26.96-64.71-6.19-60.78,19.38-87.82,19.38-87.82l13.2,4.4Z"/><path class="cls-9" d="M616.6,799.98s7.57,19.51,86.15,26.41c78.58,6.94,139.57,22,139.57,22,0,0,4.75-15.7-3.92-27.64,0,0,13.37-11.95,12.74-16.36-.63-4.41-29.57-54.69-22.03-89.9,7.57-35.21,35.84-63.78,51.57-132.5,0,0,10.49-3.52,11.12-8.56,.63-5.01-4.61-13.21-4.61-13.21l-1.89,3.58s-35.84-20.54-26.18-107.32c9.62-86.78,19.81-92.05,37.76-89.63,0,0-14.3-13.24-17.65-12.94,0,0-21.3,16.01-36,102.05-12.31,72.07-32.78,117.05-32.78,117.05,0,0-40.31,15.09-87.57,13.52-47.2-1.57-42.39-7.53-83.84-4.54,0,0,89.5,9.56,123.45,15.7,33.95,6.14,64.94,19.02,64.94,19.02,0,0-28.76,66.98-24.06,111.61,3.36,31.95,15.08,58.65,15.08,58.65,0,0-5.92,2.33-63.63-.16-57.71-2.52-132.54-33.35-132.54-33.35,0,0,0,.07-.03,.17-.23,1.29-1.66,10.12,.66,16.82,0,0,57.64,12.58,110.87,22.63,53.23,10.05,84.65,26.41,84.65,26.41,0,0-10.87,6.09-93.79-2.94-82.93-8.99-106.9-14.52-111.12-31.37l-.03,.07c-.6,6.5,3.12,14.73,3.12,14.73Z"/><path class="cls-12" d="M838.42,601.15s-9.84-13.12-32.55-16.82c-22.71-3.7-58.74,5.07-80.9,5.03,0,0,61.96,11.74,85.47,15.09,23.51,3.35,27.98-3.3,27.98-3.3Z"/><path class="cls-11" d="M644.91,369.91s-22.64,39.63-26.83,124.3c0,0-3.76-66.94,19.29-130.3,0,0,3.61,.95,7.54,6Z"/><path class="cls-13" d="M648.05,405.55s6.88,49.73,60.66,120.94c0,0-35.19-28.52-47.54-56.17-13.11-29.34-13.11-64.77-13.11-64.77Z"/><path class="cls-6" d="M781.69,724.6s-15.65,25.3-49.6,31.59c-33.95,6.29-79.22-5.45-79.22-5.45,0,0,43.59,7.55,76.29-3.35,32.7-10.9,52.53-22.78,52.53-22.78Z"/><path class="cls-15" d="M893.26,528.99s-25.45-10.51-35.25-29.56c0,0,1.51,47.2,27.29,64.37,0,0,6.43-19.11,7.96-34.81Z"/><path class="cls-41" d="M353.15,472.41c127.03-16.36,178.66-8.79,178.66-8.79,45.44,77.8,100.52,229.27,100.52,229.27l5.04-8.13c-32.69-98.89-103.14-227.84-103.14-227.84-86.35-4.61-177.74,9.19-177.74,9.19l-3.35,6.31Z"/><path class="cls-95" d="M398.43,584.54s16.56,1.89,29.13,1.05c0,0-17.3,3.15-31.28,.21l2.15-1.26Z"/><path class="cls-8" d="M827.69,376.54c-.07,.27-.17,.5-.27,.76,.13-.36,.23-.63,.27-.76Z"/><path class="cls-51" d="M580.83,563.96l-136.82,112.62,6.4,13.39s86.35,17.8,181.92,2.92l5.04-8.13s-30.86-82.54-51.57-125.37l-4.97,4.57Z"/><path class="cls-27" d="M701.81,361.9l4.39-.36s-9.07,14.51-10.96,26.46c-1.89,11.95,6.03,19.63,18.32,22.26,0,0-19.78-1.15-22.3-14.77-2.52-13.62,10.55-33.6,10.55-33.6Z"/><path class="cls-54" d="M842.66,114.45s21.08,12.15,21.71,28.18c.63,16.03-12.93,26.37-12.93,26.37l-1.85-8.66s-10.37,1.69-20.12-1.88c-9.75-3.57-14.24-7.57-14.24-7.57,0,0,12.39-7.29,12.68-19.41,.3-12.12-21.14-33.98-21.14-33.98l19.21,2.25s12.25,9.78,16.67,14.7Z"/><path class="cls-10" d="M1129.3,364.92s-19.31-20.95-23.2-35.62c-3.89-14.67,11.6-21.8,11.6-21.8,0,0-5.48,6.1-4.41,20.12,1.07,14.02,16.01,37.3,16.01,37.3Z"/><path class="cls-7" d="M834.12,214.67l-33.67-28.04s-1.27,26.63-24.54,31.34c-23.27,4.72-40.61-2.89-46.97-17.58-6.36-14.69-7.54-35.1-7.54-35.1,0,0-1.55-2.37-8.99-2.3s-10.61,2.99-10.61,2.99v-12.66s15.42-2.39,22.1,3.05c0,0-2.29,40.82,12.26,50.92,14.55,10.1,26.89,11.41,42.48,3.5,12.05-6.11,17.09-25.55,13.37-36.8l11.3,2.27,32.27,37.91-1.47,.5Z"/><g><path class="cls-60" d="M726.59,153.64c6.37-8.46,50.64-.47,63.06,13.28,12.42,13.75-3.5,40.95-23.2,44.84-23.04,4.54-33.85-2.9-40.24-12.63-6.74-10.27-5.38-37.82,.38-45.48Zm.29,40.74c5.18,14.32,24.24,19.15,40.29,14.88,9.89-2.63,26.76-17.98,22.99-35.27-3.77-17.29-54.98-24.75-61.22-18.16-5.04,5.32-7.24,24.23-2.06,38.55Z"/><path class="cls-18" d="M725.4,153.5c6.37-8.46,50.64-.47,63.06,13.28,12.42,13.75-3.5,40.95-23.2,44.84-23.04,4.54-33.85-2.9-40.24-12.63-6.74-10.27-5.38-37.82,.38-45.48Zm.29,40.74c5.18,14.32,24.24,19.15,40.29,14.88,9.89-2.63,26.76-17.98,22.99-35.27-3.77-17.29-54.98-24.75-61.22-18.16-5.04,5.32-7.24,24.23-2.06,38.55Z"/><path class="cls-103" d="M670.72,149.16c3.77-6.22,25.31-3.84,30.68,0,3.48,2.49,1.59,32.66-7.96,45.34-6.03,8.01-14.59,6.11-17.17,4.3-7.13-5.03-9.33-43.42-5.55-49.64Zm3.04,41.15c2.95,8.18,10.27,10.08,17.45,3.44,6.45-5.98,12.15-35.24,7.97-41.59-3.49-5.29-21.08-6.9-26.11-1.35-5.03,5.55-2.74,30,.69,39.51Z"/><path class="cls-63" d="M669.38,149.16c3.77-6.22,25.31-3.84,30.68,0,3.48,2.49,1.59,32.66-7.96,45.34-6.03,8.01-14.59,6.11-17.17,4.3-7.13-5.03-9.33-43.42-5.55-49.64Zm3.04,41.15c2.95,8.18,10.27,10.08,17.45,3.44,6.45-5.98,12.15-35.24,7.97-41.59-3.49-5.29-21.08-6.9-26.11-1.35-5.03,5.55-2.73,30,.69,39.51Z"/><path class="cls-65" d="M723.25,157.78s-9.67-7.22-21.61-2.05c0,0,.23-2.56-.53-4.38,0,0,8.51-2.53,24.95,1.45,0,0-2.24,3.46-2.81,4.98Z"/><path class="cls-102" d="M792.02,170.35l11.3,3.65,36.82,39.31s-1.25-.36-4.55,.87l-32.99-34.9s-5.44-2.86-9.27-2.06c0,0,.16-4.53-1.31-6.86Z"/><polygon class="cls-75" points="807.66 178.62 807.33 184.27 814.88 192.26 815.23 186.71 807.66 178.62"/><path class="cls-50" d="M723.16,152.15l-1.93,2.02s-5.71-1.27-11.16-1.32c-5.45-.05-6.81,.61-6.81,.61l-1.44-2.28s9.65-2.09,21.34,.97Z"/><path class="cls-50" d="M696.81,147.6l-1.17,1.56s-7.66-4.52-20.16-1.56l.33-1.77s10.47-1.91,21.01,1.77Z"/><path class="cls-50" d="M744.88,152.33l-.59-1.77s-14.12-1.48-17.96,2.44c-3.84,3.92-4.91,12.28-4.91,12.28l1.75,.24s1.34-8.86,5.61-11.47c4.37-2.67,16.1-1.73,16.1-1.73Z"/><path class="cls-49" d="M775.91,203.7s-7.42,9.27-24.4,7.85c-16.98-1.41-24.23-13.9-24.23-13.9,0,0,8.01,12.57,24.61,13.1,16.6,.52,24.02-7.05,24.02-7.05Z"/><path class="cls-49" d="M689.87,193.74s-4.61,5.16-9.8,4.45c-5.19-.71-7.13-6.61-7.13-6.61,0,0,2.96,6.03,8.46,5.71,5.5-.31,8.46-3.55,8.46-3.55Z"/><path class="cls-52" d="M757.86,210.62s-1.32,.99-4.99,1.08c-3.67,.09-7.53-1.83-7.53-1.83,0,0,7.23,1.2,12.51,.74Z"/><path class="cls-52" d="M685.96,196.71s-4.07,1.46-7.34,0c-3.26-1.46-3.98-2.66-3.98-2.66,0,0,.12,3.73,4.13,4.22,4.01,.48,7.18-1.55,7.18-1.55Z"/><path class="cls-49" d="M770.83,207.86s.63-13.6-15.49-23.1c-16.13-9.5-30.99-1.42-30.99-1.42,0,0-.51,11.84,8.17,19.97,8.68,8.13,27.59,8.59,38.32,4.55Z"/><path class="cls-49" d="M693.22,188.54s-10.86-13.84-23.07-18.19c0,0,.26,18.74,4.5,23.7,4.24,4.96,12.32,6.59,18.57-5.51Z"/><path class="cls-64" d="M788.51,178.2s-1.73,11.01-8.02,16.94l-6.34-1.51s4.92-19.04,5.03-28.52c0,0,8.07,4.82,9.33,13.09Z"/></g><path class="cls-73" d="M678.39,314.92c1.19,1.43,2.46,2.52,3.82,3.22,18.88,9.66,69.16,7.13,96.4-16.76,10.35-9.09,18.12-19.98,24.29-31.09-1.33,1.69-15.24,25.5-48.19,38.65-34.45,13.71-73.89,9.44-76.32,5.99Z"/></g></g></svg>